<svg 
 xmlns="http://www.w3.org/2000/svg"
 xmlns:xlink="http://www.w3.org/1999/xlink"
 width="34px" height="35px">
<path fill-rule="evenodd"  fill="rgb(255, 255, 255)"
 d="M33.910,16.641 L28.572,16.933 C29.566,17.605 30.209,18.630 30.209,19.780 L30.209,24.985 C30.209,26.466 29.148,27.739 27.626,28.322 L27.626,31.566 C27.626,32.749 26.182,33.709 24.399,33.709 C22.617,33.709 21.171,32.748 21.171,31.566 L21.171,28.657 L10.569,28.657 L10.566,24.064 L20.393,24.064 L20.393,22.840 L10.566,22.840 L10.566,24.063 L10.418,24.063 L10.418,22.839 L10.566,22.839 L10.565,22.483 L20.494,22.483 L20.494,21.260 L10.565,21.260 L10.565,22.483 L10.519,22.483 L10.519,21.260 L10.564,21.260 L10.560,15.793 L26.589,15.793 C26.677,15.793 26.763,15.802 26.850,15.804 L25.468,10.197 C25.037,8.352 23.464,7.235 21.747,7.235 L13.468,7.235 C13.560,6.934 13.633,6.627 13.679,6.310 L21.237,6.310 C24.179,6.207 26.197,8.199 26.668,10.903 L27.956,16.584 C28.075,16.636 28.187,16.699 28.299,16.764 L28.599,14.040 C28.599,14.040 33.695,12.126 33.910,14.040 C34.124,15.953 33.910,16.641 33.910,16.641 ZM27.795,21.172 L21.969,21.172 L21.969,23.973 L27.795,23.973 L27.795,21.172 ZM9.340,11.000 L9.352,32.010 C9.346,33.664 8.025,34.999 6.399,34.999 C5.581,34.995 4.843,34.666 4.309,34.124 C3.773,33.583 3.445,32.835 3.445,32.009 L3.445,11.160 L3.445,11.133 C1.409,10.085 0.012,7.949 0.012,5.485 C0.014,3.136 1.280,1.089 3.157,-0.002 L3.157,5.061 L6.272,6.884 L9.384,5.067 L9.384,-0.002 C11.265,1.089 12.527,3.136 12.533,5.485 C12.530,7.850 11.246,9.915 9.340,11.000 ZM7.047,31.719 C6.611,31.277 5.897,31.277 5.454,31.722 C5.015,32.168 5.014,32.888 5.450,33.332 C5.894,33.780 6.610,33.780 7.049,33.333 C7.490,32.887 7.490,32.166 7.047,31.719 Z"/>
</svg>