<svg 
 xmlns="http://www.w3.org/2000/svg"
 xmlns:xlink="http://www.w3.org/1999/xlink"
 width="26px" height="26px">
<path fill-rule="evenodd"  fill="rgb(255, 255, 255)"
 d="M13.000,0.505 C6.099,0.505 0.505,6.099 0.505,12.999 C0.505,19.900 6.099,25.495 13.000,25.495 C19.900,25.495 25.495,19.900 25.495,12.999 C25.495,6.099 19.900,0.505 13.000,0.505 ZM18.402,15.376 L13.104,15.376 C13.086,15.376 13.070,15.372 13.052,15.371 C13.034,15.372 13.018,15.376 13.000,15.376 C12.522,15.376 12.135,14.989 12.135,14.512 L12.135,5.690 C12.135,5.213 12.522,4.826 13.000,4.826 C13.477,4.826 13.864,5.213 13.864,5.690 L13.864,13.648 L18.401,13.648 C18.878,13.648 19.265,14.035 19.265,14.512 C19.265,14.989 18.879,15.376 18.402,15.376 Z"/>
</svg>