<svg 
 xmlns="http://www.w3.org/2000/svg"
 xmlns:xlink="http://www.w3.org/1999/xlink"
 width="81px" height="50px">
<path fill-rule="evenodd"  fill="rgb(255, 255, 255)"
 d="M75.979,15.962 C75.924,15.903 75.879,15.845 75.815,15.787 L72.976,13.203 C75.330,12.700 77.865,10.840 77.865,8.931 C77.865,6.708 74.594,5.919 71.801,5.919 C68.883,5.919 68.543,7.806 68.508,9.139 L61.185,2.480 C59.697,1.091 56.875,-0.003 54.766,-0.003 L40.502,-0.003 L40.498,-0.003 L26.232,-0.003 C24.124,-0.003 21.304,1.091 19.814,2.480 L12.493,9.139 C12.455,7.806 12.116,5.919 9.200,5.919 C6.404,5.919 3.134,6.708 3.134,8.931 C3.134,10.840 5.671,12.700 8.024,13.203 L5.186,15.787 C5.122,15.845 5.076,15.903 5.021,15.962 C1.984,18.411 -0.000,22.950 -0.000,26.246 L-0.000,36.037 C-0.000,38.415 0.994,40.571 2.598,42.179 L2.598,45.973 C2.598,48.193 4.570,50.004 6.993,50.004 L12.306,50.004 C14.730,50.004 16.698,48.196 16.698,45.973 L16.698,45.002 L40.498,45.002 L40.502,45.002 L64.301,45.002 L64.301,45.973 C64.301,48.196 66.269,50.004 68.695,50.004 L74.007,50.004 C76.431,50.004 78.399,48.193 78.399,45.973 L78.399,42.179 C80.005,40.571 80.998,38.415 80.998,36.037 L80.998,26.246 C81.000,22.950 79.016,18.411 75.979,15.962 ZM22.504,5.439 C23.534,4.630 25.335,4.016 26.232,4.016 L40.498,4.016 L40.502,4.016 L54.768,4.016 C55.666,4.016 57.465,4.630 58.496,5.439 L68.098,14.217 L40.502,14.217 L40.498,14.217 L12.903,14.217 L22.504,5.439 ZM3.295,24.764 C3.295,22.352 5.295,20.396 7.764,20.396 C10.233,20.396 18.298,24.862 18.298,27.272 C18.298,29.683 10.233,29.127 7.764,29.127 C5.295,29.127 3.295,27.175 3.295,24.764 ZM16.700,40.708 L15.848,40.708 L14.997,40.708 L9.947,40.716 C8.545,40.306 7.556,39.823 6.857,39.307 C6.504,39.047 6.232,38.776 6.021,38.506 C5.808,38.235 5.652,37.967 5.551,37.699 C4.923,36.024 6.221,34.485 6.221,34.485 L14.840,34.485 L20.587,40.707 L16.700,40.707 L16.700,40.708 ZM52.894,40.711 L40.502,40.711 L40.498,40.711 L28.106,40.711 C25.523,40.711 23.425,38.735 23.425,36.297 L40.498,36.297 L40.502,36.297 L57.575,36.297 C57.575,38.735 55.477,40.711 52.894,40.711 ZM53.982,33.287 L40.502,33.287 L40.498,33.287 L27.019,33.287 C24.208,33.287 21.927,30.017 21.927,25.987 L40.498,25.987 L40.502,25.987 L59.073,25.987 C59.073,30.019 56.791,33.287 53.982,33.287 ZM75.450,37.699 C75.348,37.967 75.191,38.237 74.978,38.508 C74.768,38.778 74.497,39.048 74.142,39.309 C73.445,39.825 72.455,40.309 71.052,40.717 L66.002,40.710 L65.152,40.710 L64.301,40.710 L60.412,40.710 L66.161,34.488 L74.778,34.488 C74.778,34.486 76.076,36.024 75.450,37.699 ZM73.235,29.127 C70.768,29.127 62.703,29.681 62.703,27.272 C62.703,24.864 70.768,20.396 73.235,20.396 C75.705,20.396 77.705,22.352 77.705,24.764 C77.705,27.175 75.705,29.127 73.235,29.127 Z"/>
</svg>