<svg 
 xmlns="http://www.w3.org/2000/svg"
 xmlns:xlink="http://www.w3.org/1999/xlink"
 width="81px" height="50px">
<path fill-rule="evenodd"  fill="rgb(255, 255, 255)"
 d="M78.425,13.619 C78.153,13.619 77.874,13.657 77.595,13.734 L74.438,14.601 L71.161,6.639 C70.232,4.384 67.488,2.549 65.043,2.549 L34.369,2.549 C31.924,2.549 29.180,4.384 28.251,6.639 L25.803,12.588 C25.839,12.193 25.859,11.795 25.859,11.393 C25.859,6.779 23.361,2.488 19.340,0.194 C19.126,0.073 18.878,0.008 18.623,0.008 C17.812,0.008 17.201,0.639 17.201,1.471 C17.201,1.471 17.176,7.925 17.176,10.077 C17.176,10.303 16.906,10.571 16.793,10.652 L16.712,10.713 C15.418,11.786 13.787,12.996 13.065,13.369 C13.020,13.369 12.976,13.368 12.929,13.368 C12.880,13.368 12.833,13.369 12.784,13.369 C12.053,12.995 10.395,11.765 9.082,10.670 L9.000,10.609 C8.996,10.607 8.682,10.355 8.682,9.870 C8.682,7.631 8.659,1.476 8.659,1.476 C8.658,0.506 7.961,-0.001 7.274,-0.001 C7.008,-0.001 6.733,0.072 6.499,0.206 C2.490,2.503 -0.000,6.789 -0.000,11.393 C-0.000,16.793 3.347,21.425 8.080,23.342 L8.079,45.296 C8.079,47.890 10.195,49.999 12.795,49.999 L13.063,49.999 C15.664,49.999 17.779,47.890 17.779,45.296 L17.780,23.351 C19.367,22.710 20.825,21.754 22.072,20.510 C22.375,20.208 22.660,19.894 22.929,19.569 L21.609,22.775 C20.746,24.870 20.044,28.418 20.044,30.684 L20.044,46.500 C20.044,48.328 21.535,49.815 23.368,49.815 L27.709,49.815 C29.542,49.815 31.033,48.329 31.033,46.500 L31.033,42.551 L68.380,42.551 L68.380,46.500 C68.380,48.328 69.871,49.815 71.704,49.815 L76.044,49.815 C77.877,49.815 79.368,48.329 79.368,46.500 L79.368,30.684 C79.368,28.418 78.666,24.870 77.804,22.775 L77.274,21.490 L77.676,21.490 C79.508,21.490 81.000,20.003 81.000,18.175 L81.000,16.320 C81.000,14.755 79.917,13.619 78.425,13.619 ZM27.362,19.690 L32.320,7.648 C32.875,6.299 34.526,5.194 35.989,5.194 L63.425,5.194 C64.887,5.194 66.538,6.299 67.093,7.648 L72.051,19.690 C72.607,21.040 71.864,22.144 70.402,22.144 L29.011,22.144 C27.549,22.144 26.807,21.040 27.362,19.690 ZM38.430,34.923 C38.430,35.652 37.831,36.249 37.100,36.249 L27.682,36.249 C26.951,36.249 26.352,35.652 26.352,34.923 L26.352,30.415 C26.352,29.687 26.951,29.090 27.682,29.090 L37.100,29.090 C37.831,29.090 38.430,29.686 38.430,30.415 L38.430,34.923 ZM72.971,34.923 C72.971,35.652 72.373,36.249 71.642,36.249 L62.224,36.249 C61.493,36.249 60.895,35.652 60.895,34.923 L60.895,30.415 C60.895,29.687 61.493,29.090 62.224,29.090 L71.642,29.090 C72.373,29.090 72.971,29.686 72.971,30.415 L72.971,34.923 Z"/>
</svg>