<svg 
 xmlns="http://www.w3.org/2000/svg"
 xmlns:xlink="http://www.w3.org/1999/xlink"
 width="29px" height="35px">
<path fill-rule="evenodd"  fill="rgb(255, 255, 255)"
 d="M11.757,34.875 C-9.382,33.332 2.735,12.056 11.356,7.819 C8.466,5.945 6.619,1.645 7.695,0.463 C9.018,-0.990 11.375,1.618 13.539,1.357 C15.065,1.131 18.221,-0.154 19.675,0.139 C20.769,0.360 18.992,5.396 16.331,7.632 C26.360,11.762 41.006,37.012 11.757,34.875 ZM15.229,15.728 L15.229,15.658 L15.229,14.781 C15.229,14.449 15.030,14.139 14.728,14.000 C14.422,13.859 14.051,13.914 13.799,14.137 C13.615,14.299 13.508,14.536 13.508,14.781 L13.508,15.658 L13.508,15.733 C12.664,15.852 11.822,16.178 11.188,16.761 C10.892,17.034 10.651,17.363 10.483,17.730 C10.303,18.122 10.222,18.547 10.225,18.977 C10.228,19.401 10.305,19.827 10.491,20.210 C10.667,20.572 10.936,20.878 11.252,21.125 C11.904,21.631 12.719,21.895 13.508,22.100 L13.508,25.504 C13.105,25.391 12.717,25.201 12.413,24.909 C12.266,24.766 12.138,24.602 12.036,24.424 C11.984,24.334 11.940,24.240 11.903,24.142 C11.867,24.044 11.844,23.942 11.812,23.843 C11.705,23.521 11.409,23.286 11.072,23.256 C10.728,23.226 10.392,23.410 10.233,23.715 C10.155,23.864 10.122,24.034 10.139,24.200 C10.149,24.300 10.179,24.396 10.207,24.492 C10.238,24.596 10.274,24.701 10.314,24.803 C10.468,25.194 10.690,25.556 10.963,25.875 C11.510,26.516 12.260,26.948 13.067,27.170 C13.213,27.210 13.360,27.244 13.508,27.271 L13.508,28.273 C13.508,28.606 13.707,28.916 14.009,29.056 C14.315,29.196 14.686,29.142 14.938,28.918 C15.122,28.755 15.229,28.519 15.229,28.273 L15.229,27.357 C16.093,27.286 16.963,27.036 17.657,26.500 C18.314,25.990 18.753,25.241 18.843,24.411 C18.911,23.785 18.808,23.126 18.496,22.576 C18.556,22.682 18.614,22.782 18.494,22.571 C18.371,22.357 18.431,22.461 18.492,22.568 C18.099,21.882 17.418,21.447 16.698,21.164 C16.222,20.976 15.725,20.846 15.229,20.727 L15.229,17.469 C15.647,17.543 16.065,17.676 16.410,17.930 C16.569,18.048 16.708,18.190 16.816,18.356 C16.871,18.442 16.920,18.533 16.957,18.628 C16.993,18.721 17.011,18.820 17.047,18.915 C17.168,19.231 17.475,19.451 17.813,19.466 C18.157,19.480 18.484,19.282 18.630,18.970 C18.701,18.817 18.726,18.646 18.701,18.480 C18.686,18.376 18.653,18.272 18.621,18.173 C18.586,18.066 18.545,17.961 18.499,17.858 C18.333,17.491 18.099,17.152 17.811,16.869 C17.205,16.272 16.394,15.929 15.565,15.780 C15.453,15.759 15.341,15.742 15.229,15.728 ZM12.398,19.831 C12.242,19.725 12.091,19.593 12.019,19.414 C11.943,19.227 11.933,19.005 11.952,18.806 C11.971,18.607 12.042,18.421 12.155,18.256 C12.456,17.817 13.005,17.588 13.508,17.480 L13.508,20.312 C13.309,20.251 13.124,20.187 12.960,20.122 C12.765,20.042 12.572,19.950 12.398,19.831 ZM16.878,23.258 C16.999,23.392 17.074,23.554 17.111,23.730 C17.178,24.056 17.145,24.414 16.981,24.707 C16.636,25.319 15.884,25.557 15.229,25.631 L15.229,22.501 C15.632,22.607 16.039,22.725 16.411,22.919 C16.582,23.009 16.747,23.115 16.878,23.258 Z"/>
</svg>