<svg 
 xmlns="http://www.w3.org/2000/svg"
 xmlns:xlink="http://www.w3.org/1999/xlink"
 width="23px" height="35px">
<path fill-rule="evenodd"  fill="rgb(255, 255, 255)"
 d="M21.886,7.770 C21.374,7.770 20.685,7.537 19.810,6.920 C18.210,5.792 16.250,5.296 14.460,5.296 C13.005,5.296 11.662,5.624 10.713,6.208 C10.243,6.497 10.244,6.594 10.517,6.594 C11.064,6.594 12.705,6.204 13.817,6.204 C14.365,6.204 14.782,6.298 14.880,6.580 C15.334,7.881 13.573,8.300 11.735,9.062 C10.390,9.620 8.741,10.042 7.177,10.042 C6.525,10.042 5.873,9.969 5.275,9.802 C2.561,9.043 0.593,8.471 0.018,8.287 L0.018,0.982 C1.167,1.404 2.453,1.807 3.190,1.807 C4.542,1.807 10.039,0.019 13.136,0.019 C13.570,0.019 13.956,0.054 14.280,0.134 C16.909,0.785 21.472,4.596 22.711,5.897 C23.306,6.523 23.070,7.770 21.886,7.770 ZM15.556,10.427 L13.400,10.427 C14.183,10.121 14.918,9.821 15.511,9.378 C15.809,9.156 16.058,8.905 16.254,8.631 C17.336,8.900 18.371,9.750 18.788,10.786 L20.926,16.119 C21.311,16.383 21.641,16.721 21.842,17.087 L22.014,17.405 C22.480,18.251 22.858,19.747 22.854,20.720 L22.850,21.594 C22.847,22.567 22.067,23.391 21.119,23.391 L21.053,23.391 L21.053,24.175 C20.248,23.945 19.335,23.690 18.261,23.391 C17.534,23.186 16.755,23.098 15.909,23.098 C15.125,23.098 14.292,23.155 13.446,23.391 L5.190,23.391 L5.190,26.455 L4.236,26.455 C3.459,25.922 2.661,25.578 1.972,25.428 L1.972,23.391 L1.984,23.391 C1.035,23.391 0.256,22.566 0.252,21.594 L0.248,20.705 C0.243,19.732 0.601,18.232 1.042,17.371 L1.177,17.106 C1.362,16.745 1.670,16.411 2.035,16.146 L3.948,11.370 C4.229,11.450 4.519,11.525 4.820,11.610 C5.121,11.694 5.435,11.748 5.758,11.798 L4.267,15.495 L18.707,15.495 L17.088,11.479 C16.865,10.926 16.121,10.427 15.556,10.427 ZM19.869,21.113 C20.432,21.113 20.888,20.646 20.888,20.069 C20.888,19.492 20.432,19.024 19.870,19.024 C19.307,19.024 18.851,19.492 18.851,20.069 C18.851,20.645 19.307,21.113 19.869,21.113 ZM3.062,19.024 C2.500,19.024 2.044,19.492 2.044,20.069 C2.044,20.645 2.500,21.113 3.062,21.113 C3.625,21.113 4.081,20.645 4.081,20.069 C4.081,19.492 3.625,19.024 3.062,19.024 ZM14.309,19.266 L8.907,19.266 C8.399,19.266 7.987,19.688 7.987,20.209 C7.987,20.729 8.399,21.152 8.907,21.152 L14.309,21.152 C14.817,21.152 15.229,20.729 15.229,20.209 C15.229,19.688 14.817,19.266 14.309,19.266 ZM1.216,27.225 C1.727,27.225 2.416,27.459 3.291,28.076 C4.892,29.203 6.851,29.700 8.641,29.700 C10.096,29.700 11.439,29.372 12.387,28.789 C12.857,28.500 12.856,28.403 12.583,28.403 C12.036,28.403 10.394,28.793 9.281,28.793 C8.734,28.793 8.314,28.698 8.216,28.416 C7.763,27.115 9.519,26.697 11.356,25.934 C12.702,25.376 14.341,24.953 15.905,24.953 C16.556,24.953 17.190,25.027 17.788,25.194 C20.502,25.953 22.432,26.524 23.007,26.709 L23.007,34.014 C21.857,33.593 20.610,33.188 19.873,33.188 C18.521,33.188 13.062,34.977 9.965,34.977 C9.531,34.977 9.145,34.942 8.822,34.862 C6.193,34.211 1.629,30.400 0.390,29.098 C-0.205,28.473 0.031,27.225 1.216,27.225 Z"/>
</svg>