<svg 
 xmlns="http://www.w3.org/2000/svg"
 xmlns:xlink="http://www.w3.org/1999/xlink"
 width="63px" height="60px">
<path fill-rule="evenodd"  opacity="0.2" fill="rgb(255, 255, 255)"
 d="M14.620,27.681 L14.620,32.746 L27.289,32.746 L27.289,59.998 L-0.000,59.998 L-0.000,32.746 L0.001,32.746 L0.001,27.681 C0.001,17.397 2.963,9.760 8.807,4.982 C12.850,1.677 17.967,0.001 24.017,0.001 L24.017,14.600 C20.733,14.600 14.620,14.600 14.620,27.681 ZM59.728,14.600 L59.728,0.001 C53.678,0.001 48.561,1.677 44.519,4.982 C38.675,9.760 35.712,17.397 35.712,27.681 L35.712,32.746 L35.712,32.746 L35.712,59.998 L63.000,59.998 L63.000,32.746 L50.330,32.746 L50.330,27.681 C50.331,14.600 56.444,14.600 59.728,14.600 Z"/>
</svg>