<svg 
 xmlns="http://www.w3.org/2000/svg"
 xmlns:xlink="http://www.w3.org/1999/xlink"
 width="25px" height="26px">
<path fill-rule="evenodd"  fill="rgb(255, 255, 255)"
 d="M24.716,12.388 L20.860,12.596 C21.578,13.076 22.043,13.808 22.043,14.630 L22.043,18.347 C22.043,19.405 21.276,20.315 20.176,20.731 L20.176,23.048 C20.176,23.893 19.133,24.579 17.846,24.579 C16.558,24.579 15.513,23.893 15.513,23.048 L15.513,20.971 L7.854,20.971 L7.852,17.690 L14.952,17.690 L14.952,16.815 L7.852,16.815 L7.852,17.689 L7.745,17.689 L7.745,16.815 L7.852,16.815 L7.851,16.560 L15.024,16.560 L15.024,15.687 L7.851,15.687 L7.851,16.560 L7.818,16.560 L7.818,15.687 L7.850,15.687 L7.848,11.782 L19.428,11.782 C19.491,11.782 19.553,11.788 19.616,11.790 L18.617,7.784 C18.307,6.466 17.170,5.669 15.930,5.669 L9.949,5.669 C10.015,5.454 10.068,5.234 10.101,5.008 L15.561,5.008 C17.686,4.935 19.144,6.358 19.485,8.289 L20.415,12.346 C20.501,12.385 20.582,12.429 20.663,12.475 L20.880,10.530 C20.880,10.530 24.561,9.163 24.716,10.530 C24.871,11.896 24.716,12.388 24.716,12.388 ZM20.298,15.624 L16.090,15.624 L16.090,17.625 L20.298,17.625 L20.298,15.624 ZM6.966,8.358 L6.975,23.366 C6.971,24.546 6.016,25.500 4.842,25.500 C4.251,25.498 3.718,25.262 3.332,24.876 C2.945,24.489 2.708,23.955 2.708,23.365 L2.708,8.472 L2.708,8.453 C1.237,7.704 0.228,6.179 0.228,4.419 C0.229,2.741 1.143,1.279 2.499,0.499 L2.499,4.116 L4.750,5.418 L6.998,4.120 L6.998,0.499 C8.357,1.279 9.269,2.741 9.273,4.419 C9.271,6.108 8.343,7.583 6.966,8.358 ZM5.310,23.157 C4.995,22.842 4.479,22.842 4.159,23.159 C3.842,23.478 3.841,23.993 4.156,24.310 C4.477,24.630 4.994,24.630 5.312,24.310 C5.630,23.992 5.630,23.477 5.310,23.157 Z"/>
</svg>