<svg 
 xmlns="http://www.w3.org/2000/svg"
 xmlns:xlink="http://www.w3.org/1999/xlink"
 width="18px" height="23px">
<path fill-rule="evenodd"  fill="rgb(255, 255, 255)"
 d="M16.253,9.398 L15.825,9.398 L15.825,7.391 C15.825,3.678 12.881,0.576 9.201,0.510 C9.100,0.508 8.899,0.508 8.799,0.510 C5.119,0.576 2.175,3.678 2.175,7.391 L2.175,9.398 L1.747,9.398 C1.086,9.398 0.547,10.080 0.547,10.923 L0.547,20.991 C0.547,21.833 1.086,22.521 1.747,22.521 L16.253,22.521 C16.914,22.521 17.452,21.833 17.452,20.991 L17.452,10.923 C17.452,10.080 16.914,9.398 16.253,9.398 ZM10.359,15.946 L10.359,18.989 C10.359,19.337 10.068,19.632 9.719,19.632 L8.281,19.632 C7.932,19.632 7.641,19.337 7.641,18.989 L7.641,15.946 C7.303,15.614 7.106,15.154 7.106,14.644 C7.106,13.679 7.851,12.850 8.799,12.812 C8.899,12.808 9.100,12.808 9.201,12.812 C10.148,12.850 10.894,13.679 10.894,14.644 C10.894,15.154 10.697,15.614 10.359,15.946 ZM13.000,9.398 L9.201,9.398 L8.799,9.398 L5.000,9.398 L5.000,7.391 C5.000,5.179 6.796,3.350 9.000,3.350 C11.204,3.350 13.000,5.179 13.000,7.391 L13.000,9.398 Z"/>
</svg>