<svg 
 xmlns="http://www.w3.org/2000/svg"
 xmlns:xlink="http://www.w3.org/1999/xlink"
 width="23px" height="26px">
<path fill-rule="evenodd"  fill="rgb(255, 255, 255)"
 d="M21.336,25.489 L1.664,25.489 C0.963,25.489 0.396,24.920 0.396,24.219 L0.396,23.709 C0.396,19.808 3.132,16.547 6.788,15.743 C7.352,16.332 7.992,16.807 8.697,17.158 C9.030,17.323 9.371,17.458 9.719,17.562 C10.001,18.339 10.745,18.895 11.620,18.895 L14.150,18.895 C15.954,18.895 17.555,18.010 18.543,16.652 C20.971,18.064 22.604,20.696 22.604,23.709 L22.604,24.219 C22.604,24.920 22.037,25.489 21.336,25.489 ZM18.426,12.838 L18.426,13.459 C18.426,15.819 16.508,17.739 14.150,17.739 L11.620,17.739 C11.141,17.739 10.753,17.351 10.753,16.872 C10.753,16.393 11.141,16.005 11.620,16.005 L14.150,16.005 C15.553,16.005 16.693,14.863 16.693,13.459 L16.693,12.838 C16.530,12.715 16.393,12.558 16.294,12.378 C16.117,12.859 15.918,13.300 15.661,13.717 C15.501,13.977 15.190,14.468 14.844,14.662 C14.638,14.777 14.403,14.849 14.150,14.849 L11.620,14.849 C10.898,14.849 10.266,15.227 9.908,15.796 C8.429,15.239 7.307,13.966 6.731,12.447 C6.729,12.442 6.727,12.437 6.725,12.431 C6.718,12.414 6.712,12.396 6.705,12.379 C6.460,12.825 5.985,13.127 5.440,13.127 C4.646,13.127 3.996,12.482 3.996,11.682 L3.996,8.064 C3.996,7.582 4.233,7.155 4.596,6.892 C4.877,3.326 7.866,0.510 11.500,0.510 C15.133,0.510 18.122,3.326 18.404,6.892 C18.767,7.155 19.003,7.582 19.003,8.064 L19.003,9.067 L19.003,11.682 C19.003,12.155 18.776,12.574 18.426,12.838 ZM11.500,2.245 C8.810,2.245 6.591,4.303 6.332,6.928 C6.502,7.062 6.642,7.234 6.738,7.430 C6.739,7.427 6.740,7.424 6.741,7.422 C7.539,5.347 9.334,3.809 11.500,3.809 C13.620,3.809 15.445,5.295 16.262,7.430 C16.358,7.234 16.498,7.062 16.668,6.928 C16.408,4.303 14.190,2.245 11.500,2.245 Z"/>
</svg>