<svg 
 xmlns="http://www.w3.org/2000/svg"
 xmlns:xlink="http://www.w3.org/1999/xlink"
 width="44px" height="25px">
<path fill-rule="evenodd"  fill="rgb(255, 255, 255)"
 d="M42.510,19.641 L37.159,19.641 C36.803,19.641 36.446,19.284 36.268,18.927 C35.733,16.428 32.166,6.607 31.096,4.822 C30.917,4.644 30.917,4.287 30.917,4.108 C31.096,3.930 31.274,3.751 31.452,3.572 C31.631,3.572 35.554,1.787 42.510,1.787 C43.045,1.787 43.401,2.144 43.401,2.680 L43.401,18.748 C43.401,19.284 43.045,19.641 42.510,19.641 ZM34.128,17.499 C32.879,15.892 30.382,13.749 27.885,11.785 C26.280,10.357 24.675,9.107 23.783,8.215 C23.605,8.215 23.248,8.036 23.070,8.036 C22.891,8.036 22.891,8.036 22.713,8.036 C22.178,8.215 21.821,8.393 21.465,8.572 C20.930,8.750 20.751,8.929 20.216,8.929 C19.860,8.929 19.681,9.107 19.503,9.286 C18.255,11.250 17.006,11.071 16.115,10.714 C15.758,10.536 15.758,10.536 15.758,10.357 C15.579,9.643 16.471,7.858 17.720,6.608 C20.573,3.751 22.000,3.037 25.210,4.465 C26.637,5.001 28.242,5.715 30.026,6.250 C30.917,7.858 33.057,13.928 34.306,17.499 L34.128,17.499 ZM13.796,10.893 C13.974,11.607 14.509,12.321 15.401,12.500 C17.363,13.214 19.146,12.500 20.573,10.714 C21.287,10.714 21.465,10.536 22.000,10.357 C22.000,10.179 22.357,10.179 22.535,10.000 C23.605,10.893 25.032,11.964 26.459,13.214 C29.134,15.356 32.166,17.677 32.879,19.284 C33.236,19.999 32.879,20.534 32.701,20.713 C32.344,20.891 31.987,21.070 31.631,20.891 L26.459,15.713 C26.102,15.356 25.567,15.356 25.210,15.713 C24.853,16.070 24.853,16.606 25.210,16.963 L30.204,21.962 C30.026,22.320 29.669,22.498 29.491,22.677 C28.955,22.855 28.242,22.855 28.064,22.677 L23.605,18.213 C23.248,17.856 22.713,17.856 22.357,18.213 C22.000,18.570 22.000,19.106 22.357,19.463 L26.459,23.569 C26.280,24.105 26.102,24.462 25.567,24.641 C25.210,24.641 24.854,24.819 24.497,24.462 L20.930,20.891 C20.573,20.534 20.038,20.534 19.681,20.891 C19.325,21.248 19.325,21.784 19.681,22.141 L22.535,24.998 C22.357,24.998 22.178,24.998 22.000,24.998 C21.465,24.998 20.395,24.641 19.860,24.284 C19.147,23.748 15.223,20.891 11.834,18.034 C11.299,17.677 10.586,16.785 9.872,16.071 C10.764,13.571 12.013,8.929 12.726,5.358 L16.293,5.358 C15.044,6.608 13.439,9.107 13.796,10.893 ZM6.840,17.856 L1.490,17.856 C0.955,17.856 0.598,17.499 0.598,16.963 L0.598,0.894 C0.598,0.716 0.777,0.359 0.955,0.180 C1.133,0.002 1.312,0.002 1.490,0.002 C3.452,0.180 9.516,0.537 10.942,1.966 C11.299,2.144 11.299,2.501 11.299,2.680 C10.942,7.322 7.732,16.785 7.732,17.320 C7.554,17.677 7.197,17.856 6.840,17.856 Z"/>
</svg>