<svg 
 xmlns="http://www.w3.org/2000/svg"
 xmlns:xlink="http://www.w3.org/1999/xlink"
 width="53px" height="51px">
<path fill-rule="evenodd"  fill="rgb(255, 255, 255)"
 d="M32.911,35.607 C31.632,35.404 31.603,31.887 31.603,31.887 C31.603,31.887 35.361,28.166 36.180,23.163 C38.384,23.163 39.745,17.844 37.541,15.973 C37.633,14.002 40.374,0.508 26.500,0.508 C12.626,0.508 15.367,14.002 15.458,15.973 C13.255,17.844 14.616,23.163 16.819,23.163 C17.638,28.166 21.397,31.887 21.397,31.887 C21.397,31.887 21.368,35.404 20.089,35.607 C15.968,36.263 0.583,43.049 0.583,50.490 L26.500,50.490 L52.417,50.490 C52.417,43.049 37.031,36.263 32.911,35.607 Z"/>
</svg>