<svg xmlns="http://www.w3.org/2000/svg" xmlns:xlink="http://www.w3.org/1999/xlink" viewBox="0 0 4680 3120"><defs><style>.cls-1{fill:#d3e0db;}.cls-13,.cls-2,.cls-25,.cls-8,.cls-9{fill:#fff;}.cls-3{opacity:0.71;}.cls-4{fill:#f3f5f4;}.cls-5{fill:#bdd3af;}.cls-6{fill:#a6bd97;}.cls-7{fill:#84a05c;}.cls-19,.cls-8{stroke:#000;stroke-miterlimit:10;stroke-width:4px;}.cls-24,.cls-9{opacity:0.56;}.cls-10{fill:#d5eac7;}.cls-11{fill:#b6cec4;}.cls-12{fill:#9ab5a9;}.cls-13{opacity:0.62;}.cls-14{fill:#fdb23d;}.cls-15{fill:#070208;}.cls-16{fill:#72120c;}.cls-17{fill:#f28b0f;}.cls-18{fill:#ffc83e;}.cls-19{fill:none;}.cls-20{fill:#530905;}.cls-21{clip-path:url(#clip-path);}.cls-22{opacity:0.57;}.cls-23{clip-path:url(#clip-path-2);}.cls-25{opacity:0.58;}.cls-26{opacity:0.36;}.cls-27{fill:#fcdccd;}.cls-28,.cls-30{fill:#f2ad94;}.cls-29{fill:#ac2a03;}.cls-30{opacity:0.66;}.cls-31{fill:#15575e;}.cls-32,.cls-34{fill:#093333;}.cls-32,.cls-33{opacity:0.72;}.cls-35{fill:#c73f00;}.cls-36{fill:#296f7a;}.cls-37{fill:#f68e6e;}.cls-38{opacity:0.5;}.cls-39{fill:#ee6749;}.cls-40{fill:#611112;}.cls-41{opacity:0.7;}.cls-42{fill:#f5fef9;}.cls-43{fill:#3a0302;}</style><clipPath id="clip-path"><path class="cls-1" d="M2066.45,1550.07c9.91,59,39.85,238.24,39.35,250.22l-417.16-17.41s-81-111.8-62-188.11c2.33-9.32,277-62.44,418-63.54A22.17,22.17,0,0,1,2066.45,1550.07Z"/></clipPath><clipPath id="clip-path-2"><path class="cls-1" d="M2680.33,1620.47c-60.63-23.28-317.85-116.46-488.92-91.52-5.55.81-9.2,6.43-8,12.13,8.4,40.09,39,184.6,56.9,246.16a27,27,0,0,0,23.7,19.69l437.74,32.65,26.93-71.77-30.76-128.49A29.9,29.9,0,0,0,2680.33,1620.47Z"/></clipPath></defs><title>05</title><g id="_05" data-name="05"><rect id="_05-2" data-name="05" class="cls-2" width="4680" height="3120"/><g class="cls-3"><path class="cls-1" d="M3835.49,1815.64c-38.2,104.51-94.6,201.63-170.16,285.15a811,811,0,0,1-121.47,109.71q-16.55,12.15-33.68,23C3313.06,2359,3059.62,2363,2823.42,2361.77q-64.93-.34-130-1.28c-184.26-2.46-369-6.78-552.89-2.41h-.59c-83.72,2-157.17,28.14-242.17,24.37-89.16-4-178.56-10.75-267-23.52q-34.18-4.91-68.12-11.09c-124.57-22.74-251.94-27.95-372.28-52.57-19.7-4-39.21-8.58-58.48-13.81q-7.77-2.11-15.49-4.37-5.64-1.63-11.24-3.38C1039.4,2253.36,976.63,2224,918.64,2179q-5.68-4.41-11.29-9c-.21-.17-.4-.34-.61-.5q-6-4.95-11.94-10.14a491.71,491.71,0,0,1-45.75-45.66A528,528,0,0,1,798.1,2045q-11-17.49-20.66-35.8-10.32-19.44-19.24-39.67-6.91-15.66-13-31.74a705.51,705.51,0,0,1-22.4-70q-8.09-30.58-13.62-62a856.37,856.37,0,0,1-12.51-171.91,881.25,881.25,0,0,1,12.63-127.19q3.6-20.73,8.16-40.9c60-265.23,270.22-520.12,534.39-605.13q21.83-7,44.14-12.5c163.82-40,316.45-53.3,462.66-145.55,48.07-30.34,96-60.94,144.3-90.7,208.86-128.81,423.46-242,678.13-251,298.35-10.49,602.19,61.23,857.81,217.27C3560.82,652.72,3660,756.4,3734.37,876.82a1042.91,1042.91,0,0,1,67.83,129.41C3913.38,1259.48,3929,1559.7,3835.49,1815.64Z"/></g><path class="cls-4" d="M3835.49,1815.64c-38.2,104.51-94.6,201.63-170.16,285.15a811,811,0,0,1-121.47,109.71q-16.55,12.15-33.68,23C3313.06,2359,3059.62,2363,2823.42,2361.77q-64.93-.34-130-1.28c-184.26-2.46-369-6.78-552.89-2.41h-.59c-83.72,2-157.17,28.14-242.17,24.37-89.16-4-178.56-10.75-267-23.52q-34.18-4.91-68.12-11.09c-124.57-22.74-251.94-27.95-372.28-52.57-94.44-41.76-188.21-85.79-283-125.33-.21-.17-.4-.34-.61-.5q-6-4.95-11.94-10.14a491.71,491.71,0,0,1-45.75-45.66A528,528,0,0,1,798.1,2045q-11-17.49-20.66-35.8-10.32-19.44-19.24-39.67-6.91-15.66-13-31.74a705.51,705.51,0,0,1-22.4-70q-8.09-30.58-13.62-62a856.37,856.37,0,0,1-12.51-171.91c344.12,98.75,707.1,134.61,1065.11,114.7,528.53-29.41,1046.61-177.36,1527.78-398,171.35-78.57,341.5-168.56,473.93-302.73q20-20.28,38.72-41.66C3913.38,1259.48,3929,1559.7,3835.49,1815.64Z"/><path class="cls-5" d="M1193.23,1785.51a879.76,879.76,0,0,1-53.52,135.15q-11.57,23.37-24.43,46.13c-17.9,31.7-37.7,62.71-59.4,93.67-32,45.67-69.86,90.22-121.07,112.35-5.31,2.3-10.71,4.32-16.17,6.15-4-3.09-7.95-6.27-11.9-9.51s-8-6.68-11.94-10.14a491.71,491.71,0,0,1-45.75-45.66A528,528,0,0,1,798.1,2045q-11-17.49-20.66-35.8-10.32-19.44-19.24-39.67a684.41,684.41,0,0,1-35.41-101.77q4.88-2.8,9.88-5.34a202.94,202.94,0,0,1,32.18-13q6.42-2,13-3.47h0c37.81-8.6,78.69-5.25,113.28,11.4h0a145.59,145.59,0,0,1,22.43,13.37,172,172,0,0,1,3.68-53.16c11.67-51.7,46.16-98.42,94.66-118.37q3.75-1.56,7.62-2.88a128.18,128.18,0,0,1,47.31-6.6,147.67,147.67,0,0,1,71.91,22.69C1165.37,1729.26,1185.93,1754.6,1193.23,1785.51Z"/><path class="cls-6" d="M1574.72,1811.37c-26.64,87-54,174.76-99.91,253.32s-112.57,148.25-197.58,180.67c-39.4,15-100.2,28.21-160.83,31.74q-5.64-1.63-11.24-3.38C1039.4,2253.36,976.63,2224,918.64,2179c-4-3.09-7.95-6.27-11.9-9.51-5.72-36.1-.2-77.43,13.09-115.37a271.35,271.35,0,0,1,24.37-51.82h0a198.51,198.51,0,0,1,30.72-39.07,124,124,0,0,1,30-21.86c28.86-14.61,61.14-13.1,92.83,14.37-56.42-48.91-95-120.66-95.05-195.33a207.73,207.73,0,0,1,9.25-61.16,212.13,212.13,0,0,1,16.34-39c.26-.49.52-1,.8-1.45,19-34.49,47.64-63.29,83.39-79.81,67.78-31.33,158-10.76,199,51.68,2.18-45.88,4.52-92.57,20.27-135.71s47.29-83,91-97.1C1667.45,1318.59,1614,1683.29,1574.72,1811.37Z"/><path class="cls-5" d="M3835.49,1815.64c-56.45,154.44-152.65,292.74-291.63,394.86q-16.55,12.15-33.68,23c-49,1.63-97.44-4.34-141-18.18-27.21-8.64-52.35-24.3-80.62-28.31-40.62-5.78-86.74,12.22-120.55-11-48.65-33.44-61.16-44-97.12-90.83-54.87-71.42-47.61-172.91-21.2-259,26.93-87.85,99-137.52,130.81-215.7,34.92-85.73,28.19-138.76,136.7-168,101.5-27.31,216.93-11.45,299,54.18a268.07,268.07,0,0,1,68.93,83.91,272.89,272.89,0,0,1,20.38,49.73c14.5,48.63,15,100.83-2.63,148.52C3771.32,1753.89,3813.29,1774.13,3835.49,1815.64Z"/><path class="cls-6" d="M3488.33,1950.9a234.79,234.79,0,0,0,26.41-158.41c-2.26-11.87-5.65-24-13.37-33.29-16.95-20.43-50-20.23-72.88-6.81s-38.11,36.55-52.48,58.87c-23-48.37-86.56-36.44-116.28-4.13-42.43,46.11-16.63,117,8.88,163.27,44.16,80.1,133.27,158.7,225.8,174.07,86.19,14.32,169.65-32.09,188.52-122.28C3709.26,1896.31,3552.56,1838.16,3488.33,1950.9Z"/><path class="cls-5" d="M1137.8,1709.24a127.51,127.51,0,0,0-57.36-70.84c-13,29.78-18.59,63.73-10.19,95.14,8.81,32.91,32.54,58.33,59,78.08C1141.58,1776.5,1149.37,1745.25,1137.8,1709.24Z"/><path class="cls-5" d="M1142.43,1923.21a89.24,89.24,0,0,0-58.74-25c1.68,22.71,9.38,45.56,24.88,62.25,16.25,17.49,39.28,25.44,62.17,29C1166.82,1963.62,1161.4,1941.71,1142.43,1923.21Z"/><path class="cls-6" d="M928.71,1824.6A89.34,89.34,0,0,0,867,1808.19c4.91,22.25,15.8,43.76,33.52,58.06,18.58,15,42.51,19.58,65.67,19.81C958.62,1861.11,950.13,1840.2,928.71,1824.6Z"/><path class="cls-6" d="M781.76,1850.43a89.31,89.31,0,0,0-55.49-31.63c-.93,22.76,4.1,46.33,17.58,64.69,14.14,19.24,36.1,29.79,58.43,35.93C801.35,1893.37,798.48,1871,781.76,1850.43Z"/><path class="cls-6" d="M953.17,2011.77A93.68,93.68,0,0,0,895,1978.6c-1,23.86,4.3,48.59,18.44,67.84,14.82,20.17,37.84,31.23,61.26,37.67C973.72,2056.79,970.7,2033.32,953.17,2011.77Z"/><path class="cls-7" d="M992,1594.79a93.54,93.54,0,0,0-64.12-19c4.49,23.42,15.26,46.25,33.39,61.74,19,16.23,43.92,21.73,68.16,22.65C1022.29,1633.88,1014,1611.75,992,1594.79Z"/><path class="cls-7" d="M1019.32,1882.52a123.36,123.36,0,0,0-33.78-81.46c-20.27,24-34.73,54-35.56,85.47-.85,33,14.19,63,33.36,88.64C1004.37,1946,1020.17,1919.1,1019.32,1882.52Z"/><path class="cls-6" d="M3513.91,1711.72a133.67,133.67,0,0,1,60.14-74.28c13.68,31.23,19.5,66.83,10.68,99.76-9.24,34.52-34.11,61.16-61.91,81.88C3510,1782.25,3501.78,1749.48,3513.91,1711.72Z"/><path class="cls-5" d="M3509.05,1936.09a93.62,93.62,0,0,1,61.6-26.27c-1.77,23.82-9.84,47.77-26.1,65.27-17,18.34-41.18,26.68-65.18,30.39C3483.47,1978.46,3489.16,1955.49,3509.05,1936.09Z"/><path class="cls-6" d="M3666.74,1591.71a98.09,98.09,0,0,1,67.24-19.89c-4.71,24.56-16,48.5-35,64.74-19.93,17-46.05,22.79-71.46,23.75C3635,1632.7,3643.72,1609.5,3666.74,1591.71Z"/><path class="cls-7" d="M3650.12,1871.64a97.87,97.87,0,0,1,26.8-64.63c16.09,19.08,27.56,42.87,28.21,67.81.68,26.14-11.25,50-26.46,70.32C3662,1922,3649.45,1900.66,3650.12,1871.64Z"/><path class="cls-8" d="M1781.62,2020.89l-2.43-2c-4.56-3.8-9.37-8-14.69-12.95l-5.4-5,7.18,1.56c5.59,1.22,11.3,2.17,17,2.84l2.27.27Zm-9.12-13.09q3.54,3.17,6.82,6l1.21-4.72Q1776.51,2008.51,1772.5,2007.8Z"/><path class="cls-7" d="M3348,1501.48c0,573.94-465.28,1039.22-1039.22,1039.22S1243.88,2055.09,1243.88,1481.15s491-1018.89,1064.93-1018.89S3348,927.53,3348,1501.48Z"/><path class="cls-9" d="M1325.47,1243.79a2.15,2.15,0,0,1-.56-.07,2.17,2.17,0,0,1-1.54-2.66,933.19,933.19,0,0,1,42.22-123.15,2.18,2.18,0,0,1,4,1.7,927.85,927.85,0,0,0-42,122.57A2.18,2.18,0,0,1,1325.47,1243.79Z"/><path class="cls-9" d="M1484.29,919a2.18,2.18,0,0,1-1.74-3.49c191.6-254.07,500.25-405.76,825.64-405.76,138.92,0,273.29,28.16,399.39,83.71a2.17,2.17,0,1,1-1.76,4c-125.54-55.3-259.32-83.33-397.63-83.33-324,0-631.38,151-822.17,404A2.14,2.14,0,0,1,1484.29,919Z"/><path class="cls-10" d="M3206.64,1501.47c0,496.82-402.75,899.57-899.56,899.57s-921.81-420.35-921.81-917.16c0-173.59,51.88-333.55,140.6-468.21-75.64,118.31-119.57,257.2-119.57,407.39,0,448.37,391.52,827.72,849.19,827.72s828.7-363.48,828.7-811.83-371-811.84-828.7-811.84c-224.33,0-432.77,83.5-587,221.47C1836,695,2062.89,601.92,2307.08,601.92,2803.89,601.92,3206.64,1004.67,3206.64,1501.47Z"/><path class="cls-5" d="M3084.19,1439c0,448.35-371,811.83-828.7,811.83s-849.19-379.35-849.19-827.72c0-150.19,43.93-289.08,119.57-407.39a895.18,895.18,0,0,1,142.62-167.09c154.23-138,362.67-221.47,587-221.47C2713.18,627.11,3084.19,990.58,3084.19,1439Z"/><path class="cls-6" d="M1668.49,848.58a895.18,895.18,0,0,0-142.62,167.09A809.9,809.9,0,0,1,1668.49,848.58Z"/><path class="cls-7" d="M2441.23,689a69.26,69.26,0,1,1-80.57,55.69A69.26,69.26,0,0,1,2441.23,689Z"/><path class="cls-7" d="M2062.37,804.54c7,17.75,5.27,34.38-3.93,37.13s-22.38-9.41-29.42-27.16-5.28-34.39,3.93-37.14S2055.33,786.78,2062.37,804.54Z"/><path class="cls-7" d="M1738.05,1054.51c15.23,11.52,22.36,26.65,15.92,33.78s-24,3.58-39.24-7.94-22.37-26.65-15.93-33.78S1722.81,1043,1738.05,1054.51Z"/><path class="cls-7" d="M3018.07,1145.32c17.25-8.21,33.95-7.57,37.32,1.44s-7.89,23-25.14,31.17-33.95,7.56-37.31-1.44S3000.83,1153.53,3018.07,1145.32Z"/><path class="cls-7" d="M2731.78,849.54c10.47-16,25.08-24.1,32.63-18.15s5.18,23.72-5.29,39.69-25.09,24.1-32.64,18.15S2721.3,865.51,2731.78,849.54Z"/><path class="cls-7" d="M2697.17,1647.7a33.36,33.36,0,0,0-35,15.51q-7.61,12.52-16.19,24.7C2512.38,1877,2249.9,1922.1,2060.84,1788.53a418.23,418.23,0,0,1-92.5-89.5l-192.76,81.83A626.06,626.06,0,0,0,2409,2061.31c164.45-28.28,308-118.9,404.32-255.18a633.72,633.72,0,0,0,49.41-82.54,33.35,33.35,0,0,0-23.3-47.62Z"/><path class="cls-7" d="M2050.37,1779.54l-241.92,105.09c-34,14.79-71.74-11.41-69.74-48.47l15.86-294.47c2.21-41.08,50.37-62,81.91-35.58l226.06,189.36C2091,1719.31,2084.41,1764.75,2050.37,1779.54Z"/><path class="cls-7" d="M1922.57,1218.1a33.45,33.45,0,0,0,37.69-11.95,417.5,417.5,0,0,1,203-148.05c133.35-45,273.84-19,380.14,57.66l153-140.94a626,626,0,0,0-602-109.69c-136.36,46.87-249.94,137.32-325.56,258a33.27,33.27,0,0,0,17.8,49.14C1825.45,1185.19,1870.88,1200.51,1922.57,1218.1Z"/><path class="cls-7" d="M2461.35,1067.3,2662.79,897c28.34-24,72-9.72,80.74,26.35L2813.08,1210c9.71,40-30.4,73.88-68.2,57.66l-271-116.31C2439.78,1136.67,2433,1091.26,2461.35,1067.3Z"/><path class="cls-7" d="M2376.4,1475.44a74,74,0,1,1-74-74A74,74,0,0,1,2376.4,1475.44Z"/><path class="cls-7" d="M2665.74,1558.68v-19.36l19.88-18.32c39.49-36.65,58.07-56.79,58.33-79,0-15-8-28.14-29.94-28.14-14.71,0-27.36,7.49-35.88,13.94l-9.29-22.46c12.13-9.8,30.46-17.29,51.62-17.29,37.17,0,55.24,23.49,55.24,50.85,0,29.42-21.17,53.17-50.33,80.27l-14.72,12.65v.51h68.92v26.33Z"/><path class="cls-7" d="M2874,1558.68v-42.59h-75.88v-20.65l68.4-104.53H2904v101.18h21.68v24H2904v42.59Zm0-66.59V1446.4c0-9.55.26-19.36,1-29.16h-1c-5.16,10.58-9.55,19.1-14.71,28.39l-30.72,45.94-.25.52Z"/><path class="cls-7" d="M2933.41,1569l63-187.14h22.2l-63,187.14Z"/><path class="cls-7" d="M3144.81,1390.91v20.39l-71,147.38h-33.55L3111,1417.75v-.51h-79v-26.33Z"/><path class="cls-11" d="M3786.1,2760l-2818.37-.86a102.48,102.48,0,0,1-102.46-102.52l0-61.87,3023.35.92,0,61.87A102.49,102.49,0,0,1,3786.1,2760Z"/><path class="cls-12" d="M3888.64,2595.84H865.27l323-467.73c9.89-14.31,50.8-25.74,91.53-25.74H3474.13c40.74,0,81.64,11.43,91.53,25.74Z"/><polygon class="cls-13" points="3710.44 2573.94 943.96 2573.94 1246.92 2115.74 3428.52 2115.74 3710.44 2573.94"/><polygon class="cls-11" points="3046.74 2435.4 3050.59 2429.71 3249.86 2461.7 3246.52 2467.58 3046.74 2435.4"/><polygon class="cls-11" points="1530.52 2226.77 1600.7 2137.47 1613.19 2138 1543.63 2227.35 1530.52 2226.77"/><polygon class="cls-11" points="2853.69 2231.8 2845.78 2227.49 2846.89 2227.24 2932 2207.88 3337.02 2115.75 3362.16 2115.75 2933.3 2213.64 2854.53 2231.61 2853.69 2231.8"/><polygon class="cls-11" points="3053.83 2520.65 3057.51 2514.42 3353.62 2561.32 3350.75 2567.83 3053.83 2520.65"/><path class="cls-11" d="M2570.35,2437.24h-1536l4.08-6.17H2569.76c4.52,0,9.08-.12,13.55-.36,22.35-1.21,42.82-5.41,57.57-11.81l7.18-3.12h0l93-40.34,10.1-4.38,188.36-81.73,1.27-.54,3.27-1.42,3.78-1.64,1.86.63,1.33.45,2.3.78h0l1.51.51,4,1.36-8.09,3.52-279.13,121.66h0l-19.58,8.54c-16.94,7.39-40.46,12.24-66.14,13.63C2580.75,2437.1,2575.53,2437.24,2570.35,2437.24Z"/><polygon class="cls-11" points="3603.14 2399.53 3485.47 2380.32 3478.15 2379.12 3470.82 2377.93 3462.94 2376.64 3335.28 2355.79 3320.98 2353.45 2950.75 2292.99 2946.33 2292.27 2946.38 2292.21 2946.39 2292.21 2948.43 2289.88 2948.64 2289.64 2950.05 2288.03 2950.05 2288.03 2950.17 2287.89 2950.58 2287.42 2952.27 2287.69 2952.66 2287.76 2952.67 2287.76 2952.87 2287.79 2954.85 2288.11 2954.87 2288.12 3599.13 2393.03 3603.14 2399.53"/><polygon class="cls-11" points="3239.55 2462.84 3321.93 2352.17 3336.11 2354.65 3254.43 2465.61 3239.55 2462.84"/><polygon class="cls-11" points="1258.97 2574.47 1259.27 2573.94 1262.71 2567.44 1329.03 2442.27 1331.69 2437.24 1333.34 2434.15 1334.19 2432.53 1349.17 2432.57 1348.36 2434.15 1346.73 2437.24 1344.9 2440.76 1275.3 2573.94 1265.13 2573.94 1264.87 2574.45 1258.97 2574.47"/><polygon class="cls-11" points="2945.04 2292.51 2943.75 2291.76 2939.51 2289.33 2938.88 2288.97 2719.17 2162.67 2711.86 2158.47 2642.5 2118.6 2639 2116.59 2638.17 2116.11 2637.55 2115.75 2637.52 2115.73 2641.89 2114.11 2641.91 2114.11 2643.73 2113.97 2645.11 2115.75 2655.27 2115.75 2653.27 2116.49 2846.89 2227.24 2854.53 2231.61 2949.59 2286 2951.02 2286.81 2952.51 2287.67 2952.52 2287.67 2952.67 2287.76 2952.8 2287.83 2956.48 2289.94 2950.77 2291.22 2946.39 2292.21 2945.04 2292.51"/><path class="cls-11" d="M1819.23,2146.22l-11-.4-6.33-.23-6.24-.23h-.09l-182.92-6.71-12.53-.46L1240.8,2125l2.94-4.44,316.3,11.57,6.28.23,6.25.23,3.56.13,174.16,6.37,12.66.46,59,2.16a5468.13,5468.13,0,0,0,603.94-11.43l30.24-2.27,6.25-.46,2.11-.17,4.16-.31,146.65-11,4.67-.35,21.88-1.64h0l1.82-.14,1.38,1.78.28.36,1.66,2.15-4.55.34-213.76,16.06q-78,5.87-157.52,9.48l-6,.27h0l-.47,0-6.49.28C2112,2151,1964.47,2151.55,1819.23,2146.22Z"/><path class="cls-11" d="M2258,2144.37l12.38-1.32,85,105c29,.14,115.12,1.26,119,1.31l4.65.06,87.8,87.65-13.3,1.87-84-84.54c-20.23-.25-100.12-1.26-119.27-1.26h-5Z"/><polygon class="cls-11" points="1874.66 2315.87 2513.69 2294.11 2515.31 2299.45 1874.48 2321.34 1874.66 2315.87"/><polygon class="cls-11" points="2546.68 2340.57 2552.25 2335.49 2756.66 2372.05 2751.53 2377.32 2546.68 2340.57"/><polygon class="cls-11" points="2311.99 2191.76 2721.59 2157.66 2725.4 2162.16 2314.8 2196.43 2311.99 2191.76"/><polygon class="cls-11" points="1535.97 2362.94 1538.88 2357.22 1871.42 2361.3 1869.48 2367.05 1535.97 2362.94"/><polygon class="cls-11" points="2534.85 2173.96 2547.04 2172.4 2612.42 2233.03 2599.87 2234.69 2534.85 2173.96"/><polygon class="cls-11" points="2604.23 2231.43 2720.28 2220.79 2724.39 2225.6 2608.06 2236.3 2604.23 2231.43"/><polygon class="cls-11" points="3347.76 2573.94 3470.82 2377.93 3471.89 2376.21 3472.92 2374.57 3480.19 2375.81 3480.21 2375.82 3487.49 2377.06 3485.47 2380.32 3365.51 2573.94 3347.76 2573.94"/><polygon class="cls-11" points="2206.33 2437.36 2194.86 2573.94 2178.82 2573.94 2191.31 2437.36 2206.33 2437.36"/><polygon class="cls-11" points="1568.59 2136.67 1562.48 2136.27 1556.36 2135.88 1557.87 2134.35 1560.05 2132.14 1576.2 2115.75 1576.2 2115.73 1589.06 2115.73 1589.05 2115.75 1572.57 2132.6 1571.19 2134.01 1570.41 2134.81 1568.59 2136.67"/><polygon class="cls-11" points="1761.26 2141.39 1748.98 2140.51 1750.29 2139.1 1771.9 2115.8 1771.95 2115.75 1784.85 2115.75 1784.8 2115.8 1762.94 2139.56 1761.26 2141.39"/><polygon class="cls-11" points="2464.29 2129.31 2462.42 2127.55 2450.17 2116.04 2449.86 2115.75 2465.99 2115.75 2465.96 2116.05 2465.01 2123.64 2464.53 2127.39 2464.29 2129.31"/><polygon class="cls-11" points="2458.32 2130.05 2456.17 2128.02 2443.46 2116.04 2443.44 2116.04 2443.15 2115.75 2456.57 2115.75 2456.88 2116.04 2465.01 2123.64 2468.69 2127.09 2470.27 2128.56 2464.29 2129.31 2458.32 2130.05"/><polygon class="cls-11" points="985.37 2575.34 990.74 2574.59 995.44 2573.94 943.97 2573.94 947.6 2568.45 1262.71 2567.44 1268.36 2567.43 1265.13 2573.94 1264.87 2574.45 1258.97 2574.47 998.66 2575.3 990.64 2575.32 990.3 2575.32 985.37 2575.34"/><polygon class="cls-11" points="1155.45 2432.41 1273.33 2267.87 1286.95 2268.11 1170.26 2432.69 1155.45 2432.41"/><polygon class="cls-11" points="1718.77 2280.3 1608.84 2277.06 1149.22 2263.51 1152.65 2258.33 1600.13 2271.49 1708.58 2274.68 1729.99 2242.86 1731.69 2240.34 1733.37 2237.84 1795.59 2145.37 1795.59 2145.36 1796.37 2144.2 1802.67 2144.47 1808.96 2144.74 1808.25 2145.82 1746.64 2238.42 1744.98 2240.92 1743.29 2243.44 1718.77 2280.3"/><polygon class="cls-11" points="1413.55 2231.48 1258.51 2225.57 1271.3 2211.97 1277.81 2205.05 1294.91 2186.89 1202.16 2183.45 1205.3 2178.7 1312.13 2182.66 1289.36 2207.06 1286.57 2210.03 1276.2 2221.14 1396.75 2225.73 1417.52 2226.52 1413.55 2231.48"/><path class="cls-11" d="M1930.93,2573.94h-16c5.71-39.48,13.46-93.12,17.45-120.28,1.17-8,2-13.82,2.43-16.42.13-.86.21-1.36.24-1.49h15c0,.13-.1.64-.23,1.49C1948.23,2447.94,1939,2515,1930.93,2573.94Z"/><path class="cls-11" d="M990.65,2575.32h-.34l.42-.73A1.72,1.72,0,0,1,990.65,2575.32Z"/><path class="cls-11" d="M985.37,2575.34l5.36-.75,4.71-.65,3.62-.51a1.84,1.84,0,0,1,0,.51,7.28,7.28,0,0,1-.37,1.36l-8,0h-.34Z"/><polygon class="cls-11" points="2835.71 2483.32 2859.26 2573.94 2843.2 2573.94 2820.37 2483.42 2835.71 2483.32"/><path class="cls-11" d="M1534.58,2234l6.3-4.76-.43,0c9.16.72,268.11,12,368,16.26l6.11.27-58.75,184.53-14.93-.15,58.59-179.86C1785.92,2245.31,1539.72,2234.62,1534.58,2234Z"/><path class="cls-11" d="M3523.86,2203.83c-1.43-2.24.9-4.36,6.39-5.24,7.18-1.15,17.1.25,22.17,3.14,2.67,1.53,5,2.85,47.31,68.6,21.71,33.71,43.8,68.71,44,69.07,2.28,3.62-3.38,6.53-12.65,6.5s-18.59-3-20.81-6.63c-32.32-52.63-79.12-127.62-85.25-134.18A5.11,5.11,0,0,1,3523.86,2203.83Zm1,1.1Zm1.41,1h0Z"/><path class="cls-11" d="M3680.74,2447.12l-42.19-66c-2.4-3.76,3.26-6.8,12.65-6.8s19,3,21.45,6.8l43.34,66c2.64,4-3.12,7.32-12.89,7.32S3683.32,2451.16,3680.74,2447.12Z"/><polygon class="cls-9" points="3710.44 2573.94 3685.2 2573.94 2254.18 2115.74 3428.52 2115.74 3710.44 2573.94"/><polygon class="cls-9" points="3308.42 2573.94 2157.18 2573.94 1203.27 2181.76 1179.22 2171.87 1219.33 2157.48 1335.59 2115.74 2040.46 2115.74 3308.42 2573.94"/><path class="cls-14" d="M3662.36,2258.55a495.75,495.75,0,0,1-5.06,50q-.77,5-1.65,9.9l0,.18c-.68,3.85-1.42,7.7-2.23,11.52h0c0,.12-.06.23-.08.36l-1.22.14s0,0,0,0c-20.52,2.2-79.65-8.67-92.46,1.85L3433.08,2340v-.12c0-1.88-.07-3.76-.12-5.62a2.62,2.62,0,0,1,0-.28q-.14-5.74-.38-11.35c-.16-3.78-.35-7.53-.57-11.22q-.48-8.31-1.22-16.3c-1.09-14.28-2.79-27.81-4.86-40.69-28.82-177.29-137.16-218.18-210-225-39.68-3.69-68.81,2.73-68.81,2.73l-3.27.68c-.92.2-1.84.39-2.77.62s-1.92.43-2.86.67l-.34.07c-.92.21-1.84.43-2.74.66a247.41,247.41,0,0,0-36.32,12l-1.43.62c-77.29,33.2-114.47,99.2-132.28,157a379.46,379.46,0,0,0-15.31,81.16c-.3,3.68-.53,7.06-.69,10,0,.67-.06,1.33-.09,2,0,.12,0,.25,0,.37-.33,7.41-.28,12.28-.24,13.81a.92.92,0,0,1,0,.16v.36c.32,2.91.5,5.65.58,8.24,0,1.35,0,2.68,0,4,0,.9,0,1.77-.08,2.64,0,.11,0,.23,0,.35,0,.37,0,.75-.07,1.13-.06.77-.12,1.54-.2,2.28-.19,1.8-.43,3.51-.74,5.12-.07.35-.12.67-.19,1s-.18.79-.27,1.17c-.17.78-.37,1.52-.57,2.24-.06.18-.11.36-.15.53l-.09.32-.15.5-.06.17c0,.05,0,.09,0,.13s-.07.2-.1.28h0c-.16.52-.34,1-.52,1.53,0,0,0,0,0,0-.32.89-.66,1.74-1,2.56l-.18.41q-.29.61-.57,1.2c-.39.77-.78,1.5-1.18,2.2a.43.43,0,0,1,0,.07c-.11.19-.22.37-.34.55a8.6,8.6,0,0,1-.49.78c-.24.37-.48.74-.72,1.08a31.85,31.85,0,0,1-5.71,6.28l-.58.48-.56.44-.57.42-.57.4-.55.37c-.93.61-1.82,1.11-2.65,1.55l-.85.42-.12.05-.61.27c-.23.11-.47.21-.69.3l-.24.08-.2.09-.26.09-.13.05-.11,0-.25.08-.34.12h0l-.31.08-.15,0-.21.07-.4.11-.52.13-.19,0-.16,0c-18.8-3.54-102.81-5.7-218.19-7l-7.71-.09-2.69,0-7.78-.09-8.17-.07-13.5-.13-2.47,0-13.93-.11-2.65,0c-124.77-1-275.4-1.11-418-.9l-14.4,0-20.31,0h-.45l-13.33,0h-.44l-13.25,0H2167l-26.71.07c-.13,0-.27,0-.41,0-67.28.18-130.93.41-187,.66-102.87.46-180.09.94-207.09,1.12l-10.45.06h0c0-.18,0-.37,0-.55s0-.39,0-.57h0c-.12-1.45-.22-2.88-.33-4.3,0-.3-.05-.6-.07-.9s0-.57-.07-.84c-.07-.8-.14-1.58-.21-2.37-.15-1.77-.31-3.52-.48-5.27s-.31-3.34-.49-5-.35-3.47-.55-5.19c-.39-3.57-.8-7.11-1.25-10.59-.29-2.36-.6-4.71-.93-7l0-.2c-.17-1.29-.35-2.56-.54-3.84q-1-6.68-2.06-13.1c-.2-1.14-.39-2.29-.59-3.43s-.41-2.31-.62-3.45q-.63-3.48-1.3-6.88c-.23-1.13-.45-2.26-.68-3.39-.3-1.52-.62-3-.94-4.53-.23-1.09-.46-2.18-.7-3.25-.47-2.15-1-4.27-1.45-6.38,0-.1,0-.21-.07-.31-.16-.67-.33-1.33-.48-2-.37-1.56-.75-3.1-1.14-4.63l-1-3.82-.55-2.08c-.18-.68-.37-1.37-.55-2.06-.93-3.41-1.87-6.74-2.85-10-.21-.69-.41-1.37-.62-2-.43-1.43-.86-2.83-1.31-4.23-.31-1-.62-2-.94-2.91a6.6,6.6,0,0,0-.2-.63l-1-2.93c-.7-2.08-1.42-4.14-2.15-6.16-.25-.73-.51-1.44-.77-2.14-.38-1.08-.78-2.15-1.17-3.21-.17-.45-.34-.91-.52-1.36-.77-2-1.55-4-2.35-6-1.46-3.67-3-7.24-4.53-10.74q-.43-1-.9-2c-.17-.38-.35-.76-.53-1.14s-.47-1.05-.71-1.57c-.77-1.67-1.54-3.31-2.34-4.93-.48-1-1-2-1.46-3s-1-2.07-1.57-3.09c-1.22-2.38-2.47-4.71-3.73-7l-1.11-2q-.83-1.46-1.65-2.88a244.2,244.2,0,0,0-14-21.45c-.61-.82-1.22-1.65-1.83-2.46s-1.23-1.63-1.85-2.44c-3-3.82-6-7.48-9.07-11-.42-.48-.84-.94-1.27-1.41q-1.42-1.6-2.9-3.17c-.75-.81-1.51-1.62-2.28-2.41s-1.34-1.38-2-2c-1.5-1.53-3-3-4.54-4.43l-1.57-1.45c-.34-.33-.68-.64-1-.95l-1-.94c-.69-.63-1.37-1.23-2.07-1.83l-2.1-1.79c-.81-.69-1.63-1.37-2.44-2s-1.4-1.13-2.1-1.68c-.43-.35-.86-.68-1.29-1s-.86-.69-1.31-1l-1.23-.94-.12-.09c-.89-.67-1.79-1.33-2.69-2-.39-.29-.79-.58-1.18-.84a183,183,0,0,0-17-10.78c-1.12-.64-2.24-1.26-3.37-1.86s-2-1.06-3-1.58c-1.24-.64-2.5-1.27-3.76-1.88l-2-1-.26-.12c-3.24-1.51-6.5-2.91-9.77-4.23-.56-.21-1.13-.46-1.7-.66l-.12-.05-.92-.37-1.27-.47-2.25-.83q-2.61-.93-5.24-1.8c-.52-.18-1-.34-1.58-.51l-.53-.17-2-.64-2.33-.68c-1.56-.45-3.11-.89-4.67-1.31-.45-.13-.9-.23-1.34-.35l-.87-.22-1.3-.32q-2.53-.63-5.07-1.19l-2.13-.46c-.71-.15-1.42-.3-2.12-.43-1.49-.3-3-.58-4.45-.84l-1.94-.33c-1.09-.19-2.18-.36-3.28-.53s-2.15-.33-3.22-.47-2.38-.32-3.57-.45q-1.39-.18-2.79-.33c-.82-.09-1.64-.18-2.45-.25l-.94-.1-4.2-.36-.33,0-2-.14-2.44-.15c-1.46-.09-2.92-.15-4.39-.21h-.09l-4.51-.12a265.23,265.23,0,0,0-42.36,2.69c-.87.11-1.73.24-2.59.38a285.5,285.5,0,0,0-40.46,9.18h0c-1.27.39-2.54.79-3.8,1.21s-2.51.82-3.75,1.25-2.38.84-3.55,1.27l-.31.12c-1.17.42-2.33.85-3.47,1.3s-2.4.94-3.57,1.43-2.36,1-3.52,1.47-2.31,1-3.46,1.52c-1.47.66-2.91,1.34-4.33,2-.79.37-1.56.75-2.33,1.13l-.42.22c-.78.37-1.55.77-2.32,1.17-.47.23-.94.48-1.4.72-.65.34-1.29.68-1.92,1l-1,.54c-.53.3-1.06.58-1.58.88l-1.94,1.1c-1.83,1-3.64,2.11-5.41,3.2-.9.55-1.79,1.1-2.66,1.67-.71.45-1.43.9-2.12,1.37a6.41,6.41,0,0,0-.61.4c-.62.4-1.23.8-1.83,1.21-.32.21-.65.43-1,.65l-1.64,1.14c-.35.23-.7.48-1,.74-.67.47-1.34.94-2,1.42-.83.59-1.64,1.2-2.46,1.81-2.42,1.81-4.8,3.68-7.12,5.58l-1.82,1.52c-.23.18-.44.37-.66.55l-2.06,1.79c-.76.66-1.49,1.32-2.23,2l-2.18,2c-.73.66-1.44,1.33-2.15,2-1.41,1.35-2.81,2.72-4.18,4.1-1.18,1.19-2.34,2.38-3.48,3.59s-2.28,2.41-3.38,3.64c-2.21,2.44-4.35,4.94-6.44,7.45-1.21,1.47-2.4,3-3.56,4.45-.5.64-1,1.27-1.49,1.92-1,1.34-2,2.68-3,4-2.45,3.36-4.79,6.75-7,10.18q-1.38,2.1-2.71,4.22c-.83,1.35-1.66,2.69-2.48,4.05-.47.78-.94,1.58-1.4,2.36s-.94,1.58-1.38,2.38-.9,1.59-1.35,2.38-.89,1.59-1.32,2.39c-1.3,2.39-2.56,4.8-3.79,7.2-.79,1.56-1.55,3.12-2.3,4.68-.35.71-.7,1.42-1,2.14q-1.3,2.73-2.53,5.46c-.49,1.1-1,2.19-1.45,3.29-1.9,4.36-3.66,8.71-5.32,13a.88.88,0,0,0,0,.15c-.83,2.16-1.62,4.32-2.39,6.46-.39,1.09-.76,2.17-1.14,3.25q-1.11,3.24-2.15,6.45c-.34,1.07-.67,2.13-1,3.19s-.66,2.13-1,3.18q-1,3.18-1.84,6.31c-.87,3.12-1.69,6.21-2.47,9.25-.25,1-.5,2-.75,3a.07.07,0,0,0,0,0c-2,8.05-3.56,15.77-4.88,23q-.7,3.93-1.3,7.67c-.09.52-.17,1-.25,1.56-.91,5.9-1.64,11.4-2.21,16.39l-.12,1.18a286.39,286.39,0,0,0-1.89,28.66h0v0h0a15.62,15.62,0,0,1-6.24,1.71,77.82,77.82,0,0,1-14.13-.17l-1.93-.17-2.84-.3-2-.24c-2.55-.32-5.14-.68-7.72-1.07l-2.08-.34c-1.38-.21-2.75-.44-4.11-.68-1.88-.32-3.75-.65-5.56-1l-.44-.08c-.63-.11-1.26-.23-1.88-.36l-1.58-.29-1.78-.36-3.4-.69c-1.72-.36-3.34-.7-4.83-1-2.4-.51-4.48-1-6.14-1.36-.82-.19-1.55-.35-2.15-.5l-2.12-.5a22.4,22.4,0,0,1-8.24-4.34l-1.17-1c-.39-.34-.77-.7-1.15-1.07h0c-.37-.36-.73-.73-1.09-1.11a46.06,46.06,0,0,1-3.28-4c-.18-.23-.35-.47-.52-.71l-.2-.27c-.32-.46-.64-.93-1-1.41-.63-1-1.26-2-1.87-3-.32-.55-.65-1.11-1-1.69s-.64-1.16-.94-1.74-.61-1.18-.92-1.79a0,0,0,0,0,0,0c-.25-.53-.52-1.07-.77-1.62-.19-.39-.37-.79-.56-1.19-1.65-3.6-3.19-7.48-4.63-11.57l-.45-1.3c-.18-.55-.37-1.11-.56-1.67-.36-1.11-.72-2.23-1.09-3.36-.23-.76-.47-1.53-.7-2.3-.34-1.16-.68-2.33-1-3.51,0-.06,0-.12,0-.18-.18-.62-.35-1.25-.52-1.88-.36-1.29-.7-2.59-1-3.9-.42-1.61-.82-3.23-1.21-4.88s-.77-3.28-1.14-4.94-.73-3.32-1.07-5c-.27-1.26-.51-2.52-.76-3.77s-.44-2.22-.64-3.33c-.35-1.84-.68-3.67-1-5.51-.14-.84-.28-1.68-.43-2.52s-.28-1.68-.42-2.52-.28-1.67-.4-2.51c-.22-1.35-.43-2.71-.63-4.05-.24-1.57-.47-3.14-.69-4.69-.09-.63-.18-1.25-.26-1.88l-.24-1.74c-.26-2-.53-3.95-.77-5.88l-.36-2.89c-.28-2.27-.54-4.51-.78-6.7-.12-1.06-.23-2.11-.35-3.14a.49.49,0,0,1,0-.12c-.16-1.61-.33-3.2-.49-4.74l-.15-1.54h0c-7.27-74.42,15.65-158.33,32.06-231,.2-.9.4-1.8.61-2.72,1.35-6.06,2.66-12.23,4-18.47l1.2-5.91c2.11-10.32,4.22-20.79,6.51-31.25.17-.79.35-1.58.52-2.37.59-2.66,1.19-5.31,1.81-8,.34-1.47.69-3,1-4.42.08-.3.15-.61.22-.91.34-1.4.68-2.79,1-4.18q.59-2.39,1.2-4.74c.19-.71.38-1.43.56-2.14.27-1,.53-2,.82-3,.31-1.17.64-2.34,1-3.51s.58-2,.88-3.08c.18-.64.37-1.28.56-1.92q.76-2.62,1.58-5.24l.63-2c.35-1.1.7-2.2,1.06-3.29.16-.49.33-1,.49-1.47.46-1.37.92-2.72,1.4-4.08q1.27-3.66,2.66-7.26c.26-.72.55-1.43.82-2.15q1.63-4.14,3.4-8.21c.25-.58.5-1.16.76-1.73.5-1.11,1-2.21,1.51-3.3.24-.53.49-1.06.73-1.57.79-1.65,1.59-3.3,2.43-4.93.43-.86.87-1.71,1.32-2.56l1.38-2.57c.57-1,1.15-2.07,1.74-3.1a153.06,153.06,0,0,1,24.61-32.64l2.63-2.63.88-.87,1.79-1.76,1.8-1.76c1.2-1.15,2.4-2.32,3.62-3.5l3.7-3.51q3-2.81,6-5.63c1-.94,2-1.88,3-2.82a3.2,3.2,0,0,1,.26-.24q12.14-11.34,23.88-23.06c.94-.93,1.86-1.86,2.79-2.8,1.37-1.37,2.72-2.73,4.07-4.1l4.81-4.89q8.7-8.9,17.26-17.92l5.7-6q8.54-9.06,17-18.2,16.9-18.29,33.74-36.61l.1-.1q5.58-6,11.19-12.08t11.34-12.09q5.7-6,11.44-12t11.57-11.91q14.52-14.79,29.58-29.06a271.74,271.74,0,0,1,21.61-18.46c1.41-1.09,2.81-2.13,4.22-3.15q4.18-3,8.33-5.77l1.87-1.22,1.86-1.18,1.86-1.15,1.85-1.12q2.48-1.47,4.94-2.82c2.46-1.38,4.92-2.66,7.38-3.89q5.83-2.89,11.71-5.29c1.57-.64,3.13-1.25,4.7-1.85h0c.39-.16.79-.3,1.18-.44l1.17-.42.09,0c33.94-12.28,69.31-13.91,115.29-19.18,3.25-.37,6.54-.76,9.91-1.17l.2,0c2-.25,4-.51,6-.75q9-1.12,18.09-2.12c2-.24,4-.46,6-.68h.07l2.9-.31,2.89-.32h.18c2.47-.26,4.93-.53,7.41-.77q19.89-2.07,39.82-3.73c86-7.3,172.21-9.82,258.47-11.84,56.63-1.34,113.28-2.46,169.91-4.57l5.92-.21.85,0c2.56-.09,5.11-.18,7.62-.29l6.41-.23q12.73-.48,25.31-.64c235.95-3.56,426.66,59.81,576.29,130.61,102,48.28,185,100,250.11,136.32q4.34,2.42,9.4,4.9,2.16,1.08,4.45,2.15a4.66,4.66,0,0,1,.45.22l2.66,1.23h0c3.83,1.75,7.89,3.53,12.15,5.33l2.82,1.17q6.55,2.72,13.67,5.47c2.63,1,5.32,2,8.06,3.06h0l3.45,1.28q5.22,1.95,10.67,3.87h0q8.71,3.1,18,6.25l3.1,1,6.27,2.1q4.76,1.56,9.6,3.13,2.4.79,4.83,1.56l1.84.6.7.22.71.23.21.07.09,0,.51.16a2.64,2.64,0,0,1,.4.12l.42.14,2.58.82,4.24,1.34c2.87.88,5.73,1.79,8.62,2.67l7,2.17c1.22.37,2.44.75,3.67,1.11,2.46.76,4.92,1.5,7.39,2.24l3.73,1.12,8.87,2.63,3.7,1.1.77.22,3.54,1,3.54,1,4.72,1.36q7.15,2.07,14.35,4.1l5.35,1.54,4.53,1.26,5.31,1.5,2.19.61,6.06,1.67c4.51,1.26,9,2.51,13.51,3.72l4.47,1.23q7,1.89,13.85,3.73l4.2,1.13,4.18,1.13,13.1,3.46c3,.8,6,1.6,9,2.37l5,1.29,4.92,1.28,4.81,1.26,4.36,1.11h0l8.53,2.2,4.22,1.08.94.23,8.07,2.06.89.22,6.7,1.7,6.92,1.73c.77.18,1.52.38,2.28.57l2.35.59,4.64,1.16,2.29.57,2.64.65,2.6.65c2.58.65,5.12,1.29,7.61,1.89,1.38.32,2.75.66,4.09,1l8.44,2.06,3.58.87,3.49.86.1,0,2,.49.27.06.58.14c1,.23,1.88.45,2.81.69l2.74.66,1.33.31,1.32.33c1.31.31,2.59.61,3.83.92l3.66.87c.4.08.79.18,1.17.28l1.12.26.73.19.47.1.47.11.92.22c.92.22,1.8.42,2.67.64s1.88.43,2.77.65l1.36.32,11.54,2.71.45.11c.62.15,1.18.26,1.7.39l.6.13a5.83,5.83,0,0,0,.63.16l.31.08.53.11.45.11.25.05.79.19c5.33.54,10.54,1.2,15.6,2h0c126.34,19.7,167.71,115.83,178,205.24C3660.15,2142.39,3665.43,2201.35,3662.36,2258.55Z"/><path class="cls-15" d="M3433.08,2339.89v0a.45.45,0,0,0,0,.08l-53.56,9.29-3.83.66c19.51-165.8-67.26-248.61-150.13-269.58-30.73-7.79-60.93-7.06-85,1.08-251.95,85.39-126.44,321.72-126.44,321.72-.62-.1-1.23-.21-1.84-.34-31.07-6.12-50.64-29.48-59.5-42.78a85.87,85.87,0,0,1-5.57-9.43c-.2-2.73-.38-5.45-.53-8.14h0a498.31,498.31,0,0,1,0-60.54c2.19-34.08,8.1-64,16.89-90.16,43.88-130.89,159.12-168.08,234.48-165.27q9,.35,17.55,1.14c183.2,16.85,213.83,185.09,217.75,267.43A364.52,364.52,0,0,1,3433.08,2339.89Z"/><path class="cls-15" d="M1699.85,2354.89l36.76,2.64s24.9-271.83-225.36-296.42c-99.42-9.76-267,74.25-250.7,280.45,0,0,4-20.58,33.78-10.23,0,0,1.09-144.31,150.53-204.08C1532.13,2092.34,1700.14,2130.44,1699.85,2354.89Z"/><path class="cls-16" d="M3379.51,2349.28A211.84,211.84,0,0,1,3301.85,2453a206.87,206.87,0,0,1-113.75,38.12c-72.28,2.19-136.95-33-175.82-88.26a209.83,209.83,0,0,1-38.13-115.63c-3.08-116.08,87.73-213,202.82-216.49a207.16,207.16,0,0,1,47.51,4c92.85,18.85,163.81,100.22,166.45,199.87A211.9,211.9,0,0,1,3379.51,2349.28Z"/><ellipse class="cls-17" cx="3189.66" cy="2285.15" rx="154.72" ry="150.5" transform="translate(779.54 5381.47) rotate(-87.72)"/><path class="cls-4" d="M3084,2284.14c1.59,60,49.19,107.24,106.33,105.51s102.16-51.77,100.57-111.77-49.19-107.24-106.33-105.51S3082.4,2224.14,3084,2284.14Z"/><path class="cls-16" d="M1287.2,2317.72c3.08,116.08,98.87,207.37,214,203.89s205.9-100.41,202.83-216.49-98.87-207.37-214-203.89S1284.13,2201.64,1287.2,2317.72Z"/><ellipse class="cls-17" cx="1502.72" cy="2315.68" rx="154.72" ry="150.5" transform="translate(-870.97 3724.99) rotate(-87.72)"/><path class="cls-4" d="M1397.05,2314.67c1.59,60,49.19,107.24,106.32,105.51s102.17-51.77,100.58-111.77-49.19-107.24-106.33-105.51S1395.46,2254.67,1397.05,2314.67Z"/><path class="cls-18" d="M3653.84,2087.33l-.78.43s-100.47-44.05-201.71-98.65l0,0c-54.52-29.39-109.27-61.86-148.66-92.16h0l-.23-.17,0,0-.3-.25s-42.15-3.75-114.53-9.94c-26.69-2.28-57.51-4.9-91.83-7.8-51.55-4.34-111-9.29-176.38-14.62l-.22,0-4.92-.39-3.71-.29-21.22-1.72-5.05-.4-5.07-.42-5.09-.4-5.49-.44-15.08-1.21-1.53-.12-9.51-.75c-3-.26-6.1-.5-9.17-.74l-.65,0-9.23-.73-6.63-.53-24.42-1.93-7.78-.61q-4.86-.41-9.76-.76l-1.12-.09-5.45-.43-1.89-.15-3.59-.29-27.64-2.16-5.57-.43-12.57-1-7-.54-2.87-.23q-5.94-.45-11.92-.92l-.44,0-4.62-.35-28.6-2.2c-3.84-.29-7.68-.59-11.53-.87l-2.89-.23-2.89-.22-5.79-.45q-5.8-.42-11.64-.88l-4-.31-1.86-.12-5.84-.45-16.12-1.22-7.37-.55c-2-.15-3.92-.31-5.9-.45l-2.95-.23-8.88-.67-39.41-2.93-7.13-.53-7.17-.53-12-.89-12.07-.89q-18.12-1.32-36.38-2.66l-14.09-1-10.28-.76-1-.07-11.28-.8c-2-.15-4.07-.31-6.12-.44s-4.09-.3-6.13-.44c-128.75-9.19-260.83-18.09-388.28-25.77q-24.61-1.48-49-2.9-8.1-.49-16.16-1-29.3-1.68-58.1-3.26l-9.75-.54-20.47-1.11-5.11-.27-10.28-.54-4.94-.26-4.22-.23-.61,0q-17.79-.93-35.34-1.81c-1.67-.07-3.32-.15-5-.24l-5-.26-7.05-.35q-45.93-2.25-89.79-4.14l-.35,0c-4.52-.2-9-.4-13.47-.58q-12.33-.53-24.45-1c-3.64-.15-7.26-.3-10.88-.43l-13.15-.51-10.86-.4-.7,0q-13.35-.49-26.43-.94l-.32,0-9.37-.3c-1.53-.06-3.07-.1-4.6-.15q-5.93-.2-11.76-.37l-8.55-.27q-12.78-.39-25.23-.73l-1.14,0h0l-.91,0h0c-43.19-1.12-83.44-1.8-120.09-2a506.1,506.1,0,0,0-101.1,9.77c-27.07,5.4-59.11,10.74-72.38,9-.17,0-.3-.07-.47-.06l2.63-2.63.88-.87c1.19-1.18,2.38-2.35,3.59-3.52s2.4-2.32,3.62-3.5l3.7-3.51q3-2.81,6-5.63c1-.94,2-1.88,3-2.82a3.2,3.2,0,0,1,.26-.24q12.14-11.34,23.88-23.06c.94-.93,1.86-1.86,2.79-2.8,1.37-1.37,2.72-2.73,4.07-4.1l4.81-4.89q8.7-8.9,17.26-17.92l5.7-6q8.54-9.06,17-18.2,16.9-18.29,33.74-36.61l.1-.1q5.58-6,11.19-12.08t11.34-12.09q5.7-6,11.44-12t11.57-11.91q14.52-14.79,29.58-29.06a271.74,271.74,0,0,1,21.61-18.46c1.41-1.09,2.81-2.13,4.22-3.15q4.18-3.06,8.33-5.78l1.87-1.21c1.86-1.19,3.72-2.35,5.57-3.45q2.48-1.47,4.94-2.82c2.46-1.38,4.92-2.66,7.38-3.89q5.83-2.89,11.71-5.29c1.57-.64,3.13-1.25,4.7-1.85h0c.39-.16.79-.3,1.18-.44l1.16-.44.1,0c37.69-7.74,76.31-14,115.26-19.09l9.94-1.26.2,0c2-.25,4-.51,6-.75q9-1.11,18.09-2.12c2-.24,4-.46,6-.68h.07l2.9-.31c1-.12,1.93-.23,2.89-.33h.18q23.6-2.52,47.21-4.58c89.25-7.78,177.74-10.72,258.34-12.52,62.54-1.39,120.33-2.09,170.06-3.81l5.92-.21.85,0c2.56-.09,5.11-.18,7.62-.29l6.41-.23q12.73-.48,25.31-.64c235.95-3.56,426.66,59.81,576.29,130.61,102,48.28,185,100,250.11,136.32q4.34,2.42,9.4,4.9,2.16,1.08,4.45,2.15a4.66,4.66,0,0,1,.45.22l2.66,1.23h0c3.83,1.75,7.89,3.53,12.15,5.33l2.82,1.17q6.55,2.72,13.67,5.47c2.64,1,5.33,2,8.06,3.06h0l3.45,1.28q5.22,1.92,10.67,3.87h0q8.73,3.09,18,6.25l3.1,1,6.27,2.1q4.76,1.56,9.6,3.13,2.4.79,4.83,1.56l1.84.6.7.22.71.22.3.11.51.16a2.64,2.64,0,0,1,.4.12l.42.13,2.58.83,4.24,1.34c2.87.88,5.73,1.79,8.62,2.67l7,2.17c1.22.37,2.44.75,3.67,1.11,2.46.76,4.92,1.5,7.39,2.24l3.73,1.12,8.87,2.63,3.7,1.1.77.22,3.54,1,3.54,1,4.72,1.37q7.15,2.07,14.35,4.1l5.35,1.53,4.53,1.27,5.3,1.49,2.2.62,6.06,1.67c4.51,1.26,9,2.51,13.51,3.72l4.47,1.23q7,1.89,13.85,3.73l4.2,1.13,4.18,1.12,13.1,3.47c3,.8,6,1.6,9,2.37l5,1.29,4.92,1.28,4.84,1.25h0l3.46.89.86.23h0l8.53,2.2,4.22,1.08.94.23,8.07,2.06.89.22,6.7,1.7,6.92,1.73c.77.18,1.52.38,2.28.57l2.35.59,4.64,1.16,2.29.57,2.64.65,2.6.65L3393,1864c1.38.32,2.75.66,4.09,1l8.44,2.06,3.58.87,3.49.84.1,0,2,.49.27.06.58.14c1,.23,1.88.45,2.81.69l2.74.66,1.33.31,1.32.33c1.31.31,2.59.61,3.83.92l3.66.87c.4.08.79.18,1.17.28l1.12.26.73.18.94.22.92.22c.92.22,1.8.42,2.67.64s1.88.43,2.77.65l1.36.32,11.54,2.71.45.11c.62.15,1.18.26,1.7.39l.6.13a5.83,5.83,0,0,0,.63.16l.31.08.53.11.45.1.25.06.79.19c5.33.54,10.54,1.2,15.6,2h0C3602.16,1901.79,3643.53,1997.92,3653.84,2087.33Z"/><path class="cls-18" d="M1256.3,1782.94q-5.49,5.28-10.72,10.53Q1250.8,1788.18,1256.3,1782.94Z"/><path class="cls-14" d="M1645.14,2070c24.8,13.25,50,41.55,71.3,70.78,31.73,43.58,54.8,89.13,54.8,89.13,1.28,4.14,2.57,8,4,11.67,29.28,78.52,84.58,67.51,84.58,67.51l340.11-3.07,620.81-5.51c12.5,2.82,23.05,3.64,31.92,3.05,53.92-3.51,45.18-60.63,45.18-60.63,25.45-60.21,34.62-129.74,36.17-192.74,2.49-101.91-14.76-186.52-14.76-186.52-76.53-15.94-417.08-38.15-740.38-56.37-327.72-18.5-637.87-32.95-637.87-32.95C1502.88,1967.91,1645.14,2070,1645.14,2070Z"/><path class="cls-18" d="M3102.67,1902.18c-620,153.52-1271.34,77.6-1902-27.89,5.27-16.93,11.76-33.23,20.33-48.19a152.75,152.75,0,0,1,24.61-32.63c.16,0,.31.06.47.06,13.27,1.77,45.31-3.57,72.38-9a506.91,506.91,0,0,1,101.1-9.77c36.65.16,76.9.84,120.09,2h0l.9,0h0l1.15,0q6.22.17,12.53.35,16.24.46,33,1l4.61.14,9.36.31.32,0q13.07.45,26.44.94h.18q29.29,1.08,59.84,2.36c35.76,1.5,72.74,3.21,110.67,5.1,3.31.17,6.62.34,9.95.49q17.54.89,35.34,1.81l.61,0c1.4.07,2.82.14,4.22.23l10.14.53,10.19.54,20.47,1.1q20.54,1.14,41.33,2.31c3.47.18,6.94.38,10.42.58l32.26,1.86c142.38,8.31,291.93,18.29,437.25,28.68l12.25.88q11.3.8,22.53,1.63,31.44,2.25,62.53,4.56l12,.89,14.3,1.06,21.59,1.6q17.88,1.34,35.55,2.68l29.33,2.21c1.95.14,3.89.28,5.83.44l3.3.25,14.13,1.08,5.78.44,11.53.88,5.75.45q5.73.42,11.45.87h0l16,1.23.53.05,6.18.48c2.85.21,5.69.44,8.52.66l14,1.08,11.16.87q13.92,1.07,27.64,2.16l11.54.9c3.44.26,6.85.53,10.27.81l7.78.61,24.42,1.93c2.22.19,4.42.36,6.63.53q9.92.77,19.7,1.57l5.21.41,2.11.17,3.07.24,20.57,1.65c1.7.13,3.39.26,5.09.41l31.34,2.52,8.62.7.23,0c65.37,5.32,124.84,10.27,176.38,14.61A229.48,229.48,0,0,0,3102.67,1902.18Z"/><path class="cls-2" d="M2905.77,1725.62s239.39,133.3,138.57,136.34l-125.24,2.15S2925.72,1786.42,2905.77,1725.62Z"/><path class="cls-19" d="M2905.77,1725.62s239.39,133.3,138.57,136.34l-125.24,2.15S2925.72,1786.42,2905.77,1725.62Z"/><path class="cls-1" d="M1376.53,1859.17s-136.47,119.31-189.16,125.77a30.33,30.33,0,0,1-6.46.19q-2-4.55-3.73-9c.19-.9.4-1.81.61-2.72,10.88-48.53,18.17-103.65,43.18-147.33,12.54-1.63,29.67-3.63,48.14-5.11C1332.7,1815.88,1412.3,1816.76,1376.53,1859.17Z"/><path class="cls-2" d="M2680.33,1620.47c-60.63-23.28-317.85-116.46-488.92-91.52-5.55.81-9.2,6.43-8,12.13,8.4,40.09,39,184.6,56.9,246.16a27,27,0,0,0,23.7,19.69l437.74,32.65,26.93-71.77-30.76-128.49A29.9,29.9,0,0,0,2680.33,1620.47Z"/><path class="cls-19" d="M2680.33,1620.47c-60.63-23.28-317.85-116.46-488.92-91.52-5.55.81-9.2,6.43-8,12.13,8.4,40.09,39,184.6,56.9,246.16a27,27,0,0,0,23.7,19.69l437.74,32.65,26.93-71.77-30.76-128.49A29.9,29.9,0,0,0,2680.33,1620.47Z"/><path class="cls-2" d="M2680.33,1620.47c-60.63-23.28-317.85-116.46-488.92-91.52-5.55.81-9.2,6.43-8,12.13,8.4,40.09,39,184.6,56.9,246.16a27,27,0,0,0,23.7,19.69l437.74,32.65,26.93-71.77-30.76-128.49A29.9,29.9,0,0,0,2680.33,1620.47Z"/><path class="cls-19" d="M2680.33,1620.47c-60.63-23.28-317.85-116.46-488.92-91.52-5.55.81-9.2,6.43-8,12.13,8.4,40.09,39,184.6,56.9,246.16a27,27,0,0,0,23.7,19.69l437.74,32.65,26.93-71.77-30.76-128.49A29.9,29.9,0,0,0,2680.33,1620.47Z"/><path class="cls-2" d="M2680.33,1620.47c-60.63-23.28-317.85-116.46-488.92-91.52-5.55.81-9.2,6.43-8,12.13,8.4,40.09,39,184.6,56.9,246.16a27,27,0,0,0,23.7,19.69l437.74,32.65,26.93-71.77-30.76-128.49A29.9,29.9,0,0,0,2680.33,1620.47Z"/><path class="cls-19" d="M2680.33,1620.47c-60.63-23.28-317.85-116.46-488.92-91.52-5.55.81-9.2,6.43-8,12.13,8.4,40.09,39,184.6,56.9,246.16a27,27,0,0,0,23.7,19.69l437.74,32.65,26.93-71.77-30.76-128.49A29.9,29.9,0,0,0,2680.33,1620.47Z"/><path class="cls-2" d="M2680.33,1620.47c-60.63-23.28-317.85-116.46-488.92-91.52-5.55.81-9.2,6.43-8,12.13,8.4,40.09,39,184.6,56.9,246.16a27,27,0,0,0,23.7,19.69l437.74,32.65,26.93-71.77-30.76-128.49A29.9,29.9,0,0,0,2680.33,1620.47Z"/><path class="cls-19" d="M2680.33,1620.47c-60.63-23.28-317.85-116.46-488.92-91.52-5.55.81-9.2,6.43-8,12.13,8.4,40.09,39,184.6,56.9,246.16a27,27,0,0,0,23.7,19.69l437.74,32.65,26.93-71.77-30.76-128.49A29.9,29.9,0,0,0,2680.33,1620.47Z"/><path class="cls-17" d="M3433.07,2340c-.26-15.71-1-30.67-2.29-44.87a10.29,10.29,0,0,1,4.1.2c31.63,7.23,223.24,7.5,223.24,7.5l-4.24,26.81c-1.75,5.13-94.27,2.85-94.27,2.85Z"/><path class="cls-17" d="M1145.12,2207.2c4.31,44.16,15.73,119.21,44.48,126.93,0,0,59.35,14.58,71,7.43,0,0-.9-209.37,164.75-260.14,98.11-30,287.57-27.76,310,277.15,0,0,1114.26-7.74,1189.32,6.37,0,0,29.36-5,24.16-52.55,0,0-.2-13.59,1.17-30.08,0,0-1001.53-120.76-1174.74-40.7,0,0-92.86-249.82-335.17-196.08,0,0-95.91,15.18-160.3,107.17,0,0-84.47,76.23-132.2,55.16A7.48,7.48,0,0,0,1145.12,2207.2Z"/><path class="cls-16" d="M3285.43,1869.86s-251.56-57-317.78-108.25c0,0,159.93,101.86,77.38,94.49-459.78-41-1505.36-82.86-1505.52-80.32-3.61,56.93,1766.68,121.28,1766.68,121.28S3278.87,1888.29,3285.43,1869.86Z"/><path class="cls-1" d="M3573.59,2006.64s-159.47,8.68-266.22-104.52a37.15,37.15,0,0,1-2.83-3l-2.42-2.62C3248.84,1868.12,3327,1848,3327,1848l.93-.41,12,3.06c68.71,17.37,123.18,27.29,123.18,27.29,4.41,1.26,8.71,2.62,12.8,4.2,22.52,8,39.85,18.64,53.23,30.37q3.8,3.3,7.18,6.7C3575.83,1958.86,3573.59,2006.64,3573.59,2006.64Z"/><path class="cls-17" d="M1775.24,2241.61c29.28,78.52,84.58,67.51,84.58,67.51l340.11-3.07,620.81-5.51c12.5,2.82,23.05,3.64,31.92,3.05l34.25-28.07s-888-114.88-1106.21-35.63C1778.86,2240.55,1777,2241.06,1775.24,2241.61Z"/><path class="cls-16" d="M2180.76,1810.3c7.8,40.43,13.87,81.15,19.12,122s9.53,81.76,12.69,122.82q1.13,15.4,2.11,30.82c.58,10.28,1.16,20.57,1.59,30.86.85,20.59,1.39,41.2,1.2,61.83-.1,10.32-.23,20.64-.7,30.95s-1.09,20.63-2,30.92-2.3,20.56-4.27,30.73c-.5,2.54-1,5.08-1.61,7.6s-1.23,5-1.9,7.52a98.7,98.7,0,0,1-5.35,14.53c3.21-9.79,4.68-20,5.75-30.11s1.6-20.38,1.82-30.61.33-20.46.17-30.69-.33-20.47-.71-30.71c-1.54-40.94-4.28-81.87-7.37-122.78s-6.65-81.81-10.14-122.74S2183.91,1851.35,2180.76,1810.3Z"/><path class="cls-14" d="M1680.14,1679.33c-2.5,36.74-17.28,72.28-40.63,100.7l-11.37-.43H1628q-13.37-.49-26.44-.94l-.32,0-9.36-.31-4.61-.14q-16.76-.54-33-1-6.3-.2-12.53-.35l-1.15,0h0l-.9,0h0c-43.19-1.12-83.44-1.8-120.09-2a506.91,506.91,0,0,0-101.1,9.77c-27.07,5.4-59.11,10.74-72.38,9-.16,0-.31-.07-.47-.06q5.22-5.27,10.72-10.53l3.7-3.51q3-2.81,6-5.63l3-2.82.26-.24q12.14-11.34,23.88-23.06c.94-.92,1.86-1.86,2.79-2.8a1192.6,1192.6,0,0,0,322.18-162.27c27.23,4.3,8.77,41.77,34.36,52,7.86,3.14,15.94,6.8,21.13,13.48C1680.32,1656.69,1680.88,1668.48,1680.14,1679.33Z"/><path class="cls-16" d="M1541,1774.38a5.16,5.16,0,0,0,.7,2.44c177.1,4.79,403.39,17.19,634.3,32.23,263.85,17.32,533.68,38.14,743.1,55.06l.15-.41s6.89-146.5-42.84-171.68c0,0-339.27-208.64-758.77-186.79-137.71,7.19-530.32,14-543.89,95.6C1573.75,1600.83,1540.82,1743.69,1541,1774.38Z"/><path class="cls-1" d="M2066.45,1550.07c9.91,59,39.85,238.24,39.35,250.22l-417.16-17.41s-81-111.8-62-188.11c2.33-9.32,277-62.44,418-63.54A22.17,22.17,0,0,1,2066.45,1550.07Z"/><path class="cls-1" d="M2855.61,1712.13c-26.18-23.13-89.89-50.81-122.86-63.93-5.12-2-10.41,2.45-9.51,8.08,4.92,30.45,19,113.74,26.6,119.08,0,0,83.21,24.77,115.43,4.7C2865.27,1780.06,2874.18,1728.53,2855.61,1712.13Z"/><path class="cls-20" d="M2743.41,1730.53s-33.66,65.14-2.78,92.86c0,0,90.77,13.63,93-50.56C2833.64,1772.83,2828.19,1715.69,2743.41,1730.53Z"/><path class="cls-1" d="M2066.45,1550.07c9.91,59,39.85,238.24,39.35,250.22l-417.16-17.41s-81-111.8-62-188.11c2.33-9.32,277-62.44,418-63.54A22.17,22.17,0,0,1,2066.45,1550.07Z"/><g class="cls-21"><g class="cls-22"><polygon class="cls-2" points="2063.26 1808.76 2032.65 1836.21 1749.78 1494.1 1780.39 1466.64 2063.26 1808.76"/><polygon class="cls-2" points="1981.8 1833.7 1913.53 1894.93 1630.66 1552.82 1698.94 1491.59 1981.8 1833.7"/></g></g><path class="cls-1" d="M2680.33,1620.47c-60.63-23.28-317.85-116.46-488.92-91.52-5.55.81-9.2,6.43-8,12.13,8.4,40.09,39,184.6,56.9,246.16a27,27,0,0,0,23.7,19.69l437.74,32.65,26.93-71.77-30.76-128.49A29.9,29.9,0,0,0,2680.33,1620.47Z"/><path class="cls-1" d="M2680.33,1620.47c-60.63-23.28-317.85-116.46-488.92-91.52-5.55.81-9.2,6.43-8,12.13,8.4,40.09,39,184.6,56.9,246.16a27,27,0,0,0,23.7,19.69l437.74,32.65,26.93-71.77-30.76-128.49A29.9,29.9,0,0,0,2680.33,1620.47Z"/><g class="cls-23"><g class="cls-24"><polygon class="cls-2" points="2673.1 1891.45 2644.41 1914.56 2322.41 1480.61 2351.11 1457.5 2673.1 1891.45"/><polygon class="cls-2" points="2580.65 1886.48 2468.86 1976.49 2146.86 1542.53 2258.65 1452.53 2580.65 1886.48"/></g></g><path class="cls-2" d="M1269.11,1821a286.77,286.77,0,0,1-42.34,115.43,281.88,281.88,0,0,1-39.4,48.52,30.33,30.33,0,0,1-6.46.19q-2-4.55-3.73-9c.19-.9.4-1.81.61-2.72,10.88-48.53,18.17-103.65,43.18-147.33C1233.51,1824.47,1250.64,1822.47,1269.11,1821Z"/><path class="cls-2" d="M3536.3,1919.19c-.11,3-.19,6.09-.15,9.35-38.3,14.5-82.37,5.81-118.22-14-29.56-16.34-54.53-39.49-78-63.91,68.71,17.37,123.18,27.29,123.18,27.29,4.41,1.26,8.71,2.62,12.8,4.2,22.52,8,39.85,18.64,53.23,30.37Q3532.92,1915.79,3536.3,1919.19Z"/><path class="cls-25" d="M1573.16,1832.34c124-.39,246.86,18.87,372.91,27.88,170.32,12.18,341,20.09,511.77,21.5-163.9-1.36-333.76,28.66-501.91,22.41q-133.35-5-265.94-21.44c-65.51-8.15-167.9-5.47-222.55-44.64A981.85,981.85,0,0,1,1573.16,1832.34Z"/><g class="cls-26"><path class="cls-15" d="M2022.78,1834.36q0,15.51-.29,31-.36,19.75-1.08,39.49-1.34,36.48-4,72.91A2023,2023,0,0,1,1986.25,2213c-.09.54-.19,1.09-.31,1.63q-9.09,47-20.41,93.58-6,24.67-12.64,49.21h0c-102.87.46-180.09.94-207.09,1.12h0a758.23,758.23,0,0,0,34.81-104.06q2-7.92,3.94-15.9l.18-.82c21.23-90,27.8-184,24.1-276.56,0-.48,0-1,0-1.43q-1.35-32.55-4.21-65-2.08-24-4.91-48-1.73-14.8-3.73-29.58-2-15-4.26-30c0-.16,0-.31-.07-.46a0,0,0,0,0,0,0s0,0,0,0c-.08-.62-.17-1.24-.27-1.85-11.07-73.37-26.08-146.27-42.11-218.88q-3.7-16.77-7.46-33.52-3.21-14.22-6.42-28.43a.19.19,0,0,0,0-.08c89.25-7.78,177.74-10.72,258.34-12.52l.15.76c1.18,6.18,2.27,12.38,3.3,18.55.53,3.18,1,6.37,1.54,9.54q1,6.33,2,12.68A1991.72,1991.72,0,0,1,2022.48,1795c0,.59,0,1.19,0,1.79s0,1.27,0,1.91c0,.23,0,.48,0,.71,0,0,0,0,0,0Q2022.82,1816.91,2022.78,1834.36Z"/></g><path class="cls-27" d="M1850.86,1308.61c-.8,10-3.12,19.78-9,27.71-8.64,11.56-23.48,16.94-37.86,18.11-6.29.52-12.82.32-18.63-2.14-15.14-6.39-20.29-24.87-23.58-41-3-14.79-7.24-29.29-10.48-44a196,196,0,0,1-3.62-21.81c-.74-7.06.72-16.23-2.31-22.77a98.83,98.83,0,0,1-7-21.13c-.57-2.7-1-5.43-1.35-8.17a25.81,25.81,0,0,1-.25-3.52,11.79,11.79,0,0,1,.21-2.06,16.5,16.5,0,0,1,3.82-7.06c12-14.57,34.28-21.58,52.7-17.76,16.88,3.5,30.79,16.22,39.23,31.25a91.55,91.55,0,0,1,4.59,9.39c5.3,12.61,8,26.32,9.94,39.92a403.2,403.2,0,0,1,4,51.12C1851.29,1299.26,1851.24,1304,1850.86,1308.61Z"/><path class="cls-27" d="M2057.35,1219.75s20,22.26,20.21,37c.2,13.72-61,33.37-69.23,35.94l-.91.29c-61.26,55.45-119.25,88.38-164,106.68a317.69,317.69,0,0,1-50.75,16.42c-18.29,4.07-30.38,4.25-34.22,2.17-13.21-7.17-17.81-29.36-22.64-59.62-10.69-67-6.42-126-2.41-157.78.53-4.25,1.06-8,1.56-11.24a12.31,12.31,0,0,0,1.73.27,9,9,0,0,0,1.57,0l4-.22,5.1,14.22,41.69,116.23a167.07,167.07,0,0,0,23.86-2.42c1.58-.26,3.17-.54,4.77-.85q5.36-1,10.88-2.3c7.28-1.67,14.75-3.69,22.29-5.94,66.61-19.84,138.76-58.39,141.59-58.68,3.77-.37,46-42.25,53.58-46.79s54.33-15.09,54.33-15.09C2101.5,1205.41,2057.35,1219.75,2057.35,1219.75Z"/><path class="cls-16" d="M1926.27,993a53.14,53.14,0,0,1-9.76,17.95,36.51,36.51,0,0,1-15.66,11.25,27.74,27.74,0,0,1-6.51,1.47,32.35,32.35,0,0,1-24-7.91,41.83,41.83,0,0,1-13-22.06c-1.85-7.77-1.41-16.86,4.19-22.56a19.71,19.71,0,0,1,10.25-5.26A50.59,50.59,0,0,1,1884,965a108.75,108.75,0,0,1-7.54-25.08,89,89,0,0,1-1.39-17.25c.23-9.77,2.44-19,7.7-26,2.91-3.88,6.7-7,10.45-10a1.76,1.76,0,0,1,1-.52c.78,0,1.17.92,1.35,1.68,3.22,13.16,1.68,34.76,9,45.36,8.53,12.39,20.49,19.34,23.64,35.4C1929.81,976.64,1928.76,985.09,1926.27,993Z"/><path class="cls-20" d="M1925.12,988.05l-2.13,7.17c-2.68,5-4.42,10.41-6.48,15.68a36.51,36.51,0,0,1-15.66,11.25,41.84,41.84,0,0,0-17.11-49c-3.85-2.45-8.12-4.29-11.73-7.13l-.26-.21A50.59,50.59,0,0,1,1884,965a108.75,108.75,0,0,1-7.54-25.08,17.83,17.83,0,0,1,4.25,4c-1.84,4.65.08,9.92,2.51,14.29A61.19,61.19,0,0,0,1925.12,988.05Z"/><path class="cls-28" d="M1909.68,966.18c-2.38,2.94,11,69.28-15.09,101.88,0,0,79.49,22.64,81,19.87s2.52-29.68,7.55-34.21S1929.05,942.28,1909.68,966.18Z"/><path class="cls-27" d="M2023.52,2465.25s-21.3,15.41-40.34,14.43a25.22,25.22,0,0,1-20.67-11.7l-.12-.17c-18.6-28.15-44.67-125.65-49.18-129.65s17.1-90,17.1-90l59.37,16.1s-2,14.38-4,33.78c-3.18,31.09-6.22,75.08-.49,93.5,8.07,26,12.93,44.43,29.77,64.44C2017.48,2459,2020.34,2462.09,2023.52,2465.25Z"/><path class="cls-28" d="M2023.52,2465.25s-21.3,15.41-40.34,14.43a89.12,89.12,0,0,1-20.79-11.87c-18.6-28.15-44.67-125.65-49.18-129.65s17.1-90,17.1-90l59.37,16.1s-2,14.38-4,33.78c-18.83-.7-39.22.1-45.41,15.25-12.07,29.52,11,64.37,14.38,93.32,3.44,29.28,31.82,44.88,60.31,49.37C2017.48,2459,2020.34,2462.09,2023.52,2465.25Z"/><path class="cls-29" d="M2041.57,2500.74c3.2-5-3.43-15.14-6.21-19.65-4.62-7.47-11-13.74-15.51-21.32,0,0-38.41,9.53-67.67-21,0,0-8.68-13-10.08-35.66s-21.83-64.75-21.86-64.81c-.75-1.55-9.94,11.16-10.21,11.73-9.38,19.61-4.77,41-.29,61.19,4.62,20.77,7,41.72,8.18,62.94,0,.23.2,3.57.2,3.57l7.31-.37-1.81-35.68c.08,1.64,2.82,4.71,3.55,6.22,6.28,12.9,5.12,28.16,10.18,41.31,3.24,8.44,18.9,11.33,26.92,13.51,18.67,5.08,37.76,6.65,57.22,6C2028,2508.51,2037.75,2506.77,2041.57,2500.74Z"/><path class="cls-27" d="M1950.44,2477.54a40.73,40.73,0,0,1-5.33,1c-9.53,1.26-30.7,1.73-54-13.09-31.69-20.13-38.74-83.52-39.24-97.61-.17-4.88.79-18.68,2.12-34.77.72-8.84,1.56-18.37,2.36-27.49,2-22.22,3.8-42,3.57-43.4,0,0,66.92-31.19,67.42-25.15.23,2.88-2.39,24.62-4.59,53.09-2.42,31.23-4.35,70.55-1.45,101.87,3.27,35.36,12.85,58.78,20.15,72a95.28,95.28,0,0,0,5.76,9.26A45.21,45.21,0,0,0,1950.44,2477.54Z"/><path class="cls-28" d="M1947.17,2473.31a13.6,13.6,0,0,1-.71,2.92,8.24,8.24,0,0,1-1.35,2.33c-9.53,1.26-30.7,1.73-54-13.09-31.69-20.13-38.74-83.52-39.24-97.61-.17-4.88.79-18.68,2.12-34.77l.6-.19c8.46,5.65,13,15.49,16.61,25,15.44,40.19,14.85,94.76,67.57,105.37a15.08,15.08,0,0,1,2.68.79C1945.57,2465.71,1947.69,2469,1947.17,2473.31Z"/><path class="cls-29" d="M1966,2509.27c3.44-5-2.66-15.76-5.22-20.55-4.22-7.93-10.31-14.72-14.41-22.75,0,0-38.84,7.8-66.52-25.16,0,0-8-13.83-8.25-37.23s-18.53-67.78-18.56-67.84c-.67-1.63-10.49,11-10.79,11.54-10.36,19.69-6.84,42-3.38,63,3.56,21.62,4.85,43.3,5,65.21,0,.24,0,3.68,0,3.68h7.32v-36.81c0,1.69,2.57,5,3.23,6.59,5.61,13.6,3.69,29.25,8.07,43,2.81,8.86,18.3,12.65,26.2,15.32,18.39,6.2,37.38,8.8,56.85,9.16C1952.08,2516.55,1961.88,2515.27,1966,2509.27Z"/><path class="cls-30" d="M1922.71,2290.14c-11.72,8.24-24.6,15-38.65,17.38a58.1,58.1,0,0,1-27.75-1.92c2-22.22,3.8-42,3.57-43.4,0,0,66.92-31.19,67.42-25.15C1927.53,2239.93,1924.91,2261.67,1922.71,2290.14Z"/><path class="cls-31" d="M2073.2,1773.68s-72.45,423.12-68.42,482.49c.54,8-1.36,27.42-7.9,33.09-4.21,3.65-25.93-5.4-31.32-7.2a144.41,144.41,0,0,1-34.93-17.31c-1.63,1.1-5.23,7.94-6.58,9.36-21.07,22-72.24,8.22-72.24,8.22-4.26-26.14,6.31-93.57,11.59-146.4s7.54-215.85,7.54-232.45-30.93-91.31-69.43-221.87c-20-68-19-125.76-13.51-166.78,5-37.74,13.87-61.31,13.51-65.65-2.13-25.77,35.32-41.39,57.09-37,14.78,3,30,12.58,45.26,16.27a605.66,605.66,0,0,0,60.68,10.88c55.12,7.47,108.66,9.87,108.66,9.87s.22,6.52.58,17.76c.52,16.44,1.29,43,2,73.77C2077.8,1626.77,2079.31,1746.37,2073.2,1773.68Z"/><path class="cls-32" d="M2075.79,1540.71a214.67,214.67,0,0,1-54.08,17.76,71.2,71.2,0,0,0-53.3,44.12l-.15.41a205.91,205.91,0,0,0-7.77-94.59c-5.56-17,28.61-31.13,45.18-37.91,21.53-8.82,46.49-11.64,68.11-3.56C2074.3,1483.38,2075.07,1509.89,2075.79,1540.71Z"/><g class="cls-33"><path class="cls-34" d="M1967,1506.53c1.89,32,4,64,6.45,95.92l1.85,24c.68,8,1.3,16,2,23.93,1.41,16,2.83,31.89,4.46,47.82,3.33,31.82,6.76,63.68,11.13,95.34,2.19,15.84,4.49,31.65,7.12,47.41s5.52,31.48,8.63,47.16l1.16,5.88.58,2.94c.19,1,.34,2.14.5,3.19a58.87,58.87,0,0,1,.58,6.42c.09,2.11,0,4.19,0,6.29a192.71,192.71,0,0,1-2.54,24.43c-2.57,16-6.31,31.75-9.78,47.29s-6.91,31.32-10.47,47l-5.39,23.44-5.57,23.4c-3.75,15.58-7.49,31.17-11.36,46.72l-11.68,46.65c-7.92,31.06-15.86,62.11-24.16,93.08,6.46-31.4,13.31-62.71,20.09-94l20.64-93.89,10.16-47q5-23.49,9.86-47c1.64-7.91,3.45-15.68,5.08-23.49s3.15-15.6,4.37-23.41a188.27,188.27,0,0,0,2.35-23.35c0-1.91,0-3.84-.06-5.73a52,52,0,0,0-.53-5.54c-.15-.92-.24-1.76-.43-2.74l-.6-3-1.18-5.9c-6.14-31.53-11.34-63.29-15.37-95.16-2-15.94-3.76-31.9-5.38-47.86-.8-8-1.62-16-2.33-24s-1.44-16-2-24q-3.9-48-5.92-96C1968,1570.65,1967.05,1538.59,1967,1506.53Z"/></g><path class="cls-2" d="M2013.14,1215.36c-2,6.86-6.76,12.58-11.69,17.8-4.79,5.06-10.23,10-17,11.66-8.33,2-16.89-1.41-24.78-4.74-11.25-4.76-22.63-9.6-32.33-17-13.55-10.36-22.95-25.12-31.66-39.8-4.07-6.86-8.07-13.81-11.69-20.93a157.28,157.28,0,0,1-11.91-29.69c-4.15-15.17-5.27-31.77-.74-47,1.24-4.74,4.58-7.93,8.28-10.79,1-.77,2-1.53,3-2.27,1.53-1.12,3-2.24,4.4-3.44,5.27-4.61,7.32-8.23,8.46-13.28.3-1.36.55-2.82.76-4.43a3.46,3.46,0,0,1,4.25-2.89c14.37,3.65,25.44,15.4,39,21.29a74.45,74.45,0,0,0,45.32,4.34c-2.57.53-1.52,14-.94,15.93,2.33,7.51,8.06,11.2,14.46,14.21,2.94,1.39,6,2.63,9,4a650.24,650.24,0,0,0,5.79,83.89C2014.2,1199.91,2015.36,1207.9,2013.14,1215.36Z"/><path class="cls-32" d="M1985.43,1532.65c.25,16.15-116.67-14.12-127.12-13.88-19.58.47-48.44,3.25-70.31-3.94,5-37.74,13.87-61.32,13.51-65.65a142.05,142.05,0,0,1,9.58-29.61,264.86,264.86,0,0,1,42.14-11.39c17.77,15,65.09,24.86,111.31,31.13C1979.29,1466.76,1985,1505.79,1985.43,1532.65Z"/><path class="cls-35" d="M2114.45,1255.08a1.43,1.43,0,0,1-.5.14c-3.35.33-8.28,4.7-13.57,10.67-12.58,14.23-27.18,37.63-27.18,37.63s-6.8,33.2-5.28,64.15c.83,17,5.51,57.15,9.59,89.94,3.34,27,6.25,48.92,6.25,48.92-15.09,49-150.55,5.66-191.68,0s-40-1.14-53.59-28.68-16.6-43.77-16.6-43.77c-12.07,57.35-37.31,67.16-37.31,67.16s3.73-45.65,4.86-65.65c.22-3.89,1.45-10.84,3.28-19.53,44.66-9.93,126.27-43.06,214.7-123.1,0,0,70.35-21.52,70.14-36.23s-20.21-37-20.21-37,16.58-5.39,29.16-13.55h0s15.36,2,16.37,4.49,2.25,24.78,9.05,33C2111.94,1243.71,2113.37,1249.07,2114.45,1255.08Z"/><path class="cls-28" d="M1828.57,1314.55l-.59,1.53c-1.73,1.19-21.21,5-21.21,4.32-.11-17.91-3-35.45-6.63-53-2.39-11.67-9.14-25.29-15.68-35.29a71.17,71.17,0,0,0-37.09-28.18,68.82,68.82,0,0,0-9-2.34c-1.62-.3-3.25-.55-4.89-.72.53-4.25,1.06-8,1.56-11.24a12.31,12.31,0,0,0,1.73.27,11.79,11.79,0,0,1,.21-2.06,16.5,16.5,0,0,1,3.82-7.06c12-14.57,34.28-21.58,52.7-17.76,16.88,3.5,30.79,16.22,39.23,31.25a91.55,91.55,0,0,1,4.59,9.39C1845.69,1240.66,1842.25,1278.87,1828.57,1314.55Z"/><path class="cls-1" d="M2013.14,1215.36c-2,6.86-6.76,12.58-11.69,17.8-4.79,5.06-10.23,10-17,11.66-8.33,2-16.89-1.41-24.78-4.74-11.25-4.76-22.63-9.6-32.33-17-13.55-10.36-22.95-25.12-31.66-39.8-4.07-6.86-8.07-13.81-11.69-20.93l-4.37-87.48-.25-5.17a17.19,17.19,0,0,1,3.29,2.9,42.32,42.32,0,0,1,5.7,8.94c14.3,27.56,27.32,56,45.06,81.57,10.56,15.21,21.18,27.77,40.41,31.42,8.81,1.68,17.82-19.4,20.23-26.85,3.78-11.7,4.39-24,5.11-36.11.54-9-.91-18.2-.78-27.24,2.94,1.39,6,2.63,9,4a650.24,650.24,0,0,0,5.79,83.89C2014.2,1199.91,2015.36,1207.9,2013.14,1215.36Z"/><path class="cls-35" d="M2114.45,1255.08c-1.08-6-2.51-11.37-2.51-11.37-6.8-8.24-8.05-30.5-9.05-33s-16.37-4.49-16.37-4.49a50.79,50.79,0,0,0,8.44-6.7c2.72-2.78,4.65-5.74,5.23-8.83a10,10,0,0,0,.17-2.62s-3.18.72-8,1.86c-2.84.68-6.27,1.5-10,2.41-2.29.55-4.68,1.15-7.09,1.77-12.42,3.16-25.56,6.82-29.26,9.05-7.55,4.54-49.81,46.42-53.58,46.79-3.31.34-101.56,53.08-174.76,66.92.47-1.75.74-2.71.74-2.71q-3.66-28.22-4.58-56.7c-.29-9.1-.81-18.43-.25-27.53.38-6.23,2.37-12.3-.15-18.36,0-.07,0-.13-.08-.19,1.35.57-1.21-3,0,0a4.36,4.36,0,0,1-1-.63c-.55-5-3.84-9.29-7.94-12.12s-9-4.33-13.81-5.49c-15.77-3.76-32.15-4.22-48.38-3.45l-4,.22a11.6,11.6,0,0,1-3.3-.3c-2.59-.53-4.29-1.34-6.29,1.41a234.74,234.74,0,0,1,10.41-25.79c11.91-25.09,14.68-58,36.09-78.06,11.54-10.83,28-6.45,42.87-8.62,21-3.06,42-5.64,62.67-10.47,0,0,50.31,146.41,100.37,154,29.5,4.45,15.84-116.59,19.62-121.5s61.88,20,81.5,26.42c5.18,1.7,10.61,11.33,15.6,24.63,2,5.41,4,11.43,5.83,17.76.1.35.21.71.31,1,2.47,8.66,4.73,17.87,6.63,26.91h0c.89,4.24,1.71,8.44,2.43,12.54C2117.24,1233.37,2118.49,1253.2,2114.45,1255.08Z"/><line class="cls-8" x1="2100.39" y1="1295.72" x2="2080.74" y2="1334.96"/><path class="cls-31" d="M2117.48,1117.12s55.34,3.77,57.35,7-62.64,103.64-62.64,103.64l-48.43-1.41a5.79,5.79,0,0,1-4.84-8.7Z"/><path class="cls-36" d="M2126,1117.12s55.34,3.77,57.35,7-62.64,103.64-62.64,103.64l-58.17-1.69Z"/><path class="cls-27" d="M2160.21,1187.92c-1.19,8-2,16.11-2.53,24.22a551.77,551.77,0,0,0-1.46,55.91c.74,24.52-23.78,82.26-39.3,141.87-7.28,27.95-17.27,40.13-26.34,44.95a23.26,23.26,0,0,1-13.07,2.74c-4.08-32.79-8.76-73-9.59-89.94-1.52-31,5.28-64.15,5.28-64.15s13.17-21.12,25.29-35.43c.63-.76,1.26-1.5,1.89-2.2v29.83s11.3-20.12,14.35-25.16c1.53-2.53.81-9.35-.28-15.48s-2.51-11.37-2.51-11.37c-6.8-8.24-8.05-30.5-9.05-33s-16.37-4.49-16.37-4.49h0c-9.74-4.45-11.59-8.93-11.22-12.11a7.86,7.86,0,0,1,2.27-4.53c-10.29-1.42-9.64-16.85-6.38-16.1,2.63.61,24.28-2,32.81-3.09l3.42-.43-3.73-.62-8.34-1.39c-9.07-3.87-10.57-15.59-10.57-15.59s5.88-.46,13.08-.78c9.83-.45,22.1-.68,25.15.78,5.21,2.47,18.95,23,19.38,23.62-.12-4.85.07-10-1-14.28-1.52-6.24-8.49-10.86-12.27-15.72-4.94-6.33-8.88-14.57-6.54-22.72.26-.89,3.26-6.57,3.43-6.12,1.84,5.08,8.18,9.87,11.85,13.57,6.46,6.52,12.72,13.07,19.14,19.6a5.61,5.61,0,0,1,2.11,4.77C2159.74,1165.79,2161.77,1177.35,2160.21,1187.92Z"/><path class="cls-37" d="M2107.41,1169.94a53.66,53.66,0,0,1,8.25,5.39,74.69,74.69,0,0,1,7.38,6.51,61.39,61.39,0,0,1,6.38,7.55,35.06,35.06,0,0,1,4.65,8.73c-2.1-2.56-4.21-5-6.37-7.34s-4.43-4.64-6.67-7l-6.83-6.85C2111.91,1174.69,2109.63,1172.38,2107.41,1169.94Z"/><path class="cls-37" d="M2077.56,1189.56a96.68,96.68,0,0,1,13.92-.81c2.33,0,4.66.14,7,.35,1.17.1,2.34.28,3.52.47a24,24,0,0,1,3.57.86,8.36,8.36,0,0,1,1.86.87l.49.33.49.49c.25.29.38.48.57.72.71.93,1.43,1.85,2.1,2.81,1.33,1.92,2.65,3.85,3.82,5.88a60.76,60.76,0,0,1,5.84,12.69c-2.47-4-5-7.77-7.69-11.48-1.36-1.84-2.69-3.7-4.12-5.49l-2.12-2.69c-.17-.2-.38-.49-.52-.62l-.12-.12-.24-.15a6.7,6.7,0,0,0-1.28-.57,36.19,36.19,0,0,0-6.49-1.34c-2.24-.35-4.52-.55-6.81-.81C2086.78,1190.5,2082.18,1190.1,2077.56,1189.56Z"/><path class="cls-28" d="M2089.06,1334.57c-5.3,20.65-7.33,39.25-5.25,60.12,2,20.1,4.06,40.16,6.77,60.18a23.26,23.26,0,0,1-13.07,2.74c-4.08-32.79-8.76-73-9.59-89.94-1.52-31,5.28-64.15,5.28-64.15s13.17-21.12,25.29-35.43l1.89,7.79.94,3.83c-.17,3.11-.5,6.22-.94,9.29C2098.18,1304.42,2093,1319.4,2089.06,1334.57Z"/><path class="cls-27" d="M2084.26,943.54c-7.28,24.44-17.07,49.41-29.93,72.12a237.14,237.14,0,0,1-18.17,27.65c-9.76,12.71-19.3,22.47-35.07,26.72-14.14,3.81-25.33-4.28-37.07-11.78-21.43-13.69-36.26-44.64-39.91-70.08-2.06-14.25-.58-26.78,5.2-33.56,16.1-18.87,89.8-90.56,127.79-66.91,7.26,4.51,11.65,8.08,14.55,15.93C2076.43,916.62,2088.48,929.41,2084.26,943.54Z"/><path class="cls-28" d="M2084.26,943.54c-7.28,24.44-17.07,49.41-29.93,72.12a70.51,70.51,0,0,1,3.33-35.75c5.13-14,10.38-24.26,8.36-40-.67-5.2-2.09-21.09-6.39-24.4-3.48-2.68-14.19-.1-17.57,1.41-6.21,2.76-11.35,7.73-15.63,12.89a109.59,109.59,0,0,0-15.59,23.72c-3.13,6.64-9.43,11.44-16.34,13.93s-14.41,2.88-21.75,2.49c-3.62.46.27-.63-3.35-.17a11.35,11.35,0,0,0-4.35,1.18,13.55,13.55,0,0,0-3.32,3.47c-6.14,7.67-15.86,11.8-25.59,13.14a72.27,72.27,0,0,1-12,.57c-2.06-14.25-.58-26.78,5.2-33.56,16.1-18.87,89.8-90.56,127.79-66.91,7.26,4.51,11.65,8.08,14.55,15.93C2076.43,916.62,2088.48,929.41,2084.26,943.54Z"/><path class="cls-16" d="M2077.75,1083.41c.08-.05.32,0,.85.4C2078.14,1083.58,2077.88,1083.46,2077.75,1083.41Z"/><path class="cls-16" d="M2077.13,1083.57a14.87,14.87,0,0,1-1.29-1.09c.28.17.57.32.86.46,1.62.83.61.28,1,.47C2077.54,1083.51,2078.65,1084.74,2077.13,1083.57Z"/><g class="cls-38"><path class="cls-37" d="M2026,969.74c-.33,6,1.42,12.08,1.6,18,.2,6.36,2.06,12,4.26,17.81,2.86,7.59,0,12-6,16.25a.91.91,0,0,0-.56,0c2.63-4.58,3.87-9.83,2.3-15-.44-1.48-1.09-2.88-1.61-4.33-2.57-7-2.22-14.81-1.17-22.24Z"/></g><path class="cls-39" d="M2025.58,967.24c-.33,6.16-.63,12.25-.57,18.27a72.08,72.08,0,0,0,.64,8.89,26.26,26.26,0,0,0,2.1,7.52c3.22,6.35,6.61,13.12-.11,18.84-3.29,2.8-7.36,3.45-11.13,1.27,4.13,1,10.34-1.5,12-5.69,1.59-4,.56-8.76-1.39-12.46-4.17-7.92-4.21-15.82-3.62-24.48C2023.77,975.31,2025.36,971.4,2025.58,967.24Z"/><path class="cls-40" d="M2005.9,964.92c-1-2.16-5.05-6.73-5.05-6.73v-3.91l-1.82,3.36s-3.18-.11-8.07-.58a120,120,0,0,0-13.66.06l18.87,2.71a10,10,0,0,1,3.8,1.39Z"/><path class="cls-40" d="M1999.88,969.23c-1.43,3.85-5,6.07-8,5s-4.23-5.11-2.81-9,5-6.07,8-5S2001.3,965.39,1999.88,969.23Z"/><g class="cls-41"><path class="cls-42" d="M2003.71,969.06c-.28.74-1.75.89-3.29.32s-2.55-1.63-2.28-2.38,1.74-.89,3.28-.32S2004,968.32,2003.71,969.06Z"/></g><path class="cls-43" d="M1959.39,943.77c7.87-3.61,17.35-6.8,25.76-5.13,9.59,1.91,16,5.38,24.71,8.51,2.28.82,1.86,4.05,0,5s-4-.5-5.6-1.23a76.32,76.32,0,0,0-16.58-5.57,74.87,74.87,0,0,0-11-1.71c-4.12-.37-13.56-1-18.41.69A8.28,8.28,0,0,1,1959.39,943.77Z"/><path class="cls-40" d="M2041.77,977.33a53.63,53.63,0,0,1,7.09-4.44l2.19-3.66-.68,3.82s2.18,1.06,5.67,2.42a62.92,62.92,0,0,1,9,5.07l-14-4.39a6.35,6.35,0,0,0-3.28-.1Z"/><path class="cls-40" d="M2043.8,982.85c-.45,3.59,1.23,6.34,3.75,6.13s4.93-3.28,5.38-6.88-1.23-6.33-3.75-6.13S2044.25,979.26,2043.8,982.85Z"/><path class="cls-43" d="M2070.69,976.36c-.55-4.16-2.61-11.24-7.72-13.12a154.35,154.35,0,0,0-15.28-4.63c-1.48-.4-2.63,2.25-2.27,3.47s1.95,1.25,3,1.63c3.48,1.31,6.86,2.25,10.23,3.33,2.53.81,3.08.76,5.66,2.55,2,1.37,5.77,5.13,6.58,7.57A4.32,4.32,0,0,0,2070.69,976.36Z"/><g class="cls-38"><ellipse class="cls-37" cx="1965.55" cy="992.8" rx="15.18" ry="23.33" transform="translate(458.91 2598.75) rotate(-73.63)"/></g><g class="cls-38"><path class="cls-37" d="M2045.45,1033.67a222.2,222.2,0,0,0,13-21.82l1.23-2.33c-10-1.1-18.6,2.51-20.57,9.22C2037.68,1023.75,2040.28,1029.33,2045.45,1033.67Z"/></g><g class="cls-41"><path class="cls-42" d="M2055.63,984c-.42.76-2,.67-3.59-.19s-2.49-2.17-2.08-2.93,2-.67,3.59.19S2056,983.19,2055.63,984Z"/></g><path class="cls-43" d="M2020.42,1033.37a19.65,19.65,0,0,1-13.28,9.11,16.61,16.61,0,0,1-17.67-7.55,15.15,15.15,0,0,1-2.09-6.07c-.5-3.8.07-7.87.68-11.7C1987.17,1022.82,2020.89,1032.58,2020.42,1033.37Z"/><path class="cls-39" d="M2007.14,1042.48a16.61,16.61,0,0,1-17.67-7.55,15.15,15.15,0,0,1-2.09-6.07c1,.18,2,.34,3,.47A21.38,21.38,0,0,1,2007.14,1042.48Z"/><path class="cls-16" d="M2097.68,994.69c-10.54,22.38-30.86,38.8-30.78,65.15,0,8.35,2.79,17.09,8.94,22.64a46.72,46.72,0,0,1-23.69-29.52c-4.59-16.14-2.1-35,4.23-51.15,7.07-18.06,16.34-36.13,15.78-55.51-.3-10.41-4-20.59-9-29.76-.5-.91-1-1.8-1.53-2.69a16.2,16.2,0,0,0,1.68-3.17c4.81-12.61-22.7-9.13-29.65-5.94-14.86,6.83-14.83,28.8-22.12,41.34a44.76,44.76,0,0,1-2.91,4.44c-12.13,16.37-31.53,19-51.13,12.19,0,0-1.3,1.71-3.63,4.21-6.55,7-21.19,20-37.88,17.77-7.73-1-15.9-5.31-23.9-15-1.62-14.44-7.71-27.81-11.5-41.7-7-25.43,3.47-52.55,19.71-71.92,9.47-11.29,17.63-18.75,31.54-24.17a114.18,114.18,0,0,1,39-7.78c18.75-.4,36.7-1,54.46,6.14a93.23,93.23,0,0,1,40.61,32c6.74,9.32,19,28.2,10.17,38.93,2.33-2.83,20.92,32.27,21.82,34.15C2106.67,953.67,2106.35,976.31,2097.68,994.69Z"/><path class="cls-28" d="M2008.33,1292.67l-.91.29c-61.26,55.45-119.25,88.38-164,106.68,21.71-11,41.92-24.77,62.54-37.73,33.54-21.11,64-42.64,89.1-73.89.77-1,1.72-2,2.94-2a4,4,0,0,1,2.21,1C2000.8,1287.35,2004.44,1290,2008.33,1292.67Z"/><path class="cls-20" d="M2075,982.24c-6.31,10.46-14.36,22.26-18.65,33.61-4.14,11-4.78,24.69-4.24,37.11-4.59-16.14-2.1-35,4.23-51.15,7.07-18.06,16.34-36.13,15.78-55.51-.33-11.44-4.73-22.59-10.54-32.45a16.2,16.2,0,0,0,1.68-3.17c10.91,5.64,18.49,16.38,21.84,28.06C2089.84,955.17,2083.41,968.41,2075,982.24Z"/><path class="cls-20" d="M1976,924.37a40.52,40.52,0,0,1-6.51,25.43c-1,1.48-16.66,15.11-16.93,14.38a14.72,14.72,0,0,0,1.31,2.74c-6.55,7-21.19,20-37.88,17.77a9.12,9.12,0,0,1,1.85-2.51c2.34-2.2,5.7-2.77,8.78-3.68,11.76-3.43,22.23-14.7,30.6-23.27C1965.05,947.22,1975.64,936.16,1976,924.37Z"/><path class="cls-20" d="M2068.89,900.64c-.2,4.72-1.71,9.28-3.22,13.76l-2.52,2.14c-.5-.91-1-1.8-1.53-2.69a16.2,16.2,0,0,0,1.68-3.17c4.81-12.61-22.7-9.13-29.65-5.94-14.86,6.83-14.83,28.8-22.12,41.34a44.76,44.76,0,0,1-2.91,4.44c5.14-11.06,2.05-20.4,3.85-31.82,2.54-16.08,17.74-30.93,33.25-34.3,6.41-1.39,13.87-1.28,18.61,3.25C2067.76,890.92,2069.07,895.92,2068.89,900.64Z"/><path class="cls-20" d="M1980.9,875.94c2-4.6,4.53-9.86,7.81-12.62,6.3-5.3,18.55-4.18,26.1-3.89-22.7-.88-28.71,14-34.06,33.4-4.39,15.92-10.12,29.39-26.16,36.38-17.44,7.6-29.41,9.86-48.08,4.13,17.67-.75,38.79-5.12,52-17.76,13-12.44,16.09-43.47,34.46-49"/><path class="cls-16" d="M1892,862.39a149,149,0,0,0-10.38,24.89,149.84,149.84,0,0,0-6.8,53.05,145.09,145.09,0,0,0,3.81,26.49l1.64,6.91-4.1-5.79a8.74,8.74,0,0,0-7.06-3.38,12.92,12.92,0,0,0-7.91,2.48,22.75,22.75,0,0,0-5.57,6.7,24,24,0,0,0-2.63,8.42,37.28,37.28,0,0,0,2.54,17.75,50.82,50.82,0,0,0,9.48,15.55,37.07,37.07,0,0,0,14.73,10.42,26.71,26.71,0,0,0,8.92,1.47,54.49,54.49,0,0,0,9.21-.62,28.46,28.46,0,0,0,4.44-1.07,9.66,9.66,0,0,0,3.78-2.12,11.39,11.39,0,0,0,2.28-3.82,23.58,23.58,0,0,0,1.17-4.44,54.36,54.36,0,0,0-.13-18.61,52,52,0,0,1,1,18.74c-.43,3.1-1.2,6.37-3.39,8.95a10.9,10.9,0,0,1-4.21,2.63,30.7,30.7,0,0,1-4.65,1.24,55,55,0,0,1-9.49.87,28.35,28.35,0,0,1-9.55-1.35,38.72,38.72,0,0,1-15.87-10.67,53,53,0,0,1-10.17-16.22,39.18,39.18,0,0,1-2.82-19,26.58,26.58,0,0,1,2.91-9.4,24.65,24.65,0,0,1,6.35-7.64,15.66,15.66,0,0,1,9.68-3,12.94,12.94,0,0,1,5.09,1.16,10.56,10.56,0,0,1,4.13,3.4l-2.45,1.12a140,140,0,0,1-3.62-27,146.56,146.56,0,0,1,8.16-53.54A136.6,136.6,0,0,1,1892,862.39Z"/><path class="cls-1" d="M750.67,2276.17c29.67,38.64,74.43,76.88,121.55,64.5,7-1.85,14-5,18.68-10.56,5.73-6.83,7.15-16.29,7.09-25.21-.39-60.07-53.73-103.79-95.15-147.3-88-92.42-136.85-220.93-132.53-348.46,1-28.1-1-64.68-28-72.75C591.18,1925.31,630.23,2119.37,750.67,2276.17Z"/><path class="cls-1" d="M3982.61,1343.43c9.95,139.44-6,283.85-36.77,419.77,21-92.89,81.26-168.11,100.44-265.35s16.93-195.78-1.68-292.79c-5.2-27.11-21.18-140.61-62.65-137.1-32.48,2.75-31.35,82.88-29.61,104.37,4.62,56.94,25.86,111.41,30.07,168.35C3982.48,1341.6,3982.54,1342.51,3982.61,1343.43Z"/><path class="cls-1" d="M3878.28,1932c23.59,13.32,57.07,5.75,71.79-17s7.27-57.18-16.06-71-57.86-2.87-68.16,22.19,7.55,57.7,34.36,61.62"/><path class="cls-1" d="M3990.79,1835.57c-5.28,12.77,13,25.33,25.6,19.68s17.76-21.06,17.94-34.87c.06-4.36-.28-8.85-2.22-12.75-6.64-13.3-28.25-10.87-37.31.91s-9.19,27.91-8.92,42.77"/></g></svg>