<svg xmlns="http://www.w3.org/2000/svg" xmlns:xlink="http://www.w3.org/1999/xlink" viewBox="0 0 4680 3120"><defs><style>.cls-1{fill:#d3e0db;}.cls-19,.cls-2,.cls-23,.cls-6{fill:#fff;}.cls-3{fill:#b6cec4;}.cls-4{fill:#f3f5f4;}.cls-5,.cls-7{fill:#9ab5a9;}.cls-13,.cls-6{stroke:#000;stroke-width:4px;}.cls-13,.cls-42,.cls-6{stroke-miterlimit:10;}.cls-7{opacity:0.44;}.cls-8{fill:#fdb23d;}.cls-9{fill:#070208;}.cls-10{fill:#72120c;}.cls-11{fill:#f28b0f;}.cls-12{fill:#ffc83e;}.cls-13,.cls-42{fill:none;}.cls-14{fill:#530905;}.cls-15{clip-path:url(#clip-path);}.cls-16{opacity:0.57;}.cls-17{clip-path:url(#clip-path-2);}.cls-18,.cls-23{opacity:0.56;}.cls-19{opacity:0.58;}.cls-20{opacity:0.36;}.cls-21{fill:#84a05c;}.cls-22{fill:#60723d;}.cls-24{fill:#fcdccd;}.cls-25{fill:url(#linear-gradient);}.cls-26{fill:#296f7a;}.cls-27{fill:#c73f00;}.cls-28{fill:#f2ad94;}.cls-29{fill:#524e53;}.cls-30{opacity:0.62;}.cls-31{fill:#ac2a03;}.cls-32{fill:#8e1c02;}.cls-33{fill:#ea9378;}.cls-34{fill:#0b3f42;}.cls-35{fill:#072b2b;}.cls-36{opacity:0.5;}.cls-37{fill:#3c393d;}.cls-38{opacity:0.51;}.cls-39{opacity:0.4;}.cls-40{fill:url(#linear-gradient-2);}.cls-41{fill:#ffd3c2;}.cls-42{stroke:#ea9378;stroke-width:2.83px;}.cls-43{fill:#f68e6e;}.cls-44{fill:#ee6749;}</style><clipPath id="clip-path"><path class="cls-1" d="M2003.38,1628c8.91,53,35.81,214.06,35.36,224.82l-374.81-15.64s-72.81-100.45-55.69-169c2.09-8.38,248.89-56.1,375.55-57.08A19.89,19.89,0,0,1,2003.38,1628Z"/></clipPath><clipPath id="clip-path-2"><path class="cls-1" d="M2555,1691.23c-54.48-20.91-285.58-104.64-439.29-82.23a9,9,0,0,0-7.2,10.9c7.55,36,35.08,165.86,51.12,221.17a24.22,24.22,0,0,0,21.3,17.69l393.31,29.34,24.19-64.48-27.64-115.45A26.89,26.89,0,0,0,2555,1691.23Z"/></clipPath><linearGradient id="linear-gradient" x1="1944.15" y1="1401.38" x2="1822.18" y2="1252.77" gradientUnits="userSpaceOnUse"><stop offset="0" stop-color="#fff"/><stop offset="0.04" stop-color="#fff" stop-opacity="0.95"/><stop offset="0.4" stop-color="#fff" stop-opacity="0.55"/><stop offset="0.69" stop-color="#fff" stop-opacity="0.25"/><stop offset="0.9" stop-color="#fff" stop-opacity="0.07"/><stop offset="1" stop-color="#fff" stop-opacity="0"/></linearGradient><linearGradient id="linear-gradient-2" x1="3005.31" y1="1299.3" x2="3039.13" y2="1105.6" xlink:href="#linear-gradient"/></defs><title>03</title><g id="_03" data-name="03"><rect id="_03-2" data-name="03" class="cls-2" width="4680" height="3120"/><path class="cls-3" d="M3948.06,2464.92h-3236c0,109.87,132.85,233.37,249.52,233.37h35.86l-36,1.3c286.54,32.66,792.71,54.35,1369.33,54.35,575.71,0,1081.19-21.62,1368-54.19l-39-1.46h38.84C3836.34,2698.29,3948.06,2593.8,3948.06,2464.92Z"/><ellipse class="cls-1" cx="2330.06" cy="2464.92" rx="1618" ry="116.36"/><path class="cls-1" d="M4083.86,1951.64c-15.77,51.3-103.58,50.27-142.52,72.08-55.27,31-88.13,88.92-146.12,112.39,36-88.65,132.87-262.24,255.61-232.38C4072,1908.87,4090.24,1930.86,4083.86,1951.64Z"/><path class="cls-1" d="M668.55,1234.61c-29.45,106.26-33,218.38-22.75,328.17q3.69,39.67,9.74,79.08A1346.19,1346.19,0,0,0,712,1871.91c-44.68-47.49-63.12-113.33-78.17-176.77q-6.28-26.49-12.07-53.15c-21.85-101.25-36.92-204.22-32.87-307.54,4.42-112.6,76.53-456.4,214.32-487.7h0c3.16-.71-57.11,181.76-64.15,198.1C712.58,1106.22,686.51,1169.84,668.55,1234.61Z"/><path class="cls-4" d="M4015.06,1703.63a774.31,774.31,0,0,1-125.35,175.26c-127,133.78-262.13,176.25-415.86,203.63h0c-24.43,4.35-49.32,8.31-74.72,12.2-17.72,2.72-35.69,5.4-53.93,8.15q-9.78,1.47-19.67,3l-9.91,1.52-10,1.54h0q-8.64,1.34-17.37,2.73l-10.89,1.75q-3.29.53-6.55,1.1c-2.19.37-4.37.75-6.54,1.16s-4.36.8-6.53,1.22-4.34.84-6.51,1.28-4.13.83-6.19,1.27l-.61.13c-1.75.36-3.49.74-5.24,1.12q-3.92.85-7.83,1.75-3,.67-5.94,1.38-2.62.6-5.26,1.25l-6.33,1.55-3.74.94q-3.86,1-7.71,2l-5.72,1.51c-2.56.67-5.11,1.36-7.67,2.07l-3.74,1c-3.75,1-7.51,2.09-11.25,3.16s-7.5,2.16-11.24,3.26l-5.61,1.66-4.33,1.3q-6.26,1.88-12.48,3.79l-9.94,3.07-12.73,4-1.3.41-9.59,3-6.63,2.1c-1.61.52-3.21,1-4.82,1.53l-4.42,1.41-3.77,1.21-2.59.82-6.89,2.19c-1.37.44-2.73.88-4.1,1.3l-1.74.55h0c-46.12,14.61-92.32,28.66-139.36,38.22h0a607.44,607.44,0,0,1-82.4,11.3q-17.28,1.11-34.8,1l-249.8-2-585.09-4.59-148.87-1.17L1356.29,2208c-27.14-.22-49.48.21-70.29-.86a278.4,278.4,0,0,1-43-5.23c-18.71-3.9-38.11-10.33-60.75-21-199.8-94-328.38-249.45-394.54-429.79q-6-16.49-11.4-33.23-1.82-5.67-3.54-11.36-11.22-36.88-19.16-74.84c-18.95-90.31-24.12-184.49-16.48-278.55,17.5-215.27,102.13-429.95,242.42-596.35C1079,638.93,1204.5,542,1343.73,474.09q19.49-9.51,39.32-18.23,17.42-7.65,35.09-14.72,18.31-7.32,36.88-14l1.07-.38q18-6.42,36.16-12.19,11.25-3.59,22.57-6.9,17.43-5.13,35-9.64l2.93-.75q17.09-4.33,34.31-8.09,12.18-2.66,24.41-5,16.55-3.19,33.19-5.84l4.77-.75q16.2-2.49,32.47-4.46,13.11-1.57,26.25-2.81,15.64-1.49,31.34-2.44,3.32-.21,6.63-.38c1.8-.11,3.6-.2,5.4-.29q12.6-.62,25.21-.91,14-.33,28.11-.25,14.75.09,29.49.65l.53,0,7.95.33q14.39.68,28.76,1.79h0q15,1.15,29.92,2.81,13.47,1.47,26.92,3.37l.72.1c3.44.48,6.89,1,10.33,1.52,4.91.74,9.81,1.54,14.71,2.37,3.67.62,7.34,1.27,11,1.95l1.22.23q22.79,4.26,44.79,9.86,5.44,1.37,10.84,2.82,7.4,2,14.7,4.11,11.1,3.23,22,6.72,28.92,9.25,56.84,20.34,7.77,3.06,15.48,6.25,10.68,4.41,21.27,9,28.74,12.56,56.84,26.45,18.47,9.06,36.75,18.53,27.72,14.32,55.26,29.27l1.58.85q18.36,9.91,36.74,19.92,14.37,7.8,28.8,15.61,20.21,10.9,40.62,21.69,20.64,10.88,41.6,21.43,8.53,4.3,17.14,8.51,9,4.44,18.19,8.78l1.35.64,1.34.64q28.68,13.56,57.85,25.05,7.65,3,15.31,5.92l3.51,1.31q24.64,9.18,49.58,17.09l.33.1c26.71,8.48,53.66,15.92,80.81,22.5h0q6.21,1.5,12.44,3h0q9.59,2.24,19.2,4.31,17.28,3.76,34.66,7.1,36.29,7,72.94,12.41h0l9.78,1.44h0q15,2.17,30.06,4.13,17.3,2.26,34.65,4.26,8.66,1,17.3,2,26.14,2.88,52.39,5.33,21.52,2,43.12,3.86,29,2.48,58.1,4.72l5.1.4,2.88.22,2.12.17,20.56,1.59,4.5.35,9.13.7q38.27,2.93,76.5,6,17.34,1.43,34.65,2.94h.17q17.11,1.49,34.19,3.12c25,2.38,49.88,5,74.71,7.95l3.73.45q16.47,2,32.88,4.19,8.67,1.17,17.32,2.41l1,.15q37,5.31,73.7,12.07h0q21.83,4,43.49,8.72c105.86,22.87,212.76,67.45,305,131.39,88.51,61.35,163.53,140.53,211.13,235.46C4123.37,1334.64,4103.22,1534,4015.06,1703.63Z"/><path class="cls-1" d="M2696,684.65V1732.91h0q-23.28-8.12-46.6-16c-34-11.51-68.33-22.66-102.94-33.06-31.74-9.56-63.72-18.49-95.87-26.55-105.24-26.34-212.36-43.19-319.46-41V431.32q10.68,4.41,21.27,9,28.74,12.56,56.84,26.45,18.47,9.06,36.75,18.53,27.72,14.32,55.26,29.27l1.58.85q18.36,9.91,36.74,19.92,14.37,7.8,28.8,15.61,20.21,10.9,40.62,21.69,20.64,10.88,41.6,21.43,8.53,4.3,17.14,8.51,9,4.44,18.19,8.78l1.35.64,1.34.64q28.68,13.56,57.85,25.05,7.65,3,15.31,5.92l3.51,1.31q24.64,9.18,49.58,17.09l.33.1c26.71,8.48,53.66,15.92,80.81,22.5Z"/><rect class="cls-5" x="2185.26" y="550.99" width="115" height="91.63"/><path class="cls-5" d="M2450.59,594.11v48.52h-115V551h32.79q20.21,10.9,40.62,21.69Q2429.63,583.55,2450.59,594.11Z"/><rect class="cls-5" x="2185.26" y="756.77" width="115" height="91.63"/><rect class="cls-5" x="2335.59" y="756.77" width="115" height="91.63"/><rect class="cls-6" x="2485.92" y="688.08" width="115" height="61.05"/><rect class="cls-5" x="2185.26" y="962.54" width="115" height="91.63"/><rect class="cls-5" x="2335.59" y="962.54" width="115" height="91.63"/><rect class="cls-6" x="2485.92" y="825.17" width="115" height="61.05"/><rect class="cls-6" x="2485.92" y="962.26" width="115" height="61.05"/><path class="cls-5" d="M2696,684.65V1732.91q-23.28-8.12-46.6-16c-34-11.51-68.33-22.66-102.94-33.06-31.74-9.56-63.72-18.49-95.87-26.55V594.11q8.53,4.3,17.14,8.51,9,4.44,18.19,8.78l1.35.64,1.34.64q28.68,13.56,57.85,25.05,7.65,3,15.31,5.92l3.51,1.31q24.64,9.18,49.58,17.09l.33.1C2641.9,670.63,2668.85,678.07,2696,684.65Z"/><path class="cls-1" d="M2011.23,391.08V1633.14c-21.28,16.08-38.92,49.42-44.88,71.16-170.77,12.35-332.27-9.11-480.44-62.28h0a1076.51,1076.51,0,0,1-153.87-69.2l11.7-1098.72q19.49-9.51,39.32-18.23,17.42-7.65,35.09-14.72,18.31-7.32,36.88-14l1.07-.38q18-6.42,36.16-12.19,11.25-3.59,22.57-6.9,17.43-5.13,35-9.64l2.93-.75q17.09-4.33,34.31-8.09,12.18-2.66,24.41-5,16.55-3.19,33.19-5.84l4.77-.75q16.2-2.49,32.47-4.46,13.11-1.57,26.25-2.81,15.64-1.49,31.34-2.44,3.32-.21,6.63-.38c1.8-.11,3.6-.2,5.4-.29q12.6-.62,25.21-.91,14-.33,28.11-.25,14.75.09,29.49.65l.53,0,7.95.33q14.39.68,28.76,1.79h0q15,1.15,29.92,2.81,13.47,1.47,26.92,3.37l.72.1c3.44.48,6.89,1,10.33,1.52,4.91.74,9.81,1.54,14.71,2.37,3.67.62,7.34,1.27,11,1.95l1.22.23Q1989.23,385.48,2011.23,391.08Z"/><path class="cls-3" d="M1456.09,426.79v926.46h-37.95V441.14q18.31-7.32,36.88-14Z"/><path class="cls-3" d="M1552.78,397.31v955.94h-38V407.7q17.43-5.13,35-9.64Z"/><path class="cls-3" d="M1649.46,377.62v975.63h-38v-969q16.55-3.19,33.19-5.84Z"/><path class="cls-3" d="M1746.15,367.53v985.72h-38V370.35q15.64-1.49,31.34-2.44Q1742.84,367.7,1746.15,367.53Z"/><path class="cls-3" d="M1842.84,367.08v986.17h-38V366.08q14.75.09,29.49.65l.53,0Z"/><path class="cls-3" d="M1939.53,376.67v976.58h-38V371.68q13.47,1.47,26.92,3.37l.72.1C1932.64,375.63,1936.09,376.14,1939.53,376.67Z"/><path class="cls-3" d="M3111.34,739.5v1127q-15.36-3.66-30.66-7.61c-34.29-8.84-68.36-18.68-102.25-29.21-48-14.86-95.62-31.08-143.16-47.7h0c-46.46-16.26-92.82-32.9-139.25-49.07h0q-23.28-8.12-46.6-16c-34-11.51-68.33-22.66-102.94-33.06V637.73q7.65,3,15.31,5.92l3.51,1.31q24.64,9.18,49.58,17.09l.33.1c26.71,8.48,53.66,15.92,80.81,22.5h0q6.21,1.5,12.44,3h0q9.59,2.24,19.2,4.31,17.28,3.76,34.66,7.1,36.29,7,72.94,12.41h0l9.78,1.44h0q15,2.17,30.06,4.13,17.3,2.26,34.65,4.26,8.66,1,17.3,2,26.14,2.88,52.39,5.33,21.52,2,43.12,3.86,29,2.48,58.1,4.72l5.1.4,2.88.22,2.12.17Z"/><rect class="cls-4" x="2600.59" y="748.23" width="115" height="84.1"/><rect class="cls-4" x="2750.92" y="748.23" width="115" height="84.1"/><rect class="cls-6" x="2901.25" y="748.23" width="115" height="84.1"/><path class="cls-1" d="M3400.14,767.76V1918.54c-46.71-8.8-95.1-18.56-146.56-25.33a1394.29,1394.29,0,0,1-142.24-26.71q-15.36-3.66-30.66-7.61c-34.29-8.84-68.36-18.68-102.25-29.21-48-14.86-95.62-31.08-143.16-47.7h0V711.42h0l9.78,1.44h0q15,2.17,30.06,4.13,17.3,2.26,34.65,4.26,8.66,1,17.3,2,26.14,2.88,52.39,5.33,21.52,2,43.12,3.86,29,2.48,58.1,4.72l5.1.4,2.88.22,2.12.17,20.56,1.59,4.5.35,9.13.7q38.27,2.93,76.5,6,17.34,1.43,34.65,2.94h.17q17.11,1.49,34.19,3.12c25,2.38,49.88,5,74.71,7.95l3.73.45q16.47,2,32.88,4.19,8.67,1.17,17.32,2.41Z"/><rect class="cls-5" x="3233.96" y="772.99" width="115" height="61.05" transform="translate(6582.93 1607.04) rotate(-180)"/><rect class="cls-5" x="3083.63" y="772.99" width="115" height="61.05" transform="translate(6282.27 1607.04) rotate(-180)"/><path class="cls-1" d="M3080.68,737.12V1858.89c-34.29-8.84-68.36-18.68-102.25-29.21-48-14.86-95.62-31.08-143.16-47.7V711.42l9.78,1.44h0q15,2.17,30.06,4.13,17.3,2.26,34.65,4.26,8.66,1,17.3,2,26.14,2.88,52.39,5.33,21.52,2,43.12,3.86Q3051.59,734.88,3080.68,737.12Z"/><path class="cls-3" d="M3185.25,2134.13c-3.75,1-7.51,2.09-11.25,3.16s-7.5,2.16-11.24,3.26l-5.61,1.66-4.33,1.3q-6.26,1.88-12.48,3.79l-9.94,3.07-12.73,4-1.3.41-9.59,3-6.63,2.1c-1.61.52-3.21,1-4.82,1.53l-8.19,2.62-2.59.82-6.89,2.19c-1.37.44-2.73.88-4.1,1.3l-1.75.56c-46.12,14.61-92.32,28.66-139.36,38.22h0a607.44,607.44,0,0,1-82.4,11.3q-17.28,1.11-34.8,1l-249.8-2-585.09-4.59-148.87-1.17L1356.29,2208c-27.14-.22-49.48.21-70.29-.86a278.4,278.4,0,0,1-43-5.23c-18.71-3.9-38.11-10.33-60.75-21-199.8-94-328.38-249.45-394.54-429.79,88-33.26,177.35-66.91,267.49-99.25,105-37.67,211.1-73.58,317.3-105q57-16.89,114.06-31.93c1.88-.5,3.76-1,5.64-1.48q28.82-7.53,57.6-14.49,18.63-4.51,37.24-8.76,28.83-6.6,57.6-12.55,7-1.44,14-2.84,11.65-2.34,23.28-4.9,28.85-6.32,57.59-13.75,18.63-4.77,37.24-9.89,28.83-7.9,57.6-16.36,18.63-5.43,37.24-11,28.8-8.57,57.6-17.12,18.61-5.5,37.24-10.88c23.43-6.73,46.87-13.25,70.33-19.35,39.11-10.16,78.29-19.15,117.62-26q26.49-4.63,53.08-7.88a785.46,785.46,0,0,1,112.8-5.87q17.3.39,34.66,1.69a609.18,609.18,0,0,1,181.68,41.73q12.73,5.07,25.16,10.69c52.15,23.52,100.57,54,146.68,88.21h0c35.9,26.63,70.4,55.55,104.16,85.24q12.83,11.29,25.53,22.7l6.9,6.21h0q16.24,14.63,32.36,29.3l0,0c24,21.79,50.49,43.43,77.4,65.45,46.14,37.75,93.42,76.6,130.94,119.19q9.66,11,18.4,22.26a155,155,0,0,1,11.66,17.41c18,31.3,21.93,64.43,20.55,99.3-.56,14-2,28.31-3.69,42.88-5.76,49.11-11.89,71.49-5.41,90.36h0c5.84,17,22,31.22,57.94,59.61Z"/><path class="cls-3" d="M3136.39,1941.27c-6.62,5.67-13.5,11.08-20.55,16.29-9.78,7.26-19.89,14.14-30.06,20.79q-6.3,4.13-12.61,8.14-38.86,24.79-78.76,48.17c-134.9,78.91-278.36,144-429,182.83l-585.09-4.59a848,848,0,0,1-85.57-31.86q-26.41-11.48-52-24.87L1799,2005.63q228.24-105.32,460.62-201.3,103.67-42.82,208.09-83.77,47-18.4,94-36.42,73.16-28,146.68-55.08h0q64.71-23.83,129.69-47l6.9,6.21h0q16.24,14.63,32.36,29.3l0,0c24,21.79,50.49,43.43,77.4,65.45,46.14,37.75,93.42,76.6,130.94,119.19q9.66,11,18.4,22.26a155,155,0,0,1,11.66,17.41C3133.84,1873.27,3137.77,1906.4,3136.39,1941.27Z"/><path class="cls-1" d="M4015.06,1703.63a774.31,774.31,0,0,1-125.35,175.26c-127,133.78-262.13,176.25-415.86,203.63h0c-24.43,4.35-49.32,8.31-74.72,12.2-17.72,2.72-35.69,5.4-53.93,8.15q-9.78,1.47-19.67,3l-9.91,1.52c-3.31.5-6.64,1-10,1.54h0q-8.64,1.34-17.37,2.73l-10.89,1.75q-3.29.53-6.55,1.1t-6.54,1.16q-3.27.58-6.53,1.22c-2.17.42-4.34.84-6.51,1.28l-6.19,1.27-.61.13-5.24,1.12q-3.92.85-7.83,1.75-3,.67-5.94,1.38-2.62.6-5.26,1.25c-2.11.51-4.22,1-6.33,1.55l-3.74.94q-3.86,1-7.71,2-2.87.74-5.72,1.51c-2.56.67-5.11,1.36-7.67,2.07-1.25.33-2.5.68-3.75,1q-5.62,1.56-11.24,3.17t-11.24,3.26l-5.61,1.66-4.33,1.3q-6.26,1.88-12.48,3.79-5,1.51-9.94,3.07l-12.73,4-1.3.41-9.59,3-6.63,2.1c-1.61.52-3.21,1-4.82,1.53l-4.42,1.41-6.36,2-6.89,2.19-4.1,1.3-1.74.55h0c-46.12,14.61-92.32,28.66-139.36,38.22h0a607.44,607.44,0,0,1-82.4,11.3q-17.28,1.11-34.8,1l-249.8-2-585.09-4.59-148.87-1.17,63.3-30.69,548.71-266q49.48-24,99.07-47.91l19.24-9.24q73.08-35.06,146.68-69h0q67.93-31.21,136.59-60.67h0q54.58-23.32,109.78-45.08,65-25.53,130.94-48.35,15-5.17,30.06-10.17,10.59-3.52,21.22-6.95c85.18-27.5,173.13-50.93,262.06-56.44a600.39,600.39,0,0,1,75.05-.11c112.95,7.1,220.41,48.55,328.16,83.18Q3907.48,1678.08,4015.06,1703.63Z"/><path class="cls-7" d="M3473.85,2082.52h0c-24.43,4.35-49.32,8.31-74.72,12.2V2128c-30.31-6.31-61.34-13.08-93.48-19.05h0q-8.64,1.34-17.37,2.73l-10.89,1.75q-3.29.53-6.55,1.1t-6.54,1.16q-3.27.58-6.53,1.22c-2.17.42-4.34.84-6.51,1.28l-6.19,1.27-.61.13-5.24,1.12q-3.92.85-7.83,1.75-3,.67-5.94,1.38-2.62.6-5.26,1.25l-6.33,1.55-3.74.94q-3.86,1-7.71,2l-5.72,1.51c-2.56.67-5.11,1.36-7.67,2.07l-3.74,1c-3.75,1-7.51,2.09-11.25,3.16s-7.5,2.16-11.24,3.26l-5.61,1.66-4.33,1.3q-6.26,1.88-12.48,3.79l-9.94,3.07-12.73,4-1.3.41-9.59,3-6.63,2.1c-1.61.52-3.21,1-4.82,1.53l-8.19,2.62-2.59.82-6.89,2.19c-1.37.44-2.73.88-4.1,1.3l-1.75.56c-46.12,14.61-92.32,28.66-139.36,38.22h0a607.44,607.44,0,0,1-82.4,11.3q-17.28,1.11-34.8,1l-249.8-2-585.09-4.59-148.87-1.17L1356.29,2208c-27.14-.22-49.48.21-70.29-.86a278.4,278.4,0,0,1-43-5.23c-18.71-3.9-38.11-10.33-60.75-21-199.8-94-328.38-249.45-394.54-429.79q-6-16.49-11.4-33.23-1.82-5.67-3.54-11.36-11.22-36.88-19.16-74.84a238.93,238.93,0,0,0,35-12.42q132.55,17.94,266.57,32.6c105,11.37,210.43,20.87,316,27.91,222.24,14.83,445.11,18.77,665.5,6.14q58.93-3.39,117.62-8.39c105.27-9,209.83-22,313.34-39.73q47.17-8.05,94-17.45,73.76-14.78,146.68-33h0q52.32-13.07,104.16-28,16.24-4.67,32.43-9.54h0q121.89-36.64,240.72-84.34,15.06-6.08,30.06-12.33,30.76-12.83,61.28-26.47c75.54-33.76,150.31-72.25,222-115.73,168-101.88,319.1-231.12,423.21-391.06,88.51,61.35,163.53,140.53,211.13,235.46,89.91,179.24,69.76,378.64-18.4,548.23a774.31,774.31,0,0,1-125.35,175.26C3762.69,2012.67,3627.58,2055.14,3473.85,2082.52Z"/><path class="cls-8" d="M3437.29,2264.54a448.65,448.65,0,0,1-4.55,44.91q-.69,4.46-1.48,8.87l0,.19q-.92,5.19-2,10.35h0c0,.11,0,.2-.07.31-.34.06-.7.1-1.08.14h0c-18.44,2-71.56-7.79-83.07,1.65l-113.69,6.75v-.1c0-1.7-.06-3.38-.11-5a2.08,2.08,0,0,1,0-.25q-.12-5.16-.33-10.2-.12-2.55-.24-5.07c-.08-1.69-.18-3.35-.27-5-.08-1.3-.16-2.6-.25-3.89,0-.75-.1-1.5-.16-2.25-.07-1-.14-2-.22-3l-.09-1.11q-.18-2.24-.39-4.44c-1-12.84-2.5-25-4.37-36.57-5.13-31.57-13.07-58.32-23-81-40.21-91.67-113.19-116.26-165.65-121.16-35.64-3.32-61.82,2.45-61.82,2.45-1,.2-2,.39-2.93.61-.83.17-1.66.35-2.49.55s-1.73.39-2.57.6l-.31.06c-.82.2-1.65.39-2.45.61a220.64,220.64,0,0,0-32.64,10.8l-1.29.56a198.36,198.36,0,0,0-23.56,12c-53.68,32-81.21,83.38-95.29,129.06a340.56,340.56,0,0,0-13.75,72.92c-.3,3.62-.52,6.89-.66,9.76,0,.73-.06,1.45-.09,2.14-.28,6.23-.22,10.32-.18,11.64a.81.81,0,0,1,0,.15v.32c.05.47.1.94.14,1.4.11,1.24.2,2.45.27,3.61,0,.73.08,1.45.1,2.15,0,.08,0,.16,0,.24,0,1.22,0,2.41,0,3.56,0,.42,0,.84,0,1.26s0,.82,0,1.23c-.08,1.63-.22,3.18-.42,4.66,0,.37-.09.73-.15,1.09s-.11.75-.18,1.12-.07.44-.11.66c-.07.42-.15.83-.23,1.23s-.15.66-.23,1-.16.72-.26,1.07-.16.63-.25.93a2.29,2.29,0,0,1-.07.28c-.09.34-.19.68-.3,1s-.12.35-.17.52c0,0,0,0,0,0-.16.47-.31.93-.48,1.37s-.33.89-.51,1.32a.14.14,0,0,1,0,.06c-.17.41-.34.81-.52,1.2s-.35.76-.53,1.13c-.4.82-.82,1.59-1.26,2.32s-.83,1.33-1.26,2l-.24.35a29.14,29.14,0,0,1-2.8,3.36l-.52.51-.28.28a26.66,26.66,0,0,1-3.84,3l-.49.31-.48.3-.48.28-.81.44a24.09,24.09,0,0,1-3.52,1.49h0l-.41.13-.13,0-.24.07-.19.06-.18,0-.59.13a176.52,176.52,0,0,0-17.9-1.83l-3.7-.23c-3.21-.2-6.69-.38-10.45-.57l-4.62-.21-10.05-.42-5.37-.19q-5.53-.19-11.52-.38-4.47-.15-9.2-.27l-9.78-.26-6.72-.17-10.6-.24-7.23-.15h-.06l-7.42-.15-15.63-.28-8-.13h-.07l-8.16-.13-4.27-.06c-18.22-.27-37.65-.51-58.09-.71h-.11c-17.28-.18-35.28-.33-53.87-.46h-.15l-20.4-.14-5.36,0q-10.36-.07-20.92-.12l-5.5,0-10.56,0h-.17l-10.64-.05h-.18q-24.34-.1-49.45-.18h-.2l-11,0h-.21c-117.21-.31-243.62-.12-354.78.23l-17.93.06-27.78.1-39,.14-9.92,0c-21.25.08-41.48.17-60.45.26l-8.77.05-9.56,0-17.08.09-4.61,0-27.67.15-18.26.1-16.26.09c-36.76.22-58.39.37-58.93.37,0-.33-.05-.66-.09-1,0,0,0,0,0,0-.09-1.3-.19-2.58-.3-3.87l-.06-.81c0-.26,0-.51-.06-.76-.12-1.42-.25-2.83-.37-4.23s-.24-2.54-.36-3.79l-.33-3.32q-.12-1.18-.24-2.34c-.14-1.24-.27-2.48-.41-3.71,0-.31-.06-.62-.1-.92-.1-.9-.2-1.78-.31-2.67-.18-1.53-.37-3-.56-4.55l-.24-1.89c-.19-1.48-.39-3-.59-4.42,0,0,0-.09,0-.13-.1-.74-.21-1.47-.31-2.19s-.21-1.43-.31-2.14c0-.09,0-.18,0-.26-.21-1.44-.41-2.87-.64-4.28l-.51-3.19c-.18-1.06-.35-2.11-.53-3.15s-.35-2.09-.54-3.12c-.57-3.29-1.17-6.52-1.8-9.71-.17-.82-.33-1.64-.5-2.46-.31-1.55-.63-3.09-1-4.61-.18-.85-.36-1.7-.55-2.55-1.32-6-2.75-11.88-4.25-17.54-.15-.52-.29-1.05-.43-1.57-.66-2.43-1.33-4.83-2-7.19-.24-.84-.49-1.68-.74-2.51-.29-1-.59-2-.89-2.91-.18-.59-.37-1.17-.55-1.75-.71-2.29-1.45-4.55-2.2-6.77-.2-.58-.39-1.15-.6-1.72q-.37-1.14-.78-2.25-1-2.82-2-5.57c-.4-1.09-.81-2.17-1.23-3.23-.22-.59-.45-1.17-.69-1.75s-.46-1.18-.7-1.77l-1.14-2.8c-.05-.12-.1-.24-.14-.36q-1.71-4.12-3.5-8.09l-.57-1.24c-.21-.47-.42-.94-.64-1.4l-.66-1.41q-4.7-10-9.88-18.9l-1.14-1.94c-.8-1.36-1.61-2.69-2.43-4-.37-.61-.75-1.21-1.13-1.8q-.76-1.23-1.56-2.43c-.8-1.23-1.6-2.44-2.42-3.63l-.75-1.1a199.92,199.92,0,0,0-13.41-17.36c-.57-.67-1.16-1.33-1.75-2q-4.39-4.93-9-9.39c-.48-.47-1-1-1.47-1.42l-1.29-1.21-.91-.86-.93-.84c-.45-.41-.9-.82-1.36-1.22s-1-.86-1.44-1.27q-1.92-1.66-3.87-3.27l-1.17-.95-1-.82-1.52-1.19q-4.8-3.72-9.72-7-2-1.32-4-2.56-6.12-3.84-12.39-7.05l-1.27-.65c-1-.52-2.06-1-3.09-1.51-.39-.2-.79-.39-1.18-.57l-.23-.1-2.05-.94c-.68-.31-1.37-.62-2.06-.91a.67.67,0,0,0-.12-.06l-1.16-.49q-2.73-1.17-5.48-2.23l-.37-.15c-.38-.14-.76-.29-1.14-.42-.69-.27-1.39-.52-2.08-.76-1-.37-2-.72-3-1.06-.67-.24-1.33-.46-2-.67l-2.2-.7c-.37-.13-.75-.24-1.12-.36l-1.61-.48-3-.85c-1.16-.32-2.33-.64-3.49-.92l-2.09-.52-1.33-.32c-1.47-.35-2.93-.67-4.4-1l-1.91-.39-1.91-.37-1.91-.35c-1.61-.29-3.22-.56-4.82-.8l-3.15-.46-2.8-.36-2.69-.31-2.21-.23-.84-.08-2.1-.19-1.35-.11-.31,0h0l-.3,0-1.08-.07c-.88-.07-1.76-.12-2.65-.17l-4.54-.21c-1.22,0-2.44-.08-3.65-.1h-.29c-1.32,0-2.64,0-4,0a252,252,0,0,0-72.61,11.05h0c-1.15.35-2.28.71-3.41,1.08s-2.22.73-3.31,1.12l-.23.08c-1.06.36-2.11.73-3.15,1.12s-2.19.81-3.27,1.23-2.15.84-3.21,1.28c-.86.34-1.71.69-2.55,1.06-1.25.53-2.5,1.08-3.73,1.63-1,.46-2,.93-3.06,1.42s-1.87.89-2.79,1.35l-.52.25c-.89.44-1.78.9-2.66,1.36s-2,1-2.91,1.54-1.86,1-2.78,1.53l-.13.08c-.93.52-1.85,1-2.76,1.6s-1.85,1.1-2.77,1.66-1.59,1-2.38,1.49c-.61.38-1.21.77-1.81,1.17s-1.15.75-1.72,1.14-1.32.88-2,1.33l-.39.27c-.78.53-1.55,1.08-2.31,1.63s-1.54,1.1-2.29,1.67c-.5.37-1,.74-1.51,1.13l-1.52,1.16q-4.41,3.41-8.52,7c-.48.41-1,.83-1.42,1.26-.24.2-.48.42-.71.63l-1.62,1.48,0,0L1354,2148q-1.92,1.82-3.76,3.69c-.53.53-1,1.06-1.57,1.6l-1.55,1.62-1.53,1.63q-2.27,2.44-4.44,5c-.48.55-1,1.11-1.43,1.68-.7.81-1.37,1.63-2,2.45-.21.25-.41.51-.61.76l-.64.8q-1.37,1.7-2.67,3.4l-1.32,1.74c-1,1.35-2,2.72-3,4.09h0c-1.67,2.35-3.28,4.73-4.85,7.12s-3.07,4.8-4.54,7.23q-.65,1.06-1.26,2.13c-.42.71-.83,1.42-1.24,2.14s-.81,1.42-1.21,2.14q-2.38,4.29-4.59,8.62c-.64,1.26-1.24,2.52-1.86,3.78-.52,1.07-1,2.14-1.54,3.21-.34.73-.67,1.45-1,2.18-.55,1.2-1.1,2.4-1.63,3.6l-.74,1.73c-.58,1.34-1.15,2.67-1.71,4l-.51,1.26c-.6,1.47-1.19,3-1.76,4.42l-.29.75q-.93,2.43-1.82,4.85l-.06.18c-2,5.43-3.76,10.82-5.36,16.11-2.29,7.6-4.21,15-5.82,22.07-.21.89-.41,1.77-.59,2.64s-.37,1.74-.56,2.6c0,.16-.07.31-.1.46-.68,3.29-1.3,6.5-1.87,9.61s-1.11,6.4-1.57,9.42c-.24,1.51-.45,3-.65,4.44q-.09.55-.15,1.08c-.15,1-.28,2-.4,3-.06.4-.11.8-.15,1.19q-.13,1-.24,2c-.09.67-.16,1.33-.23,2s-.14,1.28-.21,1.9c-.13,1.26-.25,2.47-.37,3.64,0,.3-.06.59-.08.87-.16,1.73-.3,3.37-.42,4.9a1.94,1.94,0,0,0,0,.24c-.24,3.23-.4,6-.51,8.28-.18,4.11-.19,6.53-.19,6.88v0h0c-3.75,2.31-13.07,2.09-23.45.87l-2.18-.27c-4.4-.57-8.93-1.3-13.27-2.07l-2.14-.39-3.14-.59-2-.4-2-.39h0c-4.49-.91-8.39-1.76-11.15-2.4s-4.42-1-4.42-1l-.6-.18-.6-.2a15.42,15.42,0,0,1-1.76-.71c-.38-.19-.76-.38-1.14-.59l-.56-.32a6.42,6.42,0,0,1-.56-.34l-.55-.36c-.73-.5-1.45-1.05-2.16-1.64-.53-.44-1-.92-1.56-1.42h0a46.77,46.77,0,0,1-7.67-10.39l-.3-.53-.42-.77-.42-.8c-.28-.53-.55-1.06-.83-1.61-.14-.27-.27-.55-.4-.83l-.4-.84c-.26-.57-.53-1.14-.79-1.72-.39-.87-.77-1.76-1.14-2.66-.22-.53-.44-1.06-.65-1.6q-1.33-3.34-2.55-7c-.12-.33-.23-.66-.34-1s-.22-.66-.32-1c-1.32-4-2.52-8.25-3.64-12.6q-.56-2.16-1.08-4.38c-.34-1.46-.69-2.95-1-4.44-.17-.74-.33-1.49-.49-2.24l-.48-2.25-.45-2.25c-.91-4.53-1.73-9.08-2.47-13.6l-.36-2.26c-.12-.75-.24-1.5-.35-2.24s-.23-1.5-.34-2.24c-.88-5.87-1.63-11.61-2.27-17.06,0-.15,0-.3,0-.45-.12-1-.23-2-.34-3s-.21-1.9-.31-2.83a.31.31,0,0,1,0-.1q-.15-1.46-.3-2.85c-.1-.95-.19-1.88-.28-2.8-6.54-66.87,14.06-142.26,28.8-207.59.18-.81.36-1.62.55-2.44q.67-3,1.33-6.06c.34-1.59.69-3.19,1-4.8q1.15-5.48,2.29-11,.57-2.78,1.14-5.58c1.52-7.45,3.06-15,4.71-22.5.2-.94.41-1.88.62-2.82q.74-3.35,1.53-6.71c.31-1.35.62-2.7,1-4,.22-1,.45-1.9.69-2.84l.12-.48c.2-.82.4-1.64.61-2.46l.18-.69c.35-1.39.71-2.79,1.08-4.18,0-.1,0-.2.08-.31.16-.6.32-1.2.49-1.8s.31-1.15.47-1.73l.69-2.5c.22-.75.44-1.51.65-2.27.34-1.17.69-2.35,1-3.52l.84-2.74c.2-.64.4-1.28.61-1.92s.44-1.38.67-2.07.45-1.37.68-2.06c.45-1.37.92-2.74,1.41-4.1.24-.68.48-1.36.73-2s.49-1.35.74-2q2.27-6.08,4.84-12c.28-.66.58-1.31.87-2q1.18-2.62,2.44-5.19l.87-1.75c.54-1.08,1.09-2.16,1.66-3.22.4-.77.82-1.54,1.24-2.3.49-.91,1-1.81,1.51-2.71a137.34,137.34,0,0,1,22.11-29.32l2.36-2.36c.26-.27.53-.53.8-.79.9-.89,1.8-1.78,2.71-2.66l.5-.5.81-.78h0a.13.13,0,0,1,.07-.06l2.38-2.3c1.11-1,2.21-2.1,3.32-3.15,1.79-1.68,3.58-3.37,5.4-5.06.9-.84,1.81-1.69,2.73-2.53.06-.07.15-.14.23-.22q10.9-10.18,21.45-20.71c.85-.84,1.68-1.68,2.52-2.53h0q1.86-1.86,3.71-3.74l4.25-4.33q7.83-8,15.51-16.11c1.71-1.81,3.42-3.61,5.12-5.42q7.66-8.15,15.25-16.35c10.13-11,20.2-22,30.32-32.9l.08-.09,10.06-10.85c3.38-3.63,6.79-7.26,10.19-10.87s6.84-7.21,10.28-10.79,6.91-7.15,10.38-10.7q13-13.29,26.59-26.12a243,243,0,0,1,19.42-16.58q1.89-1.46,3.78-2.83c1.26-.91,2.51-1.81,3.76-2.67s2.49-1.7,3.74-2.51,2.23-1.45,3.34-2.16l3.34-2c1.48-.88,3-1.72,4.44-2.54q3.3-1.85,6.62-3.48c3.51-1.74,7-3.32,10.53-4.76,1.41-.58,2.81-1.12,4.22-1.66h0l2.11-.78.08,0c30.49-11,62.28-12.5,103.59-17.23,2.92-.34,5.88-.69,8.9-1.06l.18,0,5.4-.67q8.13-1,16.26-1.91l5.42-.6h.06l2.61-.28,2.6-.28h.16c142-15.17,284.73-13.48,427.33-18.79l5.31-.2.77,0c2.3-.08,4.59-.16,6.85-.26l5.76-.21q11.45-.42,22.74-.57c212-3.2,383.34,53.73,517.79,117.35,91.67,43.38,166.18,89.86,224.72,122.49.91.51,1.86,1,2.83,1.53q2.67,1.42,5.61,2.87c1.3.64,2.63,1.28,4,1.93a3.73,3.73,0,0,1,.4.2l2.4,1.1h0q5.16,2.37,10.91,4.78c.84.36,1.68.71,2.53,1,3.93,1.64,8,3.27,12.29,4.93,1.18.46,2.37.92,3.58,1.37h0c1.2.46,2.42.92,3.65,1.37h0q6.15,2.31,12.69,4.63h0q7.85,2.79,16.17,5.61l2.78.94,5.64,1.88c2.84.94,5.72,1.88,8.62,2.82,1.44.47,2.88.94,4.34,1.4l1.66.54,1.26.41.73.22a2.65,2.65,0,0,1,.37.12l.37.12,2.32.73,3.81,1.21,7.74,2.4,6.31,2c4.4,1.34,8.83,2.69,13.28,4l8,2.36,3.32,1,.69.21,3.18.92,3.18.93,4.24,1.23c4.29,1.24,8.59,2.46,12.9,3.69l4.81,1.37,4.06,1.14,4.78,1.35,2,.54,5.43,1.51q6.09,1.7,12.14,3.34l4,1.1,12.44,3.36,3.77,1,3.76,1,11.77,3.11,8.1,2.13L3128,1893l4.43,1.15,4.32,1.13,3.14.8,1,.26,1.29.33,5.38,1.4.8.2,3.79,1,.85.21c2.44.64,4.86,1.25,7.25,1.85l.81.2,6,1.53,6.22,1.55,2,.51,2.12.53,4.17,1,2.05.52,2.38.58,4.64,1.16,4.53,1.12c1.24.29,2.47.6,3.68.9l7.58,1.85,6.35,1.55h.09c.62.16,1.24.31,1.83.44l.24.06.53.13,2.52.61,2.46.6,1.2.28,1.19.29,3.44.83,3.28.78,1.06.25,1,.24.33.08.33.08.69.15,1,.24c.82.21,1.62.39,2.4.58l2.48.58,1.23.29,10.37,2.44.4.09,1.53.35.54.13c.19,0,.39.1.57.13l.27.07.48.11.4.09.22,0,.72.17c4.79.48,9.47,1.08,14,1.8h.05c113.5,17.72,150.66,104.08,159.92,184.4C3435.3,2160.17,3440,2213.15,3437.29,2264.54Z"/><path class="cls-9" d="M3231.28,2337.62v0a.42.42,0,0,0,0,.07l-26.26,4.56-21.86,3.79-3.45.6c17.53-149-60.42-223.37-134.88-242.22-27.61-7-54.75-6.34-76.36,1-24.56,8.33-45.14,18.25-62.29,29.32h0c-140.94,91-51.32,259.74-51.32,259.74l-1.65-.31c-27.92-5.5-45.5-26.49-53.46-38.44a78.05,78.05,0,0,1-5-8.47c-.18-2.46-.33-4.89-.47-7.31,0,0,0,0,0,0a448,448,0,0,1,0-54.39c2-30.62,7.28-57.49,15.18-81,20-59.75,56.61-97.77,96.63-120.39,38.76-21.9,80.74-29.35,114-28.11,5.39.21,10.65.54,15.77,1,89.24,8.21,138.19,56.4,164.86,110.6h0c22.52,45.76,29.17,95.8,30.78,129.67h0A329.82,329.82,0,0,1,3231.28,2337.62Z"/><path class="cls-9" d="M1674,2351.1l33,2.37s22.37-244.24-202.49-266.32c-89.33-8.78-239.86,66.7-225.24,252,0,0,3.61-18.5,30.34-9.2,0,0,1-129.66,135.25-183.37C1523.3,2115.2,1674.26,2149.44,1674,2351.1Z"/><path class="cls-10" d="M3183.15,2346.06a190.36,190.36,0,0,1-69.78,93.16,186,186,0,0,1-237.53-18.49,188.38,188.38,0,0,1-56.9-130.46,190,190,0,0,1,87.34-165.19,186.65,186.65,0,0,1,137.57-25.7c83.43,16.93,147.19,90,149.56,179.58A190.45,190.45,0,0,1,3183.15,2346.06Z"/><ellipse class="cls-11" cx="3012.57" cy="2288.44" rx="139.02" ry="135.22" transform="translate(606.21 5207.68) rotate(-87.72)"/><path class="cls-4" d="M2917.63,2287.53c1.43,53.91,44.2,96.35,95.53,94.8s91.8-46.51,90.37-100.42-44.2-96.35-95.53-94.8S2916.2,2233.62,2917.63,2287.53Z"/><path class="cls-10" d="M1303.24,2317.7c2.76,104.3,88.83,186.32,192.24,183.19s185-90.21,182.24-194.51-88.83-186.32-192.24-183.19S1300.48,2213.4,1303.24,2317.7Z"/><ellipse class="cls-11" cx="1496.88" cy="2315.87" rx="139.01" ry="135.22" transform="translate(-876.77 3719.33) rotate(-87.72)"/><path class="cls-4" d="M1401.94,2315c1.42,53.91,44.19,96.35,95.53,94.8s91.79-46.51,90.36-100.42-44.19-96.35-95.53-94.8S1400.51,2261.05,1401.94,2315Z"/><path class="cls-12" d="M3429.63,2110.7l-.7.39s-90.27-39.58-181.24-88.63l0,0c-27.48-14.82-55-30.5-80.17-46.23-19.67-12.3-37.86-24.63-53.41-36.58-.07,0-.13-.1-.2-.15l0,0-.28-.23s-37.86-3.36-102.89-8.93c-24-2-51.67-4.4-82.51-7l-33.48-2.82c-38-3.17-79.93-6.64-125-10.31l-.21,0h0l-7.74-.62-14-1.13-7.06-.57-7.11-.58c-1.52-.13-3-.25-4.57-.36l-19.86-1.59-1.38-.1-.6-.06-1.29-.1-26.41-2.1-1.94-.16L2668,1902l-1.35-.11c-3.66-.3-7.33-.58-11-.87l-7.31-.58c-3-.24-5.93-.47-8.92-.69L2629,1899q-12.33-1-24.83-1.94l-5-.39-5-.38-12.58-1-2.57-.2-5.08-.39-2.77-.22-2.78-.21-.24,0-.24,0-7.18-.55-7.21-.55-10.29-.79-10.34-.79-5.18-.39-5.2-.4-6.34-.49-6.36-.49-.65,0-2.3-.18c-1.75-.14-3.49-.27-5.24-.39l-13.15-1-2.63-.2-10.57-.79-8-.61L2433.6,1884l-9.71-.71c-4.27-.33-8.55-.64-12.85-1l-5.4-.4-19.39-1.43-18.62-1.36-21.86-1.59-1.72-.12-20.24-1.46-11-.79c-126.49-9-256.55-17.74-380.86-25.07l-22.19-1.29-4.34-.25-14.46-.82-3.3-.2-2.76-.15-3.3-.18-9.32-.53q-27.94-1.56-55.36-3l-9.11-.48-3.79-.2-.47,0h-.08l-13.78-.71-9-.46-9-.45q-4.47-.21-8.93-.45c-34.08-1.7-67.3-3.23-99.43-4.58h0l-4.43-.18-1.09-.05-14.9-.61-.66,0-.87,0-5.44-.22-5.41-.21c-1.8-.06-3.6-.13-5.39-.21l-5.36-.2-2.12-.08-3-.11-5.09-.19h-.17l-6-.22-2.21-.08-15.56-.55h-.29l-8.41-.28-2.07-.06-4.9-.16-7.74-.24-11.75-.36-7.33-.21-2.28-.07-1.49,0-7.49-.21-1,0h0l-.81,0h0c-38.8-1-75-1.62-107.9-1.76a454.91,454.91,0,0,0-90.84,8.78c-24.32,4.85-53.11,9.65-65,8.06-.14,0-.27-.07-.42-.06l2.36-2.36c.26-.27.53-.53.8-.79.9-.89,1.8-1.78,2.71-2.66l.5-.5.81-.78.07-.07,2.38-2.3c1.11-1,2.21-2.1,3.32-3.15,1.79-1.68,3.58-3.37,5.4-5.06.9-.84,1.81-1.69,2.73-2.53.06-.07.15-.14.23-.22q10.9-10.18,21.45-20.71c.85-.84,1.68-1.68,2.52-2.53l3.72-3.74,4.25-4.33q7.83-8,15.51-16.11c1.71-1.81,3.42-3.61,5.12-5.42q7.66-8.15,15.25-16.35c10.13-11,20.2-22,30.32-32.9l.08-.09,10.06-10.85c3.38-3.63,6.79-7.26,10.19-10.87s6.84-7.21,10.28-10.79,6.91-7.15,10.38-10.7q13-13.29,26.59-26.12a243,243,0,0,1,19.42-16.58q1.89-1.46,3.78-2.83c1.26-.91,2.51-1.81,3.76-2.67s2.49-1.7,3.74-2.52,2.23-1.45,3.34-2.15l3.34-2c1.48-.88,3-1.72,4.44-2.54q3.3-1.85,6.62-3.48c3.51-1.74,7-3.32,10.53-4.76,1.41-.58,2.81-1.12,4.22-1.66h0c.69-.27,1.4-.53,2.1-.79l.09,0c33.86-7,68.56-12.58,103.56-17.15l8.93-1.14.18,0,5.4-.67q8.13-1,16.26-1.91l5.42-.6h.06l2.61-.28,2.6-.29h.16c156.61-16.83,314.89-14.91,427.33-18.79l5.31-.2.77,0c2.3-.08,4.59-.16,6.85-.26l5.76-.21q11.45-.42,22.74-.57c212-3.2,383.34,53.73,517.79,117.35,91.67,43.38,166.18,89.86,224.72,122.49.91.51,1.86,1,2.83,1.53q2.67,1.42,5.61,2.87c1.3.64,2.63,1.28,4,1.93a3.73,3.73,0,0,1,.4.2l2.4,1.1h0q5.16,2.37,10.91,4.78c.84.36,1.68.71,2.53,1,3.93,1.64,8,3.27,12.29,4.93l3.58,1.37h0l3.65,1.37h0c4.1,1.53,8.34,3.07,12.69,4.63h0q7.86,2.77,16.17,5.61l2.78.94,5.64,1.88c2.84.94,5.72,1.88,8.62,2.82,1.44.47,2.88.94,4.34,1.4l1.66.54,1.26.4.73.23a2.65,2.65,0,0,1,.37.12l.37.11,2.32.74,3.81,1.21,7.74,2.4,6.31,2c4.4,1.34,8.83,2.69,13.28,4l8,2.36,3.32,1,.69.21,3.18.92,3.18.92,4.24,1.24c4.29,1.24,8.59,2.46,12.9,3.69l4.81,1.36,4.06,1.15,4.77,1.34,2,.55,5.43,1.51q6.09,1.7,12.14,3.34l4,1.1,12.44,3.36,3.77,1,3.76,1c4,1.05,7.87,2.1,11.77,3.12l8.1,2.13L3128,1893l4.43,1.15,4.34,1.12h0l3.11.81,1,.26,1.29.33,5.38,1.4.8.2,3.79,1,.85.21c2.44.64,4.86,1.25,7.25,1.85l.81.2,6,1.53q3.15.77,6.22,1.55l2,.51,2.12.53,4.17,1,2.05.52,2.38.58,4.64,1.16,4.53,1.12c1.24.29,2.47.6,3.68.9l7.58,1.85,6.35,1.54.05,0h0c.62.16,1.24.31,1.83.44l.24.06.53.13,2.52.61,2.46.6,1.2.28,1.19.29,3.44.83,3.28.78,1.06.25,1,.24.33.08.33.07.69.16,1,.24c.82.2,1.62.38,2.4.58l2.48.58,1.23.29,10.37,2.44.4.09,1.53.35.54.13c.19,0,.39.1.57.13l.27.07.48.11.4.08.22.06.72.17c4.79.48,9.47,1.08,14,1.8h.05C3383.21,1944,3420.37,2030.38,3429.63,2110.7Z"/><path class="cls-12" d="M1275.48,1837.21c-3.3,3.16-6.51,6.3-9.64,9.46Q1270.54,1841.92,1275.48,1837.21Z"/><path class="cls-8" d="M1624.84,2095.16c22.29,11.9,44.93,37.33,64.06,63.59,28.52,39.15,49.24,80.08,49.24,80.08,1.16,3.72,2.31,7.22,3.6,10.49,26.31,70.55,76,60.66,76,60.66l305.59-2.77,557.79-4.94c11.22,2.53,20.71,3.27,28.68,2.74,48.44-3.16,40.59-54.48,40.59-54.48,22.87-54.09,31.1-116.57,32.5-173.17,2.24-91.56-13.27-167.59-13.27-167.59-68.76-14.32-374.74-34.27-665.22-50.65-294.45-16.62-573.11-29.6-573.11-29.6C1497,2003.4,1624.84,2095.16,1624.84,2095.16Z"/><path class="cls-12" d="M2934.41,1944.34c-557,137.94-1142.28,69.73-1708.94-25,4.73-15.21,10.56-29.86,18.26-43.3a137.34,137.34,0,0,1,22.11-29.32c.15,0,.28,0,.43,0,11.92,1.6,40.71-3.21,65-8.06a455.78,455.78,0,0,1,90.84-8.77c32.94.14,69.1.75,107.91,1.76h0l.8,0h0l1,0,11.26.31q14.6.42,29.65.91l4.14.13,8.41.28.29,0,23.75.84h.17q26.33,1,53.77,2.12c32.13,1.35,65.35,2.88,99.43,4.58,3,.16,6,.3,8.94.44q15.75.8,31.75,1.63l.55,0c1.26.07,2.53.13,3.79.21l9.11.48,9.16.48,18.39,1q18.45,1,37.14,2.06l9.35.53,29,1.67c127.93,7.47,262.29,16.44,392.87,25.77l11,.79,20.23,1.46q28.26,2,56.19,4.1l10.81.8,12.84,1,19.41,1.44,31.94,2.4,26.35,2c1.75.12,3.5.25,5.24.39l3,.22,12.7,1,5.19.4,10.36.79,5.17.4,10.28.79h0l14.39,1.1.47,0,5.55.42,7.66.6,12.57,1,10,.78q12.51,1,24.83,1.94l10.37.82c3.09.23,6.16.47,9.23.72l7,.55c7.36.57,14.68,1.16,21.94,1.73,2,.17,4,.33,6,.47l17.7,1.41,4.68.37,1.89.16,2.77.22,18.47,1.48c1.53.11,3.05.23,4.57.36l28.16,2.27,7.75.63h.21c58.73,4.79,112.16,9.23,158.47,13.14A208.5,208.5,0,0,0,2934.41,1944.34Z"/><path class="cls-2" d="M2757.5,1785.71s215.09,119.76,124.51,122.5l-112.53,1.93S2775.43,1840.33,2757.5,1785.71Z"/><path class="cls-13" d="M2757.5,1785.71s215.09,119.76,124.51,122.5l-112.53,1.93S2775.43,1840.33,2757.5,1785.71Z"/><path class="cls-1" d="M1383.5,1905.7s-122.61,107.2-170,113a28,28,0,0,1-5.8.17c-1.19-2.73-2.32-5.42-3.35-8.07.17-.81.36-1.63.54-2.44,9.78-43.61,16.33-93.13,38.8-132.38,11.27-1.47,26.66-3.26,43.26-4.6C1344.12,1866.8,1415.64,1867.6,1383.5,1905.7Z"/><path class="cls-2" d="M2555,1691.23c-54.48-20.91-285.58-104.64-439.29-82.23a9,9,0,0,0-7.2,10.9c7.55,36,35.08,165.86,51.12,221.17a24.22,24.22,0,0,0,21.3,17.69l393.31,29.34,24.19-64.48-27.64-115.45A26.89,26.89,0,0,0,2555,1691.23Z"/><path class="cls-13" d="M2555,1691.23c-54.48-20.91-285.58-104.64-439.29-82.23a9,9,0,0,0-7.2,10.9c7.55,36,35.08,165.86,51.12,221.17a24.22,24.22,0,0,0,21.3,17.69l393.31,29.34,24.19-64.48-27.64-115.45A26.89,26.89,0,0,0,2555,1691.23Z"/><path class="cls-2" d="M2555,1691.23c-54.48-20.91-285.58-104.64-439.29-82.23a9,9,0,0,0-7.2,10.9c7.55,36,35.08,165.86,51.12,221.17a24.22,24.22,0,0,0,21.3,17.69l393.31,29.34,24.19-64.48-27.64-115.45A26.89,26.89,0,0,0,2555,1691.23Z"/><path class="cls-13" d="M2555,1691.23c-54.48-20.91-285.58-104.64-439.29-82.23a9,9,0,0,0-7.2,10.9c7.55,36,35.08,165.86,51.12,221.17a24.22,24.22,0,0,0,21.3,17.69l393.31,29.34,24.19-64.48-27.64-115.45A26.89,26.89,0,0,0,2555,1691.23Z"/><path class="cls-2" d="M2555,1691.23c-54.48-20.91-285.58-104.64-439.29-82.23a9,9,0,0,0-7.2,10.9c7.55,36,35.08,165.86,51.12,221.17a24.22,24.22,0,0,0,21.3,17.69l393.31,29.34,24.19-64.48-27.64-115.45A26.89,26.89,0,0,0,2555,1691.23Z"/><path class="cls-13" d="M2555,1691.23c-54.48-20.91-285.58-104.64-439.29-82.23a9,9,0,0,0-7.2,10.9c7.55,36,35.08,165.86,51.12,221.17a24.22,24.22,0,0,0,21.3,17.69l393.31,29.34,24.19-64.48-27.64-115.45A26.89,26.89,0,0,0,2555,1691.23Z"/><path class="cls-2" d="M2555,1691.23c-54.48-20.91-285.58-104.64-439.29-82.23a9,9,0,0,0-7.2,10.9c7.55,36,35.08,165.86,51.12,221.17a24.22,24.22,0,0,0,21.3,17.69l393.31,29.34,24.19-64.48-27.64-115.45A26.89,26.89,0,0,0,2555,1691.23Z"/><path class="cls-13" d="M2555,1691.23c-54.48-20.91-285.58-104.64-439.29-82.23a9,9,0,0,0-7.2,10.9c7.55,36,35.08,165.86,51.12,221.17a24.22,24.22,0,0,0,21.3,17.69l393.31,29.34,24.19-64.48-27.64-115.45A26.89,26.89,0,0,0,2555,1691.23Z"/><path class="cls-11" d="M3231.28,2337.71c-.24-14.11-.87-27.55-2.06-40.31a8.92,8.92,0,0,1,3.68.18c28.43,6.49,200.58,6.73,200.58,6.73l-3.81,24.1c-1.57,4.6-84.7,2.56-84.7,2.56Z"/><path class="cls-11" d="M1175.58,2218.4c3.88,39.68,14.14,107.11,40,114,0,0,53.33,13.1,63.76,6.68,0,0-.81-188.12,148-233.74,88.15-26.93,258.38-24.95,278.56,249,0,0,1001.15-7,1068.59,5.73,0,0,26.37-4.48,21.71-47.22,0,0-.18-12.2,1.05-27,0,0-899.87-108.5-1055.49-36.57,0,0-83.44-224.46-301.15-176.18,0,0-86.17,13.64-144,96.3,0,0-75.89,68.49-118.77,49.56A6.54,6.54,0,0,0,1175.58,2218.4Z"/><path class="cls-10" d="M3098.62,1915.31s-226-51.25-285.52-97.26c0,0,143.7,91.52,69.53,84.9-413.11-36.88-1352.55-74.45-1352.69-72.18-3.25,51.16,1587.33,109,1587.33,109S3092.73,1931.87,3098.62,1915.31Z"/><path class="cls-1" d="M3357.52,2038.21s-49.52,2.7-109.83-15.75l0,0a315.38,315.38,0,0,1-77.3-35.23,273.15,273.15,0,0,1-52-42.91,31.57,31.57,0,0,1-2.54-2.75l-1.78-1.92-.14-.15-.26-.28c-16.24-8.64-18.89-16.43-15.29-23,7-12.7,37.65-20.6,37.65-20.6l.81-.36h0l3.11.81,1,.26,1.29.33,5.35,1.36c61.73,15.6,110.67,24.51,110.67,24.51,4,1.12,7.78,2.33,11.44,3.75h0l0,0c20.23,7.22,35.8,16.75,47.83,27.29q3.4,3,6.44,6C3359.54,1995.27,3357.52,2038.21,3357.52,2038.21Z"/><path class="cls-11" d="M1741.74,2249.32c26.31,70.55,76,60.66,76,60.66l305.59-2.77,557.79-4.94c11.22,2.53,20.71,3.27,28.68,2.74l30.77-25.22s-797.89-103.22-993.92-32C1745,2248.37,1743.28,2248.83,1741.74,2249.32Z"/><path class="cls-10" d="M2106.09,1861.79c7.26,36.3,12.79,72.87,17.66,109.53s8.67,73.46,11.49,110.36,4.58,73.92,4.32,111c-.16,18.55-.92,37.11-2.67,55.61-1,9.25-2.13,18.49-3.95,27.62-.46,2.28-.93,4.56-1.49,6.82s-1.13,4.52-1.74,6.76a88.8,88.8,0,0,1-4.89,13c2.82-8.82,4.09-17.95,5-27.08s1.35-18.31,1.5-27.49.23-18.38.06-27.57-.41-18.39-.74-27.58c-1.41-36.77-4-73.53-6.71-110.28s-5.91-73.5-9-110.27S2108.67,1898.71,2106.09,1861.79Z"/><path class="cls-8" d="M1656.29,1744.11c-2.25,33-15.53,65-36.51,90.48l-10.21-.38h-.17l-23.75-.84-.29,0-8.41-.28-4.14-.13q-15-.48-29.65-.91l-11.26-.31-1,0h0l-.8,0h0c-38.81-1-75-1.62-107.91-1.76a455.78,455.78,0,0,0-90.84,8.77c-24.31,4.85-53.1,9.66-65,8.06-.15,0-.28-.06-.43,0,3.13-3.16,6.34-6.3,9.64-9.46l3.32-3.16c1.78-1.67,3.58-3.36,5.4-5,.9-.85,1.8-1.69,2.72-2.53l.23-.23q10.92-10.18,21.46-20.71c.84-.83,1.68-1.68,2.51-2.52a1071.15,1071.15,0,0,0,289.47-145.79c24.47,3.86,7.89,37.52,30.88,46.72,7.06,2.82,14.32,6.12,19,12.12C1656.46,1723.77,1657,1734.37,1656.29,1744.11Z"/><path class="cls-10" d="M1531.28,1829.52a4.52,4.52,0,0,0,.62,2.19c159.13,4.31,362.44,15.45,569.92,29,237.06,15.56,479.5,34.27,667.66,49.47l.13-.37s6.2-131.62-38.48-154.25c0,0-304.83-187.46-681.75-167.83-123.73,6.46-476.49,12.56-488.68,85.9C1560.7,1673.59,1531.11,1801.94,1531.28,1829.52Z"/><path class="cls-1" d="M2003.38,1628c8.91,53,35.81,214.06,35.36,224.82l-374.81-15.64s-72.81-100.45-55.69-169c2.09-8.38,248.89-56.1,375.55-57.08A19.89,19.89,0,0,1,2003.38,1628Z"/><path class="cls-1" d="M2712.44,1773.59c-23.52-20.78-80.77-45.66-110.4-57.44a6.41,6.41,0,0,0-8.53,7.25c4.41,27.36,17,102.21,23.89,107,0,0,74.76,22.26,103.72,4.22C2721.12,1834.62,2729.12,1788.33,2712.44,1773.59Z"/><path class="cls-14" d="M2611.62,1790.12s-30.23,58.53-2.5,83.44c0,0,81.57,12.24,83.57-45.44C2692.69,1828.12,2687.8,1776.79,2611.62,1790.12Z"/><path class="cls-1" d="M2003.38,1628c8.91,53,35.81,214.06,35.36,224.82l-374.81-15.64s-72.81-100.45-55.69-169c2.09-8.38,248.89-56.1,375.55-57.08A19.89,19.89,0,0,1,2003.38,1628Z"/><g class="cls-15"><g class="cls-16"><polygon class="cls-2" points="2000.52 1860.41 1973.01 1885.08 1718.86 1577.69 1746.37 1553.02 2000.52 1860.41"/><polygon class="cls-2" points="1927.33 1882.82 1865.98 1937.84 1611.84 1630.45 1673.18 1575.43 1927.33 1882.82"/></g></g><path class="cls-1" d="M2555,1691.23c-54.48-20.91-285.58-104.64-439.29-82.23a9,9,0,0,0-7.2,10.9c7.55,36,35.08,165.86,51.12,221.17a24.22,24.22,0,0,0,21.3,17.69l393.31,29.34,24.19-64.48-27.64-115.45A26.89,26.89,0,0,0,2555,1691.23Z"/><path class="cls-1" d="M2555,1691.23c-54.48-20.91-285.58-104.64-439.29-82.23a9,9,0,0,0-7.2,10.9c7.55,36,35.08,165.86,51.12,221.17a24.22,24.22,0,0,0,21.3,17.69l393.31,29.34,24.19-64.48-27.64-115.45A26.89,26.89,0,0,0,2555,1691.23Z"/><g class="cls-17"><g class="cls-18"><polygon class="cls-2" points="2548.45 1934.71 2522.67 1955.46 2233.36 1565.57 2259.14 1544.81 2548.45 1934.71"/><polygon class="cls-2" points="2465.39 1930.24 2364.94 2011.11 2075.63 1621.21 2176.08 1540.34 2465.39 1930.24"/></g></g><path class="cls-2" d="M1287,1871.39a257.79,257.79,0,0,1-38,103.72,253.57,253.57,0,0,1-35.4,43.6,28,28,0,0,1-5.8.17c-1.19-2.73-2.32-5.42-3.35-8.07.17-.81.36-1.63.54-2.44,9.78-43.61,16.33-93.13,38.8-132.38C1255,1874.52,1270.39,1872.73,1287,1871.39Z"/><path class="cls-2" d="M3324,1959.63c-.11,2.67-.17,5.47-.13,8.4-34.42,13-74,5.22-106.23-12.58-26.55-14.68-49-35.48-70.1-57.42,61.73,15.6,110.68,24.52,110.68,24.52,4,1.13,7.83,2.35,11.5,3.77,20.24,7.22,35.8,16.75,47.83,27.29C3319.85,1955.58,3322,1957.6,3324,1959.63Z"/><path class="cls-19" d="M1560.17,1881.59c111.46-.34,221.8,17,335,25.06,153,10.94,306.39,18,459.83,19.31-147.26-1.22-299.89,25.75-451,20.14q-119.82-4.45-238.95-19.26c-58.86-7.33-150.85-4.92-200-40.11A885.13,885.13,0,0,1,1560.17,1881.59Z"/><g class="cls-20"><path class="cls-9" d="M3205,2342.27l-21.86,3.79a190.36,190.36,0,0,1-69.78,93.16,186,186,0,0,1-237.53-18.49q7.53-37.53,13.19-75.38,10.35-69.06,14.49-138.86h0q2.16-35.83,2.65-71.74h0c.06-3.22.09-6.43.11-9.65q.18-19.08-.14-38.15c0-.93,0-1.85,0-2.78q-1.17-65.7-7.79-131.16-1.11-11-2.38-22c-.4-3.52-.82-7-1.24-10.55h0q-.82-6.72-1.71-13.44c-.16-1.28-.33-2.56-.51-3.83q-1.93-14.58-4.16-29.12c0-.18-.05-.37-.09-.56q-1.52-10-3.19-20h0q-3.45-20.84-7.48-41.56,2.67,1.42,5.61,2.87c1.3.64,2.63,1.28,4,1.93a3.73,3.73,0,0,1,.4.2l2.4,1.1h0q5.16,2.37,10.91,4.78c.84.36,1.68.71,2.53,1,3.93,1.64,8,3.27,12.29,4.93l3.58,1.37h0l3.65,1.37h0c4.1,1.53,8.34,3.07,12.69,4.63h0q7.86,2.77,16.17,5.61l2.78.94,5.64,1.88c2.84.94,5.72,1.88,8.62,2.82,1.44.47,2.88.94,4.34,1.4l1.66.54,1.26.4.73.23a2.65,2.65,0,0,1,.37.12l.37.11,2.32.74,3.81,1.21,7.74,2.4,6.31,2c4.4,1.34,8.83,2.69,13.28,4l8,2.36,3.32,1,.69.21,3.18.92,3.18.92,4.24,1.24c4.29,1.24,8.59,2.46,12.9,3.69l4.81,1.36,4.06,1.15,4.77,1.34,2,.55,5.43,1.51q6.09,1.7,12.14,3.34l4,1.1,12.44,3.36,3.77,1,3.76,1c4,1.05,7.87,2.1,11.77,3.12l8.1,2.13L3128,1893l4.43,1.15,4.34,1.12h0l3.11.81,1,.26a669.05,669.05,0,0,1,26.55,79.86q1.47,5.49,2.87,11c4.13,16.28,7.79,32.66,11.09,49a1260.2,1260.2,0,0,1,19.33,131.41h0q.57,6.09,1.08,12.18A1265,1265,0,0,1,3205,2342.27Z"/></g><rect class="cls-21" x="915.03" y="645.73" width="975.74" height="1831.49" rx="57.68"/><path class="cls-22" d="M1021.13,645.73V2477.21h812a57.67,57.67,0,0,0,57.68-57.68V703.41a57.67,57.67,0,0,0-57.68-57.68Z"/><rect class="cls-2" x="1051.32" y="745.51" width="809.26" height="1692.8"/><path class="cls-1" d="M1051.32,2008.29v430h809.26V1471.15q-17.2,22.32-34.52,44.46c-40.53,52-81.26,104.25-128.74,150C1628.48,1732,1546.9,1783.46,1466,1834.39c-105.54,66.41-213.74,133.95-335.39,161.37A656,656,0,0,1,1051.32,2008.29Z"/><rect class="cls-21" x="1231.91" y="995.04" width="9.82" height="131.72" transform="translate(-311.59 553.3) rotate(-22.47)"/><rect class="cls-21" x="1625.87" y="2157.44" width="186.74" height="9.82" transform="translate(-242.23 217.06) rotate(-6.75)"/><polygon class="cls-21" points="1617.17 1215.07 1625.66 1220.01 1626.15 1219.16 1664.78 1152.82 1860.57 816.51 1860.57 797 1653.21 1153.16 1617.54 1214.42 1617.17 1215.07"/><rect class="cls-21" x="1093.3" y="955.77" width="9.82" height="185.66" transform="translate(-306.27 471.48) rotate(-21.34)"/><path class="cls-21" d="M1254.53,1435.16V2438.31h9.82V1435.16a70,70,0,0,1,.58-8.9,67,67,0,0,1,19-38.73l5-5h0l66.72-66.29,7.41-7.37,144.58-143.65,1-1,2.63-2.61,3-3-1.17-1.18-.84-.84-1.44-1.46h0l-.95-1-2.51-2.51-6.48,6.45-210.13,208.79h0l-13.8,13.7A76.88,76.88,0,0,0,1255.2,1425,78.83,78.83,0,0,0,1254.53,1435.16Z"/><polygon class="cls-21" points="1315.49 745.51 1347.46 816.63 1349.46 821.1 1351.47 825.58 1353.64 830.4 1389.16 909.44 1393.19 918.4 1500.91 1158.07 1502.23 1161.02 1502.35 1160.98 1502.35 1160.97 1506.64 1159.04 1507.08 1158.84 1510.05 1157.5 1510.06 1157.5 1510.3 1157.39 1511.18 1156.99 1510.67 1155.86 1510.56 1155.6 1510.55 1155.6 1510.49 1155.46 1509.9 1154.13 1509.89 1154.12 1326.24 745.51 1315.49 745.51"/><rect class="cls-21" x="1202.2" y="951.9" width="201.16" height="9.82" transform="translate(-286.97 664.55) rotate(-25.88)"/><polygon class="cls-21" points="1050.59 2245.39 1051.33 2245.38 1060.4 2245.32 1246.58 2244.17 1254.53 2244.12 1259.45 2244.09 1262.02 2244.08 1261.96 2234.25 1259.45 2234.26 1254.53 2234.3 1248.96 2234.33 1051.33 2235.57 1051.33 2241.79 1050.61 2241.79 1050.59 2245.39"/><polygon class="cls-21" points="1501.8 1161.98 1503.17 1162.73 1507.65 1165.2 1508.32 1165.57 1758.29 1303.02 1767.22 1307.94 1854.2 1355.77 1858.69 1358.24 1859.77 1358.83 1860.57 1359.26 1860.61 1359.29 1864.24 1355.7 1864.24 1355.68 1864.56 1354.25 1860.57 1353.4 1860.57 1345.52 1858.91 1347.15 1626.15 1219.16 1617.54 1214.42 1513.8 1157.39 1512.3 1156.56 1510.72 1155.69 1510.72 1155.68 1510.55 1155.6 1510.42 1155.52 1506.53 1153.38 1504.16 1157.68 1502.35 1160.97 1501.8 1161.98"/><path class="cls-21" d="M1793.52,1986.65l.86,8.48.51,4.88.5,4.81v.07L1810,2146.67l1,9.76,29,281.88h9.87l-25.59-249-.5-4.91-.5-4.88-.29-2.79L1809,2041.17l-1-9.81-4.7-45.71a1480.63,1480.63,0,0,1,25-461.87l5-23.34,1-4.83.36-1.63.68-3.22,24.44-114.23.78-3.66,3.67-17.17h0l.32-1.44-4-.85-.8-.17-4.81-1-.76,3.57-35.52,166q-12.81,59.89-20.65,120.45c-.21,1.52-.4,3-.59,4.57h0c0,.12,0,.23-.06.36-.2,1.64-.41,3.29-.61,4.94A1491.16,1491.16,0,0,0,1793.52,1986.65Z"/><path class="cls-21" d="M1797.52,1652.29l2.87-9.39-214.88-65.84c-.27-20.88-2.43-82.86-2.52-85.66l-.12-3.34-161.2-57-3.27,9.26,154.89,54.75c.5,14.51,2.43,71.87,2.43,85.62v3.63Z"/><rect class="cls-21" x="1250.85" y="1682.54" width="446.72" height="9.82" transform="translate(-337.02 3006.62) rotate(-84.93)"/><rect class="cls-21" x="1383.58" y="1300.36" width="9.82" height="149.63" transform="translate(-450.36 713.64) rotate(-24.94)"/><rect class="cls-21" x="1569.77" y="1449.08" width="317.41" height="9.82" transform="translate(-76.95 2811.25) rotate(-77)"/><rect class="cls-21" x="1373.39" y="1904.56" width="9.82" height="226.91" transform="translate(-61.68 43.54) rotate(-1.77)"/><rect class="cls-21" x="1669.72" y="1351.56" width="9.82" height="130.37" transform="translate(-217.24 2526.86) rotate(-70.63)"/><rect class="cls-21" x="1579.48" y="1347.32" width="88.34" height="9.82" transform="translate(-76.22 2607.3) rotate(-76.23)"/><polygon class="cls-21" points="1051.33 967.44 1351.47 825.58 1354.37 824.21 1357.13 822.91 1355.04 818.48 1355.03 818.47 1352.94 814.03 1347.46 816.63 1051.33 956.57 1051.33 967.44"/><rect class="cls-21" x="1051.33" y="1672.89" width="203.02" height="9.81"/><polygon class="cls-21" points="1814.28 2181.13 1815.15 2185.95 1816.02 2190.79 1819.36 2190.19 1824.21 2189.32 1860.57 2182.82 1860.61 2182.82 1860.61 2172.84 1860.57 2172.84 1823.21 2179.54 1820.1 2180.09 1818.36 2180.4 1814.28 2181.13"/><polygon class="cls-21" points="1804 2032.16 1805.91 2041.79 1808.98 2041.17 1860.46 2030.95 1860.57 2030.92 1860.57 2020.91 1860.45 2020.94 1807.98 2031.36 1804 2032.16"/><polygon class="cls-21" points="1830.44 1494.23 1834.31 1495.61 1859.91 1504.67 1860.57 1504.9 1860.57 1492.39 1859.9 1492.42 1842.98 1493.46 1834.67 1493.98 1830.44 1494.23"/><polygon class="cls-21" points="1828.81 1498.86 1833.28 1500.44 1859.93 1509.88 1859.93 1509.89 1860.57 1510.11 1860.57 1499.69 1859.91 1499.46 1842.98 1493.46 1835.35 1490.76 1832.08 1489.6 1830.44 1494.23 1828.81 1498.86"/><polygon class="cls-21" points="1049.37 2412.43 1050.41 2409.44 1051.33 2406.82 1051.33 2438.31 1058.99 2438.31 1060.4 2245.32 1060.42 2241.86 1051.33 2241.79 1050.61 2241.79 1050.59 2245.39 1049.43 2404.32 1049.4 2409.21 1049.4 2409.42 1049.37 2412.43"/><rect class="cls-21" x="1261.84" y="2344.67" width="285.81" height="9.82" transform="translate(-107.82 67.92) rotate(-2.67)"/><polygon class="cls-21" points="1524.4 2027.33 1530.45 2106.08 1555.97 2438.31 1565.82 2438.31 1540.89 2113.9 1534.9 2035.97 1595.6 2028.73 1600.49 2028.14 1605.37 2027.56 1795.35 2004.89 1795.39 2004.89 1797.89 2004.59 1797.3 1999.72 1796.72 1994.85 1794.38 1995.13 1604.23 2017.81 1599.36 2018.39 1594.47 2018.97 1524.4 2027.33"/><polygon class="cls-21" points="1617.81 2261.61 1629.47 2376.92 1656.55 2373.67 1670.49 2371.99 1707.6 2367.53 1714.73 2438.31 1724.59 2438.31 1716.36 2356.58 1666.44 2362.59 1660.45 2363.31 1638.23 2365.98 1629.13 2276.07 1627.58 2260.62 1617.81 2261.61"/><path class="cls-21" d="M1051.33,1834.39v9.82c56,1.69,135.52,4.09,177.36,5.31,12.56.37,21.73.64,25.84.74l2.37.06v-9.81l-2.37-.06C1237.65,1840,1135.65,1836.94,1051.33,1834.39Z"/><path class="cls-21" d="M1049.4,2409.21v.21l1,0A6,6,0,0,0,1049.4,2409.21Z"/><path class="cls-21" d="M1049.37,2412.43l1-3,.92-2.62.7-2a5.39,5.39,0,0,0-.7-.18,18.76,18.76,0,0,0-1.9-.3l0,4.89v.21Z"/><polygon class="cls-21" points="1183.05 1268.51 1051.33 1266.35 1051.33 1276.17 1182.89 1278.32 1183.05 1268.51"/><path class="cls-21" d="M1612.92,2172.82l9.35-3a3.32,3.32,0,0,1,.09.33c-1.43-6.9-23.41-197.79-31.75-270.76l-.51-4.46L1265.69,1903l.25,9.81,315.42-7.87C1590.84,1987.77,1611.66,2168.88,1612.92,2172.82Z"/><path class="cls-21" d="M1670.42,714.87c-13.22-1.43-157.79-.62-252.57.28a11.45,11.45,0,0,1-.22-22.9c.62,0,63.08-.6,125.45-.89,128.37-.6,131.05.47,134.14,1.71a11.45,11.45,0,0,1-4.25,22.08A11.65,11.65,0,0,1,1670.42,714.87Zm.31,0Zm-2-.56h0Z"/><path class="cls-21" d="M1238.93,714.1h107.22a11.46,11.46,0,0,0,0-22.91H1238.93a11.46,11.46,0,0,0,0,22.91Z"/><polygon class="cls-23" points="1051.32 745.51 1051.32 760.96 1860.58 1656.74 1860.58 745.51 1051.32 745.51"/><polygon class="cls-23" points="1051.32 991.51 1051.32 1695.95 1718.22 2438.31 1738.87 2461.29 1769.34 2438.31 1860.58 2369.51 1860.58 1822.57 1051.32 991.51"/><path class="cls-24" d="M1852,1098.78c-1.39,1.65-3.67,3.17-6.6,5.17a22.7,22.7,0,0,1-4.83,2.47c-.31.13-.63.25-1,.36a39.64,39.64,0,0,1-3.94,1.14c-1.07.27-2.16.5-3.24.71l-2.25.44c.27-1.86.55-3.73.82-5.6,2.07-14,1.55-29.15.12-43.74-.48-4.89-1.06-9.72-1.69-14.44.61,1.65,1.21,3.3,1.83,4.94.84,2.25,1.69,4.5,2.59,6.73.39,1,.8,2,1.22,3,1,2.44,2.09,4.84,3.25,7.21.18.38.37.76.56,1.14q1.07,2.13,2.23,4.2c.38.68.78,1.34,1.19,2,2.65,4.19,5.84,8,8.33,12.32C1854.18,1093,1854.29,1096.05,1852,1098.78Z"/><path class="cls-25" d="M1939.57,1183.06,2003,1367.23l-100.7,69.71-189.45-104.7S1793.14,1217.88,1939.57,1183.06Z"/><path class="cls-26" d="M1899.52,1390.88l54.61-42.08a3.57,3.57,0,0,1,3.19-.6l44.31,12.85a3.59,3.59,0,0,1,1.33,6.18l-60.29,51.49a3.61,3.61,0,0,1-4.13.38l-38.62-22.26A3.59,3.59,0,0,1,1899.52,1390.88Z"/><path class="cls-27" d="M1592.74,2503.83a10.31,10.31,0,0,1-2.51,14.53c-12.66,8.43-29,3.75-35,2.24-7.42-1.85-36.33-19.65-46.72-38.56s-10-34.12-.73-55.62,14.45-60.81,11.85-57.84-57.83,42.27-57.83,42.27l-4.45-8.16s45.38-48,58.73-62.82,24.71-55.93,42.38-51.38l2.94,5.38,43.08,79c-21.32,29.28-25,63.14-23.77,89.68.12,2.61.28,5.16.48,7.62C1582.51,2486.46,1588.27,2497.53,1592.74,2503.83Z"/><path class="cls-24" d="M1592.62,2393.21c-10.86,23.82-12.84,48.78-11.91,69.34a27.73,27.73,0,0,1-7.17,3.91c-13.32,4.81-31.79-2-35.5-16.37-4.19-16.19-2.86-33.85.34-50.49.82-4.18,1.75-8.3,2.74-12.32,4.39-17.77,10-35.81,13.18-53.86,1.81-10.22-1.54-25.6,3.06-34.75a12.88,12.88,0,0,1,4-4.8l1,1.81,42.1,77.19A116.37,116.37,0,0,0,1592.62,2393.21Z"/><path class="cls-27" d="M1599.12,1664.09s15.33,39.55,88,48.45,0-92,0-92S1608,1655.19,1599.12,1664.09Z"/><path class="cls-27" d="M1890.77,2511.71c-5.46,14.2-21.47,19.8-27.27,22.05-7.13,2.77-41,4.95-60.41-4.48s-27.87-22.06-32.74-45-23.33-58-23.74-54.06-22.77,67.92-22.77,67.92l-8.36-4.09s9.29-65.43,11.65-85.21-12.15-59.93,4.91-66.42l5.49,2.69,28.46,13.94,43.91,21.52c.66,2.69,1.47,5.35,2.28,8,4.67,15.29,9.68,29.91,15.78,44.61l.11.29c.33.8.68,1.6,1,2.4.13.28.26.57.38.86.26.57.51,1.14.78,1.71.43,1,.88,1.89,1.35,2.84l.54,1.11q.63,1.28,1.29,2.52c.36.71.73,1.39,1.1,2.08.48.89,1,1.75,1.45,2.62s1,1.74,1.5,2.6a0,0,0,0,1,0,0c.38.63.76,1.27,1.14,1.89a4.21,4.21,0,0,0,.28.45l.26.44a.15.15,0,0,1,0,.06,185.52,185.52,0,0,0,11.52,16.57c1.62,2.06,3.22,4.05,4.81,5.94,10.49,12.54,21.58,18.23,28.86,20.8A10.31,10.31,0,0,1,1890.77,2511.71Z"/><path class="cls-24" d="M1850.75,2471.66a27.88,27.88,0,0,1-3.59,7.33c-8.08,11.62-27.12,16.71-38.43,7.15a81.93,81.93,0,0,1-9-8.91c-11-12.74-18.81-28.84-24.82-44.14-6.68-17.05-12.53-35-20.35-51.57-2.42-5.13-7-10.62-10.87-16.19-4.69-6.72-8.41-13.56-6.24-20-.26,1.64,4.09,4.32,10.77,7.24,5,2.16,11.17,4.45,17.73,6.55,19.42,6.22,41.76,10.76,42.64,5.27-.87,5.42-.08,10.88,1.27,16.24.66,2.69,1.47,5.35,2.27,8,.43,1.39.85,2.77,1.29,4.15,4.31,13.8,9,27.1,14.49,40.47l.12.29c.33.8.68,1.6,1,2.39.13.29.25.58.39.87.25.57.51,1.14.78,1.7.42,1,.88,1.9,1.34,2.84.17.37.36.74.55,1.11.42.85.85,1.69,1.28,2.53l1.1,2.07c.48.88,1,1.76,1.46,2.63s1,1.73,1.5,2.59a0,0,0,0,1,0,0c.37.64.75,1.26,1.13,1.89.09.16.19.31.28.45a2.25,2.25,0,0,0,.12.21l.14.23,0,.07C1841.19,2458,1851.28,2470,1850.75,2471.66Z"/><path class="cls-28" d="M1778.12,2422.92a178,178,0,0,0,21.65,54.31c-11-12.74-18.81-28.84-24.82-44.14-6.68-17.05-12.53-35-20.35-51.57-2.42-5.13-7-10.62-10.87-16.19a28.82,28.82,0,0,1,4.53-12.8c5,2.16,11.17,4.45,17.73,6.55,19.42,6.22,41.76,10.76,42.64,5.27-.87,5.42-.08,10.88,1.27,16.24.66,2.69,1.47,5.35,2.27,8,.43,1.39.85,2.77,1.29,4.15-8.77,3.4-22.41,1.17-29.31,5C1776,2402.17,1776.15,2413.83,1778.12,2422.92Z"/><path class="cls-29" d="M1933.42,1766.2c-6,60.8-22.06,167.31-61.06,332.58,0,0-28,228.77-54.72,279.2,0,0-46.15,18.56-98.22-8.52,0,0,15.5-38,22.75-105.2,2.46-22.88,7.84-57.64,13.91-94.87,11.75-72.16,26.09-153.61,26.82-175.89,1.12-33.77,18.51-488.53,152.69-292.3C1936.87,1703.06,1937.66,1723.19,1933.42,1766.2Z"/><g class="cls-30"><path class="cls-9" d="M1933.42,1766.2c-.93,9.22-38,28.36-44.59,40-11.54,20.22-8.47,44.65-11.71,66.86-3.88,26.56-7.32,53.21-11.45,79.72-7.63,49-28.85,102.71-53.23,146-14.82,26.33-33.59,50.87-56.36,70.56,11.75-72.16,26.09-153.61,26.82-175.89,1.12-33.77,18.51-488.53,152.69-292.3C1936.87,1703.06,1937.66,1723.18,1933.42,1766.2Z"/></g><path class="cls-28" d="M1604.48,2372.87a116.37,116.37,0,0,0-11.86,20.34c-15.6.14-30.62-8.3-44-2.1a29.08,29.08,0,0,0-10.24,8.49c.82-4.18,1.75-8.3,2.74-12.32,4.39-17.77,10-35.81,13.18-53.86,1.81-10.22-1.54-25.6,3.06-34.75,1.62-1.06,3.3-2.07,5-3Z"/><path class="cls-29" d="M1854.19,1790.78c-6.74,101-33.64,244.88-46.44,278.91-16.81,44.71-55.37,83.77-55.37,83.77-48.45,93.86-153.26,232.43-153.26,232.43s-28.67-4-40.54-49.88-17.8-52.06-17.8-52.06c109.76-116.77,170.07-299.5,170.07-299.5s4,15.82-13.84-100.85c-6.89-45.24-14.12-94.93-20.38-138.83-9.88-69.32-17.36-124.18-17.36-124.18s182.1,14.83,194.27,92.51C1856.44,1731.64,1856.31,1759.1,1854.19,1790.78Z"/><path class="cls-14" d="M1850.9,1030.1c-2.77,8.59-8.71,17.69-15.71,25.4-.45.49-.9,1-1.36,1.46s-1,1.08-1.56,1.61c-.38.39-.77.78-1.17,1.16a78,78,0,0,1-11.12,9.07c-9.13-12.91-16-30.58-19.75-45.94s-3.56-32,2.35-46.62c.27-.66.56-1.33.88-2a11,11,0,0,1,3.55-4.46c2.19-1.48,1.76-2.58,3.33-.45,2.9-2.11,6.84.33,9.53,2.71q7.73,6.84,15.11,14.07c.33.32.65.64,1,1C1846.88,998.18,1856,1014.18,1850.9,1030.1Z"/><path class="cls-31" d="M1945.06,1484.34c-5.31,8.67-10.7,17.43-17.86,24.66a55.34,55.34,0,0,1-7.57,6.43,39.87,39.87,0,0,1-18.91,7.48c-5.63,4.74-5.28,2.65-9.63-3.28-2.62-3.57-3.31-8.16-4.81-12.33-1.77-4.91-4.7-9.37-6.18-14.37-2.06-7-1.13-14.47-.18-21.7q1.23-9.45,2.47-18.89c0-.21,0-.42.09-.64.37-2.77.85-5.59,2.42-7.88,3.7-5.39,17.89,4.24,22.31,9a105.9,105.9,0,0,0,35.45,25.34c1.47.64,3.16,1.51,3.4,3.1A4.74,4.74,0,0,1,1945.06,1484.34Z"/><path class="cls-2" d="M1871.6,1553.28c-20.95-12.3-38.12-30-55-47.41-5.73-5.92-11.49-11.88-17.09-18-14.22-15.5-27.39-31.9-36.37-50.82-9.07-19.13-13.47-40.06-18.85-60.54a653.06,653.06,0,0,0-23.5-73.42c-8.6-21.81-15.92-41.27-13.42-65.85a31.17,31.17,0,0,1,5.08-15.09c2.34-3.75,8.67-8.92,8.8-13.42,4.78,5.31,9.84,10.45,15.76,14.46,7.44,5,17.83,9.32,27,9,5-.16,10.76-3.54,16.15-4.92a12.29,12.29,0,0,1,7.45,0c2.31.87,4,2.87,5.5,4.79q19.64,24.47,39.26,48.92c13.7,17.08,19,35.85,26.77,55.61.9,2.3,1.74,4.6,2.51,6.92,7.89,23.27,10,47.5,11.14,71.86.32,7.08.55,14.18.81,21.26C1875,1475.5,1873.93,1514.52,1871.6,1553.28Z"/><path class="cls-32" d="M1919.63,1515.43a39.87,39.87,0,0,1-18.91,7.48c-5.63,4.74-5.28,2.65-9.63-3.28-2.62-3.57-3.31-8.16-4.81-12.33-1.77-4.91-4.7-9.37-6.18-14.37-2.06-7-1.13-14.47-.18-21.7q1.23-9.45,2.47-18.89c0-.21,0-.42.09-.64l3.53-5.77c1.8,13.24,3.64,26.62,8.53,39s13.19,24,25,30.16C1919.6,1515.23,1919.62,1515.33,1919.63,1515.43Z"/><path class="cls-1" d="M1871.6,1553.28c-20.95-12.3-38.12-30-55-47.41-5.73-5.92-11.49-11.88-17.09-18-4.39-4.79-1.76-27.33-1.62-33.75a238.31,238.31,0,0,1,3.45-35.87c3.87-22.29,12.67-34.39,1.75-56.17q11.51,10.23,23.86,19.44c7.21,5.37,17.65,3.78,16.9-6.82-2.58-36.52-24.29-69.31-45.06-98.36-10.71-15-15.84-31.1-18.63-49a12.29,12.29,0,0,1,7.45,0c2.31.87,4,2.87,5.5,4.79q19.64,24.47,39.26,48.92c13.7,17.08,19,35.85,26.77,55.61.9,2.3,1.74,4.6,2.51,6.92q6.13,35.84,11.14,71.86c.32,7.08.55,14.18.81,21.26C1875,1475.5,1873.93,1514.52,1871.6,1553.28Z"/><path class="cls-27" d="M1987.06,1679.18c-12.08,16.25-21.26,36.68-35.13,51.26-12.51,13.15-32.09,21.24-47.51,31.1-1.59,1-18.58,8-18.56,7.36.49-17.82-14.55-96.85-14.55-96.85s-.28-249.71-8.58-292.72-43.12-86-58-105.8-21.88-59-21.88-59c18.67,8.26,58.57,28,58.57,28s1.38-9,21.26,39.91,20.17,174,22.25,200.72c1.48,18.93,32.39,59.76,54,92.48,8.83,13.4,16.09,25.44,19.11,34.07l.88,2.49c5.67,15.84,13.42,34.09,19.34,47.54l.61,1.39C1983.62,1671.85,1987.06,1679.18,1987.06,1679.18Z"/><path class="cls-24" d="M1783.82,1222.17c-5.66,9.06-20.39,20.86-31.58,20.33a51.76,51.76,0,0,1-14.47-3.21c-17.8-6.19-34.89-15.64-45-30.71a66.79,66.79,0,0,0,15.14-23,65.55,65.55,0,0,0,4.59-24.59,60.6,60.6,0,0,0-1.39-12.5c-1.8-8.31-4.8-16.41-5.56-24.85,8.88,8,21.33,11.28,33.41,13.44s27.18.67,38.21,5.75q-.84,9.93-1,19.76a203,203,0,0,0,6.78,56.72C1783.27,1220.24,1783.54,1221.21,1783.82,1222.17Z"/><path class="cls-28" d="M1777.2,1142.8q-.84,9.93-1,19.76c-22.24.28-43.6-7.06-63.7-1.6a60.6,60.6,0,0,0-1.39-12.5c-1.8-8.31-4.8-16.41-5.56-24.85,8.88,8,21.33,11.28,33.41,13.44S1766.17,1137.72,1777.2,1142.8Z"/><g class="cls-30"><path class="cls-9" d="M1854.19,1790.78a243.45,243.45,0,0,1-45.87-24.9c-43-29.72-87.52-54.79-131.69-21.11-9.88-69.32-17.36-124.18-17.36-124.18s182.1,14.83,194.27,92.51C1856.44,1731.64,1856.31,1759.1,1854.19,1790.78Z"/></g><path class="cls-27" d="M1858.17,1786.7s-8.61-5.47-26.8-20.52c-13.23-11-31.52-27-55.26-49.68-31.46-30.08-76.31-44.6-113.5-50.61-29.45-4.77-54.1-4.2-63.49-1.8,0,0,50.21-64.88,56.36-88,5.24-19.72,13-47.52,15.23-55.27l.59-2.08,164.38-120.29s6.93,23,14.69,53.61c3.3,13,6.76,27.41,9.88,42,.6,2.79,1.18,5.58,1.76,8.37,4.46,21.76,8,43.37,9,60.83C1874.49,1622.07,1871.52,1746.16,1858.17,1786.7Z"/><path class="cls-31" d="M1860.25,1494c-5,2.69-11,5.36-17.84,8.41-28,12.47-55.67,26-81,43.47-46.61,32.12-80.65,68.54-98.82,120-29.45-4.77-54.1-4.2-63.49-1.8,0,0,50.21-64.88,56.36-88,5.24-19.72,13-47.52,15.23-55.27,43.89-19.46,91.85-34.07,134.75-51.44,14.86-6,29.76-12.05,44.91-17.32C1853.67,1465.09,1857.13,1479.48,1860.25,1494Z"/><path class="cls-28" d="M1783.82,1222.17c-5.66,9.06-20.39,20.86-31.58,20.33a51.76,51.76,0,0,1-14.47-3.21c-17.8-6.19-34.89-15.64-45-30.71a66.79,66.79,0,0,0,15.14-23c10.63,4.62,18.81,14.26,26.28,23.44,10.33,12.71,15,24.21,33.62,20.76,6.27-1.16,12.44-4.83,15.17-10.47C1783.27,1220.24,1783.54,1221.21,1783.82,1222.17Z"/><path class="cls-27" d="M1862.71,1458.55c-.15,13.94-1.18,24.16-2.06,24.6-2.23,1.12-71.19,20.4-143.13,52.65s-109.75,13.35-109.75,13.35c-22.62-64.88-18.17-282.53,4.45-306.63,12.42-13.23,30.19-22,46.13-30.16,8.63-4.41,17.37-8.72,26.27-12.56,3.83-1.66,8.18-2,11.8-3.51,2.54-1.06,6.61-6.41,8.65-6.54a1.92,1.92,0,0,1,1.16.47c1.07.74,2.12,1.49,3.13,2.24,21.18,15.73,31.66,35.08,42.54,59.28,8,17.81,15.48,37,24.18,54.93,9.32,19.18,22.73,34.65,33.44,52.7,2.28,3.85,21.07,41.31,26.16,39.09,3.16-1.38,8.67-3.86,12.74-5.69h0l5.1-2.3C1861.12,1407.28,1863,1437.25,1862.71,1458.55Z"/><path class="cls-31" d="M1835.3,1399c-68.47,31-133.73,39.21-136.16,36.25-4.57-5.58,1.13-25,2.7-31.58,5.21-21.79,3.46-46,4.34-68.3.37-9.62-.11-11.29-1.21-20.84,3,24.14,12.63,48,30,65s43.21,26.19,66.86,20.49"/><path class="cls-6" d="M1914.59,1379a132.06,132.06,0,0,1-19.33,6.84"/><path class="cls-24" d="M1957.55,1408.38s1.72,16.19-7.92,22.37c0,0,1.73,11.62-5.93,15.32h-10.87c1,0-.28,7.59-.82,8.39-1.3,1.91-2.49,2.23-4.7,2.89-3.78,1.12-8.45.46-12.29.18-8.34-.62-16.71-2.72-25.06-2.88a89.06,89.06,0,0,0-13.62.79,78,78,0,0,0-13.63,3.11c.24-21.3-1.59-51.27-9.17-68.09l-5.1,2.3c.33-.19,5.45-3.14,12.08-7,7.84-4.57,17.8-10.43,24.46-14.54,12.5-7.7,37.71-8.69,40.92-8.19s5.2,10.36-9.39,14.82c0,0-7.17,3.22-6.92,5s27.93,4.45,31.64,5.44c12.47,3.32,37-1.82,41.16,15.3C1975,1404.34,1965,1408.2,1957.55,1408.38Z"/><path class="cls-33" d="M1957.56,1408.38c-3.76.4-7.46.8-11.19,1.1a103.36,103.36,0,0,1-11.29.41,46.56,46.56,0,0,1-11.34-1.58,25.11,25.11,0,0,1-10.11-5.25,43.38,43.38,0,0,0,10.59,3.09,84.66,84.66,0,0,0,10.94.91l11.15.22A63.81,63.81,0,0,1,1957.56,1408.38Z"/><path class="cls-33" d="M1953.16,1426.88a16.34,16.34,0,0,1-8.58,4,30.62,30.62,0,0,1-9.52-.3c-3.09-.51-6.06-1.29-9-2-1.49-.32-3-.67-4.46-.91s-3.06-.5-4.57-.92c1.56-.21,3.08-.37,4.65-.47q1.18,0,2.37,0c.79,0,1.56.1,2.35.15,3.12.29,6.17.85,9.15,1.36a50.5,50.5,0,0,0,8.86.89A25.71,25.71,0,0,0,1953.16,1426.88Z"/><path class="cls-33" d="M1932.83,1446.07a44,44,0,0,1-6.23-.4c-2-.26-4-.59-6-1s-4-.8-6-1.26-3.9-.93-6-1.21a14.87,14.87,0,0,1,6.27-1,38.94,38.94,0,0,1,6.22.68,45.86,45.86,0,0,1,6,1.6A30.44,30.44,0,0,1,1932.83,1446.07Z"/><path class="cls-6" d="M1520,1535.22l-.84.66a27.18,27.18,0,0,0-3.71,3.64c2.6,7.43,6.81,18.51,12.53,30.81a28.48,28.48,0,0,0,5.43-2.13A344.73,344.73,0,0,1,1520,1535.22Z"/><path class="cls-26" d="M1717.83,1432.9c-1.58,27.7-6.25,67.35-19.5,99a674.82,674.82,0,0,1-59.27,110.19l-.42.65-.7.34a58.81,58.81,0,0,1-26.07,6.45,53.6,53.6,0,0,1-21.65-4.66c-28.22-12.33-49.17-46.59-62.2-74.53a28.48,28.48,0,0,0,5.43-2.13c12.69,27.08,32.78,60,59,71.47,13.66,6,27.87,5.51,42.25-1.36a668.54,668.54,0,0,0,58.35-108.61c12.94-30.9,17.51-69.87,19.07-97.12,2-35.28-1.64-71.63-5.49-102.53-.32-2.61-.65-5.55-1-8.77-3-26.41-8-70.62-26.89-92.14-7.2-8.19-15.65-12.24-25.64-12.24a42.77,42.77,0,0,0-8.58.91c-53.46,10.87-61,90.54-64.23,124.55-5.37,56.67-15.16,115.89-48.51,168.17-1.69,2.68-3.47,5.35-5.31,8-1.52,2.21-3.1,4.4-4.72,6.57-1.15,1.54-2.34,3.12-3.56,4.69.37,1.16,1,3,1.81,5.44l-.84.66a27.18,27.18,0,0,0-3.71,3.64c-1.88-5.36-2.93-8.82-3.13-9.51l-.42-1.4.91-1.16c1.11-1.41,2.21-2.84,3.27-4.24l1.13-1.51q5.34-7.15,10-14.54c32.54-51.22,42.15-109.5,47.44-165.33,3.34-35.27,11.17-117.87,68.74-129.58,15.79-3.21,29.12,1.21,39.61,13.15,20.09,22.86,25.2,68.17,28.26,95.25.36,3.19.69,6.11,1,8.7C1716.18,1360.5,1719.87,1397.17,1717.83,1432.9Z"/><path class="cls-34" d="M1641.49,1637.21a103.13,103.13,0,0,1-32.07-13.9c-8.38-5.47-16.12-12.12-24.18-18.07S1569.1,1593,1562,1585.73c-13.77-14.13-26.4-30.19-35.47-47.78-1-1.92-8.83-16-7.69-17.43-13,16.21-24.47,33.35-33.11,52.43-2.72,6-5.24,12.32-5.06,18.9.19,7,3.4,13.5,6.23,19.91,4.82,10.86,9.11,22.64,18.32,30.14,5.26,4.28,11.76,6.8,18.35,8.42,10.38,2.54,21.15,3,31.84,3.3,21,.63,42.43.79,62.8-4.59A61.28,61.28,0,0,0,1641.49,1637.21Z"/><path class="cls-34" d="M1643.81,1663.26c-1.42,9.57-4,18.92-6.58,28.22-4.79,17.3-11.44,34-18.79,50.36a6.65,6.65,0,0,1-2,2.91,6.8,6.8,0,0,1-3,.92,105.17,105.17,0,0,1-13.39.9q-4,0-7.93-.2c-1,0-2.05-.11-3.07-.19-.69,0-1.38-.09-2.06-.15l-.49,0c-1.59-.13-3.18-.29-4.77-.46l-.43,0c1.51-2,11.79-16,23.33-33.49a1.1,1.1,0,0,0,.09-.14c3-4.56,6.11-9.36,9.17-14.23.44-.7.87-1.41,1.31-2.12.66-1.06,1.31-2.12,2-3.19.38-.62.76-1.24,1.13-1.87.49-.79,1-1.59,1.44-2.39,5.07-8.51,9.73-17,13.27-24.58.37-.77.72-1.54,1.06-2.32s.68-1.54,1-2.32a78,78,0,0,0,3.68-10.48c.08-.29.15-.59.21-.88a.64.64,0,0,0,0-.09c.87-3.71,1-6.82.34-9.09a.24.24,0,0,0,0-.08,3.38,3.38,0,0,0-.11-.34l.85-.18h0c.84-.17,1.67-.3,2.48-.42C1645.93,1645.52,1645.13,1654.35,1643.81,1663.26Z"/><path class="cls-26" d="M1581.32,1745.48l-.19.26c-112-16.31-146.64-86.52-156-124.58A131.91,131.91,0,0,0,1400,1570a5.11,5.11,0,0,1,3.13-8.27c43.78-7.12,114.68-44.85,116.39-38.28,25.7,98.51,119.1,113.26,119.1,113.26a5.91,5.91,0,0,1,.59,1.21C1646.33,1656.9,1585.17,1740.26,1581.32,1745.48Z"/><path class="cls-35" d="M1639.22,1650.27c-4.17,17.52-11.9,33.91-20.61,49.6-6.8,12.25-20.59,29-19.1,44.06a12.06,12.06,0,0,0,.56,2.64q-4,0-7.93-.2c-1,0-2.05-.11-3.07-.19-.69,0-1.38-.09-2.06-.15l-.49,0c-1.59-.13-3.18-.29-4.77-.46l-.43,0c1.51-2,11.79-16,23.33-33.49a1.1,1.1,0,0,0,.09-.14c3.21-4.6,6.18-9.37,9.17-14.23.44-.7.87-1.41,1.31-2.12l.84-1.37,1.12-1.82c.38-.62.76-1.24,1.13-1.87.49-.79,1-1.59,1.44-2.39a254.18,254.18,0,0,0,13.27-24.58c.37-.77.72-1.54,1.06-2.32s.68-1.54,1-2.32a66.49,66.49,0,0,0,3.68-10.48c.08-.29.15-.59.21-.88a.64.64,0,0,0,0-.09c.16-1.12.44-8.32.34-9.09,0,0,0-.08,0-.08l.74-.52h0C1641,1641.82,1640.21,1646.14,1639.22,1650.27Z"/><path class="cls-24" d="M1823.31,1150.87c-6.31,7-17.65,5.8-26.74,6a199.61,199.61,0,0,1-50.36-5.7c-8.12-2-16.2-4.5-23.38-8.74-.55-.32-1.1-.65-1.64-1a48.86,48.86,0,0,1-5.22-3.85c-.53-.44-1-.89-1.54-1.36-22.42-20.57-20.22-57.74-10-84.32,7-18.37,16.61-36.15,29.18-51.35a96.43,96.43,0,0,1,20.22-18.63c12.26-8.25,25.92-12.47,39.68-10.34,9.11,1.41,18.27,5.6,27.1,13.25,2.71,2.34,3,15.84,3.57,19.15.25,1.44.51,2.89.75,4.34,2.33,13.5,4.41,27.06,6.16,40.65a518.61,518.61,0,0,1,4.57,53.38C1836,1117.14,1833.61,1139.52,1823.31,1150.87Z"/><path class="cls-28" d="M1818,1030.08c.49,3.26,1.48,6.26,3.06,7.67-3.77.13-7.15-1.1-10.45-2.74-2.83,3-2.53,10.42-4.5,14.43-3,6-5.41,11.59-11.41,14.88-10.94,6-25.6,7.27-37.86,6a14.28,14.28,0,0,1-9-4c-2.55-2.72-3.48-6.55-5.4-9.75-6.88-11.46-6-22.74-5.44-36.1s5.29-26.8,14.6-36.4c.72-.75,1.47-1.47,2.24-2.16,12.26-8.25,25.92-12.47,39.68-10.34,9.11,1.41,18.27,5.6,27.1,13.25,2.71,2.34,3,15.84,3.57,19.15.25,1.44.51,2.89.75,4.34a30.31,30.31,0,0,0-6.52,11.06C1817.62,1021.74,1817.45,1026.1,1818,1030.08Z"/><path class="cls-10" d="M1789.71,969.69l-.09.26c-3.12,8.71-12.93,11.48-18.59,18.09a17,17,0,0,0-1.16,1.49c-8.83,12.68-3.27,23.55-1.95,36.91.82,8.34-2.54,16.58-7.14,23.36-3.84,5.65-12.33,10.14-13.65,16.86-6.54-12-15.24-17.28-27.91-9.21-1.3.83-2.61,1.73-3.9,2.68a54.51,54.51,0,0,0-12.58,12.6,29.77,29.77,0,0,0-5.73,16.77c0,5.16,5,40.09,14.28,47.07a5,5,0,0,0,4.68,1,42,42,0,0,1-17.31,2,28.86,28.86,0,0,1-18.33-9.48,13.37,13.37,0,0,1-3.75-9.47,18.63,18.63,0,0,0-.06,3.17c.54,9.09,7.32,17.82,16.32,19.86-13.39,5-37.65,3.78-43.2-12.2-3.91-11.26-2.51-23.63-.28-35.34s5.24-23.48,4.43-35.37a55.82,55.82,0,0,0-12.45-31.33,7.83,7.83,0,0,1-3.29,2.26c-4.19,1.71-10.81,1.89-17,1.26h0c-5.79-.58-11.18-1.86-13.76-3.22-17.69-9.31-16.1-28.11-4.87-42.2,4.3-5.39,9.75-10,16.18-12.47s13.89-2.66,20.1.32a6.69,6.69,0,0,0,3.28,1,5.6,5.6,0,0,0,3-1.58,80.58,80.58,0,0,0,7.83-7.85,97,97,0,0,1,54.56-34.15C1726.89,928.5,1801.91,933.29,1789.71,969.69Z"/><path class="cls-14" d="M1698.66,1139.57a28.86,28.86,0,0,1-18.33-9.48,13.37,13.37,0,0,1-3.75-9.47,18.63,18.63,0,0,0-.06,3.17,25.47,25.47,0,0,1-.71-3c-1.37-7.8-1.71-16.49-1.89-24.38-.31-14-.48-28.1-5.64-41.35.84-3.62,1.38-.23.38-3.81,6.58,13.58,13.22,27.38,15.78,42.24,1.88,10.9,1.54,22.26,5.26,32.67A32.63,32.63,0,0,0,1698.66,1139.57Z"/><path class="cls-28" d="M1727.89,1139a15.08,15.08,0,0,1-5.06,3.43c-.55-.32-1.1-.65-1.64-1a48.86,48.86,0,0,1-5.22-3.85c-.53-.44-1-.89-1.54-1.36l1.31-57.06c7.22,9.45,14.59,16.5,17,28.61C1734.47,1116.41,1734.5,1132.14,1727.89,1139Z"/><path class="cls-14" d="M1711.29,1136.57a31.6,31.6,0,0,1-7.83-.61c-8.1-1.56-11.06-13.64-12.47-21.77a332.16,332.16,0,0,1-4.44-39.29c-.76-14.32-.06-30.14,9.62-40.71,1.15-1.26,2.6-2.49,4.31-2.43a5.67,5.67,0,0,1,3.11,1.38,21.32,21.32,0,0,1,5.38,6.15c3.6,6,4.91,13.73,6.35,20.84,0,.13,0,.27.08.4,1.9,9.24-1.46,14.17,3.44,22.23a65.72,65.72,0,0,1,7.15,18.68C1729.62,1117.47,1728.09,1135.58,1711.29,1136.57Z"/><path class="cls-14" d="M1769.87,989.53c-8.83,12.68-3.27,23.55-1.95,36.91.82,8.34-2.54,16.58-7.14,23.36-3.84,5.65-12.33,10.14-13.65,16.86-6.54-12-15.24-17.28-27.91-9.21-1.3.83-2.61,1.73-3.9,2.68,0,.13,0,.27.08.4,1.9,9.24-1.46,14.17,3.44,22.23a65.72,65.72,0,0,1,7.15,18.68c-5.65-11-18.38-15.48-22.89-27.71l-.36-1c-3.4-9.53-6.85-24.2,2.47-31.3a16.46,16.46,0,0,1,3.76-2.14c5.85-2.44,13.2-2.07,19-.51,2.13.59,19.73,11.29,19.27,12.09,13-7.38,10-19.79,6.3-31.17a62,62,0,0,1,2.52-44.77l8.37,9.36A32.62,32.62,0,0,1,1771,988,17,17,0,0,0,1769.87,989.53Z"/><path class="cls-24" d="M1727.94,1085.61c-10.07-5.32-19.49-15.76-19.24-27.62.2-9.12,7.73-16.11,17.13-14,8.89,2,16.37,11.36,18.6,19.82"/><path class="cls-14" d="M1820.16,1123a17.27,17.27,0,0,1-3.94,2.9c-5,2.78-12.06,4.11-16.59,1.51a25.78,25.78,0,0,1-12.45-24.71c12.26,2.47,25.09,3.12,37.64,3.86A18.23,18.23,0,0,1,1820.16,1123Z"/><path class="cls-27" d="M1816.22,1125.91c-5,2.78-12.06,4.11-16.59,1.51a25.09,25.09,0,0,1-9.42-9.78A72.48,72.48,0,0,1,1816.22,1125.91Z"/><path class="cls-14" d="M1825,1051.6c-1.51-1.55-6.37-4.24-6.37-4.24l-1.19-3.37-.54,3.44s-2.77.87-7.1,2a108,108,0,0,0-11.72,4.19l17-3.39a9.12,9.12,0,0,1,3.68,0Z"/><path class="cls-14" d="M1821.1,1057.13c0,3.73-2.44,6.72-5.32,6.68s-5.19-3.1-5.13-6.84,2.44-6.72,5.33-6.68S1821.16,1053.4,1821.1,1057.13Z"/><path class="cls-14" d="M1778.61,1047.55c5.66-5.49,12.84-11.11,20.57-12.22,8.81-1.28,15.35-.23,23.8-.19,2.21,0,2.83,2.91,1.48,4.33s-3.57.77-5.19.64a76.94,76.94,0,0,0-25.88,2.1c-3.65.94-12,3.23-15.6,6.18A7.76,7.76,0,0,1,1778.61,1047.55Z"/><g class="cls-36"><ellipse class="cls-28" cx="1774.85" cy="1083.94" rx="13.8" ry="21.21" transform="translate(657.42 2837.9) rotate(-88.91)"/></g><path class="cls-10" d="M1828.31,989.11c-1.33,5.77-4.19,11.06-6.31,16.59-4,10.41-7.08,21.65-.84,31.9a27.6,27.6,0,0,1-8.69-18.43c-.1-1.77-.25-3.51-.4-5.24a87.67,87.67,0,0,1-.53-13.21,14.41,14.41,0,0,1,1.34-5.92,40.09,40.09,0,0,0-8.07,24.75c.13,6.33,1.77,12.62,1.18,18.92a23.12,23.12,0,0,1-1,4.75h0c-2.14,6.84-7.33,12.27-13.92,16.12-13.2,7.7-32,9.07-43.35,2.71,5.26,2.45,19.28-4.72,22.24-9,5.19-7.43,1.93-18.6-2.4-25.56-7.63-12.25-18.4-27.08-15.71-42.41,1.7-9.66,8.21-17.31,16.21-22.77a58.93,58.93,0,0,1,11.89-6.21c9.77-3.78,23.45-4.2,33.27-.42,5.74,2.21,10,6.84,12.64,12.41A33,33,0,0,1,1828.31,989.11Z"/><path class="cls-32" d="M1683.08,1633.56c14.46,16.91,39.41,29.8,62.08,24.31,7.78-1.89,14.78-6.12,21.32-10.73a77.13,77.13,0,0,0,13.52-11.57c11.76-13.29,15.44-31.66,18.68-49.1.26-1.43-.58-3.68-1.79-2.88.79-4.93-1.45-1.47-6-3.62s-9.72-2.17-14.7-1.84C1739.37,1580.51,1704.35,1603.36,1683.08,1633.56Z"/><path class="cls-27" d="M1791.83,1587c.07-.36.13-.71.2-1.06,1.52-8.54-22.68-18.75-29.26-20.45a126.45,126.45,0,0,0-38.09-3.63,4.66,4.66,0,0,0-2.72.75,4.83,4.83,0,0,0-1.33,2.64c-3.74,14.27-8.21,27.87-18.36,38.91-7.83,8.51-23.19,15.88-14.37,29.22,9.27,14,25.56,17.72,41.39,18.79a35.64,35.64,0,0,0,10.72-.44,32.45,32.45,0,0,0,10.11-4.86,103.63,103.63,0,0,0,34-37.1C1787.54,1603.5,1790.44,1594.09,1791.83,1587Z"/><path class="cls-32" d="M1978.87,1661.13a136.46,136.46,0,0,1-13.07,24.08,21.61,21.61,0,0,1-5,5.79c-24,17.29-31.64-34.75-36.57-47.43-5.7-14.68-15.54-25.53-22.25-39.55,7.59.85,16.43-.21,24,.64,11.1,1.25,23,2.88,32.88,7.54,5.67,15.84,13.42,34.09,19.34,47.54Z"/><path class="cls-27" d="M1978.26,1659.74c-.19.41-.39.86-.6,1.33a51.25,51.25,0,0,1-20,22.9c-10,6.16-15.51.15-17.42-9.27a222.79,222.79,0,0,0-10.88-36.52c-5.07-13-12.42-26.17-21.8-36.58a111.9,111.9,0,0,0,31.35-26c8.84,13.41,16.09,25.45,19.11,34.08C1963.77,1626.1,1972,1645.57,1978.26,1659.74Z"/><path class="cls-31" d="M1858.17,1786.7s-8.61-5.47-26.8-20.52a36.46,36.46,0,0,1,2.17-4.49c11.22-19.58,12.27-39.79,16.54-61.25q7-35.07,10.49-70.72a731.51,731.51,0,0,0,1.44-127.31c4.46,21.76,8,43.37,9,60.83C1874.49,1622.07,1871.52,1746.16,1858.17,1786.7Z"/><path class="cls-27" d="M1656.8,1549.48c10.68,1.36,22.83-1.69,33.24-3.76,5.94-1.19,34.15-10.66,35.68-17.06,6.56-27.4,6-54.54,6.83-82.71.12-4.16-.15-9-3.54-11.43-2-1.43-4.62-1.59-7.07-1.71l-26.52-1.25c4.73.22,9.3-61.47,9.74-66.4,2.94-32.89,1.88-62.16-18.06-90.3-19.44,49.1-44.59,98.22-57.8,149.35-5.59,21.61-10.64,43.65-10,66,.51,17.93,8.57,37.73,20.63,51C1644.57,1546.28,1650.42,1548.66,1656.8,1549.48Z"/><path class="cls-14" d="M1819.69,991.78c-1.34,3.78-3.46,7.24-5,11a36.61,36.61,0,0,0-2.63,11.2,87.67,87.67,0,0,1-.53-13.21,14.41,14.41,0,0,1,1.34-5.92,40.09,40.09,0,0,0-8.07,24.75c.13,6.33,1.77,12.62,1.18,18.92a23.12,23.12,0,0,1-1,4.75h0c-2.14,6.84-7.33,12.27-13.92,16.12-1.36.53-2.67,1.07-3.87,1.64,15.56-7.45,8.59-33.6,5.22-44.85-5.48-18.32,7.42-26.09,21.21-34.16,3.35-2,6.32-5.39,6-9.26A28.78,28.78,0,0,1,1819.69,991.78Z"/><path class="cls-10" d="M1842.33,1012.58A46.24,46.24,0,0,0,1836,987.1c10.93,11.08,20.08,27.08,15,43-2.77,8.59-8.71,17.69-15.71,25.4a27.36,27.36,0,0,1,1.18-4.88C1840.56,1038.07,1841.7,1026,1842.33,1012.58Z"/><path class="cls-28" d="M1834.61,1104.47c5.88-1.59,11.63-3.63,17.36-5.69-1.39,1.65-3.67,3.17-6.6,5.17a22.7,22.7,0,0,1-4.83,2.47c-.31.13-.63.25-1,.36a39.64,39.64,0,0,1-3.94,1.14c-1.07.27-2.16.5-3.24.71a3.34,3.34,0,0,1,.19-3.16A3.88,3.88,0,0,1,1834.61,1104.47Z"/><path class="cls-14" d="M1644.63,1002c0,6.36,0,12.8-1.54,19a29.1,29.1,0,0,1-5,10.66c-4.19,1.71-10.81,1.89-17,1.26a29.78,29.78,0,0,0,8.16-10.61c5.91-12.12,3.72-26.36,10.13-38,1.43-2.6,2.94-6.37,5.09-3.49C1647,984.13,1644.62,997.76,1644.63,1002Z"/><path class="cls-26" d="M1649.11,1005.38c2,4.49,4.91,8.8,5,13.7a19.12,19.12,0,0,1-1.68,7.56c-1.08,2.66-2.53,5.32-4.93,6.89s-6,1.68-7.89-.43c2.75-10,2.65-20.52,2.54-30.88a86.33,86.33,0,0,0-2.7-19.68c-1-4.36-1.53-7.32,3.56-5.07,4.76,2.1,3.46,6.16,3.18,10.27A37.42,37.42,0,0,0,1649.11,1005.38Z"/><path class="cls-10" d="M1787.8,953.82a43.76,43.76,0,0,0-16.44-16,50.32,50.32,0,0,0-10.65-4.36,66.69,66.69,0,0,0-11.36-1.89c-1.91-.18-3.86-.32-5.81-.57s-3.87-.55-5.79-.87c-3.83-.64-7.64-1.34-11.45-1.76a45.7,45.7,0,0,0-5.69-.34,35.65,35.65,0,0,0-5.64.53c-3.74.63-7.44,1.76-11.24,2.71-15.25,2.73-28.91,10.54-40.23,20.88a111,111,0,0,0-15.29,17.13c-1.09,1.57-2.22,3.15-3.22,4.74a45.57,45.57,0,0,0-2.67,5,35.74,35.74,0,0,0-3.08,10.72,27.63,27.63,0,0,0-.1,5.53,25.51,25.51,0,0,0,.36,2.73c.17.93.38,1.89.53,2.92a12.2,12.2,0,0,1,.1,3.27,8.35,8.35,0,0,1-1.14,3.26c-1.17,1.9-2.65,3.22-3.59,4.66a9,9,0,0,0-1.41,4.79,18.81,18.81,0,0,0,.76,5.36,55.72,55.72,0,0,0,4.31,10.49c1.74,3.42,3.67,6.77,5.54,10.2.93,1.72,1.85,3.45,2.66,5.29a21.52,21.52,0,0,1,1.06,2.83c.29,1,.64,1.88.88,2.84a68.14,68.14,0,0,1,2,23.47,130.84,130.84,0,0,1-4.15,23.06c-1.93,7.56-4.64,14.86-5.72,22.46a36.94,36.94,0,0,0,0,11.4,24.29,24.29,0,0,0,4.22,10.51,17.48,17.48,0,0,0,9.18,6.49,14.3,14.3,0,0,0,11.2-1,14.51,14.51,0,0,1-11.32,1.38,18,18,0,0,1-9.66-6.45,25.24,25.24,0,0,1-4.67-10.77,38.16,38.16,0,0,1-.28-11.78c1-7.83,3.6-15.21,5.36-22.71a129.07,129.07,0,0,0,3.72-22.76,75.55,75.55,0,0,0-.15-11.46,58.14,58.14,0,0,0-2-11.21c-.23-.92-.57-1.81-.86-2.71a21.09,21.09,0,0,0-1-2.62c-.76-1.7-1.67-3.39-2.6-5.08-1.86-3.38-3.82-6.74-5.62-10.23a58.46,58.46,0,0,1-4.58-11,22.08,22.08,0,0,1-.87-6.12,11.63,11.63,0,0,1,1.82-6.23c1.21-1.8,2.65-3.12,3.49-4.56a5.47,5.47,0,0,0,.76-2.19,9.49,9.49,0,0,0-.1-2.53c-.14-.89-.34-1.82-.53-2.8a27.94,27.94,0,0,1-.42-3,29.51,29.51,0,0,1,.09-6.09,38.73,38.73,0,0,1,3.37-11.54,48.58,48.58,0,0,1,2.87-5.26c.53-.86,1.1-1.66,1.66-2.46s1.11-1.62,1.69-2.41a114,114,0,0,1,15.75-17.46A94.59,94.59,0,0,1,1681,936.74a74.4,74.4,0,0,1,10.84-4.7,107.82,107.82,0,0,1,11.4-2.84c3.74-.85,7.5-1.94,11.42-2.54a38.18,38.18,0,0,1,5.95-.46,46.18,46.18,0,0,1,5.91.45c3.89.5,7.71,1.27,11.52,2,1.9.35,3.8.68,5.71,1s3.81.43,5.76.68a66.88,66.88,0,0,1,11.51,2.24,51.56,51.56,0,0,1,10.72,4.73,42.84,42.84,0,0,1,9.19,7.21A44.9,44.9,0,0,1,1787.8,953.82Z"/><path class="cls-27" d="M1535.86,1565.15l.52,1.3a26.35,26.35,0,0,1-2.93,1.75,28.48,28.48,0,0,1-5.43,2.13,29.82,29.82,0,0,1-22.44-2.51c1.07-10.07,3.5-20.74,9.91-28.3a27.18,27.18,0,0,1,3.71-3.64l.84-.66c.79-.6,1.61-1.17,2.44-1.75,3.51-2.43,7.09-4.83,8.47-8.75.65-1.84.61-4.15-.84-5.45a3.93,3.93,0,0,0-3.6-.75c1.84-2.64,3.62-5.31,5.31-8a30.65,30.65,0,0,1,3,3.63,26.71,26.71,0,0,1,4.73,14.07c.29,6.56-2.81,12.41-4.63,18.52C1532.7,1554,1533.34,1558.67,1535.86,1565.15Z"/><path class="cls-32" d="M1536.38,1566.45a26.35,26.35,0,0,1-2.93,1.75,28.48,28.48,0,0,1-5.43,2.13,29.82,29.82,0,0,1-22.44-2.51c1.07-10.07,3.5-20.74,9.91-28.3a27.18,27.18,0,0,1,3.71-3.64l.84-.66c.79-.6,1.61-1.17,2.44-1.75a29.15,29.15,0,0,0,1.57,19.61,25.75,25.75,0,0,0,11.81,12.07Z"/><path class="cls-27" d="M1519.25,1548.65c.11-4.12.42-8,.43-10.44a87,87,0,0,1,.92-14.43c1-6.14,4.46-11.11,6.41-17-10.88-2.47-20.61.9-28,9.53-11.23,13.12-17.09,28.25-25.67,43a2.63,2.63,0,0,0,1,4.36c7.91,5.12,16.08,10.35,25.33,12.19s20-.49,25.53-8.11C1519.63,1566.12,1519,1556.85,1519.25,1548.65Z"/><path class="cls-28" d="M1862.71,1458.55c.24-21.3-1.59-51.27-9.17-68.09l-5.1,2.3c.33-.19,5.45-3.14,12.08-7,3.92,5,6,11.38,7.62,17.59a257.15,257.15,0,0,1,8.2,52.1A78,78,0,0,0,1862.71,1458.55Z"/><path class="cls-9" d="M3283.92,1530.36c47.74,1.32,59.91,45.8,63.36,84.35a8.42,8.42,0,0,1-.23,3.71,8.07,8.07,0,0,1-2.82,3.27c-36.05,28.42-85,38.69-130,32.17-28.21-4.1-33.36-13.24-26.21-41.77,5.61-22.39,19.68-42.68,37-57.72C3241.38,1540.11,3262.22,1529.75,3283.92,1530.36Z"/><polygon class="cls-28" points="3193.68 2352.69 3197.72 2409.52 3139.36 2410.63 3136.15 2357.31 3193.68 2352.69"/><path class="cls-32" d="M3126.15,2482.57c0,.45,0,.89,0,1.32,0,2,.13,3.82.22,5.37.2,3.42.45,5.51.45,5.51h113.27a62.31,62.31,0,0,0,.13-10.88c-.74-11.57-4.59-29.85-20.23-41.93-21.41-16.56-13.15-13.11-17.54-20.65-.49-.84-4.35-13.66-4.76-14.55-3.68-7.83-7.07-11.54-27.36-11.54-26.92,0-29.29,13.06-32.16,19.94-1.19,2.85-2.81,8.85-4.48,16-.68,2.86-1.36,5.92-2,9-1.66,7.81-3.21,16-4.27,22.46A118.25,118.25,0,0,0,3126.15,2482.57Z"/><path class="cls-9" d="M3126.15,2482.57c0,.45,0,.89,0,1.32,0,2,.13,3.82.22,5.37a31.66,31.66,0,0,0,11.77-15.25c7-19.09-3.77-42-4.22-43l-.23.11c-.68,2.86-1.36,5.92-2,9,2.55,7.8,5.49,20.9,1.41,32A26.49,26.49,0,0,1,3126.15,2482.57Z"/><path class="cls-9" d="M3126.17,2483.89c.15,6.45.67,10.88.67,10.88h113.27a62.31,62.31,0,0,0,.13-10.88Z"/><path class="cls-8" d="M3166.61,2430.53a3.21,3.21,0,0,0,.81-.1,56,56,0,0,1,26.26-.54,3.23,3.23,0,0,0,1.72-6.23,62,62,0,0,0-29.6.51,3.23,3.23,0,0,0,.81,6.36Z"/><path class="cls-8" d="M3164.75,2417.48a3.21,3.21,0,0,0,.81-.1,55.79,55.79,0,0,1,26.26-.54,3.23,3.23,0,0,0,1.72-6.23,62,62,0,0,0-29.6.51,3.23,3.23,0,0,0,.81,6.36Z"/><path class="cls-8" d="M3171.45,2440.76a3.34,3.34,0,0,0,.82-.1,56.54,56.54,0,0,1,26.26-.54,3.23,3.23,0,0,0,1.72-6.23,62.12,62.12,0,0,0-29.6.52,3.23,3.23,0,0,0,.8,6.35Z"/><path class="cls-8" d="M3177.15,2452.4a3.29,3.29,0,0,0,.81-.11,56.7,56.7,0,0,1,26.26-.54,3.23,3.23,0,0,0,1.72-6.22,62,62,0,0,0-29.6.51,3.23,3.23,0,0,0,.81,6.36Z"/><polygon class="cls-28" points="3037.65 2358.08 3036.62 2415.01 2983.34 2416.02 2983.04 2362.47 3037.65 2358.08"/><path class="cls-32" d="M2858.47,2494.77l190.15-2c1.38-2.58,2.11-6.24,2.38-10.59,1-16.09-4.38-41.71-7.07-57.87-.32-1.88-.6-3.65-.82-5.24a56.23,56.23,0,0,1-.64-6.6c-.14-13.21-11.81-10.82-11.81-10.82-19,19.07-41.13-9-53.75.43,0,0-5.44,4-20.39,17.72s-40.53,23-62.28,32.37c-28.09,12.09-36,24-37.45,32.09A14.86,14.86,0,0,0,2858.47,2494.77Z"/><path class="cls-9" d="M2858.47,2494.77l190.15-2c1.38-2.58,2.11-6.24,2.38-10.59l-194.21,2.08A14.86,14.86,0,0,0,2858.47,2494.77Z"/><path class="cls-9" d="M3029.22,2493l5.64-.06c-5.7-6.38-11.08-16.21-10.54-30.34.71-18.8,11.85-31.58,19.61-38.27-.32-1.88-.6-3.65-.82-5.24-8.38,6.54-22.45,20.82-23.32,43.33A46.17,46.17,0,0,0,3029.22,2493Z"/><path class="cls-8" d="M2959.86,2431a3.13,3.13,0,0,0,.69-6.18l-11.91-2.83a3.13,3.13,0,0,0-1.44,6.1l11.91,2.82A3.2,3.2,0,0,0,2959.86,2431Z"/><path class="cls-8" d="M2972.89,2420.57a3.14,3.14,0,0,0,.68-6.19l-11.91-2.82a3.13,3.13,0,1,0-1.44,6.1l11.91,2.82A3.29,3.29,0,0,0,2972.89,2420.57Z"/><path class="cls-8" d="M2948.06,2438a3.13,3.13,0,0,0,.69-6.18l-11.91-2.83a3.13,3.13,0,0,0-1.45,6.1l11.91,2.82A3.35,3.35,0,0,0,2948.06,2438Z"/><path class="cls-8" d="M2936.25,2444.75a3.13,3.13,0,0,0,.69-6.18l-11.91-2.82a3.13,3.13,0,1,0-1.44,6.1l11.9,2.82A2.85,2.85,0,0,0,2936.25,2444.75Z"/><path class="cls-8" d="M2923.37,2451a3.13,3.13,0,0,0,.68-6.18l-11.91-2.82a3.13,3.13,0,1,0-1.44,6.09l11.91,2.82A2.82,2.82,0,0,0,2923.37,2451Z"/><path class="cls-8" d="M2909.38,2456.42a3.14,3.14,0,0,0,.68-6.19l-11.9-2.82a3.13,3.13,0,1,0-1.45,6.1l11.91,2.82A3.29,3.29,0,0,0,2909.38,2456.42Z"/><path class="cls-37" d="M3236.63,1523.29,3029.22,1569s1.73,3.12,4.62,8.38c-41.05-13.39-89.25-27.15-89.25-27.15l-8.29,74.7-1.49,348.94q3.46,86.25,6.92,172.52,2.67,66.45,5.33,132.91,1.08,27,2.17,54c1.23,31,13.77,35,45.27,42.17,11.71,2.67,39.19,6.66,48.2-4.39,3.79-4.64,5.91-33,7.17-40.63,2.34-14.25,1.93-29.54,2.87-43.95l7.74-118.36q9.2-140.8,18.41-281.6l12.93-198q4.39,194.43,8.77,388.85,1.92,84.73,3.83,169.46c.47,21-9.12,111,10.48,122.13,5.63,3.17,12.26,3.87,18.69,4.51l51,5c33.41,3.29,25.93-15.37,24.56-37.83-.93-15.37,1.75-31.84,2.6-47.22q3.39-61.8,6.79-123.61c3.05-55.48,5.3-111.08,9.16-166.52,0-.12,31-445.46,31-445.46ZM3087.1,1678.05c2,4.26,3.65,7.84,4.71,10.5C3091.67,1688.24,3089.9,1684.28,3087.1,1678.05Z"/><path class="cls-9" d="M3236.64,1523.29l5.7,45.75s-56.73,24.58-92.67,37.82-88.88,37.83-136.16,18.92-88.88-43.49-88.88-43.49l11.36-29.08,115.34,31Z"/><path class="cls-31" d="M3264.46,1528.72s-11.56,10.49-45.36,27.61c-6.66,3.37-14.18,7-22.65,10.85q-8.91,4.07-19.25,8.45c-62.66,26.51-151.66,46.31-218.9,12.41a141.22,141.22,0,0,1-12.64-7.17q3-35.65,5.9-71.31,3.53-42.57,7-85.14a.22.22,0,0,1,0-.08l1.36-16.47,5.34-64.61,39.3-282c.44-3.1,40.37-11,49.41-13l1.19-.27.34-.08c26-6.8,65.72-9,82.6-32.07,1.32-1.8,2.52-3.68,3.73-5.56a61.92,61.92,0,0,1,5.49-7.55c3.57-4,8.57-7.19,13.91-6.85,7.11.45,12.71,6.45,18.3,12.4,4.14,4.42,8.28,8.81,13,10.9,1.7.75,3.22,1.47,4.58,2.21,6.85,3.71,9.83,7.81,11.95,17.4,1.31,5.93,1.68,12.21,2.44,18.23,3.23,25.69,6.15,51.43,9.1,77.15q14.36,125.25,28,250.59Q3256.6,1456.73,3264.46,1528.72Z"/><path class="cls-6" d="M3054,1042.09c-.87,4.24-.61,9.63-.19,15l-.66-.63,0,0-1.5-1.42Q3052.72,1048.55,3054,1042.09Z"/><path class="cls-28" d="M3172,1034.31c-3,8.89-6.83,16.65-10.4,26.38-.47,1.27-.9,2.57-1.3,3.9-13.61,9-33.2,15.56-42.62,15.94-33.87,1.37-57.9-9.47-64.49-24.07a19.91,19.91,0,0,1-1.76-9.93c1.58-19,9.4-66,9.63-67.4.49-3,42.33-9.36,46.11-10.19,16.19-3.57,32.47-7.12,48.6-10.71,1.33,14.41,2.33,28.91,4.84,43.18a82.47,82.47,0,0,0,4.37,14.86C3167.23,1022.35,3169.89,1028.33,3172,1034.31Z"/><path class="cls-2" d="M3046,1050.51c.71,0,2.89,1.92,5.66,4.53-2.82,16.86-4.67,33.9-7.37,50.73-9.3-15.2-10.81-35.44.05-49.33C3046.06,1054.21,3043.14,1050.41,3046,1050.51Z"/><path class="cls-13" d="M3046,1050.51c.71,0,2.89,1.92,5.66,4.53-2.82,16.86-4.67,33.9-7.37,50.73-9.3-15.2-10.81-35.44.05-49.33C3046.06,1054.21,3043.14,1050.41,3046,1050.51Z"/><path class="cls-2" d="M3194.24,1074.87c-1.77,5.88-5,11.12-8.68,16.09q1.93-10.15,3.85-20.31c1.73-9.13,3.47-18.29,4.93-27.47C3196.13,1056.29,3195.93,1069.29,3194.24,1074.87Z"/><path class="cls-13" d="M3194.24,1074.87c-1.77,5.88-5,11.12-8.68,16.09q1.93-10.15,3.85-20.31c1.73-9.13,3.47-18.29,4.93-27.47C3196.13,1056.29,3195.93,1069.29,3194.24,1074.87Z"/><path class="cls-29" d="M3290.39,1620.46c-72.75-20.86-70.2-101-104.59-156l-.37-.59c-6-9.58-11.86-19.52-17.31-29.74-13.42-25.18-24.64-52-31.84-79.29-.2-.74-.39-1.48-.58-2.22s-.42-1.66-.62-2.48a181.17,181.17,0,0,1-4.1-24.62c-.67-6.74-1-13.52-1-20.31q0-2.16,0-4.32c0-3.7.16-7.41.35-11.11,2.49-48.57,17.22-96.36,23.32-131.25,4.46-25.48,10.7-50.66,16.65-75.83,3.19-13.48,6.42-27,9.49-40.46,1.57-6.92,2.69-30,9.63-33.35,2.35-1.16,5.12-.92,7.73-.67a53,53,0,0,1,6.25,1,49.91,49.91,0,0,1,11.25,4c1.09.54,2.16,1.11,3.22,1.71,6.39,3.62,12.32,8.3,19.4,13.21l90.18,46.49q-14.55,95.22-26,190.92c-4.63,39.16-9.86,78.8-10.61,118.27-.25,13.41,1.66,27,4.85,40.64.37,1.58.75,3.16,1.16,4.74,1.44,5.7,3.09,11.4,4.88,17.11q2.05,6.57,4.33,13.13c9,26.09,19.76,52.06,26.16,77.12q7.78,30.46,14.55,61.18,2.31,10.44,4.49,20.91C3353.78,1631,3296.93,1622.33,3290.39,1620.46Z"/><g class="cls-38"><path class="cls-2" d="M3139.1,1308.57q-4.53-1.83-9.16-3.4t-9.42-2.88c3.14-.47,6.28-.94,9.42-1.44q2-.3,3.93-.63a40.55,40.55,0,0,0,3.89,6.62C3138.19,1307.43,3138.64,1308,3139.1,1308.57Z"/><path class="cls-13" d="M3139.1,1308.57q-4.53-1.83-9.16-3.4t-9.42-2.88c3.14-.47,6.28-.94,9.42-1.44q2-.3,3.93-.63a40.55,40.55,0,0,0,3.89,6.62C3138.19,1307.43,3138.64,1308,3139.1,1308.57Z"/></g><path class="cls-9" d="M3301.67,1446.28l-22.34,6.84-95.26-7.44,4.76-17.85c28.92,1.25,81.73,0,106.88-1.27l1.08,2.61C3298.23,1434.87,3299.88,1440.57,3301.67,1446.28Z"/><g class="cls-38"><path class="cls-2" d="M3165.73,1322.23a38.9,38.9,0,0,1-26.63-13.66A168.07,168.07,0,0,1,3165.73,1322.23Z"/><path class="cls-13" d="M3165.73,1322.23a38.9,38.9,0,0,1-26.63-13.66A168.07,168.07,0,0,1,3165.73,1322.23Z"/></g><g class="cls-39"><path class="cls-9" d="M3306,1459.41a288.31,288.31,0,0,1-68.49,11.48c-17.27.77-35.69-.54-51.71-6.47l-.37-.59c-6-9.58-11.86-19.52-17.31-29.74-13.43-27.65-25.61-56.15-31.84-79.29-.2-.74-.39-1.48-.58-2.22.75-.25,1.52-.47,2.27-.68l49-13.73a164.85,164.85,0,0,0-21.26-15.94,168.07,168.07,0,0,0-26.63-13.66c-.46-.56-.91-1.14-1.34-1.73a40.55,40.55,0,0,1-3.89-6.62,54,54,0,0,1-3.58-10.48c2.49-48.57,17.22-96.36,23.32-131.25,4.46-25.48,10.7-50.66,16.65-75.83,3.19-13.48,6.42-27,9.49-40.46,1.57-6.92,2.69-30,9.63-33.35,2.35-1.16,5.12-.92,7.73-.67a53,53,0,0,1,6.25,1,49.91,49.91,0,0,1,11.25,4c1.09.54,2.16,1.11,3.22,1.71,8.91,17.52,26.71,60.51,2.8,61.67,3.51,2.62,8,6.23,11.87,8.13,3,1.49,8.2,1.14,10.67,3.52,2.72,2.61,1.28,7.13-.32,10.54-12.34,26.23-20.87,54-30.78,81.15-9.2,25.22-20.79,45.52-20.93,73-.11,20.28,18.3,22.87,32.35,10.87,10.33-8.81,14.9-21.75,21.44-33.25,7.84-13.77,16.46-27.09,23.66-41.22-4.59,9-3.84,25.2-7,35.44-.61,2-1.12,3.91-1.57,5.87-2,8.53-2.81,17.07-5.66,25.56-8,23.79-9.4,48.45-16.45,72.57-2.43,8.34-5.18,16.73-5.28,25.42-.27,24.3,19.85,43.87,40.54,56.62a217.51,217.51,0,0,0,21.94,11.83c.18.58.37,1.17.56,1.76,1.13,3.52,2.36,7.15,3.69,10.85l-2.53-6.11c1.44,5.7,3.09,11.4,4.88,17.11Q3303.73,1452.85,3306,1459.41Z"/></g><path class="cls-32" d="M3219.83,1551.31a48.58,48.58,0,0,1-.73,5c-6.66,3.37-14.18,7-22.65,10.85-11.45-60.88-45.12-113.41-66.74-171.15-.84-2.24-1.83-4.66-3.91-5.84s-4.41-.83-6.69-.8c-26.44.36-62.22-25.76-84.28-39.33-.33,0-19.25,14.8-20.4,16.71-6.39,10.74-4.73,31.48-7.41,44.15A1546.93,1546.93,0,0,1,2958.3,1588a141.22,141.22,0,0,1-12.64-7.17q3-35.65,5.9-71.31,3.53-42.57,7-85.14a.22.22,0,0,1,0-.08c2-24.44,13.74-45,20.93-68.53,15.66-51.07,30.1-102.62,42.31-154.61,6.1-26,13.64-51.64,19.17-77.74,1.24-5.85,2.3-11.75,3.25-17.69,1.58-9.86,2.87-19.76,4.23-29.65.63-4.55,1.68-9.23,1.9-13.82.24-5,0-10,.39-15-.08,1,2,3.85,2.42,5a19.2,19.2,0,0,1,1,5.86c0,4,.44,8.09.45,12.16,0,11.27-.24,22.54-.58,33.8-.13,4.37-.2,8.71-.25,13.05-.16,15.78.07,31.44-.62,47.25-2,44.54-5.84,89-13.4,133-3.52,20.48,18,40.59,39.8,33.35,20.77-6.88,33-75.68,39.42-95.39,11.62-35.56,22.27-71.47,30.46-108,.44-1.88.85-3.76,1.26-5.65.61-2.8,1.12-5.68,1.58-8.63l.27-1.78c.18-1.19.34-2.38.5-3.59.09-.6.17-1.21.24-1.81.32-2.43.61-4.87.9-7.33.11-.87.21-1.73.31-2.59.19-1.6.39-3.2.59-4.8.15-1.23.31-2.45.48-3.68l.24-1.75c.09-.68.19-1.36.29-2s.17-1.13.26-1.69.19-1.21.29-1.81c.2-1.2.41-2.4.63-3.59.12-.66.25-1.32.38-2,.47-2.29,1-4.54,1.56-6.74.3-1.13.62-2.25,1-3.35.14-.47.29-.94.44-1.4.27-.85.56-1.68.86-2.5,1.79-4.87,3.63-9.24,5.41-13.51l.66-1.59c.88-2.12,1.73-4.23,2.55-6.38.21-.53.41-1.07.61-1.61s.4-1.09.59-1.63.32-.9.47-1.36c0-.1.08-.2.11-.3.39-1.15.77-2.32,1.13-3.51.16-.52.31-1,.47-1.57q.3-1,.57-2.1c.14-.51.27-1,.4-1.56s.32-1.3.46-2c.11-.46.21-.92.3-1.39s.16-.77.24-1.16c.12-.61.24-1.23.35-1.86a38.81,38.81,0,0,1,3.56-10.61,10.67,10.67,0,0,1,1,.57c1.51,1.61,3,3.2,4.61,4.66,4.79,6.82,7.8,18.14,9.33,29.37-1.46,9.18-3.2,18.34-4.93,27.47q-1.92,10.15-3.85,20.31l-30.78,162.55c-5.67,30-11.43,61.51-5.74,91.91,2,10.53,4.58,24.56,9.52,34.23,6.06,11.86,18.29,18.53,25.79,29.44,7.83,11.38,13,27.33,18.26,40.2C3215.75,1481.25,3223,1516.7,3219.83,1551.31Z"/><path class="cls-31" d="M3179.43,1008.58a38.81,38.81,0,0,0-3.56,10.61c-.11.63-.23,1.25-.35,1.86-.08.39-.15.78-.24,1.16s-.19.94-.3,1.39c-.14.67-.3,1.32-.46,2s-.26,1-.4,1.56q-.27,1.06-.57,2.1c-.15.53-.31,1-.47,1.57-.36,1.19-.74,2.36-1.13,3.51,0,.1-.07.2-.11.3-.15.46-.31.91-.47,1.36s-.39,1.09-.59,1.63-.4,1.08-.61,1.61c-.82,2.15-1.67,4.26-2.55,6.38l-.66,1.59c-1.78,4.27-3.62,8.64-5.41,13.51-.3.82-.59,1.65-.86,2.5-.15.46-.3.93-.44,1.4-.34,1.1-.66,2.22-1,3.35-.58,2.2-1.09,4.45-1.56,6.74-.13.66-.26,1.32-.38,2-.22,1.19-.43,2.39-.63,3.59-.1.6-.2,1.21-.29,1.81s-.17,1.13-.26,1.69-.2,1.37-.29,2l-.24,1.75c-.17,1.23-.33,2.45-.48,3.68-.2,1.6-.4,3.2-.59,4.8-.1.86-.2,1.73-.31,2.59-.29,2.46-.58,4.9-.9,7.33l-.24,1.81c-.16,1.21-.32,2.4-.5,3.59l-.27,1.78c-.46,2.95-1,5.83-1.58,8.63-.41,1.89-.82,3.77-1.26,5.65l-1,.54c-11.16,5.86-24.06,7.6-36.66,7.65-20.39.08-41.81-4.58-57.2-17.71l-.81-.72c.05-4.34.12-8.68.25-13.05.34-11.26.59-22.53.58-33.8,0-4-.49-8.58-.84-13.19l1.36,1.3c5,4.82,10.69,10.27,13.29,11.45,8.77,4,21.2,7.1,30.89,5.55,19.87-3.19,37.1-19.68,50.41-33.84,4.6-4.89,9.66-16.93,15.14-25.32a29.23,29.23,0,0,1,5.87-7,7,7,0,0,1,5.22-1.8A10.12,10.12,0,0,1,3179.43,1008.58Z"/><path class="cls-9" d="M3236.3,1097.62c-5.6,19.85-37.07,87.8-40.23,95.83-14.44,36.72-26.44,74.34-38.25,112-2.67,9-20.62,12.85-26.67,20.1l-.17,0c-5.94-60,15-123.54,22.63-167,4.46-25.48,10.7-50.66,16.65-75.83,3.19-13.48,6.42-27,9.49-40.47,2.4-10.58,1.82-47.86,22.33-37,14.2,7.53,24,53.3,27.35,67.78a35.84,35.84,0,0,0-15.85,1.65l23.29,17.65C3237.41,1092.69,3237.16,1094.6,3236.3,1097.62Z"/><path class="cls-29" d="M3327.41,1074.6c7.84,0,25.58,35.84,26.37,80.92,1.13,64.07,13.46,225.44-2.36,248.38s-108.37,33.23-165.32,19.78c0,0,2.37-90.17-5.54-102s-17.4-16.61-17.4-16.61l86.22,14.24S3292.34,1074.6,3327.41,1074.6Z"/><path class="cls-9" d="M3186.1,1423.68s2.37-90.17-5.54-102-17.4-16.61-17.4-16.61-7.91,6.33-10.29,21.36,2.38,56.16,10.29,73.56A48.86,48.86,0,0,0,3186.1,1423.68Z"/><path class="cls-29" d="M3054,1006.83s-3.95,81.47-5.53,120.23c-.81,19.77-9.23,72.26-18.86,125.25-4,21.77-8.12,43.63-12,63.34-3.43,17.26-6.68,32.86-9.45,45.32-1.47,6.56-2.79,12.25-3.94,16.84-11.86,47.46-71.18,269.74-90.16,284.77,0,0-6.33,8.7-.79-44.3,5.2-49.84,20.9-136.75,28.67-177.19.49-2.56,1-4.94,1.38-7.11,2.93-15-.73-57.74-5.54-112.09-6.86-77.42-16.06-178.44-11.88-256.52,0,0,86.22-36.39,98.88-38l.15-.3c.3-.59,1.05-2,2.2-3.78,3.37-5.24,10.23-13.94,19.76-16.13A20,20,0,0,1,3054,1006.83Z"/><g class="cls-39"><path class="cls-9" d="M3044.37,1065.91a1146.49,1146.49,0,0,0-14.78,186.4c-4,21.77-8.12,43.63-12,63.34-3.43,17.26-6.68,32.86-9.45,45.32l-1.51,2c-20.18,27-40.81,54.47-64.71,78.09.49-2.56,1-4.94,1.38-7.11,2.93-15-.73-57.74-5.54-112.09q10.11-18.21,21.56-35.62c8.71-13.24,19.44-25.41,24.17-40.83,5.26-17.14,1.6-35.88,1.68-53.49.12-26.67-.55-53.33-1.29-80-.08-2.9-3.8-21.1-1.4-22.79l24.79-17.44c2.65-1.87,5.43-3.89,6.67-6.89s.09-7.21-3.05-8q6.95-14.71,13.87-29.42l.15-.3c.3-.59,1.05-2,2.2-3.78,3.37-5.24,10.23-13.94,19.76-16.13C3051.16,1026.27,3047.53,1046.44,3044.37,1065.91Z"/></g><path class="cls-9" d="M3054,1006.83s-3.95,81.47-5.53,120.23c-1.14,27.89-17.43,120.93-30.9,188.59a32,32,0,0,1-3.2-6c-3.71-9.27-6.1-22.55-8.07-32.33-10.67-52.78-12.56-132.88-18.09-189.61l6.53-6a196,196,0,0,1,29.24-16.34l1-1.38-10.34-7.9a126.53,126.53,0,0,1,9.36-23.44,32.8,32.8,0,0,0,3.06-9.31C3031.23,1016.84,3040.71,1005.09,3054,1006.83Z"/><path class="cls-40" d="M3174.78,1112.78l-117,183.43-65.09-2.62-88.83-197.39S3036.71,1052.85,3174.78,1112.78Z"/><path class="cls-26" d="M2982.29,1268.27c-1.52,0-2.68-1.31-3.51-2.58a30.88,30.88,0,0,1-2.26-4,2.14,2.14,0,0,1,0-1.72c1.23-2.9,1.71-6.06,3-9a28.33,28.33,0,0,1,6,11.43C2986.13,1264.82,2984.14,1266.66,2982.29,1268.27Z"/><path class="cls-26" d="M3075.69,1291.58s-17.92-42.46-25.88-42.92-67.94-.94-70.28,2.81,16.76,39.39,16.76,39.39S3075.69,1340.66,3075.69,1291.58Z"/><path class="cls-26" d="M3072.69,1299.93c0,49.08-79.4-.72-79.4-.72s-4.63-8.63-9-17.84c-4.57-9.51-8.91-19.65-7.72-21.55,2.34-3.75,62.31-3.28,70.28-2.81,3,.17,7.34,6.21,11.65,13.71A322,322,0,0,1,3072.69,1299.93Z"/><path class="cls-34" d="M3072.69,1299.93c0,49.08-79.4-.72-79.4-.72s-4.63-8.63-9-17.84c1.62-.06,3.24-.15,4.86-.24,4.11-.24,8.56-1.09,12.65-.85,2.43.15,4.71,1.29,7.13.39-.38-.58-.22-1,.32-1.37,2.65-1.87,5.42-3.78,8.61-4.33,5.82-1,11.43,2.26,17.28,1.82a77.65,77.65,0,0,0,17.49-3.83,56.26,56.26,0,0,0,5.87-2.24A322,322,0,0,1,3072.69,1299.93Z"/><path class="cls-29" d="M2925.85,1065.36s-18.12,12.64-23.27,62.37-18.86,137.2-18.86,167.21c0,0-17.14,21.44-14.57,44.59s53.17,88.32,53.17,88.32-33.63-63.1-12-106.33c6.86-13.72,42.87,1.72,42.87,1.72L2927.45,1156Z"/><g class="cls-39"><path class="cls-9" d="M2924.17,1184.11l31.5,150.94-32.81,7.88s-7.88-80.07-2.63-99.75S2924.17,1184.11,2924.17,1184.11Z"/></g><path class="cls-9" d="M2922.32,1427.85s-33.63-63.1-12-106.33c6.86-13.72,42.87,1.72,42.87,1.72S2981.48,1407.27,2922.32,1427.85Z"/><path class="cls-41" d="M3185.45,1395.55l-38.81-26.9-12.17-8.44s-47.45,5-59.06,0-23.22-19.69-23.22-19.69A106.76,106.76,0,0,1,3031,1334c-12.11-5-16.15-21.7-16.15-21.7s-15.14-9.59-25.24-15.65,4.11-8.5,12.48-7.81c13,1.09,45.05,16.28,45.05,16.28l13.14.61c-8.58-2-32.81-15.14-42.91-19.68s-7-6.19,1.55-10.23,45.59,10.85,45.59,10.85,4.84-.27,11.08-.67c6.44-.41,14.38-1,20-1.47,11.11-1,8.08-10.6,8.08-10.6s-6.57-.5-22.21,3.53c-7.09,1.83-11.17,1.18-13.52-.27a6.72,6.72,0,0,1-3.14-5.78c0-2,13.9-6.94,22.48-13.5s32-.64,37.59.88,38.27,46.27,38.27,46.27l6.09,5.81,11.32,10.8C3185.76,1328.5,3185.45,1395.55,3185.45,1395.55Z"/><path class="cls-41" d="M3031.1,1333.82l-.11.15c-1.57,1.88-8.49,6.61-16.08,11.53-10.77,7-22.88,14.33-22.88,14.33s-12.34,6.36-18.32,7.48c-4.13.77-11.13-1.13-15.05-2.37-1.76-.56-2.9-1-2.9-1s0,6.35-3.37,9.72-37.77,23.19-46,8.6c0,0-10.12-38.47,3.91-60.75l4.53-1,11-2.44s25.57-25.69,32.68-33.91,5.46-15.22,14.44-10c6.54,3.81.37,15-4.49,22.44s-11.22,22.81-11.22,22.81a120.9,120.9,0,0,1,26.93-6.36,73.42,73.42,0,0,1,7.36-.35c13.84,0,30.79,2.59,30.79,2.59-4.15,1-4.47,2.86-3.33,5a0,0,0,0,1,0,0c.91,2.15,3.18,4.64,5.5,6.92h0c1.33,1.77,2,3.36.82,4.47a23.62,23.62,0,0,1,3.85-.58C3030.6,1332.18,3031.62,1333,3031.1,1333.82Z"/><path class="cls-41" d="M3139.67,1000c-10.42,18.87-32.06,35.85-54,38-19.54,2-33.65-15.95-42.59-30.88-8.4-14-20.16-32.25-22.24-48.91-1.1-8.77-8.93-34.75-13.27-61.59-1.23-7.58-2.18-15.23-2.63-22.58a132.48,132.48,0,0,1-.16-13.75s41.74-51.38,73.84-43.35c13.76,3.44,30.18,3.64,44.32,14,11.66,8.54,21.78,24,27.58,53.87a277,277,0,0,1,4.21,34.17c.78,11.61,1.12,24.63,1,39.25C3155.58,971.17,3139.68,1000,3139.67,1000Z"/><path class="cls-28" d="M3154.77,919a56.75,56.75,0,0,1-10.31-9.88c-6.58-7.94-12-17-19.91-23.58-7.14-5.89-14.56,2.53-21.18,5.62-10,4.67-21.73,6.75-32.63,7.84-19,1.9-38.18.13-57.21-1.64-2-.18-4-.38-5.92-.7-1.23-7.58-2.18-15.23-2.63-22.58l.11-.27c8.09-19.73,29.92-29.77,50.44-35.6,21.88-6.22,44.9-9.77,67.45-7.25,11.66,8.54,21.78,24,27.58,53.87A277,277,0,0,1,3154.77,919Z"/><path class="cls-10" d="M3173.57,872.69c-1,11.23-2.72,22.86-6.6,33.5-.35,1-11.09,21.59-13.25,17.85-2.91-5-27.44-54.37-20.72-58.38a257.86,257.86,0,0,1-36,18c-21.18,8.51-44.18,13.88-65.88,11.51a85,85,0,0,1-11.54-2c-3.58-.89-8.67-3.8-12.71-7.55s-7-8.32-6.44-12.58c.33-2.51,1.89-4.92,5.19-7-13.45,8.41-27.32-5.77-28.56-17.78a59.8,59.8,0,0,1-.2-9.59c.6-10.34,3.9-21,10.76-28.45a30,30,0,0,1,6-5.08c-5.27,3.35,1.34,11,7.29,14.6,2.17,1.33,4.25,2.12,5.63,2a8.69,8.69,0,0,1-3.4-8c.6-3.4,3-6.19,5.55-8.54,5.58-5.18,12.56-8.32,20-10.16,9.39-2.32,19.55-2.57,28.64-2.22a166.67,166.67,0,0,1,18.19,1.66,99.09,99.09,0,0,1,21.89,5.6,43,43,0,0,1,14.47,9,4.79,4.79,0,0,1,.53-4.52,6.36,6.36,0,0,1,1.4-1.39,12.66,12.66,0,0,1,4.8-1.94c10.22-2.24,22.44,1.73,31.3,7,14,8.28,20.44,21.5,22.89,35.95A113,113,0,0,1,3173.57,872.69Z"/><path class="cls-41" d="M3146.56,951.36c9.52,4.76,28.56,1.19,30.94-20.22s-14.73-26.62-29.49-10Z"/><path class="cls-9" d="M3268.85,1188.63q-17.64,64.55-29.31,130.54"/><path class="cls-9" d="M3333.56,1327.28c-28.25-17.2-58.71-9.65-91.66-6.83L3169,1306.62"/><path class="cls-6" d="M3293.33,1426.61c-25.15,1.26-72.58,3-101.5,1.71"/><path class="cls-9" d="M3226.23,1416.64c3.9-2,8.48-5.43,7.28-9.65a6.62,6.62,0,0,0-4.74-4.19c-4-1.13-8.93.84-10.23,4.79s2.49,8.88,6.54,7.92"/><path class="cls-9" d="M2926.71,1068.73a589,589,0,0,0,1.07,84.33"/><path class="cls-9" d="M2927.27,1157.53c.31,50.47-9.4,100.75-6.76,151.15"/><path class="cls-9" d="M2905.67,1289.68a36.11,36.11,0,0,0-19.06,7.08"/><path class="cls-42" d="M3093.46,1311.34c-15.53-2.59-33.09-3.26-48.24-7.52"/><path class="cls-42" d="M3090.66,1328.19c-6.52.7-18.84.58-36.87-2.6-4.21-.74-25.72-8.46-29.5-10.47-6.84-3.63-13.71-3.64-24.59-10"/><path class="cls-42" d="M3087.15,1344.81a102.23,102.23,0,0,1-54.45-12.71"/><path class="cls-28" d="M3031.1,1333.82l-.11.15c-1.57,1.88-8.49,6.61-16.08,11.53l-1.3-4.07a50.39,50.39,0,0,0-22.07-28.7c13.84,0,30.79,2.59,30.79,2.59-4.15,1-4.47,2.86-3.33,5a0,0,0,0,1,0,0c.91,2.15,3.18,4.64,5.5,6.92h0c1.33,1.77,2,3.36.82,4.47a23.62,23.62,0,0,1,3.85-.58C3030.6,1332.18,3031.62,1333,3031.1,1333.82Z"/><path class="cls-42" d="M3024.15,1330.9a206,206,0,0,1-35.49,23.62"/><path class="cls-42" d="M3021.8,1326.25q-29.76,11.51-60.32,20.8"/><path class="cls-28" d="M3185.45,1395.55l-38.81-26.9c7.24-9.41,14.17-19,18.37-30a67.28,67.28,0,0,0,4.23-27.82l11.32,10.8C3185.76,1328.5,3185.45,1395.55,3185.45,1395.55Z"/><path class="cls-41" d="M3108.08,1284.25a4.73,4.73,0,0,1-.77,1c-7.07,6.12-18.72,3.41-26.92,2.08a35.56,35.56,0,0,1-4.81-1.39c6.44-.41,14.38-1,20-1.47,11.11-1,8.08-10.6,8.08-10.6s-6.57-.5-22.21,3.53c-7.09,1.83-11.17,1.18-13.51-.27,15.85-7.23,30.32-16.13,48-10C3115.54,1267.08,3110.54,1280.21,3108.08,1284.25Z"/><path class="cls-14" d="M3045.67,847.46A69.5,69.5,0,0,1,3000.46,873c.33-2.51,1.89-4.92,5.19-7-13.45,8.41-27.32-5.77-28.56-17.78a59.8,59.8,0,0,1-.2-9.59,33.81,33.81,0,0,0,22.31,18.65C3015,861.07,3031.36,855,3045.67,847.46Z"/><path class="cls-14" d="M3173.57,872.69c-1,11.23-2.72,22.86-6.6,33.5-.35,1-11.09,21.59-13.25,17.85-2.91-5-27.44-54.37-20.72-58.38a257.86,257.86,0,0,1-36,18c4.89-3.25,9.95-6.82,15.59-10.44,19.13-12.3,40.9-16.83,60.27-29.17A113,113,0,0,1,3173.57,872.69Z"/><path class="cls-14" d="M3043.65,829.31c-4,7.42-12.06,12.15-20.42,13.19s-16.89-1.32-24.24-5.43c-4.63-2.58-9.08-6.11-11-11.07a23.26,23.26,0,0,1-1.06-9.47,58.58,58.58,0,0,1,.68-6.33,30,30,0,0,1,6-5.08c-5.27,3.35,1.34,11,7.29,14.6a18.05,18.05,0,0,0,8.31,12.09c5.67,3.47,12.76,3.35,19.38,2.8C3034.08,834.16,3039.94,833.26,3043.65,829.31Z"/><path class="cls-14" d="M3057.42,792.76a166.67,166.67,0,0,1,18.19,1.66l-46.83.56C3038.17,792.66,3048.33,792.41,3057.42,792.76Z"/><path class="cls-14" d="M3123.35,816.29c-7.27-.89-14.37-5.06-19.89-10.14-2.1-1.93-4.06-4-6-6.13a43,43,0,0,1,14.47,9,4.79,4.79,0,0,1,.53-4.52,6.36,6.36,0,0,1,1.4-1.39,19.45,19.45,0,0,0,3,8.31A13.52,13.52,0,0,0,3123.35,816.29Z"/><path class="cls-14" d="M3132.63,815.47a9.93,9.93,0,0,1-9.28.82A21.39,21.39,0,0,0,3132.63,815.47Z"/><g class="cls-36"><path class="cls-43" d="M3070,926.41c-.67,6.68-3.64,13-4.86,19.49-1.31,7-4.32,12.8-7.75,18.84-4.45,7.85-2.06,13.2,3.81,18.91.07-.07.37,0,.62,0-2.1-5.49-2.56-11.47.06-16.9.74-1.54,1.69-3,2.52-4.48,4-7.3,5-15.9,5.12-24.24Z"/></g><path class="cls-44" d="M3070.88,923.73c-.69,6.83-1.42,13.58-2.53,20.18a77.16,77.16,0,0,1-2.23,9.66,29.16,29.16,0,0,1-3.6,7.91c-4.63,6.43-9.53,13.29-3.12,20.73,3.13,3.64,7.49,5.06,12,3.31-4.71.35-11.11-3.43-12.2-8.31-1.06-4.71.89-9.74,3.67-13.47,5.95-8,7.36-16.66,8.2-26.29C3071.47,932.91,3070.41,928.34,3070.88,923.73Z"/><path class="cls-14" d="M3094.46,919.65s3.35.32,8.53.52a125.66,125.66,0,0,1,14.29,2l-20.13.19a10.51,10.51,0,0,0-4.17.92l-6.73,3c1.35-2.12,6.23-6.33,6.23-6.33"/><path class="cls-14" d="M3092,931.66c1,4.23,4.36,7.06,7.63,6.32s5.15-4.75,4.2-9-4.37-7-7.64-6.32S3091,927.44,3092,931.66Z"/><path class="cls-14" d="M3137.91,910.7c-7.73-4.9-17.21-10.56-26.25-10-10.31.65-17.48,2.39-27.06,4.44-2.51.54-2.52,6-.65,7.27s4.23,0,6-.5a80.13,80.13,0,0,1,18.14-3.51,79.16,79.16,0,0,1,11.74-.25c4.37.19,14.35.82,19.18,3.31A7.81,7.81,0,0,0,3137.91,910.7Z"/><path class="cls-14" d="M3038.55,928.56s-2.43.81-6.28,1.74a66.79,66.79,0,0,0-10.15,4.05l15.28-2.63a6.75,6.75,0,0,1,3.46.36l6.09,2.17a57.61,57.61,0,0,0-6.8-5.63"/><path class="cls-14" d="M3044.05,939.75c0,3.83-2.18,6.46-4.79,5.89s-4.7-4.13-4.67-7.95,2.18-6.47,4.79-5.9S3044.08,935.93,3044.05,939.75Z"/><path class="cls-14" d="M3016.8,929.18c1.17-4.28,4.32-12.4,9.93-13.65,6.4-1.42,12.12-2.91,18.23-3.71,1.6-.21,2.44,4.74,1.89,6s-2.21,1-3.33,1.29c-3.83.88-9.08,1.39-12.76,2-2.76.49-3.33.37-6.28,1.87-2.27,1.16-6.76,4.56-8,7A5.71,5.71,0,0,1,3016.8,929.18Z"/><g class="cls-36"><ellipse class="cls-28" cx="3124.57" cy="961.15" rx="24.64" ry="16.04" transform="matrix(0.99, -0.15, 0.15, 0.99, -109.71, 485.55)"/></g><g class="cls-36"><path class="cls-28" d="M3035.18,992.73a232.53,232.53,0,0,1-10.59-24.68c-.32-.87-.64-1.75-1-2.61,10.61.25,19.12,5.24,20.24,12.53C3044.71,983.43,3041.21,988.91,3035.18,992.73Z"/></g><path class="cls-14" d="M3070.86,996.49a7.43,7.43,0,0,0,3,8.37c3.58,2.52,13.75.74,15-4.19,1.6-6-7.38-9.5-12.15-9A6.82,6.82,0,0,0,3070.86,996.49Z"/><path class="cls-28" d="M2958.66,1364.94c-1.76-.56-2.9-1-2.9-1s0,6.35-3.37,9.72-37.77,23.19-46,8.6c0,0-10.12-38.47,3.91-60.75l4.53-1a12.44,12.44,0,0,0-.74,4,38.81,38.81,0,0,0,11.54,27.77,28.12,28.12,0,0,0,6.34,4.58C2940.33,1361.3,2951.92,1357.88,2958.66,1364.94Z"/><path class="cls-1" d="M3037.4,622.88c28.16-17.6,46.17-56,30.21-85.13-11.15-20.35-35.4-30.47-58.56-31.9s-46.06,4.23-69,7.87C2806.52,535,2679.2,486.9,2557.53,438c-64.59-26-107.69-56.33-79,23.41C2541.14,635,2900,708.68,3037.4,622.88Z"/><path class="cls-1" d="M655.54,1641.86A1346.19,1346.19,0,0,0,712,1871.91c-44.68-47.49-63.12-113.33-78.17-176.77q-6.28-26.49-12.07-53.15C632.84,1641.81,644.11,1641.89,655.54,1641.86Z"/></g></svg>