<svg xmlns="http://www.w3.org/2000/svg" xmlns:xlink="http://www.w3.org/1999/xlink" viewBox="0 0 4680 3120"><defs><style>.cls-1{fill:#d3e0db;}.cls-18,.cls-2,.cls-5{fill:#fff;}.cls-3{fill:#f3f5f4;}.cls-4{fill:#b6cec4;}.cls-17,.cls-5{opacity:0.56;}.cls-6{fill:#9ab5a9;opacity:0.3;}.cls-7{fill:#fdb23d;}.cls-8{fill:#070208;}.cls-9{fill:#72120c;}.cls-10{fill:#f28b0f;}.cls-11{fill:#ffc83e;}.cls-12{fill:none;stroke:#000;stroke-miterlimit:10;stroke-width:4px;}.cls-13{fill:#530905;}.cls-14{clip-path:url(#clip-path);}.cls-15{opacity:0.57;}.cls-16{clip-path:url(#clip-path-2);}.cls-18{opacity:0.58;}.cls-19{fill:#84a05c;}.cls-20{fill:#60723d;}.cls-21{opacity:0.28;}.cls-22{opacity:0.64;}.cls-23{fill:#ac2a03;}.cls-24{fill:#f26027;}.cls-25{fill:#0b3f42;}.cls-26{fill:#296f7a;}.cls-27{opacity:0.7;}.cls-28{fill:#fcdccd;}.cls-29{fill:#c73f00;}.cls-30{fill:#f2ad94;}.cls-31{fill:#e8ccc5;}.cls-32{fill:#a56f5e;}.cls-33{fill:#8e1c02;}.cls-34{fill:#dbaf9e;}.cls-35{opacity:0.23;}.cls-36{opacity:0.5;}.cls-37{fill:#f68e6e;}.cls-38{fill:#ee6749;}.cls-39{fill:#611112;}.cls-40{fill:#f5fef9;}.cls-41{fill:#3a0302;}.cls-42{fill:#ea9378;}.cls-43{fill:#524e53;}.cls-44{opacity:0.66;}.cls-45{fill:#3f9ea8;opacity:0.53;}.cls-46{fill:url(#linear-gradient);}</style><clipPath id="clip-path"><path class="cls-1" d="M2317.56,1597c8.91,53,35.82,214.13,35.37,224.89L1978,1806.28s-72.83-100.49-55.71-169.07c2.1-8.38,249-56.12,375.67-57.1A19.9,19.9,0,0,1,2317.56,1597Z"/></clipPath><clipPath id="clip-path-2"><path class="cls-1" d="M2869.3,1660.31c-54.5-20.92-285.67-104.68-439.43-82.26a9,9,0,0,0-7.2,10.9c7.55,36,35.09,165.92,51.14,221.24a24.22,24.22,0,0,0,21.3,17.7l393.43,29.34,24.21-64.49-27.65-115.49A26.91,26.91,0,0,0,2869.3,1660.31Z"/></clipPath><linearGradient id="linear-gradient" x1="2162.61" y1="1261.67" x2="2347.79" y2="1127.93" gradientUnits="userSpaceOnUse"><stop offset="0" stop-color="#fff"/><stop offset="1" stop-color="#fff" stop-opacity="0"/></linearGradient></defs><title>07</title><g id="_07" data-name="07"><rect id="_07-2" data-name="07" class="cls-2" width="4680" height="3120"/><path class="cls-3" d="M3813.65,1805.38a598.9,598.9,0,0,1-95.91,137.89q-13,14-27,27.32-12.29,11.69-25.32,22.76c-55.45,47.14-120.84,86-195.15,114.23-265.6,101-544.08,73.63-827.79,89.39-255.7,14.21-510.61,25.65-764.9-12.65-119.32-18-212.86-118.7-337.71-49.32a553.6,553.6,0,0,1-80.82,36.92q-12.87,4.65-25.76,8.55-6.06,1.84-12.11,3.51c-2.9.8-5.79,1.58-8.69,2.31-1.17.3-2.33.61-3.5.9a480.17,480.17,0,0,1-246.14-3.21q-6.06-1.67-12.08-3.51c-73.48-22.33-142.61-61.72-203.71-115.11l-3.95-3.49a669.47,669.47,0,0,1-102.29-115.11c-.11-.13-.2-.27-.3-.4-.72-1-1.44-2.06-2.14-3.09q-13.82-19.82-26.32-40.33c-1.19-1.92-2.35-3.84-3.5-5.77q-20.19-33.68-36.95-69c-.55-1.16-1.1-2.32-1.64-3.49a829.35,829.35,0,0,1-43.87-115.11l-.69-2.32c-.11-.4-.23-.78-.34-1.18A846,846,0,0,1,699.81,1591c-.18-1.16-.35-2.32-.51-3.49a854.52,854.52,0,0,1-8.63-115.12c0-1.17,0-2.33,0-3.49a849.46,849.46,0,0,1,7.43-115.11c.14-1.17.3-2.33.46-3.49a838,838,0,0,1,24.11-115.1c.32-1.18.66-2.34,1-3.5q3.92-13.59,8.33-27.06a812.66,812.66,0,0,1,34.49-88c.53-1.17,1.07-2.34,1.62-3.5q5.63-12.09,11.68-24c15.53-30.64,32.87-61.08,51.76-91.09.73-1.18,1.47-2.34,2.21-3.5A1298.29,1298.29,0,0,1,916,879.35c1-1.17,1.88-2.34,2.81-3.5,28.15-35,58.23-68.8,89.84-101.06l3.51-3.57q5.2-5.26,10.46-10.48l3.53-3.49a1333.92,1333.92,0,0,1,133.26-115.11l4.65-3.49a1141.3,1141.3,0,0,1,118.13-77.41q35.31-20,71.86-37.7l7.3-3.5q14.58-6.94,29.36-13.49,33.72-15,68.29-27.94a1280.46,1280.46,0,0,1,295.9-72.22q15.91-1.92,31.88-3.44,14.55-1.4,29.15-2.45a1250.82,1250.82,0,0,1,261.55,8.32h.05a427.94,427.94,0,0,1,99.74,26.72c61.3,24.27,116.2,59.74,176.31,94.26,2.54,1.45,5.07,2.9,7.6,4.33,1.42.81,2.85,1.61,4.27,2.4,1.7,1,3.4,1.92,5.11,2.86,2.16,1.2,4.32,2.4,6.49,3.58l4.43,2.42c1.78,1,3.55,1.93,5.33,2.88s3.73,2,5.61,3c2.37,1.27,4.73,2.52,7.1,3.75s4.59,2.4,6.88,3.58c2.87,1.5,5.74,3,8.62,4.42a1285,1285,0,0,0,122.78,54.59q15.93,6.09,32,11.74a1174.63,1174.63,0,0,0,212.85,53.43C2975,712.16,3187.82,662.15,3375,742.08a711.44,711.44,0,0,1,134.78,76.21c57.71,41.33,109.86,90.94,155.61,146.36q21.39,25.92,40.89,53.45a954.57,954.57,0,0,1,53.74,85c48.48,86.3,83.75,179.89,103.76,274.37C3896.33,1531.14,3877,1679.73,3813.65,1805.38Z"/><path class="cls-4" d="M3717.73,1943.27H2537.84V617.61q15.91,6.1,32,11.75a1174.84,1174.84,0,0,0,212.85,53.43C2975,712.15,3187.82,662.15,3375,742.08a711.13,711.13,0,0,1,134.78,76.21c57.72,41.33,109.86,90.94,155.61,146.36q21.39,25.92,40.89,53.45c76.56,107.95,130.72,232.86,157.5,359.36C3909.27,1592.26,3853.36,1797.12,3717.73,1943.27Z"/><path class="cls-3" d="M2415.06,563v1214.4H1390.75V506.55q33.72-15,68.29-27.94a1280.46,1280.46,0,0,1,295.9-72.22q15.91-1.92,31.88-3.44,14.55-1.4,29.15-2.45a1250.82,1250.82,0,0,1,261.55,8.32h.05a427.94,427.94,0,0,1,99.74,26.72c61.3,24.27,116.2,59.74,176.31,94.26,2.54,1.45,5.07,2.9,7.6,4.33,1.42.81,2.85,1.61,4.27,2.4,1.7,1,3.4,1.92,5.11,2.86,2.16,1.2,4.32,2.4,6.49,3.58l4.43,2.42c1.78,1,3.55,1.93,5.33,2.88s3.73,2,5.61,3c2.37,1.26,4.73,2.52,7.1,3.75s4.59,2.4,6.88,3.58C2409.31,560.11,2412.18,561.57,2415.06,563Z"/><path class="cls-4" d="M1786.81,403V1892.52h-31.87V406.38Q1770.86,404.48,1786.81,403Z"/><path class="cls-1" d="M1459,478.61V2184h-37.87c-2.9.8-5.79,1.58-8.69,2.31-1.17.3-2.33.61-3.5.9a480.17,480.17,0,0,1-246.14-3.21q-6.06-1.67-12.08-3.51c-73.48-22.33-142.61-61.72-203.71-115.11l-3.95-3.49a669.47,669.47,0,0,1-102.29-115.11c-.11-.13-.2-.27-.3-.4-.72-1-1.44-2.06-2.14-3.09q-13.82-19.82-26.32-40.33c-1.19-1.92-2.35-3.84-3.5-5.77q-20.19-33.68-36.95-69c-.55-1.16-1.1-2.32-1.64-3.49a829.35,829.35,0,0,1-43.87-115.11l-.69-2.32c-.11-.4-.23-.78-.34-1.18A846,846,0,0,1,699.81,1591c-.18-1.16-.35-2.32-.51-3.49a854.52,854.52,0,0,1-8.63-115.12c0-1.17,0-2.33,0-3.49a849.46,849.46,0,0,1,7.43-115.11c.14-1.17.3-2.33.46-3.49a838,838,0,0,1,24.11-115.1c.32-1.18.66-2.34,1-3.5a816.34,816.34,0,0,1,42.82-115.11c.53-1.17,1.07-2.34,1.62-3.5q5.63-12.09,11.68-24c15.53-30.64,32.87-61.08,51.76-91.09.73-1.18,1.47-2.34,2.21-3.5A1298.29,1298.29,0,0,1,916,879.35c1-1.17,1.88-2.34,2.81-3.5,28.15-35,58.23-68.8,89.84-101.06l3.51-3.57q5.2-5.26,10.46-10.48l3.53-3.49a1333.92,1333.92,0,0,1,133.26-115.11l4.65-3.49a1141.3,1141.3,0,0,1,118.13-77.41q35.31-20,71.86-37.7l7.3-3.5q14.58-6.94,29.36-13.49Q1424.47,491.6,1459,478.61Z"/><path class="cls-2" d="M812,1231.66V1116.54h396.8v115.12Zm0,237.19v-115.1h396.8v115.1Zm0,237.21V1591h396.8v115.1ZM1409,1946.76v115.11H1012.2V1946.76Zm0-237.2v115.11H1012.2V1709.56Zm0-237.21v115.11H1012.2V1472.35Zm0-237.2v115.1H1012.2v-115.1Zm0-237.21v115.11H1012.2V997.94ZM1459,523.54V520h-97.65l-7.3,3.5H1409V638.65H1164.1l-4.65,3.49h49.39V757.25H1026.19l-3.53,3.49H1409V875.85H1012.2V771.22l-3.51,3.57V875.85H918.85c-.93,1.16-1.86,2.33-2.81,3.5h292.8v115.1H833.73c-.74,1.16-1.48,2.32-2.21,3.5h177.17v115.1H768.08c-.55,1.16-1.09,2.33-1.62,3.5h42.09v115.11H723.64c-.34,1.16-.68,2.32-1,3.5h286.05v115.1H698.53c-.16,1.16-.32,2.32-.46,3.49H808.55v115.11H690.64c0,1.16,0,2.32,0,3.49h318v115.12H699.3c.16,1.17.33,2.33.51,3.49H808.55v115.1H725.06c.11.4.23.78.34,1.18l.69,2.32h282.6v115.11H770c.54,1.17,1.09,2.33,1.64,3.49h36.95v69c1.15,1.93,2.31,3.85,3.5,5.77v-74.78h396.79v115.11H838.37c.7,1,1.42,2.06,2.14,3.09.1.13.19.27.3.4h167.88v115.11H943.1l3.95,3.49h261.79v115.11h-58.08q6,1.84,12.08,3.51H1409v3.21c1.17-.29,2.33-.6,3.5-.9V2184H1459v-3.51h-246.7V2065.36H1459v-3.49h-46.56V1946.76H1459v-3.49h-246.7V1828.16H1459v-3.49h-46.56V1709.56H1459v-3.5h-246.7V1591H1459v-3.49h-46.56V1472.35H1459v-3.49h-246.7V1353.75H1459v-3.49h-46.56v-115.1H1459v-3.5h-246.7V1116.55H1459v-3.5h-46.56V998H1459v-3.5h-246.7V879.35H1459v-3.5h-46.56V760.74H1459v-3.49h-246.7V642.14H1459v-3.49h-46.56V523.54Z"/><path class="cls-3" d="M3717.74,1941.2q-13,14-27,27.31H2844.2V816.21h665.6c54,38.7,103.17,84.64,146.76,135.82q4.47,5.25,8.85,10.55,21.39,25.92,40.89,53.45c76.55,108,130.71,232.86,157.5,359.35C3909.28,1590.18,3853.37,1795,3717.74,1941.2Z"/><path class="cls-1" d="M3665.4,964.65q21.39,25.92,40.89,53.45H2844.2V818.29h665.59C3567.51,859.62,3619.65,909.23,3665.4,964.65Z"/><path class="cls-4" d="M3665.4,1993.35c-2.34-86.29-3.57-172.57-4.41-258.86l-.32-32.36-.22-32.36-.4-64.71-.31-129.43.29-129.43.4-64.71.22-32.36.33-32.36c.83-86.28,2.06-172.57,4.42-258.86,2.36,86.29,3.6,172.58,4.43,258.86l.33,32.36.21,32.36.4,64.71.3,129.43-.32,129.43-.39,64.71-.22,32.36-.33,32.36C3669,1820.78,3667.75,1907.06,3665.4,1993.35Z"/><path class="cls-1" d="M3285.4,1414.6a21.73,21.73,0,0,1-.61,4.16c-.24.76-.49,1.5-.74,2.25a135.51,135.51,0,0,1-10.44,22.08,23,23,0,0,1-1.79,1.48c-29.93,22.06-30.07,64.83-26.4,100.64-.63,8.41-1,14.33-.72,14.25-.29.09-201,57.4-197.86,0,2.43-43.53-25.11-87-55.22-115.92-8.95-8.58-13.36-11.21-14.94-23.42a235.12,235.12,0,0,1-1.64-28.44,496.12,496.12,0,0,1,2.62-58.59c1.27-11.28-.1-15.68,10.25-18.46,22-5.89,57.72,3.27,77.92-10.47,20-13.56,8.14-83,8.14-83,44.67-43.08,92.54-8,92.54-8s4,69.41,12.76,81.37c4.35,5.93,26.35,10.7,47.83,14,21.83,3.34,43.11,5.16,44.72,5.16C3282.83,1313.73,3287.07,1393.74,3285.4,1414.6Z"/><path class="cls-4" d="M3302.21,1869.9c-17.89-25.64-47.53-40.94-77.76-48.89s-61.72-9.51-92.75-13.44c-44.66-5.66-88.52-16.27-132.27-26.88l41.5-186c7.53-33.67,6.93-65.21-12.76-94.23l0,0-.2-.3c-4.93-7.14-43.55-60.37-46.5-60.37,27.09-1.59,43-36.62,43.07-36.69,3.76-8.27-6.62-36.35-8.16-45.17-2.77-15.93-7.15-32.84-7.13-49.05,13.62,2,31.49.2,45.11-1-.71,16.59-1.42,33.35,1.69,49.65,4.19,21.92,20.92,40.8,43.7,42.22,18.79,1.18,50,3,65.08-10.24,13.13-11.52,15.36-31,15.9-47.4.31-9.23,3.82-40.41-1.42-47.53,4.35,5.92,26.35,10.69,47.83,14,1.2,23.19-3.46,52.1,6.54,73.82,4.88,10.61,9.44,10.53,19.09,13.6,4.59,1.47,32.95,13.74,32.34,18.56-.28,2.22-.61,4.38-1,6.46-1.86,9.41-5.15,17.21-10.44,22.08a23,23,0,0,1-1.79,1.48c-29.93,22.06-30.07,64.83-26.4,100.64.79,7.75,1.76,15.16,2.64,22,8.09,62.37,19.5,124,30.38,185.76C3283.78,1783.54,3284.46,1844.47,3302.21,1869.9Z"/><path class="cls-1" d="M2926.64,593.84c44.53-.4,89.76-3.57,131.61-18.81,13.4-4.87,28.87-18.77,20.63-30.41-3.2-4.52-9-6.32-14.35-7.63-65.44-15.9-134-1.76-201.31-1.57-146.07.43-283.56-64.51-413.75-130.75-22.5-11.45-157.37-76.93-164.33-24.73-4.72,35.38,102.84,83.49,126.62,95.61C2569.36,555.87,2750.15,595.43,2926.64,593.84Z"/><path class="cls-1" d="M3245.42,591.54c-4.1-78-156.16-60.09-103.42,21.44C3175.09,664.12,3248.86,657,3245.42,591.54Z"/><path class="cls-1" d="M3128.75,474.69c-1.7-32.49-65-25-43.06,8.92C3099.47,504.91,3130.19,502,3128.75,474.69Z"/><path class="cls-1" d="M3931.13,1627.21c-3.26,37.75-8.6,75.53-6.62,113.37,31.24-14.6,40-54.14,44.59-88.34,16.2-121.51,27.15-245.15,15.23-367.59-3.4-34.94-37.58-296.34-122.13-218.72-38.53,35.37,27.15,166.39,37.69,205.78A1035.17,1035.17,0,0,1,3931.13,1627.21Z"/><path class="cls-1" d="M2569.83,629.36V2084H2387.74V548.76l1.82,1q12.68,6.78,25.5,13.29c1.06.54,2.12,1.08,3.19,1.61s2.34,1.18,3.5,1.77q56.88,28.49,116.09,51.2Q2553.75,623.71,2569.83,629.36Z"/><path class="cls-2" d="M2387.74,1973h30.51v111h3.5V1973h148.08v-3.49H2387.74Zm0-237.2h30.51v115.11h-30.51v3.49h182.09v-3.49H2421.75V1735.76h148.08v-3.49H2387.74Zm0-237.2h30.51v115.1h-30.51v3.5h182.09v-3.5H2421.75v-115.1h148.08v-3.5H2387.74Zm0-237.21h30.51v115.1h-30.51v3.5h182.09v-3.5H2421.75v-115.1h148.08v-3.5H2387.74Zm0-237.21h30.51v115.12h-30.51v3.49h182.09v-3.49H2421.75V1024.14h148.08v-3.49H2387.74Zm0-237.19h30.51v115.1h-30.51v3.49h182.09v-3.49H2421.75V787h148.08v-3.5H2387.74Zm34-122.1V566.41c-1.16-.59-2.34-1.17-3.5-1.77V664.85h-30.51v3.49h182.09v-3.49Zm-34-116.09v1h1.82Z"/><path class="cls-5" d="M3656.56,952,3025.87,1968.51H2844.2v-96.64L3507.37,816.21h2.43C3563.83,854.91,3613,900.85,3656.56,952Z"/><polygon class="cls-5" points="3312.64 816.21 2844.2 1571.2 2844.2 1187.85 3077.66 816.21 3312.64 816.21"/><path class="cls-5" d="M2177.31,435.55l-390.49,659-31.88,53.79-280.35,473.15v-652l280.35-467.32,31.88-53.13L1816,400.5a1250.82,1250.82,0,0,1,261.55,8.32h.05A427.94,427.94,0,0,1,2177.31,435.55Z"/><path class="cls-6" d="M3813.65,1805.38a598.9,598.9,0,0,1-95.91,137.89q-13,14-27,27.32-12.29,11.69-25.32,22.76c-55.45,47.14-120.84,86-195.15,114.23-265.6,101-544.08,73.63-827.79,89.39-255.7,14.21-510.61,25.65-764.9-12.65-119.32-18-212.86-118.7-337.71-49.32a553.6,553.6,0,0,1-80.82,36.92q-12.87,4.65-25.76,8.55-6.06,1.84-12.11,3.51c-2.9.8-5.79,1.58-8.69,2.31-1.17.3-2.33.61-3.5.9a480.17,480.17,0,0,1-246.14-3.21q-6.06-1.67-12.08-3.51c-73.48-22.33-142.61-61.72-203.71-115.11l-3.95-3.49a669.47,669.47,0,0,1-102.29-115.11c-.11-.13-.2-.27-.3-.4-.72-1-1.44-2.06-2.14-3.09q-13.82-19.82-26.32-40.33c-1.19-1.92-2.35-3.84-3.5-5.77q-20.19-33.68-36.95-69c-.55-1.16-1.1-2.32-1.64-3.49a829.35,829.35,0,0,1-43.87-115.11l-.69-2.32c-.11-.4-.23-.78-.34-1.18A846,846,0,0,1,699.81,1591c-.18-1.16-.35-2.32-.51-3.49a854.52,854.52,0,0,1-8.63-115.12c0-1.17,0-2.33,0-3.49a849.46,849.46,0,0,1,7.43-115.11c.14-1.17.3-2.33.46-3.49a838,838,0,0,1,24.11-115.1c.32-1.18.66-2.34,1-3.5q3.92-13.59,8.33-27.06c140.64,92.32,292.29,168.94,448.46,231.38,317.42,126.89,654.4,197.84,992.07,251.11a10160.34,10160.34,0,0,0,1103.38,112.79q26.82,1.27,53.68,2.4,25.46,1.07,50.89,2c137.53,5.08,276.32,7.14,414.44,1.85Q3804.28,1805.78,3813.65,1805.38Z"/><path class="cls-4" d="M3902.17,2478.82H832c0,106.9,126,227,236.73,227h34l-34.19,1.27c271.86,31.77,752.09,52.87,1299.16,52.87,546.2,0,1025.77-21,1297.85-52.72l-37-1.42h36.85C3796.18,2705.86,3902.17,2604.21,3902.17,2478.82Z"/><ellipse class="cls-1" cx="2367.1" cy="2478.82" rx="1535.07" ry="113.2"/><path class="cls-7" d="M3751.91,2233.79a449.35,449.35,0,0,1-4.54,44.93c-.47,3-1,5.94-1.49,8.89l0,.16c-.62,3.46-1.28,6.92-2,10.36h0l-.06.31c-.35.06-.72.1-1.1.14h0c-18.44,2-71.58-7.79-83.1,1.65L3545.84,2307v-.11c0-1.69-.06-3.38-.11-5a2.08,2.08,0,0,1,0-.25c-.08-3.45-.19-6.84-.33-10.2s-.32-6.77-.51-10.08c-.3-5-.66-9.87-1.11-14.65-1-12.84-2.5-25-4.37-36.58-25.89-159.34-123.26-196.09-188.71-202.21-35.65-3.32-61.83,2.45-61.83,2.45l-2.94.61c-.83.18-1.66.36-2.49.56l-2.57.59-.31.07c-.82.19-1.65.39-2.46.6a221.82,221.82,0,0,0-32.64,10.81l-1.29.56c-69.47,29.84-102.88,89.15-118.89,141.1a340.78,340.78,0,0,0-13.75,73c-.31,3.63-.52,6.92-.67,9.8,0,.46,0,.89-.05,1.33-.31,6.66-.25,11-.22,12.41a1.21,1.21,0,0,1,0,.18v.29c.19,1.73.33,3.41.42,5,.05.79.07,1.56.1,2.33v.06c0,1.22,0,2.4,0,3.55,0,.86,0,1.68-.08,2.5,0,.41,0,.81-.08,1.21-.12,1.59-.28,3.1-.49,4.54-.16,1-.33,2-.53,3q-.23,1.07-.48,2.07c-.08.31-.17.62-.25.92s-.1.38-.16.55-.14.5-.21.74-.12.37-.18.53a34.89,34.89,0,0,1-4.57,9.36c-.16.25-.33.47-.49.69-.34.46-.67.88-1,1.29s-.68.81-1,1.18-.69.73-1,1.07a26.58,26.58,0,0,1-3.62,3l-.5.34-.5.31c-.33.21-.65.4-1,.58q-.88.49-1.68.87l-.11,0-.42.19-.75.32h0l-.37.14-.44.17-.54.19-.41.13-.2.05-.36.1c-.5.13-.78.18-.78.18-67.46-12.68-1068.91-5.72-1068.91-5.72,0-.35,0-.69-.09-1h0c-.12-1.57-.24-3.12-.36-4.67l-.06-.76c-.13-1.42-.26-2.84-.38-4.24-.28-3.19-.6-6.34-.92-9.45-.17-1.55-.34-3.1-.51-4.63q-.3-2.68-.63-5.31c-.16-1.28-.32-2.54-.49-3.81-.18-1.47-.39-2.95-.58-4.41a1,1,0,0,0,0-.17c-.2-1.44-.41-2.87-.61-4.29s-.45-3.05-.69-4.55q-1-6.4-2.12-12.56t-2.41-12.26c-.56-2.67-1.14-5.31-1.74-7.9-.3-1.31-.6-2.6-.91-3.88-.61-2.56-1.25-5.09-1.9-7.59-.33-1.25-.65-2.49-1-3.72q-1.51-5.53-3.12-10.85c-.36-1.18-.73-2.35-1.1-3.51s-.73-2.32-1.11-3.47c-.85-2.65-1.74-5.24-2.65-7.79-.27-.78-.55-1.55-.83-2.31-.81-2.25-1.64-4.48-2.5-6.66-.75-1.91-1.5-3.79-2.27-5.65l-.45-1.1c-.36-.83-.7-1.64-1-2.45-.44-1-.87-2-1.32-3s-.92-2.08-1.4-3.11-.86-1.88-1.3-2.81a230.76,230.76,0,0,0-24.21-40.61c-.54-.73-1.1-1.46-1.67-2.18q-3.36-4.38-6.85-8.39c-.58-.68-1.16-1.34-1.76-2q-1.74-2-3.54-3.87c-1.19-1.27-2.38-2.51-3.6-3.72-.59-.6-1.21-1.2-1.82-1.8s-1.21-1.18-1.83-1.76-1.23-1.16-1.84-1.72-1.24-1.14-1.87-1.69-1.24-1.12-1.86-1.65l-1.88-1.61q-4.71-4-9.57-7.52c-.65-.49-1.3-.95-2-1.4s-1.3-.92-2-1.37q-3.91-2.68-7.91-5.11-2-1.23-4-2.36l-2-1.13c-1.35-.75-2.69-1.47-4-2.16-.61-.33-1.22-.63-1.83-.94l-2.24-1.1c-.6-.3-1.21-.59-1.81-.86-1.48-.69-3-1.37-4.46-2-1.33-.57-2.67-1.14-4-1.68l-.55-.22c-.54-.21-1.08-.44-1.63-.64l-.83-.32q-2.64-1-5.3-1.93l-.1,0c-2-.71-4.11-1.37-6.17-2-1.53-.46-3.06-.91-4.6-1.33-1.22-.35-2.45-.67-3.67-1q-7.65-1.93-15.28-3.21l-3-.47c-2-.31-4-.57-5.92-.82-1.63-.2-3.27-.38-4.9-.53l-.85-.09c-1.15-.11-2.29-.2-3.44-.29l-.63-.05c-1.24-.09-2.48-.18-3.73-.24l-.24,0-3.94-.19a249.74,249.74,0,0,0-80.9,10.91,182.15,182.15,0,0,0-77.14,46.29q-6.33,6.39-11.94,13.19c-.62.77-1.24,1.52-1.85,2.29q-2.75,3.42-5.31,6.93-3.43,4.68-6.56,9.47c-1.56,2.39-3.07,4.81-4.54,7.24-3.4,5.67-6.52,11.42-9.39,17.19-31.16,62.94-31.33,129.23-31.33,131.17v0h0c-10.43,6.42-63.78-6.68-63.78-6.68A21.75,21.75,0,0,1,1520,2296a39.89,39.89,0,0,1-4.39-5.22c-.16-.21-.32-.44-.47-.66-.76-1.11-1.51-2.29-2.24-3.53-.29-.49-.58-1-.87-1.51s-.56-1-.84-1.57-.55-1.07-.83-1.62a118.93,118.93,0,0,1-5.26-12.62c-.34-1-.67-2-1-3-1.44-4.33-2.75-8.89-4-13.6-.37-1.45-.73-2.91-1.09-4.38s-.68-3-1-4.45-.65-3-1-4.49c-.46-2.25-.91-4.52-1.34-6.78-.15-.76-.28-1.52-.41-2.27-1.24-6.81-2.29-13.61-3.18-20.17-.48-3.57-.92-7.06-1.31-10.44,0-.15,0-.31-.06-.46-.46-4-.88-7.93-1.23-11.57h0c-6.55-66.9,14.06-142.31,28.8-207.66.18-.81.37-1.62.55-2.44,6.43-28.68,11.46-59.92,20.54-89.1,4.73-15.22,10.57-29.87,18.27-43.32a137.7,137.7,0,0,1,22.12-29.33c4.17-4.21,8.52-8.41,13-12.62,1.78-1.68,3.58-3.37,5.4-5.05.9-.85,1.81-1.69,2.73-2.54l.23-.22q10.91-10.18,21.46-20.72c3.51-3.5,7-7,10.49-10.59q7.83-8,15.51-16.12l5.13-5.43q7.66-8.13,15.25-16.35,15.19-16.43,30.33-32.91l.08-.08,10.06-10.86c3.38-3.64,6.79-7.26,10.19-10.87s6.84-7.22,10.28-10.8,6.92-7.16,10.4-10.7q13.05-13.29,26.59-26.13a244.8,244.8,0,0,1,19.42-16.58q1.9-1.47,3.79-2.83,3.77-2.75,7.5-5.19c2.23-1.48,4.47-2.87,6.68-4.19,1.49-.89,3-1.73,4.44-2.55q3.32-1.85,6.62-3.48,5.26-2.61,10.53-4.76c1.41-.58,2.82-1.13,4.23-1.67h0l2.12-.77.07,0c30.51-11,62.31-12.51,103.63-17.24,2.92-.33,5.88-.69,8.91-1.06l.17,0,5.41-.66q8.13-1,16.26-1.92l5.42-.6h.07l5.2-.56.15,0h0c142.07-15.17,284.82-13.48,427.47-18.8l5.31-.19.77,0,6.85-.26,5.76-.22q11.46-.39,22.75-.57c212.06-3.2,383.46,53.76,517.95,117.39,91.7,43.39,166.24,89.89,224.79,122.52q3.9,2.18,8.44,4.41c1.3.64,2.64,1.28,4,1.93a3.73,3.73,0,0,1,.4.2l2.39,1.1h0c3.44,1.58,7.09,3.17,10.92,4.79l2.53,1c3.93,1.63,8,3.26,12.3,4.92,2.35.92,4.77,1.84,7.23,2.75h0q6.15,2.31,12.7,4.63h0q7.85,2.79,16.18,5.61l2.78.94c1.86.63,3.74,1.25,5.64,1.88,2.84.94,5.72,1.88,8.62,2.82,1.44.47,2.88.94,4.34,1.4l1.66.54,1.26.41.74.22.73.24,2.32.73,3.81,1.21c2.57.8,5.15,1.61,7.75,2.4l6.31,2q6.6,2,13.28,4l8,2.37,3.32,1,.7.2,6.36,1.86,4.24,1.22c4.29,1.25,8.6,2.47,12.9,3.7l4.82,1.37,4.06,1.14,4.78,1.35,2,.54,5.43,1.51c4.07,1.13,8.11,2.24,12.15,3.34l4,1.1,12.44,3.36,3.78,1,3.76,1,11.77,3.12c2.72.71,5.43,1.43,8.11,2.12l4.46,1.16,4.43,1.15,4.32,1.13,3.92,1h0l7.67,2,3.79,1,.85.21,7.25,1.85.81.2,6,1.52,6.23,1.56,2,.51,2.11.53,4.18,1,2.05.52,2.37.58q4.71,1.18,9.18,2.28c1.24.29,2.47.6,3.68.9l7.58,1.85,6.36,1.55.09,0,1.83.45.24,0,.53.13,2.52.61,2.46.6,1.2.28,1.18.29,3.45.83,3.28.79c.36.07.72.15,1.06.25l1,.23.66.17c.57.12,1.13.26,1.67.39l2.4.57c.86.2,1.69.39,2.49.59l1.22.28,10.38,2.44.4.1,1.53.35.53.12.58.14.27.06.48.11.4.1.22,0,.72.17c4.79.48,9.47,1.09,14,1.8h0c113.56,17.71,150.74,104.11,160,184.46C3749.93,2129.39,3754.67,2182.39,3751.91,2233.79Z"/><path class="cls-8" d="M3545.84,2306.89v0a.45.45,0,0,0,0,.08l-48.14,8.35-3.44.59c17.54-149-60.45-223.44-134.93-242.29-27.62-7-54.76-6.35-76.38,1-226.45,76.75-113.65,289.16-113.65,289.16l-1.65-.31c-27.92-5.5-45.51-26.5-53.47-38.46a76.92,76.92,0,0,1-5-8.47q-.27-3.69-.48-7.32h0a448.06,448.06,0,0,1,0-54.4c2-30.64,7.28-57.51,15.18-81,39.44-117.65,143-151.07,210.74-148.54,5.39.2,10.66.54,15.78,1,164.65,15.14,192.18,166.35,195.7,240.36A325.2,325.2,0,0,1,3545.84,2306.89Z"/><path class="cls-8" d="M1988.08,2320.38l33,2.37s22.37-244.31-202.56-266.41c-89.35-8.77-239.93,66.73-225.31,252.06,0,0,3.61-18.5,30.35-9.19,0,0,1-129.71,135.3-183.43C1837.33,2084.41,1988.33,2118.66,1988.08,2320.38Z"/><path class="cls-9" d="M3497.69,2315.34a190.31,190.31,0,0,1-69.79,93.18,185.94,185.94,0,0,1-102.24,34.27c-65,2-123.09-29.67-158-79.33a188.65,188.65,0,0,1-34.27-103.93c-2.76-104.33,78.85-191.44,182.29-194.57a185.94,185.94,0,0,1,42.7,3.61c83.45,16.95,147.23,90.07,149.6,179.64A190.4,190.4,0,0,1,3497.69,2315.34Z"/><ellipse class="cls-10" cx="3327.06" cy="2257.7" rx="139.06" ry="135.27" transform="translate(938.91 5492.4) rotate(-87.72)"/><path class="cls-3" d="M3232.09,2256.79c1.43,53.93,44.21,96.38,95.56,94.83s91.82-46.53,90.4-100.45-44.22-96.39-95.57-94.83S3230.66,2202.86,3232.09,2256.79Z"/><path class="cls-9" d="M1617.2,2287c2.76,104.33,88.86,186.38,192.3,183.25s185-90.24,182.29-194.57-88.85-186.38-192.29-183.25S1614.44,2182.64,1617.2,2287Z"/><ellipse class="cls-10" cx="1810.9" cy="2285.14" rx="139.06" ry="135.27" transform="translate(-544.55 4003.6) rotate(-87.72)"/><path class="cls-3" d="M1715.93,2284.23c1.42,53.92,44.21,96.38,95.56,94.83s91.82-46.53,90.39-100.45-44.21-96.39-95.56-94.84S1714.5,2230.3,1715.93,2284.23Z"/><path class="cls-11" d="M3744.25,2079.9l-.7.39s-90.3-39.59-181.29-88.66l0,0c-49-26.42-98.21-55.6-133.62-82.83a1,1,0,0,1-.2-.16h0l-.28-.23s-37.88-3.36-102.93-8.93c-24-2-51.69-4.41-82.53-7-46.33-3.9-99.78-8.35-158.53-13.13l-.21,0-7.75-.62q-13.87-1.14-28.16-2.28c-1.52-.13-3.05-.25-4.58-.36l-18.48-1.48-2.76-.22-1.9-.15-4.68-.38-17.7-1.41c-2-.14-4-.3-6-.47-7.25-.57-14.57-1.16-21.94-1.73l-7-.55c-3.07-.25-6.14-.49-9.23-.72l-10.37-.82q-12.33-1-24.84-1.94l-10-.78-12.58-1-7.65-.6c-1.85-.14-3.7-.29-5.56-.42l-.47-.05-14.39-1.1h0l-10.29-.79-5.17-.4-10.36-.79-5.2-.4-12.7-1c-1-.07-2-.14-3-.23-1.74-.14-3.49-.27-5.24-.39l-26.36-2q-15.89-1.21-31.95-2.4-9.68-.74-19.41-1.44c-4.27-.33-8.55-.64-12.85-1l-10.81-.8q-27.93-2.06-56.2-4.1l-20.25-1.46-11-.79c-130.61-9.33-265-18.31-393-25.77q-14.57-.86-29-1.67-4.7-.29-9.37-.53-18.67-1.06-37.14-2.07l-18.4-1-9.16-.48c-3-.16-6.08-.31-9.11-.48l-3.79-.2-.55,0q-16-.84-31.77-1.63c-3-.14-6-.28-8.93-.44-34.1-1.7-67.33-3.23-99.47-4.58q-22.14-.95-43.57-1.74l-10.22-.38h-.16q-12-.45-23.76-.84l-.29,0-8.42-.28-4.13-.13q-15.06-.48-29.66-.91l-11.27-.31-1,0h0l-.8,0h0c-38.82-1-75-1.62-107.94-1.76a455.93,455.93,0,0,0-90.87,8.77c-24.32,4.86-53.12,9.66-65,8.07-.15,0-.28-.07-.43-.06q4.68-4.72,9.64-9.46l3.32-3.16c1.78-1.68,3.58-3.37,5.4-5.05.9-.85,1.81-1.69,2.73-2.54l.23-.22q10.91-10.18,21.46-20.72c.84-.83,1.68-1.68,2.51-2.52,2.67-2.67,5.34-5.37,8-8.07q7.83-8,15.51-16.12l5.13-5.43q7.66-8.13,15.25-16.35,15.19-16.43,30.33-32.91l.08-.08,10.06-10.86c3.38-3.64,6.79-7.26,10.19-10.87s6.84-7.22,10.28-10.8,6.92-7.16,10.4-10.7q13.05-13.29,26.59-26.13a244.8,244.8,0,0,1,19.42-16.58q1.9-1.47,3.79-2.83,3.77-2.76,7.5-5.2,3.35-2.2,6.68-4.18c1.48-.89,3-1.73,4.44-2.55q3.32-1.85,6.62-3.48,5.26-2.61,10.53-4.76c1.41-.58,2.82-1.13,4.23-1.67h0l2.11-.78.08,0c33.88-7,68.6-12.58,103.6-17.16l8.94-1.14.17,0,5.41-.66q8.13-1,16.26-1.92l5.42-.6h.07l5.2-.57h.16c156.67-16.83,315-14.91,427.47-18.8l5.31-.19.77,0,6.85-.26,5.76-.22q11.46-.4,22.75-.57c212.06-3.2,383.46,53.76,517.95,117.39,91.7,43.39,166.24,89.89,224.79,122.52q3.9,2.18,8.44,4.41c1.3.64,2.64,1.28,4,1.93a3.73,3.73,0,0,1,.4.2l2.39,1.1h0c3.44,1.58,7.09,3.17,10.92,4.79l2.53,1c3.93,1.63,8,3.26,12.3,4.92,2.36.91,4.78,1.82,7.23,2.75h0q6.15,2.3,12.7,4.63h0q7.86,2.78,16.18,5.61l2.78.94,5.64,1.88c2.84.94,5.72,1.88,8.62,2.82,1.44.47,2.88.94,4.34,1.4l1.66.54,1.26.4.74.23.73.23,2.32.74,3.81,1.21c2.57.8,5.15,1.61,7.75,2.4l6.31,2c4.39,1.34,8.81,2.67,13.28,4l8,2.37,3.32,1,.7.2,6.36,1.85,4.24,1.23c4.29,1.25,8.6,2.47,12.9,3.7l4.82,1.36,4.06,1.15,4.77,1.34,2,.55,5.43,1.51c4.07,1.13,8.11,2.24,12.15,3.34l4,1.1,12.44,3.36,3.78,1,3.76,1,11.77,3.13c2.72.71,5.43,1.43,8.11,2.12l4.46,1.16,4.43,1.15c1.46.37,2.89.75,4.34,1.13h0l3.12.8.77.21h0l7.67,2,3.79,1,.85.21c2.44.62,4.87,1.23,7.25,1.85l.81.2,6,1.52,6.23,1.56,2,.51,2.11.53,4.18,1,2.05.52,2.37.58,9.18,2.28c1.24.29,2.47.6,3.68.9l7.58,1.85,6.36,1.54.09,0,1.83.45.24,0,.53.13,2.52.61,2.46.6,1.2.28,1.18.29,3.45.83,3.28.79c.36.07.72.15,1.06.25l1,.23.66.16,1.67.4,2.4.57c.86.2,1.69.39,2.49.59l1.22.28,10.38,2.44.4.1,1.53.35.53.12.58.14.27.06.48.11.4.09.22,0,.72.17c4.79.48,9.47,1.09,14,1.8h0C3697.81,1913.15,3735,1999.55,3744.25,2079.9Z"/><path class="cls-11" d="M1589.43,1806.33q-5,4.74-9.64,9.46Q1584.47,1811,1589.43,1806.33Z"/><path class="cls-7" d="M1938.9,2064.36c22.29,11.9,44.94,37.34,64.08,63.61,28.52,39.17,49.25,80.11,49.25,80.11,1.16,3.72,2.31,7.21,3.6,10.48,26.32,70.58,76,60.69,76,60.69l305.68-2.77,558-4.95c11.23,2.53,20.72,3.28,28.69,2.74,48.47-3.16,40.61-54.49,40.61-54.49,22.87-54.11,31.11-116.6,32.51-173.22,2.24-91.6-13.27-167.65-13.27-167.65-68.78-14.32-374.86-34.28-665.43-50.66-294.54-16.63-573.29-29.61-573.29-29.61C1811.05,1972.57,1938.9,2064.36,1938.9,2064.36Z"/><path class="cls-11" d="M3248.88,1913.5c-557.21,138-1142.64,69.75-1709.48-25.06,4.73-15.22,10.57-29.87,18.27-43.32a137.7,137.7,0,0,1,22.12-29.33c.15,0,.28.06.43.06,11.92,1.59,40.72-3.21,65-8.07a455.93,455.93,0,0,1,90.87-8.77c32.94.14,69.12.75,107.94,1.76h0l.8,0h0l1,0,11.27.31q14.6.42,29.66.91l4.13.13,8.42.28.29,0q11.74.4,23.76.84h.16q26.34,1,53.79,2.12c32.14,1.35,65.37,2.88,99.47,4.58,3,.16,5.94.3,8.93.44q15.77.79,31.77,1.63l.55,0,3.79.2c3,.17,6.08.32,9.11.48l9.16.48,18.4,1q18.45,1,37.14,2.07,4.68.24,9.37.53,14.45.81,29,1.67c128,7.46,262.38,16.44,393,25.77l11,.79,20.25,1.46q28.26,2,56.2,4.1l10.81.8c4.3.32,8.58.63,12.85,1q9.72.7,19.41,1.44,16.07,1.18,31.95,2.4l26.36,2c1.75.12,3.5.25,5.24.39,1,.09,2,.16,3,.23l12.7,1,5.2.4,10.36.79,5.17.4,10.29.79h0l14.39,1.1.47.05c1.86.13,3.71.28,5.56.42l7.65.6,12.58,1,10,.78q12.51,1,24.84,1.94l10.37.82c3.09.23,6.16.47,9.23.72l7,.55c7.37.57,14.69,1.16,21.94,1.73,2,.17,4,.33,6,.47l17.7,1.41,4.68.38,1.9.15,2.76.22,18.48,1.48c1.53.11,3.06.23,4.58.36q14.26,1.15,28.16,2.28l7.75.62.21,0c58.75,4.78,112.2,9.23,158.53,13.13A206.31,206.31,0,0,0,3248.88,1913.5Z"/><path class="cls-1" d="M3071.91,1754.82s215.16,119.79,124.55,122.53l-112.56,1.94S3089.84,1809.45,3071.91,1754.82Z"/><path class="cls-1" d="M1697.49,1874.84s-122.66,107.24-170,113a27.37,27.37,0,0,1-5.8.17c-1.19-2.73-2.32-5.42-3.36-8.07.18-.81.37-1.62.55-2.44,9.78-43.62,16.33-93.16,38.81-132.42,11.27-1.47,26.66-3.26,43.27-4.6C1658.09,1835.93,1729.63,1836.73,1697.49,1874.84Z"/><path class="cls-2" d="M2869.3,1660.31c-54.5-20.92-285.67-104.68-439.43-82.26a9,9,0,0,0-7.2,10.9c7.55,36,35.09,165.92,51.14,221.24a24.22,24.22,0,0,0,21.3,17.7l393.43,29.34,24.21-64.49-27.65-115.49A26.91,26.91,0,0,0,2869.3,1660.31Z"/><path class="cls-12" d="M2869.3,1660.31c-54.5-20.92-285.67-104.68-439.43-82.26a9,9,0,0,0-7.2,10.9c7.55,36,35.09,165.92,51.14,221.24a24.22,24.22,0,0,0,21.3,17.7l393.43,29.34,24.21-64.49-27.65-115.49A26.91,26.91,0,0,0,2869.3,1660.31Z"/><path class="cls-2" d="M2869.3,1660.31c-54.5-20.92-285.67-104.68-439.43-82.26a9,9,0,0,0-7.2,10.9c7.55,36,35.09,165.92,51.14,221.24a24.22,24.22,0,0,0,21.3,17.7l393.43,29.34,24.21-64.49-27.65-115.49A26.91,26.91,0,0,0,2869.3,1660.31Z"/><path class="cls-12" d="M2869.3,1660.31c-54.5-20.92-285.67-104.68-439.43-82.26a9,9,0,0,0-7.2,10.9c7.55,36,35.09,165.92,51.14,221.24a24.22,24.22,0,0,0,21.3,17.7l393.43,29.34,24.21-64.49-27.65-115.49A26.91,26.91,0,0,0,2869.3,1660.31Z"/><path class="cls-2" d="M2869.3,1660.31c-54.5-20.92-285.67-104.68-439.43-82.26a9,9,0,0,0-7.2,10.9c7.55,36,35.09,165.92,51.14,221.24a24.22,24.22,0,0,0,21.3,17.7l393.43,29.34,24.21-64.49-27.65-115.49A26.91,26.91,0,0,0,2869.3,1660.31Z"/><path class="cls-12" d="M2869.3,1660.31c-54.5-20.92-285.67-104.68-439.43-82.26a9,9,0,0,0-7.2,10.9c7.55,36,35.09,165.92,51.14,221.24a24.22,24.22,0,0,0,21.3,17.7l393.43,29.34,24.21-64.49-27.65-115.49A26.91,26.91,0,0,0,2869.3,1660.31Z"/><path class="cls-2" d="M2869.3,1660.31c-54.5-20.92-285.67-104.68-439.43-82.26a9,9,0,0,0-7.2,10.9c7.55,36,35.09,165.92,51.14,221.24a24.22,24.22,0,0,0,21.3,17.7l393.43,29.34,24.21-64.49-27.65-115.49A26.91,26.91,0,0,0,2869.3,1660.31Z"/><path class="cls-12" d="M2869.3,1660.31c-54.5-20.92-285.67-104.68-439.43-82.26a9,9,0,0,0-7.2,10.9c7.55,36,35.09,165.92,51.14,221.24a24.22,24.22,0,0,0,21.3,17.7l393.43,29.34,24.21-64.49-27.65-115.49A26.91,26.91,0,0,0,2869.3,1660.31Z"/><path class="cls-10" d="M3545.83,2307c-.23-14.12-.87-27.57-2-40.33a9.1,9.1,0,0,1,3.68.18c28.43,6.5,200.64,6.74,200.64,6.74l-3.81,24.1c-1.57,4.61-84.73,2.56-84.73,2.56Z"/><path class="cls-10" d="M1489.5,2187.64c3.88,39.69,14.14,107.14,40,114.08,0,0,53.34,13.1,63.77,6.68,0,0-.81-188.18,148.07-233.8,88.18-26.95,258.46-25,278.64,249.08,0,0,1001.46-6.95,1068.93,5.73,0,0,26.38-4.48,21.71-47.23,0,0-.18-12.21,1.05-27,0,0-900.15-108.54-1055.82-36.59,0,0-83.46-224.52-301.23-176.22,0,0-86.2,13.64-144.08,96.32,0,0-75.91,68.51-118.81,49.57A6.75,6.75,0,0,0,1489.5,2187.64Z"/><path class="cls-9" d="M3413.14,1884.45s-226.09-51.26-285.61-97.29c0,0,143.74,91.55,69.55,84.93-413.24-36.89-1353-74.48-1353.11-72.2-3.25,51.17,1587.83,109,1587.83,109S3407.24,1901,3413.14,1884.45Z"/><path class="cls-1" d="M3672.12,2007.39s-143.32,7.8-239.26-93.94a30.08,30.08,0,0,1-2.54-2.75l-2.18-2.35c-47.89-25.46,22.36-43.56,22.36-43.56l.84-.37,10.76,2.75c61.76,15.61,110.71,24.52,110.71,24.52,4,1.13,7.84,2.36,11.51,3.78,20.24,7.22,35.81,16.75,47.84,27.29q3.42,3,6.45,6C3674.14,1964.44,3672.12,2007.39,3672.12,2007.39Z"/><path class="cls-10" d="M2055.83,2218.56c26.32,70.58,76,60.69,76,60.69l305.68-2.77,558-4.95c11.23,2.53,20.72,3.28,28.69,2.74L3055,2249s-798.13-103.25-994.22-32C2059.09,2217.62,2057.37,2218.08,2055.83,2218.56Z"/><path class="cls-9" d="M2420.3,1830.92c7.26,36.31,12.79,72.89,17.66,109.56s8.68,73.49,11.5,110.4,4.57,73.94,4.32,111c-.16,18.55-.92,37.12-2.67,55.63-1,9.25-2.14,18.49-4,27.63-.46,2.28-.92,4.56-1.48,6.82s-1.14,4.52-1.75,6.76a87.68,87.68,0,0,1-4.89,13c2.83-8.82,4.1-18,5-27.08s1.35-18.32,1.51-27.51.23-18.38.06-27.57-.41-18.39-.75-27.59c-1.4-36.78-3.94-73.55-6.7-110.31s-5.91-73.53-9-110.31S2422.88,1867.84,2420.3,1830.92Z"/><path class="cls-7" d="M1970.36,1713.21c-2.25,33-15.53,65-36.52,90.5l-10.22-.38h-.16q-12-.45-23.76-.84l-.29,0-8.42-.28-4.13-.13q-15.06-.48-29.66-.91l-11.27-.31-1,0h0l-.8,0h0c-38.82-1-75-1.62-107.94-1.76a455.93,455.93,0,0,0-90.87,8.77c-24.32,4.86-53.12,9.66-65,8.07-.15,0-.28-.07-.43-.06q4.68-4.72,9.64-9.46l3.32-3.16c1.78-1.68,3.58-3.37,5.4-5.05.9-.85,1.81-1.69,2.73-2.54l.23-.22q10.91-10.18,21.46-20.72c.84-.83,1.68-1.68,2.51-2.52a1071.53,1071.53,0,0,0,289.56-145.84c24.48,3.86,7.89,37.54,30.89,46.74,7.06,2.82,14.32,6.12,19,12.12C1970.52,1692.86,1971,1703.45,1970.36,1713.21Z"/><path class="cls-9" d="M1845.31,1798.64a4.52,4.52,0,0,0,.62,2.19c159.18,4.31,362.56,15.45,570.1,29,237.13,15.57,479.64,34.28,667.87,49.49l.13-.38s6.19-131.66-38.5-154.3c0,0-304.93-187.52-682-167.88-123.77,6.46-476.64,12.57-488.83,85.92C1874.74,1642.65,1845.14,1771.05,1845.31,1798.64Z"/><path class="cls-1" d="M2317.56,1597c8.91,53,35.82,214.13,35.37,224.89L1978,1806.28s-72.83-100.49-55.71-169.07c2.1-8.38,249-56.12,375.67-57.1A19.9,19.9,0,0,1,2317.56,1597Z"/><path class="cls-1" d="M3026.84,1742.69c-23.53-20.79-80.8-45.67-110.43-57.46a6.42,6.42,0,0,0-8.54,7.26c4.41,27.37,17,102.23,23.9,107,0,0,74.78,22.26,103.75,4.22C3035.52,1803.74,3043.52,1757.43,3026.84,1742.69Z"/><path class="cls-13" d="M2926,1759.23s-30.25,58.54-2.5,83.46c0,0,81.59,12.25,83.59-45.45C3007.08,1797.24,3002.19,1745.89,2926,1759.23Z"/><path class="cls-1" d="M2317.56,1597c8.91,53,35.82,214.13,35.37,224.89L1978,1806.28s-72.83-100.49-55.71-169.07c2.1-8.38,249-56.12,375.67-57.1A19.9,19.9,0,0,1,2317.56,1597Z"/><g class="cls-14"><g class="cls-15"><polygon class="cls-2" points="2314.69 1829.54 2287.18 1854.21 2032.95 1546.73 2060.46 1522.06 2314.69 1829.54"/><polygon class="cls-2" points="2241.48 1851.95 2180.12 1906.99 1925.89 1599.5 1987.26 1544.47 2241.48 1851.95"/></g></g><path class="cls-1" d="M2869.3,1660.31c-54.5-20.92-285.67-104.68-439.43-82.26a9,9,0,0,0-7.2,10.9c7.55,36,35.09,165.92,51.14,221.24a24.22,24.22,0,0,0,21.3,17.7l393.43,29.34,24.21-64.49-27.65-115.49A26.91,26.91,0,0,0,2869.3,1660.31Z"/><path class="cls-1" d="M2869.3,1660.31c-54.5-20.92-285.67-104.68-439.43-82.26a9,9,0,0,0-7.2,10.9c7.55,36,35.09,165.92,51.14,221.24a24.22,24.22,0,0,0,21.3,17.7l393.43,29.34,24.21-64.49-27.65-115.49A26.91,26.91,0,0,0,2869.3,1660.31Z"/><g class="cls-16"><g class="cls-17"><polygon class="cls-2" points="2862.8 1903.86 2837.01 1924.62 2547.61 1534.6 2573.4 1513.84 2862.8 1903.86"/><polygon class="cls-2" points="2779.71 1899.39 2679.23 1980.28 2389.83 1590.26 2490.31 1509.37 2779.71 1899.39"/></g></g><path class="cls-2" d="M1600.94,1840.52a257.78,257.78,0,0,1-38.06,103.75,253.32,253.32,0,0,1-35.41,43.61,27.37,27.37,0,0,1-5.8.17c-1.19-2.73-2.32-5.42-3.36-8.07.18-.81.37-1.62.55-2.44,9.78-43.62,16.33-93.16,38.81-132.42C1568.94,1843.65,1584.33,1841.86,1600.94,1840.52Z"/><path class="cls-2" d="M3638.61,1928.79c-.1,2.67-.16,5.47-.13,8.4-34.43,13-74,5.22-106.26-12.58-26.56-14.69-49-35.5-70.12-57.44,61.76,15.61,110.71,24.52,110.71,24.52,4,1.13,7.84,2.36,11.51,3.78,20.24,7.22,35.81,16.75,47.84,27.29Q3635.58,1925.73,3638.61,1928.79Z"/><path class="cls-18" d="M1874.21,1850.72c111.49-.34,221.87,17,335.16,25.07,153.08,10.94,306.48,18,460,19.32-147.3-1.22-300,25.76-451.1,20.14q-119.85-4.45-239-19.27c-58.88-7.32-150.9-4.91-200-40.12A885.69,885.69,0,0,1,1874.21,1850.72Z"/><rect class="cls-19" x="1132.68" y="559.78" width="1016.55" height="1908.08" rx="60.1"/><path class="cls-20" d="M1243.21,559.78V2467.86h845.92a60.09,60.09,0,0,0,60.1-60.09V619.88a60.1,60.1,0,0,0-60.1-60.1Z"/><rect class="cls-2" x="1274.66" y="663.74" width="843.11" height="1763.59"/><g class="cls-21"><path class="cls-7" d="M1585.48,1255s-104.64,102.57-95.11,113.17,3.94,227.57,3.94,227.57l233.33,1.8,6.39-188.18-70.22-34.86Z"/></g><rect class="cls-19" x="1462.81" y="923.71" width="10.23" height="137.23" transform="translate(-267.83 636.43) rotate(-22.47)"/><rect class="cls-19" x="1873.25" y="2134.71" width="194.55" height="10.23" transform="translate(-237.84 246.43) rotate(-6.75)"/><polygon class="cls-19" points="1864.19 1152.94 1873.03 1158.09 1873.54 1157.19 1913.79 1088.08 2117.77 737.71 2117.77 717.39 1901.73 1088.44 1864.57 1152.27 1864.19 1152.94"/><rect class="cls-19" x="1318.41" y="882.79" width="10.23" height="193.42" transform="translate(-265.68 548.73) rotate(-21.34)"/><path class="cls-19" d="M1486.38,1382.23v1045.1h10.23V1382.23a74,74,0,0,1,.6-9.27,69.86,69.86,0,0,1,19.76-40.35l5.26-5.22h0l69.51-69.07,7.72-7.67L1750.08,1101l1-1,2.75-2.72,3.16-3.14-1.21-1.23-.88-.87-1.51-1.52h0l-1-1-2.61-2.62-6.76,6.72-218.92,217.52v0l-14.37,14.27a80.12,80.12,0,0,0-22.7,46.28A83.57,83.57,0,0,0,1486.38,1382.23Z"/><polygon class="cls-19" points="1549.89 663.74 1583.19 737.83 1585.28 742.49 1587.38 747.15 1589.64 752.18 1626.64 834.53 1630.84 843.86 1743.06 1093.55 1744.44 1096.63 1744.56 1096.58 1744.56 1096.57 1749.03 1094.56 1749.49 1094.36 1752.58 1092.96 1752.59 1092.96 1752.85 1092.84 1753.76 1092.43 1753.23 1091.25 1753.11 1090.98 1753.1 1090.98 1753.04 1090.83 1752.43 1089.45 1752.41 1089.44 1561.09 663.74 1549.89 663.74"/><rect class="cls-19" x="1431.86" y="878.76" width="209.57" height="10.23" transform="translate(-231.69 759.31) rotate(-25.88)"/><polygon class="cls-19" points="1273.9 2226.35 1274.67 2226.34 1284.13 2226.28 1478.09 2225.07 1486.38 2225.02 1491.5 2224.99 1494.18 2224.98 1494.12 2214.74 1491.5 2214.75 1486.38 2214.79 1480.58 2214.83 1274.67 2216.11 1274.67 2222.59 1273.93 2222.59 1273.9 2226.35"/><polygon class="cls-19" points="1743.98 1097.63 1745.41 1098.41 1750.08 1100.98 1750.78 1101.37 2011.2 1244.57 2020.51 1249.69 2111.13 1299.52 2115.8 1302.09 2116.92 1302.7 2117.77 1303.16 2117.8 1303.18 2121.59 1299.44 2121.59 1299.43 2121.91 1297.94 2117.77 1297.05 2117.77 1288.84 2116.03 1290.55 1873.54 1157.19 1864.57 1152.27 1756.49 1092.84 1754.93 1091.98 1753.28 1091.07 1753.28 1091.06 1753.1 1090.98 1752.97 1090.89 1748.91 1088.67 1746.45 1093.14 1744.56 1096.57 1743.98 1097.63"/><path class="cls-19" d="M2047.9,1956.79l.91,8.82.52,5.09.52,5v.07L2065,2123.5l1,10.16,30.18,293.67h10.28l-26.66-259.4-.52-5.11-.52-5.08-.3-2.9L2064,2013.59l-1.05-10.23-4.89-47.62a1542.61,1542.61,0,0,1,26.05-481.18l5.2-24.32,1.08-5,.37-1.69.71-3.36,25.46-119,.82-3.81,3.82-17.9h0l.32-1.49-4.14-.89-.85-.18-5-1.07-.79,3.72-37,172.9q-13.35,62.4-21.51,125.48c-.22,1.59-.42,3.18-.62,4.77h0c0,.12,0,.24-.06.37-.21,1.71-.43,3.43-.63,5.15A1553.56,1553.56,0,0,0,2047.9,1956.79Z"/><path class="cls-19" d="M2052.07,1608.44l3-9.78-223.87-68.6c-.28-21.75-2.53-86.32-2.63-89.24l-.12-3.48L1660.51,1378l-3.41,9.64,161.37,57.05c.52,15.12,2.53,74.87,2.53,89.19v3.78Z"/><rect class="cls-19" x="1482.54" y="1639.96" width="465.4" height="10.23" transform="translate(-75.09 3208.08) rotate(-84.93)"/><rect class="cls-19" x="1620.83" y="1241.79" width="10.23" height="155.89" transform="translate(-404.85 808.59) rotate(-24.94)"/><rect class="cls-19" x="1814.8" y="1396.73" width="330.69" height="10.23" transform="translate(168.93 3016.05) rotate(-77)"/><rect class="cls-19" x="1610.2" y="1871.26" width="10.23" height="236.4" transform="translate(-60.68 50.85) rotate(-1.77)"/><rect class="cls-19" x="1918.93" y="1295.13" width="10.23" height="135.82" transform="translate(0.13 2726.27) rotate(-70.63)"/><rect class="cls-19" x="1824.91" y="1290.72" width="92.04" height="10.23" transform="translate(166.98 2804.5) rotate(-76.23)"/><polygon class="cls-19" points="1274.67 894.95 1587.38 747.15 1590.39 745.73 1593.27 744.38 1591.09 739.76 1591.08 739.75 1588.9 735.13 1583.19 737.83 1274.67 883.63 1274.67 894.95"/><rect class="cls-19" x="1274.67" y="1629.91" width="211.51" height="10.22"/><polygon class="cls-19" points="2069.54 2159.4 2070.44 2164.42 2071.34 2169.46 2074.83 2168.84 2079.88 2167.93 2117.77 2161.15 2117.8 2161.15 2117.8 2150.76 2117.77 2150.76 2078.84 2157.74 2075.6 2158.31 2073.78 2158.64 2069.54 2159.4"/><polygon class="cls-19" points="2058.82 2004.19 2060.82 2014.22 2064.02 2013.59 2117.64 2002.93 2117.77 2002.91 2117.77 1992.48 2117.63 1992.51 2062.97 2003.37 2058.82 2004.19"/><polygon class="cls-19" points="2086.38 1443.77 2090.41 1445.2 2117.08 1454.65 2117.77 1454.89 2117.77 1441.85 2117.07 1441.89 2099.44 1442.97 2090.78 1443.51 2086.38 1443.77"/><polygon class="cls-19" points="2084.67 1448.6 2089.34 1450.24 2117.09 1460.07 2117.09 1460.08 2117.77 1460.31 2117.77 1449.46 2117.08 1449.22 2099.44 1442.97 2091.49 1440.15 2088.08 1438.95 2086.38 1443.77 2084.67 1448.6"/><polygon class="cls-19" points="1272.64 2400.37 1273.72 2397.26 1274.67 2394.53 1274.67 2427.33 1282.66 2427.33 1284.13 2226.28 1284.15 2222.67 1274.67 2222.59 1273.93 2222.59 1273.9 2226.35 1272.7 2391.91 1272.67 2397.01 1272.67 2397.23 1272.64 2400.37"/><rect class="cls-19" x="1493.99" y="2329.77" width="297.76" height="10.23" transform="translate(-106.88 78.99) rotate(-2.67)"/><polygon class="cls-19" points="1767.53 1999.17 1773.83 2081.21 1800.42 2427.33 1810.68 2427.33 1784.72 2089.35 1778.47 2008.16 1841.71 2000.62 1846.81 2000.01 1851.88 1999.41 2049.82 1975.79 2049.85 1975.79 2052.46 1975.47 2051.85 1970.4 2051.25 1965.33 2048.81 1965.61 1850.71 1989.25 1845.63 1989.85 1840.53 1990.46 1767.53 1999.17"/><polygon class="cls-19" points="1864.85 2243.24 1877 2363.38 1905.21 2359.99 1919.74 2358.24 1958.39 2353.59 1965.82 2427.33 1976.09 2427.33 1967.52 2342.19 1915.52 2348.44 1909.28 2349.2 1886.12 2351.98 1876.65 2258.3 1875.02 2242.21 1864.85 2243.24"/><path class="cls-19" d="M1274.67,1798.16v10.23c58.35,1.76,141.2,4.26,184.79,5.53,13.09.39,22.64.67,26.92.77l2.46.06v-10.22l-2.46-.06C1468.79,1804,1362.53,1800.82,1274.67,1798.16Z"/><path class="cls-19" d="M1272.67,2397v.22l1,0A6,6,0,0,0,1272.67,2397Z"/><path class="cls-19" d="M1272.64,2400.37l1.08-3.11,1-2.73.74-2.11a6.44,6.44,0,0,0-.74-.19,19.27,19.27,0,0,0-2-.31l0,5.09v.22Z"/><polygon class="cls-19" points="1411.91 1208.61 1274.67 1206.36 1274.67 1216.59 1411.74 1218.83 1411.91 1208.61"/><polygon class="cls-19" points="1724.63 1592.77 1491.01 1590.96 1491.01 1599.21 1724.34 1601.01 1724.63 1592.77"/><path class="cls-19" d="M1859.75,2150.74l9.75-3.12c0,.08.06.19.09.35-1.49-7.19-24.38-206.07-33.08-282.09l-.53-4.65-338,8.44.25,10.22,328.62-8.2C1836.75,1958,1858.44,2146.63,1859.75,2150.74Z"/><path class="cls-19" d="M1919.67,631.81c-13.79-1.48-164.4-.64-263.14.3a11.93,11.93,0,1,1-.23-23.86c.65,0,65.72-.62,130.7-.93,133.73-.62,136.52.49,139.75,1.78a11.93,11.93,0,0,1-4.44,23A11.32,11.32,0,0,1,1919.67,631.81Zm.32,0Zm-2.09-.59h0Z"/><path class="cls-19" d="M1470.13,631h111.7a11.94,11.94,0,0,0,0-23.87h-111.7a11.94,11.94,0,1,0,0,23.87Z"/><g class="cls-22"><rect class="cls-19" x="1298.77" y="2055.66" width="797.5" height="335.99" rx="46.02"/></g><path class="cls-23" d="M1641.54,1240.33c-12.24-13.38-28.6-20.81-46.08-20.95-36-.29-65.57,31-65.87,69.72-.2,27.15,31.29,85.75,50.19,118.44v22.65h14.68l.31-.49,14.8-24.06c18.85-31.67,50.51-88.79,50.71-115.55A72.45,72.45,0,0,0,1641.54,1240.33ZM1595,1260.59h.19A26.27,26.27,0,0,1,1613,1305.4a25.37,25.37,0,0,1-18.21,7.52h0a26.17,26.17,0,0,1,.21-52.33Z"/><path class="cls-24" d="M1582.47,1220.7c-35.51-.27-64.52,30.47-64.81,68.66s63.23,140,63.23,140,65-100.85,65.34-139S1618,1221,1582.47,1220.7Zm-.71,93.28a27.23,27.23,0,1,1,27-27A27,27,0,0,1,1581.76,1314Z"/><path class="cls-24" d="M1580.88,1431.35l-.89-1.41c-.16-.26-16.08-25.84-31.76-55.76-21.11-40.27-31.75-68.82-31.63-84.83a72.43,72.43,0,0,1,19.49-49.47c12.44-13.19,28.92-20.39,46.39-20.24s33.83,7.57,46.07,20.94a72.45,72.45,0,0,1,18.74,49.76c-.12,16-11.19,44.39-32.91,84.34-16.13,29.68-32.44,55-32.6,55.27Zm1.12-209.59c-16.7,0-32.44,6.94-44.37,19.57a70.39,70.39,0,0,0-18.91,48c-.26,35,54.51,125.5,62.19,138,7.86-12.39,64-102.06,64.26-137.06A70.34,70.34,0,0,0,1627,1242c-11.84-12.93-27.66-20.13-44.53-20.25H1582Zm0,93.28h-.21c-15.34-.11-27.71-12.9-27.59-28.49s12.69-28.2,28-28.08,27.71,12.9,27.59,28.5S1597.2,1315,1582,1315Zm0-54.45c-14.07,0-25.57,11.61-25.68,26a26,26,0,0,0,25.48,26.36h0a26.17,26.17,0,0,0,.4-52.33Z"/><circle class="cls-24" cx="1588.53" cy="1459.08" r="17.23"/><polygon class="cls-5" points="1274.67 2426.79 1274.67 2410.7 2117.77 1477.46 2117.77 2426.79 1274.67 2426.79"/><polygon class="cls-5" points="2117.78 663.74 2117.78 717.28 1274.66 1713.69 1274.66 979.78 1558.59 663.74 2117.78 663.74"/><circle class="cls-25" cx="3148.56" cy="2503.76" r="30.05"/><path class="cls-26" d="M3142.27,2454.9c1.07-8,8.08-13.69,8.84-22.18-.16,1.73-55.76,25.64-60.59,28.21-.15.08,37.74,51.43,52.25,51.42C3173.86,2512.32,3139.86,2473.13,3142.27,2454.9Z"/><path class="cls-25" d="M2947.18,2006.38,2918,2037.24l-149.52-384.88-36.1-92.94,20.44-9.32c3.55,6.35,14.61,31.2,29.79,66.29C2837.8,1743.88,2947.18,2006.38,2947.18,2006.38Z"/><path class="cls-26" d="M3295.05,2384.19c-13.49,9.72-35.39,25-59.68,40.08q-3.49,2.17-7,4.32c-13.24,8-27,15.8-40.35,22.45-5.4,2.7-10.74,5.21-15.95,7.47a194.39,194.39,0,0,1-24.16,8.82c-48.36,13.62-59.92,0-72.95-23.23-3.37-6-6.84-12.64-11.07-19.61-19.27-31.74-138.12-306.22-168.31-386.79a60.85,60.85,0,0,1-1.6-38.85c1.9-6.31,4.89-12.3,9.58-15.92a382.39,382.39,0,0,1,69.47-44.35c3.9-1.93,7.91-3.84,12-5.69a295.12,295.12,0,0,1,28.83-11.24,225.5,225.5,0,0,1,43.37-10,29.15,29.15,0,0,1,14.81,2.1c12.73,5.31,38.57,17.58,48.4,33.14,6.94,11,55.69,103.68,101.93,201.9,34.54,73.36,67.68,149.79,80.94,197.49.91,3.22,1.71,6.31,2.42,9.26A27.42,27.42,0,0,1,3295.05,2384.19Z"/><path class="cls-25" d="M3228.33,2428.58c-13.24,8-27,15.81-40.35,22.46-32.55-58.28-209.06-459.61-209.87-480.11-.44-11.35,3.16-26.06,6.91-38a294.17,294.17,0,0,1,28.83-11.25c-6.12,19.13-6.58,44.15-6.58,44.15C3020.59,2015.43,3198,2368.33,3228.33,2428.58Z"/><path class="cls-25" d="M3172,2458.51a194.39,194.39,0,0,1-24.16,8.82c-48.36,13.62-59.92,0-73-23.23l15.4-4.53c13.71-4,27.89-8.11,42.1-6.47A54.7,54.7,0,0,1,3172,2458.51Z"/><path class="cls-25" d="M3305.72,2355.58a27.4,27.4,0,0,1-10.67,28.6c-13.49,9.73-35.39,25.05-59.68,40.09a54.62,54.62,0,0,1,13.78-48.81c9.95-10.28,23.49-16.13,36.65-21.71l17.5-7.43Q3304.65,2351.15,3305.72,2355.58Z"/><g class="cls-27"><path class="cls-8" d="M2782.64,1616.39q-6.69,18.13-14.13,36l-36.1-92.94,20.44-9.32C2756.4,1556.45,2767.46,1581.3,2782.64,1616.39Z"/></g><path class="cls-28" d="M2831.16,2315s-82.75,82.74-83.17,28.49v-.84c.42-55.94-24-74.8-24-74.8s21-90,48-39.45c8.88,16.62,16.54,27,22.83,33.53,12.89,13.28,20,10.2,20,10.2Z"/><path class="cls-28" d="M2554.23,2433.33s-11.57,11.57-13.71,15.43-135.88-28.29-92.6-45.44a46.36,46.36,0,0,0,9.3-4.91c13.25-9.13,18.13-23.52,19.34-37.06,1.66-18.37-3.4-35.18-3.4-35.18s70.36-6.44,72.5,12.84c.76,6.76,2,20.36,3.38,35.17,1,11.42,2.11,23.57,3,33.85C2553.31,2422.51,2554.23,2433.33,2554.23,2433.33Z"/><path class="cls-29" d="M2576.65,2501.92c-7.17,12.44-73,12-73,12l-6.88-10.28a117.71,117.71,0,0,1-12.25,4.94c-63.73,21.78-160.9,1.06-160.9,1.06l-9.86-4.24c1.67-5,3.73-11.38,6.3-17.52,2.91-6.94,6.48-13.6,11-17.75,7.51-7,18.33-7.58,27.82-8.85,37.82-5.11,64.42-37.21,80.47-69.71,0,0,12.05-9.5,13.76,0s46.09,49.12,78.88,28c3.75-2.41,7-4.43,9.88-6.11,22.12-13,19.26-5.9,19.26-5.9A354.5,354.5,0,0,1,2576,2462C2579.33,2480.1,2580.26,2495.66,2576.65,2501.92Z"/><path class="cls-9" d="M2576.65,2501.92c-7.17,12.44-73,12-73,12l-6.88-10.28c-62.61,29.58-173.15,6-173.15,6l-9.86-4.24c1.67-5,3.73-11.38,6.3-17.52,20.16,4.21,84.25,15.9,126.3,3.76S2553,2466.07,2576,2462C2579.33,2480.1,2580.25,2495.66,2576.65,2501.92Z"/><path class="cls-30" d="M2783.64,2325.28c.78,4-1.39,8-4.16,11-7.89,8.42-20.12,10.17-31.49,7.25v-.84c.42-55.94-24-74.8-24-74.8s21-90,48-39.45c8.88,16.62,16.54,27,22.83,33.53-10.49,17.13-23.73,32.73-29.86,53.56C2772.57,2315.85,2782.19,2317.81,2783.64,2325.28Z"/><path class="cls-29" d="M2858.59,2356H2848.3c-2.14,32-9.43,75.64-9.43,75.64l-.76,1.91c-24.06,59.73-62.52,76.1-87.54,75.53-18.06-.43-20.17-12.19-19.43-24.5.3-4.94,1.06-9.95,1.42-14.36,1.29-15.44,9.86-81.88,10.29-100.31s0-39.44,0-39.44c3.86-8.38,19.22-9.66,28.16-9.66a28.85,28.85,0,0,1,11.13,2.21c3,1.23,5.91,2.32,8.42,3.22a12,12,0,0,0,14-4.43,37.16,37.16,0,0,0,4.31-8.35c9.14-24.46-5-56.88-5.34-57.65,7.58,5.73,24.51,17.83,38.64,29.25,11.81,9.56,21.66,18.64,22.44,23.12C2866.3,2318,2858.59,2356,2858.59,2356Z"/><path class="cls-9" d="M2858.58,2356H2848.3c-2.14,32-9.43,75.64-9.43,75.64-24,61.3-63,78-88.31,77.44-18-.43-20.16-12.19-19.42-24.49,7,8.39,18.14,12.21,35.72,5.72,57-21.07,55.3-73.25,64.3-111.83,6.13-26.3,9.48-68.95,11-93.42,11.81,9.56,21.66,18.64,22.44,23.12C2866.3,2318,2858.58,2356,2858.58,2356Z"/><path class="cls-30" d="M2751,1605.89a22.87,22.87,0,0,1-9.5-6.91c-3.91-5.11-7.09-10.66-8.37-17a41.14,41.14,0,0,1,.74,6c-.43-2-2.46-8.41-.92-9.79a5.1,5.1,0,0,1,2.16-1,17.8,17.8,0,0,1,18.68,7c2.11,3.09,2.29,7.41,2,11-.06.83-1.18,11.46.38,10.8A7.29,7.29,0,0,1,2751,1605.89Z"/><path class="cls-13" d="M2422.36,1091.62c3.83,6.81,5.68,14.62,9.69,21.33s11.34,12.49,19,11.09c8.32-1.52,13-10.29,16.24-18.08,3.74-8.84,7.4-18.55,4.87-27.81s-10.78-15.87-19.58-19.63c-4.26-1.81-8.88-3.12-13.5-2.67s-9.22,2.92-11.28,7.07"/><path class="cls-13" d="M2416.46,918.25a153.35,153.35,0,0,1,17.68,112.84c-1.77,7.52-4.25,15.15-9.37,20.94-13.33,15.08-39.33,12.59-52.93,27.43-12.87,14-12,31.13-6.7,49.41a64.42,64.42,0,0,1-.15-54.12c7.9-16.87,23.66-33.22,18.34-51.07-4.14-13.92-20.38-22.89-21.15-37.39-.66-12.34,10.56-23.36,8.68-35.57-.62-4.06-2.65-7.73-4.22-11.51-9.41-22.63-.59-51.35,19.89-64.81.61,5.65,12.75,11.51,16.12,16.09l28.28,38.37"/><path class="cls-28" d="M2530.57,1094c-5.26,18.06-18.86,34.07-36.78,39.78s-40.4.86-50.83-14.78c4.37-14.38,7.39-29.33,7.1-44.36,0-.62,0-1.24-.06-1.85-.5-12.83-3.52-25.69-9.77-36.84-.77-1.4-1.6-2.76-2.48-4.1,3.16-4.25,7.64-7.06,12.66-9a88.25,88.25,0,0,1,16.51-4.26c10.67-2,21.67-1,32.41.52,6.52,1,13.34,2.26,18.39,6.49,4.08,3.41,6.56,8.34,8.55,13.26a94.37,94.37,0,0,1,7,31.55A73.69,73.69,0,0,1,2530.57,1094Z"/><path class="cls-30" d="M2533.3,1070.32a95.59,95.59,0,0,1-13,18.55c-11.76,13.26-26.4,23.61-41.05,33.6a4.35,4.35,0,0,1-2.6,1c-1.81-.14-2.6-2.34-2.86-4.15-2.85-20.06,7.26-39.32,17.62-56.9a.94.94,0,0,0-1.2-1.33,148.59,148.59,0,0,1-40.18,11.65c-.5-12.83-3.52-25.69-9.77-36.84a69,69,0,0,1,10.18-13.15,88.25,88.25,0,0,1,16.51-4.26c10.67-2,21.67-1,32.41.52,6.52,1,13.34,2.26,18.39,6.49,4.08,3.41,6.56,8.34,8.55,13.26A94.37,94.37,0,0,1,2533.3,1070.32Z"/><path class="cls-28" d="M2519.08,1006.73c-3.15,3.94-7.41,9.13-12.49,14.88a276.74,276.74,0,0,1-20.63,21.13c-12.61,11.54-26.92,21.91-40.79,25.93-12.44,3.62-24.51,2.12-34.68-8.22a67,67,0,0,1-11.29-16.12,136,136,0,0,1-9-22.9c-2.21-7.33-4.05-15-5.56-22.78-2.25-11.47-3.81-23-4.88-33.71,0-.05,0-.09,0-.14-.29-2.85-.55-5.63-.76-8.33-.11-1.27-.21-2.51-.3-3.73-.53-7.08-.84-13.43-1-18.69a53.57,53.57,0,0,1,7.7-29.94q.46-.79,1-1.56c37.7-56.76,88.94-6.54,116.15,42.38C2517.6,972.15,2525.29,999,2519.08,1006.73Z"/><path class="cls-29" d="M2795.5,1515.65a87.4,87.4,0,0,0-30.37-3.82c-13.57.84-26.39,5.49-37,15-1,.87-1.94,1.78-2.88,2.74q-7.24-18.85-14.5-37.72c-3.76-9.78-7.52-19.56-11.2-29.38q-4.23-11.27-8.36-22.59-16.86-46.29-31.67-93.29c-.26,8.3-.62,12.31.66,20.51q1.77,11.34,3.29,22.73,1.29,9.72,2.4,19.45,3.21,28.26,4.86,56.66,1.17,20.11,1.55,40.27c.25,13.33,6.36,49.69-5.41,57.36a17.22,17.22,0,0,1-3.58,1.74c-8.45,3-20.84.9-31.85-2.53a116.06,116.06,0,0,1-19.32-7.91c-14.16-7.6-24.8-16.46-40.85-18.72-15.29-2.15-30.91-.62-46.15-2.72-18.79-2.59-36.19-2.64-52.37,1.77a89,89,0,0,0-35.22,19c-17.87,15.41-51.91,12.89-65.34-8.42-8.78-13.93,6.54-22.79,10.85-35.4,4.19-12.23-2.52-23.82-.07-36.19-2.84,2.53,1.83-1.17-1.11,1.25l-4.51,3.74c-3.71,3.05-7.42,6.13-11.14,9.2a12.45,12.45,0,0,1-3.91,2.47c-7.42,2.41-8.92-.38-15.87-3.91-8-4.07-16-7.79-23.79-11.54-18.28-8.8-35.75-17.85-50.95-32.45-22.17-21.28-41.68-45.15-60.93-69a50.79,50.79,0,0,0,6.77-2.85c.61-.32,1.23-.64,1.83-1s1.33-.74,2-1.15l.76-.48c1-.66,2-1.34,3-2.07a57.24,57.24,0,0,0,22.9-37.47c.16-1,.27-2,.36-3.08,21.35,10.21,44.62,21.77,65.28,34.22q3.54,2.13,7,4.29c3-1.15,3.39-5.07,3.36-8.24q-.36-27.75-.72-55.52l-.87-68.09c-.26-21.4,5.46-60.13,27.59-71.77a27.81,27.81,0,0,1,4.48-1.91c15.93-5.23,31-13.17,45.5-21.46,10.69-6.11,32.46-14.77,38.39-25.75a19,19,0,0,0,.86-1.76c2.07-4.71,2.61-10,2.53-15.2,0-1.86-.07-3.89,1.08-5.36,1.5-1.93,4.33-2,6.78-2a176.82,176.82,0,0,0,73.07-14.57c1.52-.66,3.39-1.29,4.68-.27a4.25,4.25,0,0,1,1.14,1.83c4.25,10.81,4.38,27,17.31,31.88,5.25,2,11.59,1.79,17.11,2.24,22,1.78,43.71,3.53,65.46,7.42a115.42,115.42,0,0,1,20.2,5.57,105.32,105.32,0,0,1,16.11,7.61,75.25,75.25,0,0,1,18.13,14.45c13.26,14.85,17.94,36.55,23.57,55.24q24.06,79.69,48.13,159.4a70.25,70.25,0,0,1,2.55,10.36c.33,2.38.41,4.78.76,7.17.75,5.3,2.74,10.34,4.65,15.34A612,612,0,0,1,2795.5,1515.65Z"/><path class="cls-23" d="M2354.48,1158.76c13-4.26,25.39-10.34,37.41-16.93-9.86,6.5-18.28,12.12-19.47,12.79-7.31,46.23-6.46,91.22-6.57,137.24-5.19-1.23-12.79-5.38-15.06-7.06-3.2-2.36-5-6.12-6.53-9.79a135.4,135.4,0,0,1,.56-103.64c1.56-3.64,3.28-7.22,5.18-10.7A27.81,27.81,0,0,1,2354.48,1158.76Z"/><path class="cls-28" d="M2400,1137.3c-2.67,1.53-5.37,3-8.09,4.53,15.44-10.18,34.42-22.52,34.43-21.25,0,.79,0,1.57.09,2.36C2417.64,1128.68,2406.65,1133.49,2400,1137.3Z"/><path class="cls-23" d="M2670.75,1465.92c-7.8-5.22-15.86-10.39-24-13.44-11.84-4.41-26.8-5.37-39.26-7.41-27.27-4.48-55-6.53-82.36-1.37-42.67,8-87.38,15.19-130,3.13-5.52-1.56-2-46.11-4.78-55.23-.44-1.44-.9-3.07-.15-4.37a5.24,5.24,0,0,1,1.73-1.61c17.55-12,37.77-14.63,57.23-22.42,34.47-7.84,70.4-6.81,105.46-2.31,32.78,4.21,66.23,11.87,92.94,31.34a106.39,106.39,0,0,1,18.39,17Q2669.1,1437.52,2670.75,1465.92Z"/><path class="cls-23" d="M2701.64,1379.76a19.93,19.93,0,0,1-4,.17c-16.44,1-2.35,58.69-1.23,68.36q-2.62-4.2-5.18-8.43-16.86-46.29-31.67-93.29c-.26,8.3-.62,12.31.66,20.51q1.77,11.34,3.29,22.73c-24.41-48.84-43-101.43-45.55-155.9-1.83-39.59,6.57-82.08,30.65-112.55a105.32,105.32,0,0,1,16.11,7.61c-1,17.64-1.71,35.84-4.32,53.26-2,13-6.8,23.84-7.27,37.35-1.12,32,3.24,63.9,9.65,95.18,2.66,13.06,2.45,27,7.12,39.58,7.34,19.81,16.4,17,33.72,22.42C2704.13,1378,2702.94,1379.39,2701.64,1379.76Z"/><path class="cls-31" d="M2675.16,1419.47c-.12-2.67-.21-5-.36-6.69-2.47-29.38-9-57-19.49-85.3-12.88-34.74-9.93-84.87-8.51-121.41.41-10.53,1.49-22.34,3-34.32,2-16.09,4.8-32.49,7.7-46.44,2-9.62-20.06-11.12-31.55-12.31l-1.94-.21c-1.35-.17-2.48-.33-3.29-.52l-1.06-.23a283.68,283.68,0,0,0-30.5-5.19c-6.8-.76-13.63-1.21-20.57-1.29-.85,0-1.69,0-2.53,0,1.53,0,2,1.26,1.65,3.4a17.6,17.6,0,0,1-.73,2.82c-1.84,5.5-6.48,13.94-11.91,22.41-8.52,13.25-19,26.55-23.63,28.67-9.75,4.44-22.18,7.26-34.86,8l-.76.05c-2.63.14-5.26.2-7.88.15-10.38-.13-20.58-1.71-29.27-5a51.89,51.89,0,0,1-6.68-3,49.79,49.79,0,0,1-25.58-40.18c-8.77,5.74-19.76,10.55-26.43,14.36-2.67,1.53-5.37,3-8.09,4.53-9.86,6.5-18.28,12.12-19.47,12.79-7.31,46.23-6.46,91.22-6.57,137.24,0,7.78-.06,15.58-.17,23.43v.58c0,.9,0,1.78,0,2.67a204.88,204.88,0,0,0,7.62,27.72c6.87,19.44,16.8,38.31,18,58.89.35,6.06.47,11.86.34,17.68-.12,5.64-.49,11.28-1.11,17.19,12.4.66,24.83,1.32,37.26,1.67q3.16.09,6.34.14a395.41,395.41,0,0,0,51.53-1.94c1-.11,2-.22,3-.35s2.28-.29,3.41-.44c2.73-.36,5.44-.76,8.15-1.22,9.16-1.53,18.24-3.56,27.33-5.47l6.19-1.29c5-1,10-1.91,15-2.67a216.18,216.18,0,0,1,56.59-.93q3.33.38,6.65.86c4.68.68,9.35,1.51,14,2.5a215.63,215.63,0,0,1,58.71,21.58C2676.71,1448.14,2675.67,1430.72,2675.16,1419.47Zm-214.45-231.12c.05,2.13,0,4.26-.09,6.39C2460.73,1192.61,2460.75,1190.47,2460.71,1188.35Z"/><path class="cls-28" d="M2460,1202.18a89.71,89.71,0,0,0,.75-13.83A88.54,88.54,0,0,1,2460,1202.18Z"/><path class="cls-32" d="M2434.1,1441.83q-3.18,0-6.34-.14a274.54,274.54,0,0,0-3.56-79.87c-2-10.26-4.63-20.66-7.18-30.71-5.67-22.34-11.53-45.44-10.9-69a142.89,142.89,0,0,1,2.36-22h0c1.31-.68,2.64-1.33,4-1.92a26.5,26.5,0,0,1,3.07-1.16,138.08,138.08,0,0,0-3.11,25.29c-.6,22.65,5.14,45.32,10.71,67.24,2.56,10.14,5.23,20.63,7.25,31.06A281,281,0,0,1,2434.1,1441.83Z"/><path class="cls-32" d="M2465.61,1273.11a465.44,465.44,0,0,0,26.43,166q-3.2.45-6.41.79A472,472,0,0,1,2459.29,1273c.57-22.68,2.81-52.12,15.21-78.83a155.1,155.1,0,0,1,13.44-23.06c2.62,0,5.25,0,7.88-.15a154.91,154.91,0,0,0-15.58,25.87C2468.32,1222.45,2466.17,1251.05,2465.61,1273.11Z"/><path class="cls-32" d="M2547.91,1199c-13.71,68.67-30.62,153.36-14.2,232.1l-6.19,1.29c-16.68-80,.37-165.38,14.19-234.62,4.58-23,8.8-43.7,13.36-63.62,5.43-8.47,10.07-16.91,11.91-22.41C2560,1139,2554.33,1166.81,2547.91,1199Z"/><path class="cls-32" d="M2566.06,1105.54c.84,0,1.68,0,2.53,0-.3,1.12-.59,2.25-.88,3.38C2568.05,1106.8,2567.59,1105.54,2566.06,1105.54Z"/><path class="cls-32" d="M2618.27,1152.09c-13.82,85.61-26.62,183.94-6.34,276.29q-3.32-.48-6.65-.86c-19.84-92.77-7.06-190.93,6.75-276.43,2.22-13.73,4.47-26.74,7.63-39l1.06.23a52.48,52.48,0,0,0,5.23.73C2622.77,1125.28,2620.5,1138.3,2618.27,1152.09Z"/><path class="cls-23" d="M2362.61,1397.85c-14.92-6.92-39.34-22.8-48.94-37.85q3.54,2.13,7,4.29c3-1.15,3.39-5.07,3.36-8.24q-.36-27.75-.72-55.52C2338.36,1332.1,2347.62,1366.2,2362.61,1397.85Z"/><path class="cls-33" d="M2318.75,1365.34a2.3,2.3,0,0,1-1.24.75,3.38,3.38,0,0,1-3-.76,2.86,2.86,0,0,1-.87-1.52.62.62,0,0,1,.49-.73.58.58,0,0,1,.37,0l.11.05a52.81,52.81,0,0,1,8,4.49c2.52,1.74,5,3.6,7.28,5.55,4.65,3.91,9,8.07,13.44,11.88a70.68,70.68,0,0,0,14.19,9.7,32.78,32.78,0,0,0,15.95,3.77l-.33,4.82a17.14,17.14,0,0,1-7.93-4.88,50.85,50.85,0,0,1-5.22-6.71,62.85,62.85,0,0,0-4.83-6.44,15.33,15.33,0,0,0-6.51-4.55,14.34,14.34,0,0,1,7.74,3.2,48.58,48.58,0,0,1,6.06,5.83,59.45,59.45,0,0,0,5.6,5.62,13.68,13.68,0,0,0,6.17,3.17,2.42,2.42,0,0,1-.12,4.79l-.21,0a30.9,30.9,0,0,1-9.74-.45,39.39,39.39,0,0,1-9.09-3.13,62.44,62.44,0,0,1-15.3-10.75c-4.5-4.18-8.51-8.66-12.63-12.93-2.06-2.14-4.11-4.27-6.31-6.24a71.41,71.41,0,0,0-6.85-5.63l1-.65a2.09,2.09,0,0,0,1.24,1.77A2.45,2.45,0,0,0,2318.75,1365.34Z"/><path class="cls-34" d="M2659.13,1345c-3.32-9.77-5.76-19.67-8.13-29.53l-6.83-29.5c-2.41-10.5-2.4-21.08-1.68-31.31s2.27-20.26,3.82-30.44c2,10.15,2.31,20.47,2.87,30.52s1.13,20,3.27,29.31a255.34,255.34,0,0,1,5.11,30.29A250.36,250.36,0,0,1,2659.13,1345Z"/><path class="cls-34" d="M2460,1202.18a89.71,89.71,0,0,0,.75-13.83A88.54,88.54,0,0,1,2460,1202.18Z"/><g class="cls-35"><path class="cls-13" d="M2450.06,1226.78c-12.57,15.41-22.15,4.6-37.58,11.4a73.56,73.56,0,0,0-41.95,53.38c-.79.85-2.53.83-4.68.3.11-46-.74-91,6.57-137.24,1.19-.67,9.61-6.29,19.47-12.79,2.72-1.48,5.42-3,8.09-4.53,6.67-3.81,17.66-8.62,26.43-14.36a49.79,49.79,0,0,0,25.58,40.18,51.89,51.89,0,0,0,6.68,3q1.13,7.26,1.69,14.58C2461.58,1196.78,2460.27,1214.28,2450.06,1226.78Z"/></g><path class="cls-9" d="M2439.23,1113.9c-6,9.92-15.4,19.71-13.28,31.09.82,4.39,3.31,8.18,5.85,12l0,0c2.55,3.77,5.15,7.54,6.17,11.92,1.76,7.4-1.34,15-4.95,21.74a55.37,55.37,0,0,1-5.9,9.08c-3.42,4.22-7.62,7.6-12.82,8.8-7.23,1.67-14.86-1.26-22.17,0-22.64,4-17.46,30.34-.73,38a29.38,29.38,0,0,1-7.35,1.19c-15.09.6-30.52-9.87-34.35-24.68-2.83-10.83,0-22.24,2.73-33.1,1.94-7.57,4-15.4,8.89-21.5,5.78-7.22,14.66-11,22.77-15.46s16.32-10.53,18.61-19.48c2.66-10.46-3.55-20.44-7.5-30.79a39.34,39.34,0,0,1-2.94-12.67c-10.64,6-19.4,15.9-19.58,27.76a24.58,24.58,0,0,0,.78,6.62c.15.63.34,1.28.55,1.93a22.27,22.27,0,0,0,14.66,14.14,17.72,17.72,0,0,1-10.25,1q-.72-.12-1.44-.3a26.51,26.51,0,0,1-10.93-5.79c-22.43-19.72-14.07-51.94-1.79-74.88,6.86-12.81,16.84-16.73,28.09-16.68a59.21,59.21,0,0,1,6.83.46,67,67,0,0,0,11.29,16.12c10.17,10.34,22.24,11.84,34.68,8.22A58.31,58.31,0,0,1,2439.23,1113.9Z"/><path class="cls-30" d="M2506.59,1021.61a276.74,276.74,0,0,1-20.63,21.13c-14.67-10.17-23.6-27.77-29.11-45.11-6.27-19.79-10.57-39.46-19.16-58.45-7.26-16-14.48-16.17-30.3-22.61-8-3.25-16.27-6.09-22.07-12.46q.46-.79,1-1.56c37.7-56.76,88.94-6.54,116.15,42.38C2509.13,970.08,2511.25,996.32,2506.59,1021.61Z"/><g class="cls-36"><path class="cls-37" d="M2419.11,966.2c-1,5.86-3.92,11.3-5.34,16.94-1.53,6.07-4.5,11.06-7.85,16.21-4.36,6.69-2.54,11.53,2.34,16.89a.81.81,0,0,1,.54.07c-1.55-5-1.64-10.26,1-14.91.74-1.32,1.66-2.54,2.47-3.82,3.95-6.23,5.26-13.76,5.82-21.12Z"/></g><path class="cls-38" d="M2420,963.88c-1,6-2,11.91-3.32,17.68a71,71,0,0,1-2.48,8.4,26.24,26.24,0,0,1-3.61,6.78c-4.44,5.43-9.13,11.22-3.87,18.13,2.56,3.38,6.34,4.87,10.42,3.57-4.17,0-9.62-3.62-10.32-8s1.31-8.54,4-11.69c5.68-6.73,7.38-14.3,8.64-22.76C2420.05,972,2419.36,967.92,2420,963.88Z"/><path class="cls-39" d="M2439.42,962.46c1.42-1.86,6.27-5.39,6.27-5.39l.83-3.76,1,3.61s3.09.56,7.88,1.15a116.3,116.3,0,0,1,13.12,2.94l-18.71-1.38a9.63,9.63,0,0,0-3.94.53Z"/><path class="cls-39" d="M2444.3,967.88c.55,4,3.5,6.88,6.59,6.45s5.15-4,4.59-8-3.51-6.89-6.6-6.46S2443.74,963.88,2444.3,967.88Z"/><g class="cls-27"><path class="cls-40" d="M2440.65,966.9c.11.78,1.49,1.22,3.09,1s2.8-1,2.69-1.8-1.48-1.22-3.08-1S2440.55,966.13,2440.65,966.9Z"/></g><path class="cls-41" d="M2488.58,952c-6.8-5.14-15.24-10.2-23.67-10.37-9.62-.2-16.49,1.79-25.54,2.95-2.37.31-2.65,3.5-1,4.84s3.92.36,5.64,0a75.46,75.46,0,0,1,17.1-1.86,73.87,73.87,0,0,1,10.92.68c4,.52,13.26,1.87,17.55,4.56A7.21,7.21,0,0,0,2488.58,952Z"/><path class="cls-39" d="M2402.33,966.81a52.87,52.87,0,0,0-5.88-5.76l-1.32-4-.16,3.81s-2.31.56-5.95,1.13a61.83,61.83,0,0,0-9.74,3l14.39-1.27a6.41,6.41,0,0,1,3.18.6Z"/><path class="cls-39" d="M2399.22,971.68c-.33,3.55-2.53,5.83-4.91,5.1s-4-4.19-3.71-7.74,2.52-5.83,4.9-5.1S2399.54,968.14,2399.22,971.68Z"/><path class="cls-41" d="M2374.74,959.77c1.42-3.88,4.89-10.25,10.19-11a154.19,154.19,0,0,1,15.67-1.22c1.5-.07,2.05,2.72,1.45,3.81s-2.14.79-3.19,1c-3.63.52-7.07.71-10.54,1-2.6.24-3.11.08-6,1.25-2.2.9-6.63,3.7-7.93,5.89A5.33,5.33,0,0,1,2374.74,959.77Z"/><g class="cls-36"><ellipse class="cls-37" cx="2472.3" cy="1001.12" rx="22.95" ry="14.93" transform="translate(-63.44 173.77) rotate(-3.97)"/></g><g class="cls-36"><path class="cls-37" d="M2396.09,1010.49c.29,4.1-2,8-5.92,10.94-2.21-7.33-4.05-15-5.56-22.78C2391.17,1000.85,2395.72,1005.2,2396.09,1010.49Z"/></g><g class="cls-27"><path class="cls-40" d="M2387.62,970.24c.24.82,1.8,1.08,3.48.58s2.86-1.56,2.62-2.38-1.8-1.07-3.49-.57S2387.38,969.43,2387.62,970.24Z"/></g><path class="cls-41" d="M2411,1028.52a19.36,19.36,0,0,0,10.85,11.55,16.34,16.34,0,0,0,18.57-3.52,14.83,14.83,0,0,0,3.28-5.39c1.29-3.54,1.6-7.58,1.82-11.39C2445.18,1025.4,2410.72,1027.66,2411,1028.52Z"/><path class="cls-38" d="M2421.85,1040.07a16.34,16.34,0,0,0,18.57-3.52,14.83,14.83,0,0,0,3.28-5.39c-1-.05-2-.1-3-.19A21,21,0,0,0,2421.85,1040.07Z"/><path class="cls-32" d="M2589.16,1106.85q-4.29,7.79-8.56,15.57c-7.81,14.2-15.79,28.64-27.54,39.8-16.93,16.07-40.72,23.94-64.06,23.72a157.53,157.53,0,0,1-28.51-3.17c0-.7-.08-1.39-.13-2.08q-.56-7.32-1.69-14.58c21.71,8.12,52.84,5.81,72.77-3.27,9.69-4.41,44.53-57.3,34.62-57.3A207.93,207.93,0,0,1,2589.16,1106.85Z"/><g class="cls-35"><path class="cls-13" d="M2588.94,1200.82c.22,2.77.38,6-1.65,7.84a8.47,8.47,0,0,1-3.83,1.72c-30.91,7.68-65.88-4.91-84.79-30.53l-2.09-9c12.68-.77,25.11-3.59,34.86-8,4.66-2.12,15.11-15.42,23.63-28.67,5.43-8.47,10.07-16.91,11.91-22.41a17.6,17.6,0,0,0,.73-2.82c.34-2.14-.12-3.4-1.65-3.4.84,0,1.68,0,2.53,0,6.94.08,13.77.53,20.57,1.29a283.68,283.68,0,0,1,30.5,5.19l1.06.23c.81.19,1.94.35,3.29.52C2600,1134.87,2586.45,1168.21,2588.94,1200.82Z"/></g><path class="cls-9" d="M2612.52,1083.27c-.43.32-.88.62-1.33.91.46-.71.92-1.42,1.35-2.14,5.85-9.65,9.55-21.21,6.24-31.88a32.46,32.46,0,0,0-4.52-8.92c-3.29-4.7-7.59-8.81-11.79-12.76,5.07,10.27,4.48,22.23,1.89,33.55-.52,2.23-1.11,4.43-1.74,6.59-2.84,9.61-6.61,19.09-8.71,28.84a69.19,69.19,0,0,0-1.54,10.84,44.93,44.93,0,0,0,1.36,13.77c2.34,9,7.59,17.06,15.95,20.79a26.11,26.11,0,0,1-15.94-5.64c-3.8-3-6.38-7.08-6.2-11.62-2.68,5.33-5.38,10.75-7.54,16.33a59.75,59.75,0,0,0-4.5,20.13c-.32,12.91,6.66,27,19.09,30.48.34,1.79-1.85,3.11-4,3.88a16.44,16.44,0,0,1-2.26.61,88.8,88.8,0,0,1-20.46,1.25,7.32,7.32,0,0,1-1.94-.41,5,5,0,0,1-3.13-2.48c-1,3-4.34,5.15-7.7,5.67-.32.06-.63.09-1,.12-17.64,1.19-25.27-21.65-29-35.28.32,2.52-1.25,5.06-3.52,6.59a108.5,108.5,0,0,1,0,15.51c-.21,3.19-.58,6.37-1.07,9.53-1.57-13.26-13.07-22.66-21.64-32.9a98,98,0,0,1-11.89-17.85,83.67,83.67,0,0,1-6-12.5l.85.66a86,86,0,0,1-4.9-29.42s0,0,0-.08c2-14.89,16.76-24.57,23.38-37.1a24.45,24.45,0,0,0,2-19.63c-5.83-19-28-35.39-37.44-53.58-3.2-6.12-6.14-12.44-8.79-18.87a231.6,231.6,0,0,1-13.46-45.07q-1.24-6.54-2-13.15c-.17-1.49-.32-3-.44-4.46.36-.38,7.32-11,6.72-10.45-5.67,5-13.57,6.94-21.16,7-15.92,0-31.32-8-41.08-20.46-12-15.23-8.45-31.51,14-32.11,2,0,4.12.11,6.16,0a14.72,14.72,0,0,0,3.23-.46,13.41,13.41,0,0,0,3.53-1.5c2.67-1.55,5-3.82,7.43-5.79,23.47-19.1,55.64-19,83.58-11.63,41.4,11,71,53.56,82,93.51,3.95,14.34,3.51,29.46,8.07,43.68,8.36,26,29.83,42.76,34.93,70.86C2630.2,1059.76,2624,1075.14,2612.52,1083.27Z"/><path class="cls-33" d="M2362.62,1259.35a239.16,239.16,0,0,0,4.54,55.29,219.65,219.65,0,0,0,7.24,26.64c3,8.69,6.56,17.23,10,26s6.49,17.75,8.21,27.2a79.37,79.37,0,0,1,1.26,14.36c0,2.4-.12,4.8-.34,7.18s-.54,4.74-.92,7.08c-3,18.76-10.14,36-12.27,54.63-.16-9.36,1.38-18.7,3.08-27.88s3.74-18.26,4.81-27.36a105.35,105.35,0,0,0,.68-13.6,74.83,74.83,0,0,0-1.58-13.41,154.36,154.36,0,0,0-8.21-26.16c-3.3-8.65-6.93-17.3-9.8-26.32a190.34,190.34,0,0,1-6.5-27.52A179.71,179.71,0,0,1,2362.62,1259.35Z"/><path class="cls-28" d="M2799.7,1582.59c-1.94,5.42-22.06,22.06-22.06,22.06l-3.51-7.57-3.47-7.5s-9.27-20.74-11.61-24.8-11.22-6.58-11.22-6.58c-.39,10.64-2.39,18.13-4.84,23.1-3.59,7.33-8.13,9.25-9.86,7.87-2.91-2.32-6.88-30.78-6.88-30.78,1.35-6.09,1.88-20.73,1.9-31.58,10.59-9.49,23.41-14.14,37-15,7,12.41,18.87,26.39,23,29.73,5.42,4.45,11.61,19,11.61,20.51S2801.63,1577.17,2799.7,1582.59Z"/><path class="cls-42" d="M2790.35,1550.09a11.42,11.42,0,0,1,.35,6.06,44.72,44.72,0,0,1-1.62,5.81c-.58,1.9-1.27,3.76-1.91,5.64s-1.4,3.72-2.14,5.57-1.56,3.67-2.42,5.47-1.78,3.59-2.79,5.32a54.61,54.61,0,0,1-7,9.74c1.73-3.61,3.43-7.15,5-10.75.76-1.81,1.59-3.58,2.31-5.41s1.53-3.62,2.25-5.45c1.52-3.63,3-7.3,4.62-10.92.8-1.83,1.68-3.57,2.33-5.38A13.69,13.69,0,0,0,2790.35,1550.09Z"/><path class="cls-42" d="M2798.08,1564.62a92.45,92.45,0,0,1-4.94,9.09c-1.78,2.94-3.63,5.83-5.59,8.65s-4,5.58-6.1,8.29-4.31,5.27-6.29,8.13a37.7,37.7,0,0,1,4.47-9.39q2.67-4.41,5.59-8.64t6.11-8.29A96,96,0,0,1,2798.08,1564.62Z"/><path class="cls-30" d="M2549,2374.18a185.93,185.93,0,0,1-72.48-12.83c1.66-18.37-3.4-35.18-3.4-35.18s70.36-6.44,72.5,12.84C2546.42,2345.77,2547.7,2359.37,2549,2374.18Z"/><path class="cls-43" d="M2784,2241.9c-7.92,11.7-16.64,22.67-25.26,33.83-6.24,8.09-8.55,18.26-16.27,25.37-7.1,6.56-10.17,7.14-20.56,4-7.5-2.23-15.35-6.08-20.89-11.7a13,13,0,0,1-3-4.12c-2.15-5.35,1.75-11.05,5.42-15.49-.88-.87-2.18,2-2.68.9a11.88,11.88,0,0,0-.81-1.49c-10.27-16.8-95.35-114.6-134.63-159.48-9.72-11.1-16.63-19-18.93-21.57-.47-.53-.73-.85-.8-.92.08.21.17.41.24.63,6.92,17.51,8.15,55.87,7.67,95.62-.63,51.11-4.07,104.54-1.92,118.93.23,1.59.48,3.13.73,4.61,3.8,22.55,8.7,33.11,8.7,33.11-12,26.58-98.59,0-98.59,0s-1.61-12.27-3.88-30.11c-3.73-29.09-9.22-73-12.41-102.77-5.15-48-80.59-440.25-83.08-548.7-1.89-82.69,4.38-107.22,7.48-114.21a7.3,7.3,0,0,1,1.6-2.66c13.43,21.31,47.47,23.83,65.34,8.42,25.45-21.94,54.37-25.31,87.59-20.73,15.24,2.1,30.86.57,46.15,2.72,16.05,2.26,26.69,11.12,40.85,18.72,11,5.9,36.79,15.53,51.17,10.44a377.49,377.49,0,0,1,2.58,41.13c1.42,108.11-31.52,256.65-43.92,314.22-15.44,71.6-9.44,72.88-9.44,72.88,27,19.72,146,188.19,146,188.19a141.26,141.26,0,0,1,7.36,12.39A137.31,137.31,0,0,1,2775,2216c-1.43-4.49,8.06-.57,8.39-.38C2795.5,2222.32,2789.67,2233.59,2784,2241.9Z"/><g class="cls-15"><path class="cls-8" d="M2545.91,2091.9c6.92,17.51,8.15,55.87,7.67,95.62a457.72,457.72,0,0,0-28.51-63.28c-19.25-35.29-48.55-54.17-58.13-94.08-14-58.45-8.07-119.79-6.66-179.21l5.22-221c3.87,64.52,10.64,126.63,22.23,189.52C2500.68,1889.7,2465.43,2049.82,2545.91,2091.9Z"/></g><path class="cls-8" d="M2545.66,2091.25a36.88,36.88,0,0,1-14.64-5.17,50.51,50.51,0,0,1-11.77-10.35,79.13,79.13,0,0,1-8.86-13,114.36,114.36,0,0,1-6.61-14.25,157,157,0,0,1-8.16-30.3,126.34,126.34,0,0,1-1.71-15.68l-.53-15.56c-.81-20.69-1.86-41.38-3.26-62s-2.86-41.34-4.53-62l-4.84-62-2.22-31c-.73-10.33-1.53-20.63-2.44-31-1.83-20.64-3.79-41.33-4.68-62.1s-.63-41.65,2.24-62.21a393.07,393.07,0,0,0,.54,62.05q1.17,15.46,2.9,30.91l3.4,30.92c.56,5.16,1.11,10.32,1.62,15.49s.94,10.37,1.37,15.53l2.62,31,5.14,62c1.56,20.69,3.06,41.39,4.22,62.12s2,41.48,2.33,62.25l.2,15.54a135,135,0,0,0,1.28,15.26,156.84,156.84,0,0,0,7.1,29.91c3.36,9.68,7.81,19.08,14.09,27.19a49,49,0,0,0,11,10.62A36.49,36.49,0,0,0,2545.66,2091.25Z"/><path class="cls-13" d="M2439.23,1113.9c-6,9.92-15.4,19.71-13.28,31.09.82,4.39,3.31,8.18,5.85,12-6.41-5.83-13-11.94-14.23-20.33-.59-4.15.28-8.35,1.15-12.45q3.92-18.59,7.84-37.17c-11.91,1.4-22.88,7.27-31.34,15.72a57.07,57.07,0,0,0-16.27,31.78,47,47,0,0,0-.51,7c0,.92,0,1.84.07,2.77-.56-1-1.07-2-1.51-3.07-2.42-5.63-2.95-11.08-3.52-16.8-.22-2.15-.44-4.35-.78-6.62-.15-1.09-.34-2.19-.57-3.32-3.16-15.84,3.12-32,11-46.17,4.27-7.7,9.21-15.71,9.27-24.44a59.21,59.21,0,0,1,6.83.46,67,67,0,0,0,11.29,16.12c10.17,10.34,22.24,11.84,34.68,8.22A58.31,58.31,0,0,1,2439.23,1113.9Z"/><path class="cls-13" d="M2427.14,1199.7c-3.42,4.22-7.62,7.6-12.82,8.8-7.23,1.67-14.86-1.26-22.17,0-22.64,4-17.46,30.34-.73,38a29.38,29.38,0,0,1-7.35,1.19c-9.52-10.1-20.47-23.28-18.1-36.72,2.8-15.9,23.59-23.81,37.53-17.37C2413.11,1198.06,2418.34,1202.36,2427.14,1199.7Z"/><path class="cls-13" d="M2462.39,892.49c-2.88.8-5.89-.36-8.64-1.51-10.47-4.37-21-8.78-30.4-15.12-5.59-3.77-14.35-10.79-18.41-18.32a14.72,14.72,0,0,0,3.23-.46,13.41,13.41,0,0,0,3.53-1.5,48.8,48.8,0,0,0,53.71,30C2467.34,887.88,2465.25,891.68,2462.39,892.49Z"/><path class="cls-13" d="M2492.32,888.24a90.68,90.68,0,0,1-49.63,43q-1.24-6.54-2-13.15c.89-4.26,2.55-8.18,5.67-11.16,6.45-6.15,14.52-10.32,22.67-14C2476.09,889.74,2484.75,889.7,2492.32,888.24Z"/><path class="cls-29" d="M2477,883.5c-10.09,5.84-21.49,9.59-31,16.45-3.91,2.82-10.36,6.93-11.28,12.14-.56,3.22,7.86,17,6.31,18.51,16.82-16.52,40.19-27.23,51.15-48.1C2485.89,882.47,2482.41,880.36,2477,883.5Z"/><path class="cls-13" d="M2520.28,1052.76c-4.49,17.89-27.51,27.85-37.45,42.57a82.35,82.35,0,0,0-5.83,10.11c2-14.89,16.76-24.57,23.38-37.1a24.45,24.45,0,0,0,2-19.63c-5.83-19-28-35.39-37.44-53.58-3.2-6.12-6.14-12.44-8.79-18.87,10,16.33,25.13,32.34,38.93,42.33,6.13,4.43,12.86,8.17,18.12,13.61S2522.12,1045.42,2520.28,1052.76Z"/><path class="cls-13" d="M2555.08,1201.06c-.32.06-.63.09-1,.12-17.64,1.19-25.27-21.65-29-35.28.32,2.52-1.25,5.06-3.52,6.59a108.5,108.5,0,0,1,0,15.51c-1.2-4.69-2.73-9.36-4.26-14-1.39-4.31-2.78-8.63-3.87-13q-.28-1.14-.54-2.28c-7.9-35.2,4.45-74.31,31.31-98.45a179.49,179.49,0,0,0-17.38,68.77c-.89,18.52,1.33,37.8,10.8,53.74A56.87,56.87,0,0,0,2555.08,1201.06Z"/><path class="cls-13" d="M2575.68,1191.18a49,49,0,0,0,14.89,5.24,16.44,16.44,0,0,1-2.26.61,88.8,88.8,0,0,1-20.46,1.25,7.32,7.32,0,0,1-1.94-.41c-11.33-10.93-17.75-27.14-15.66-42.84A50.94,50.94,0,0,0,2575.68,1191.18Z"/><path class="cls-13" d="M2579.81,1116.31c3.5-18,14.05-34.47,14.43-52.79q-.19,17-.33,33.94-.12,12.3-.18,24.61c0,3.83-.05,7.67-.06,11.51,0,1.19,0,2.42.07,3.64-3.8-3-6.38-7.08-6.2-11.62-2.68,5.33-5.38,10.75-7.54,16.33A65.94,65.94,0,0,1,2579.81,1116.31Z"/><path class="cls-13" d="M2611.19,1084.18c.46-.71.92-1.42,1.35-2.14,0,.41,0,.82,0,1.23C2612.09,1083.59,2611.64,1083.89,2611.19,1084.18Z"/><path class="cls-13" d="M2602.47,1028.48c5.07,10.27,4.48,22.23,1.89,33.55a266.76,266.76,0,0,0-14.1-38.63c-6-12.93-13.26-25.3-18-38.73-4.55-12.88-6.63-27.19-2.59-40.19-6.07,19.89,6.61,40.88,19.73,57.36,9.63,12.12,20.27,25.1,24.87,39.4C2611,1036.54,2606.67,1032.43,2602.47,1028.48Z"/><path class="cls-13" d="M2551.21,1084.55a78,78,0,0,0,.55-72.92c-12.19-22.93-36.27-40.54-39.1-66.36,1.11,11.86,8.35,18.77,16.78,27.18,11.09,11,18.09,21.46,27.28,34.19,14.93,20.68,10.1,48.27-.86,70C2553.17,1081.93,2553.88,1079.21,2551.21,1084.55Z"/><path class="cls-30" d="M2774.13,1597.08l-3.47-7.5s-9.27-20.74-11.61-24.8-11.22-6.58-11.22-6.58c-.39,10.64-2.39,18.13-4.84,23.1,1.23-11,3.27-21.91,3.27-32.87,0-4.51,19.65,8.35,21.23,11.29,5.19,9.74,3.91,23.39,6.88,34A4.22,4.22,0,0,1,2774.13,1597.08Z"/><g class="cls-44"><path class="cls-9" d="M2858.59,2356H2848.3c-2.14,32-9.43,75.64-9.43,75.64l-.76,1.91a275.3,275.3,0,0,0-29.25-120.09c9.14-24.46-5-56.88-5.34-57.65,7.58,5.73,24.51,17.83,38.64,29.25,11.81,9.56,21.66,18.64,22.44,23.12C2866.3,2318,2858.59,2356,2858.59,2356Z"/></g><g class="cls-44"><path class="cls-9" d="M2576.65,2501.92c-7.17,12.44-73,12-73,12l-6.88-10.28a117.71,117.71,0,0,1-12.25,4.94l-.09-1.53a211.39,211.39,0,0,0,57.4-93.54c22.12-13,19.26-5.9,19.26-5.9A354.5,354.5,0,0,1,2576,2462C2579.33,2480.1,2580.26,2495.66,2576.65,2501.92Z"/></g><g class="cls-15"><path class="cls-8" d="M2665.89,1606.42c-63.12-29.34-131.36-58.5-199.51-45.39-17,3.26-33.61,9.15-50.9,9.62s-36.26-5.94-44.53-21.13l-.34-1.14a7.3,7.3,0,0,1,1.6-2.66c13.43,21.31,47.47,23.83,65.34,8.42,25.45-21.94,54.37-25.31,87.59-20.73,15.24,2.1,30.86.57,46.15,2.72,16.05,2.26,26.69,11.12,40.85,18.72,11,5.9,36.79,15.53,51.17,10.44A377.49,377.49,0,0,1,2665.89,1606.42Z"/></g><g class="cls-15"><path class="cls-8" d="M2563,2098.53a115.2,115.2,0,0,1,2.38,15.23c-9.72-11.1-16.63-19-18.93-21.57A84.24,84.24,0,0,0,2563,2098.53Z"/></g><g class="cls-27"><path class="cls-8" d="M2561.09,2344.17c-12,26.58-98.59,0-98.59,0s-1.61-12.27-3.88-30.11c13.37.14,27,2.59,41.68,4,15.47,1.47,35.67-5.21,52.09-7C2556.19,2333.61,2561.09,2344.17,2561.09,2344.17Z"/></g><g class="cls-27"><path class="cls-8" d="M2784,2241.9c-7.92,11.7-16.64,22.67-25.26,33.83-6.24,8.09-8.55,18.26-16.27,25.37-7.1,6.56-10.17,7.14-20.56,4-7.5-2.23-15.35-6.08-20.89-11.7a13,13,0,0,1-3-4.12c-2.15-5.35,1.75-11.05,5.42-15.49-.88-.87-2.18,2-2.68.9a11.88,11.88,0,0,0-.81-1.49c.17-.16.32-.33.48-.5a1016.5,1016.5,0,0,0,65.34-78.64A137.31,137.31,0,0,1,2775,2216c-1.43-4.49,8.06-.57,8.39-.38C2795.5,2222.32,2789.67,2233.59,2784,2241.9Z"/></g><path class="cls-8" d="M2632.27,1598.76l-2.53,21.13-2.63,21.11-5.28,42.23q-5.4,42.21-11,84.4c-3.67,28.13-7.55,56.23-11.33,84.35l-11.65,84.31-3,21.06c-.48,3.5-1,7.06-1.44,10.46a37.53,37.53,0,0,0-.05,9.87,29.66,29.66,0,0,0,3.22,9.14,93.44,93.44,0,0,0,5.44,8.79l11.92,17.58q23.94,35.13,49.3,69.25,50.68,68.23,106.27,132.79c-4.81-5.21-9.66-10.39-14.43-15.65s-9.5-10.53-14.18-15.87c-9.43-10.6-18.68-21.37-27.88-32.18q-27.42-32.58-53.32-66.43c-4.32-5.64-8.58-11.31-12.86-17s-8.47-11.4-12.62-17.16-8.34-11.5-12.44-17.3-8.19-11.6-12.26-17.42-8-11.72-12.05-17.58a100.58,100.58,0,0,1-5.77-9.28,35.28,35.28,0,0,1-3.81-10.84,42.64,42.64,0,0,1,0-11.34c.42-3.65.95-7.1,1.43-10.62l2.92-21.08,12-84.26c4.08-28.08,8.08-56.16,12.27-84.22s8.35-56.12,12.62-84.17l6.53-42.06,3.27-21Z"/><path class="cls-45" d="M3222.36,2148.83a774.53,774.53,0,0,0-52.19-66.74C3116,2020.45,3049.05,1968,2973,1938.58c3.9-1.93,7.91-3.84,12-5.69a295.12,295.12,0,0,1,28.83-11.24,225.5,225.5,0,0,1,43.37-10,29.15,29.15,0,0,1,14.81,2.1c12.73,5.31,38.57,17.58,48.4,33.14C3127.37,1957.89,3176.12,2050.61,3222.36,2148.83Z"/><path class="cls-30" d="M2248,1328.86a57.4,57.4,0,0,1-25.92,39.54,76.58,76.58,0,0,0-5.12-7.78c-8.42-9.13-24.4-15-35.95-18.62a5.66,5.66,0,0,1-2.71-1.41c-7.67-8.75,42.43-40.08,46.4-35.8C2224.73,1304.79,2239.91,1321.16,2248,1328.86Z"/><path class="cls-46" d="M2111.75,1185.05l135.88-186.4s181,172.47,174.73,277l-211.58,38Z"/><path class="cls-26" d="M2111.75,1185.05c.77-1.33,33.15-22.29,41.16-18.29s89.92,141.75,89.92,141.75l-49.91,19.43Z"/><path class="cls-28" d="M2247.63,1321.63c-5.25,6.5-10.54,6.31-17.88,7.1-9.49,1-20.35,3.4-28.76,7.7-1.44.74,14.13,18.65,24.14,29.9-1,.73-2,1.41-3,2.07l-.76.48c-.64.41-1.3.79-2,1.15s-1.22.65-1.83,1c-1.68-2.6-3.22-5.44-5.69-7.29a61.36,61.36,0,0,0-21.13-10.63s-12.86-2.56-14.58-11.14c-.61-3.1-1.67-3.07-2.23-6.18a12.53,12.53,0,0,1-8.5-7.17,13.45,13.45,0,0,1,.78-11.43c-4-2.73-8.15-5.67-9.19-10.57-1.23-5.84,1.42-12.72,1.38-18.66,0,0-24.54-46-33.68-55.44s6.86-12,17.14,0l24.58,36,25.15-25.72s7.43,2.56,4,16.57-12.56,21.15-14.86,25.72c-.27.53,12.09-5.32,13.73-6.3,5.5-3.3,11-7.52,16.63-10.26,1.43-.69,2.42,7.39,2.31,8.24-.48,3.32-2.55,5.13-4.31,7.74-4.18,6.24-7.88,11.7-14.41,15.83-1.09,5.57-1.9,11.21-2.43,16.86.45.21,3.1.39,18.54-3.53C2222.94,1310.56,2237.13,1315.59,2247.63,1321.63Z"/><path class="cls-30" d="M2173.86,1306.22c0-4.8.22-10.06,1.93-14.61s5.31-8.09,7.85-12.14"/><path class="cls-29" d="M2458.67,1166.11a51.89,51.89,0,0,1-6.68-3,49.79,49.79,0,0,1-25.58-40.18c5.27-3.46,9.73-7.25,12-11.39a19,19,0,0,0,.86-1.76l1.84,1A189.14,189.14,0,0,1,2458.67,1166.11Z"/><path class="cls-23" d="M2392.49,1405c-.3,8.42-3.4,15.14-5.57,23-3.93,14.44-5.66,29.35-8.16,44.12-.39,2.33-.86,4.64-1.39,6.95-3.71,3.05-7.42,6.13-11.14,9.2a12.45,12.45,0,0,1-3.91,2.47c-7.42,2.41-8.92-.38-15.87-3.91-8-4.07-16-7.79-23.79-11.54,10.66-4.1,21.08-8.56,29.88-15.74,24.46-20,34.34-42.38,37.42-73.5C2389.4,1391.74,2392.7,1398.89,2392.49,1405Z"/><path class="cls-34" d="M2113.81,865.18l1.15,1.14a1,1,0,0,0,.48.31,1.06,1.06,0,0,0,.58.13,1.08,1.08,0,0,0,.58-.13,1.14,1.14,0,0,0,.48-.31l.23-.3a1.45,1.45,0,0,0,.21-.76l-.06-.4a1.57,1.57,0,0,0-.38-.66l-1.14-1.14a1.11,1.11,0,0,0-.49-.31,1.06,1.06,0,0,0-.58-.13,1,1,0,0,0-.57.13,1.11,1.11,0,0,0-.49.31l-.23.3a1.58,1.58,0,0,0-.21.76l.06.4a1.57,1.57,0,0,0,.38.66Z"/><path class="cls-32" d="M2684.62,1452.46a218.69,218.69,0,0,0-135.93-24c-16.29,2.44-32.25,6.73-48.5,9.43-36.15,6-73.09,4.1-109.69,2.14.62-5.91,1-11.55,1.11-17.19,33.78,5.23,69.23-.8,103.16-7.64,41.43-8.36,84.15-17.86,125.51-9.19,18.34,3.84,35.93,11.19,54.53,13.42l.35,0C2675.67,1430.72,2676.71,1448.14,2684.62,1452.46Z"/><g class="cls-35"><path class="cls-13" d="M2625.91,1430.88c10.9-44.28,6.41-96.27,1.94-140.68-1.91-18.86-4.69-37.89-2.21-56.69,2.9-22.08,12.89-42.53,22.73-62.51l1.43.75c-1.51,12-2.59,23.79-3,34.32-1.42,36.54-4.37,86.67,8.51,121.41,10.46,28.25,17,55.92,19.49,85.3.15,1.71.24,4,.36,6.69.51,11.25,1.55,28.67,9.46,33A215.63,215.63,0,0,0,2625.91,1430.88Z"/></g><g class="cls-35"><path class="cls-13" d="M2490,1427.43a42.84,42.84,0,0,1-1.39,12.11c-1,.13-2,.24-3,.35a395.41,395.41,0,0,1-51.53,1.94q-3.18,0-6.34-.14c-12.43-.35-24.86-1-37.26-1.67.62-5.91,1-11.55,1.11-17.19.13-5.82,0-11.62-.34-17.68-1.2-20.58-11.13-39.45-18-58.89a204.88,204.88,0,0,1-7.62-27.72c0-.89,0-1.77,0-2.67,8.46,19,20.52,36.79,38.15,47.52C2433.69,1381.56,2488.65,1379.87,2490,1427.43Z"/></g><path class="cls-23" d="M2631.46,1562.76a116.06,116.06,0,0,1-19.32-7.91c-14.16-7.6-24.8-16.46-40.85-18.72-15.29-2.15-30.91-.62-46.15-2.72-18.79-2.59-36.19-2.64-52.37,1.77a67.28,67.28,0,0,1,5.61-4.31c17.81-12.11,40.9-12.2,62.43-11.77,14.64.29,29.76.74,43.08,6.86,8.83,4.06,16.37,10.42,23.8,16.7Z"/><path class="cls-2" d="M1571.3,2222.44a101.4,101.4,0,0,1-51.77,88.47q-2.88,1.62-5.85,3.05a101.55,101.55,0,0,1-97.58-5.46c-2.75-1.71-5.41-3.57-8-5.54a101.46,101.46,0,1,1,163.19-80.52Z"/><path class="cls-19" d="M1441.22,2183.08c7.21-11.77,27.75-13.28,39.75-9.34,29.79,9.81,17.19,77.68-15.66,70.46-13.71-3-23.8-16.54-27-30-1.92-8-1.71-20.29,1.39-28A21.66,21.66,0,0,1,1441.22,2183.08Z"/><path class="cls-19" d="M1439.45,2204.61c.4-2.09-2.16-3.9-4.19-3.26s-3.14,3-3,5.11a10,10,0,0,0,2.84,5.59,22.84,22.84,0,0,0,10.26,6.58"/><path class="cls-19" d="M1492,2200.81c2.29-3.06,7.82-.92,8.76,2.79s-1.28,7.51-4,10.2-6,4.82-8.26,7.94"/><path class="cls-19" d="M1519.53,2310.91q-2.88,1.62-5.85,3.05a101.55,101.55,0,0,1-97.58-5.46c1.64-15.08,2.43-31.17,10.1-43.38,5.41-8.61,13.71-5.57,20.08-10.54s9.56-18.7,9.07-26.23l25.31-2.37c-6.12.57,5.11,19.38,6.58,21.31,6.73,8.81,18.57,6.34,24.77,16.83,2.82,4.77,3.82,10.36,4.63,15.84C1518.18,2290.27,1519,2300.59,1519.53,2310.91Z"/></g></svg>