<svg id="Illustration" xmlns="http://www.w3.org/2000/svg" xmlns:xlink="http://www.w3.org/1999/xlink" viewBox="0 0 1000 760">
  <defs>
    <linearGradient id="linear-gradient" x1="513.4808" y1="719.122" x2="513.4808" y2="549.2723" gradientUnits="userSpaceOnUse">
      <stop offset="0" stop-color="#fffde9"/>
      <stop offset="1" stop-color="#e8c9ba"/>
    </linearGradient>
    <linearGradient id="linear-gradient-2" x1="339.0476" y1="388.0937" x2="339.0476" y2="414.1672" gradientUnits="userSpaceOnUse">
      <stop offset="0" stop-color="#fdd076"/>
      <stop offset="1" stop-color="#dd9957"/>
    </linearGradient>
    <linearGradient id="linear-gradient-3" x1="339.0473" y1="375.9596" x2="339.0473" y2="400.2164" xlink:href="#linear-gradient-2"/>
    <linearGradient id="linear-gradient-4" x1="339.0476" y1="368.563" x2="339.0476" y2="394.6365" xlink:href="#linear-gradient-2"/>
    <linearGradient id="linear-gradient-5" x1="339.0473" y1="356.4289" x2="339.0473" y2="380.6857" xlink:href="#linear-gradient-2"/>
    <linearGradient id="linear-gradient-6" x1="339.0476" y1="349.0323" x2="339.0476" y2="375.1058" xlink:href="#linear-gradient-2"/>
    <linearGradient id="linear-gradient-7" x1="339.0473" y1="336.8983" x2="339.0473" y2="361.155" xlink:href="#linear-gradient-2"/>
    <linearGradient id="linear-gradient-8" x1="332.0723" y1="326.7115" x2="332.0723" y2="352.785" xlink:href="#linear-gradient-2"/>
    <linearGradient id="linear-gradient-9" x1="332.0721" y1="314.5775" x2="332.0721" y2="338.8342" xlink:href="#linear-gradient-2"/>
    <linearGradient id="linear-gradient-10" x1="339.0476" y1="305.7858" x2="339.0476" y2="331.8593" xlink:href="#linear-gradient-2"/>
    <linearGradient id="linear-gradient-11" x1="339.0473" y1="293.6517" x2="339.0473" y2="317.9085" xlink:href="#linear-gradient-2"/>
    <linearGradient id="linear-gradient-12" x1="347.4179" y1="286.2551" x2="347.4179" y2="312.3286" xlink:href="#linear-gradient-2"/>
    <linearGradient id="linear-gradient-13" x1="347.4176" y1="274.121" x2="347.4176" y2="298.3778" xlink:href="#linear-gradient-2"/>
    <linearGradient id="linear-gradient-14" x1="339.0476" y1="266.7244" x2="339.0476" y2="292.7979" xlink:href="#linear-gradient-2"/>
    <linearGradient id="linear-gradient-15" x1="339.0473" y1="254.5903" x2="339.0473" y2="278.8471" xlink:href="#linear-gradient-2"/>
    <linearGradient id="linear-gradient-16" x1="134.4247" y1="434.2277" x2="134.4247" y2="462.7674" xlink:href="#linear-gradient-2"/>
    <linearGradient id="linear-gradient-17" x1="134.4244" y1="420.9459" x2="134.4244" y2="447.4971" xlink:href="#linear-gradient-2"/>
    <linearGradient id="linear-gradient-18" x1="134.4247" y1="412.8496" x2="134.4247" y2="441.3894" xlink:href="#linear-gradient-2"/>
    <linearGradient id="linear-gradient-19" x1="134.4244" y1="399.5678" x2="134.4244" y2="426.119" xlink:href="#linear-gradient-2"/>
    <linearGradient id="linear-gradient-20" x1="128.2632" y1="393.9378" x2="128.2632" y2="420.0113" xlink:href="#linear-gradient-2"/>
    <linearGradient id="linear-gradient-21" x1="128.2629" y1="381.8037" x2="128.2629" y2="406.0605" xlink:href="#linear-gradient-2"/>
    <linearGradient id="linear-gradient-22" x1="122.8149" y1="368.563" x2="122.8149" y2="394.6365" xlink:href="#linear-gradient-2"/>
    <linearGradient id="linear-gradient-23" x1="122.8147" y1="356.4289" x2="122.8147" y2="380.6857" xlink:href="#linear-gradient-2"/>
    <linearGradient id="linear-gradient-24" x1="129.7902" y1="347.6373" x2="129.7902" y2="373.7107" xlink:href="#linear-gradient-2"/>
    <linearGradient id="linear-gradient-25" x1="129.7899" y1="335.5032" x2="129.7899" y2="359.76" xlink:href="#linear-gradient-2"/>
    <linearGradient id="linear-gradient-26" x1="138.1605" y1="328.1066" x2="138.1605" y2="354.1801" xlink:href="#linear-gradient-2"/>
    <linearGradient id="linear-gradient-27" x1="138.1602" y1="315.9725" x2="138.1602" y2="340.2293" xlink:href="#linear-gradient-2"/>
    <linearGradient id="linear-gradient-28" x1="129.7902" y1="308.5759" x2="129.7902" y2="334.6494" xlink:href="#linear-gradient-2"/>
    <linearGradient id="linear-gradient-29" x1="129.7899" y1="296.4418" x2="129.7899" y2="320.6986" xlink:href="#linear-gradient-2"/>
    <linearGradient id="linear-gradient-30" x1="213.4931" y1="360.4002" x2="213.4931" y2="386.4736" xlink:href="#linear-gradient-2"/>
    <linearGradient id="linear-gradient-31" x1="213.4929" y1="348.2661" x2="213.4929" y2="372.5229" xlink:href="#linear-gradient-2"/>
    <linearGradient id="linear-gradient-32" x1="213.4931" y1="340.8695" x2="213.4931" y2="366.943" xlink:href="#linear-gradient-2"/>
    <linearGradient id="linear-gradient-33" x1="213.4929" y1="328.7354" x2="213.4929" y2="352.9922" xlink:href="#linear-gradient-2"/>
    <linearGradient id="linear-gradient-34" x1="213.4931" y1="321.3388" x2="213.4931" y2="347.4123" xlink:href="#linear-gradient-2"/>
    <linearGradient id="linear-gradient-35" x1="213.4929" y1="309.2047" x2="213.4929" y2="333.4615" xlink:href="#linear-gradient-2"/>
    <linearGradient id="linear-gradient-36" x1="206.5179" y1="299.018" x2="206.5179" y2="325.0915" xlink:href="#linear-gradient-2"/>
    <linearGradient id="linear-gradient-37" x1="206.5176" y1="286.8839" x2="206.5176" y2="311.1407" xlink:href="#linear-gradient-2"/>
    <linearGradient id="linear-gradient-38" x1="213.4931" y1="278.0923" x2="213.4931" y2="304.1657" xlink:href="#linear-gradient-2"/>
    <linearGradient id="linear-gradient-39" x1="213.4929" y1="265.9582" x2="213.4929" y2="290.215" xlink:href="#linear-gradient-2"/>
    <linearGradient id="linear-gradient-40" x1="221.8634" y1="258.5616" x2="221.8634" y2="284.635" xlink:href="#linear-gradient-2"/>
    <linearGradient id="linear-gradient-41" x1="221.8632" y1="246.4275" x2="221.8632" y2="270.6843" xlink:href="#linear-gradient-2"/>
    <linearGradient id="linear-gradient-42" x1="208.9121" y1="239.0309" x2="208.9121" y2="265.1043" xlink:href="#linear-gradient-2"/>
    <linearGradient id="linear-gradient-43" x1="208.9119" y1="226.8968" x2="208.9119" y2="251.1536" xlink:href="#linear-gradient-2"/>
    <linearGradient id="linear-gradient-44" x1="287.3371" y1="337.7605" x2="287.3371" y2="376.0706" gradientUnits="userSpaceOnUse">
      <stop offset="0" stop-color="#533256"/>
      <stop offset="1" stop-color="#411844"/>
    </linearGradient>
    <linearGradient id="linear-gradient-45" x1="136.4404" y1="468.8296" x2="136.4404" y2="608.893" xlink:href="#linear-gradient-44"/>
    <linearGradient id="linear-gradient-46" x1="152.6731" y1="606.5704" x2="152.6731" y2="471.1522" xlink:href="#linear-gradient-44"/>
    <linearGradient id="linear-gradient-47" x1="300.0349" y1="510.4406" x2="470.3553" y2="510.4406" gradientUnits="userSpaceOnUse">
      <stop offset="0" stop-color="#c13647"/>
      <stop offset="1" stop-color="#a5283d"/>
    </linearGradient>
    <linearGradient id="linear-gradient-48" x1="373.5155" y1="467.3026" x2="373.5155" y2="638.5868" xlink:href="#linear-gradient-44"/>
    <linearGradient id="linear-gradient-49" x1="393.3666" y1="635.7465" x2="393.3666" y2="470.1429" xlink:href="#linear-gradient-44"/>
    <linearGradient id="linear-gradient-50" x1="394.8936" y1="499.4155" x2="394.8936" y2="608.7338" gradientUnits="userSpaceOnUse">
      <stop offset="0" stop-color="#dcebf9"/>
      <stop offset="1" stop-color="#bad9f8"/>
    </linearGradient>
    <linearGradient id="linear-gradient-51" x1="396.3257" y1="491.9984" x2="396.3257" y2="611.7498" xlink:href="#linear-gradient-44"/>
    <linearGradient id="linear-gradient-52" x1="411.9212" y1="491.9984" x2="411.9212" y2="611.7498" xlink:href="#linear-gradient-44"/>
    <linearGradient id="linear-gradient-53" x1="376.0257" y1="491.9984" x2="376.0257" y2="611.7498" xlink:href="#linear-gradient-44"/>
    <linearGradient id="linear-gradient-54" x1="421.0508" y1="491.9984" x2="421.0508" y2="611.7498" xlink:href="#linear-gradient-44"/>
    <linearGradient id="linear-gradient-55" x1="368.6863" y1="491.9984" x2="368.6863" y2="611.7498" xlink:href="#linear-gradient-44"/>
    <linearGradient id="linear-gradient-56" x1="396.9916" y1="491.9984" x2="396.9916" y2="611.7498" xlink:href="#linear-gradient-44"/>
    <linearGradient id="linear-gradient-57" x1="740.4446" y1="486.6094" x2="827.8707" y2="486.6094" xlink:href="#linear-gradient-47"/>
    <linearGradient id="linear-gradient-58" x1="762.1099" y1="458.1406" x2="762.1099" y2="573.8265" xlink:href="#linear-gradient-44"/>
    <linearGradient id="linear-gradient-59" x1="775.5173" y1="571.9081" x2="775.5173" y2="460.0589" xlink:href="#linear-gradient-44"/>
    <linearGradient id="linear-gradient-60" x1="776.5487" y1="479.8298" x2="776.5487" y2="553.6636" xlink:href="#linear-gradient-50"/>
    <linearGradient id="linear-gradient-61" x1="777.5132" y1="477.0399" x2="777.5132" y2="574.3415" xlink:href="#linear-gradient-44"/>
    <linearGradient id="linear-gradient-62" x1="788.0169" y1="477.0399" x2="788.0169" y2="574.3415" xlink:href="#linear-gradient-44"/>
    <linearGradient id="linear-gradient-63" x1="763.841" y1="477.0399" x2="763.841" y2="574.3415" xlink:href="#linear-gradient-44"/>
    <linearGradient id="linear-gradient-64" x1="794.1658" y1="477.0399" x2="794.1658" y2="574.3415" xlink:href="#linear-gradient-44"/>
    <linearGradient id="linear-gradient-65" x1="758.8978" y1="477.0399" x2="758.8978" y2="574.3415" xlink:href="#linear-gradient-44"/>
    <linearGradient id="linear-gradient-66" x1="777.9617" y1="477.0399" x2="777.9617" y2="574.3415" xlink:href="#linear-gradient-44"/>
    <linearGradient id="linear-gradient-67" x1="456.4729" y1="260.1491" x2="456.4729" y2="591.5991" gradientUnits="userSpaceOnUse">
      <stop offset="0" stop-color="#ff7479"/>
      <stop offset="1" stop-color="#e54e5a"/>
    </linearGradient>
    <linearGradient id="linear-gradient-68" x1="341.8037" y1="363.0606" x2="341.8037" y2="465.1953" xlink:href="#linear-gradient-50"/>
    <linearGradient id="linear-gradient-69" x1="212.9399" y1="354.4295" x2="212.9399" y2="439.2735" xlink:href="#linear-gradient-50"/>
    <linearGradient id="linear-gradient-70" x1="415.515" y1="267.6221" x2="415.515" y2="371.5831" xlink:href="#linear-gradient-50"/>
    <linearGradient id="linear-gradient-71" x1="433.3991" y1="340.0124" x2="431.4005" y2="392.3741" xlink:href="#linear-gradient-2"/>
    <linearGradient id="linear-gradient-72" x1="412.3335" y1="350.4934" x2="412.3335" y2="365.8644" gradientTransform="translate(-1.0965 1.4271) rotate(-0.1836)" xlink:href="#linear-gradient-67"/>
    <linearGradient id="linear-gradient-73" x1="422.2654" y1="349.8524" x2="422.2654" y2="366.5059" gradientTransform="translate(-1.0965 1.4271) rotate(-0.1836)" xlink:href="#linear-gradient-67"/>
    <linearGradient id="linear-gradient-74" x1="434.1206" y1="349.1825" x2="434.1206" y2="367.0875" gradientTransform="translate(-1.0965 1.4271) rotate(-0.1836)" xlink:href="#linear-gradient-67"/>
    <linearGradient id="linear-gradient-75" x1="446.5883" y1="348.3737" x2="446.5883" y2="367.7706" gradientTransform="translate(-1.0965 1.4271) rotate(-0.1836)" xlink:href="#linear-gradient-67"/>
    <linearGradient id="linear-gradient-76" x1="644.5687" y1="267.486" x2="644.5687" y2="371.5831" xlink:href="#linear-gradient-50"/>
    <linearGradient id="linear-gradient-77" x1="136.0403" y1="524.9069" x2="136.0403" y2="575.6824" xlink:href="#linear-gradient-44"/>
    <linearGradient id="linear-gradient-78" x1="523.5436" y1="348.5473" x2="523.5436" y2="385.1055" xlink:href="#linear-gradient-44"/>
    <linearGradient id="linear-gradient-79" x1="257.2657" y1="428.9687" x2="257.2657" y2="472.7995" xlink:href="#linear-gradient-44"/>
    <linearGradient id="linear-gradient-80" x1="257.2657" y1="434.472" x2="257.2657" y2="467.2962" xlink:href="#linear-gradient-2"/>
    <linearGradient id="linear-gradient-81" x1="58.5762" y1="434.472" x2="58.5762" y2="465.1953" xlink:href="#linear-gradient-44"/>
    <linearGradient id="linear-gradient-82" x1="53.8267" y1="441.8627" x2="53.8267" y2="458.0337" xlink:href="#linear-gradient-2"/>
    <linearGradient id="linear-gradient-83" x1="95.8323" y1="434.472" x2="95.8323" y2="473.3425" xlink:href="#linear-gradient-50"/>
    <linearGradient id="linear-gradient-84" x1="95.8323" y1="439.2506" x2="95.8323" y2="468.5639" xlink:href="#linear-gradient-44"/>
    <linearGradient id="linear-gradient-85" x1="140.8881" y1="434.472" x2="140.8881" y2="475.8432" xlink:href="#linear-gradient-50"/>
    <linearGradient id="linear-gradient-86" x1="140.8881" y1="438.1481" x2="140.8881" y2="472.1671" xlink:href="#linear-gradient-44"/>
    <linearGradient id="linear-gradient-87" x1="242.0938" y1="556.278" x2="280.9026" y2="556.278" xlink:href="#linear-gradient-44"/>
    <linearGradient id="linear-gradient-88" x1="258.4442" y1="544.6159" x2="258.4442" y2="567.9401" xlink:href="#linear-gradient-2"/>
    <linearGradient id="linear-gradient-89" x1="38.7731" y1="539.6368" x2="48.7903" y2="539.6368" xlink:href="#linear-gradient-44"/>
    <linearGradient id="linear-gradient-90" x1="627.6866" y1="408.0858" x2="645.1312" y2="408.0858" xlink:href="#linear-gradient-44"/>
    <linearGradient id="linear-gradient-91" x1="927.6982" y1="230.6721" x2="927.6982" y2="382.1317" gradientTransform="translate(19.1006 -37.2874) rotate(2.9138)" gradientUnits="userSpaceOnUse">
      <stop offset="0" stop-color="#5684e1"/>
      <stop offset="1" stop-color="#3f6fbc"/>
    </linearGradient>
    <linearGradient id="linear-gradient-92" x1="912.6906" y1="269.0105" x2="912.6906" y2="385.371" gradientTransform="translate(19.1006 -37.2874) rotate(2.9138)" xlink:href="#linear-gradient-2"/>
    <linearGradient id="linear-gradient-93" x1="865.8981" y1="223.5031" x2="865.8981" y2="379.9539" xlink:href="#linear-gradient-91"/>
    <linearGradient id="linear-gradient-94" x1="878.8493" y1="492.3707" x2="878.8493" y2="579.0605" xlink:href="#linear-gradient-44"/>
    <linearGradient id="linear-gradient-95" x1="596.7842" y1="596.2306" x2="596.7842" y2="617.9138" gradientUnits="userSpaceOnUse">
      <stop offset="0" stop-color="#fff"/>
      <stop offset="1" stop-color="#f3faff"/>
    </linearGradient>
    <linearGradient id="linear-gradient-96" x1="510.646" y1="596.2306" x2="510.646" y2="617.9138" xlink:href="#linear-gradient-95"/>
    <linearGradient id="linear-gradient-97" x1="554.4167" y1="612.229" x2="554.4167" y2="334.3908" xlink:href="#linear-gradient-44"/>
    <linearGradient id="linear-gradient-98" x1="629.1285" y1="269.4142" x2="661.0921" y2="269.4142" gradientUnits="userSpaceOnUse">
      <stop offset="0" stop-color="#f1baa6"/>
      <stop offset="1" stop-color="#ff8e86"/>
    </linearGradient>
    <linearGradient id="linear-gradient-99" x1="661.1868" y1="259.6552" x2="661.1868" y2="270.8733" xlink:href="#linear-gradient-44"/>
    <linearGradient id="linear-gradient-100" x1="654.3523" y1="254.465" x2="654.3523" y2="295.3248" xlink:href="#linear-gradient-2"/>
    <linearGradient id="linear-gradient-101" x1="629.1234" y1="268.386" x2="655.88" y2="268.386" xlink:href="#linear-gradient-98"/>
    <linearGradient id="linear-gradient-102" x1="623.6531" y1="243.3021" x2="623.6531" y2="337.8088" xlink:href="#linear-gradient-44"/>
    <linearGradient id="linear-gradient-103" x1="499.7453" y1="313.0599" x2="603.9481" y2="313.0599" xlink:href="#linear-gradient-44"/>
    <linearGradient id="linear-gradient-104" x1="563.6506" y1="234.7093" x2="563.6506" y2="334.3921" xlink:href="#linear-gradient-95"/>
    <linearGradient id="linear-gradient-105" x1="567.2637" y1="252.0057" x2="567.2637" y2="328.4673" xlink:href="#linear-gradient-67"/>
    <linearGradient id="linear-gradient-106" x1="556.3935" y1="256.3967" x2="556.3935" y2="351.9334" xlink:href="#linear-gradient-44"/>
    <linearGradient id="linear-gradient-107" x1="567.9922" y1="243.2902" x2="567.9922" y2="256.0169" xlink:href="#linear-gradient-67"/>
    <linearGradient id="linear-gradient-108" x1="575.5954" y1="236.4112" x2="575.5954" y2="252.0442" xlink:href="#linear-gradient-95"/>
    <linearGradient id="linear-gradient-109" x1="558.9129" y1="234.7136" x2="558.9129" y2="252.0442" xlink:href="#linear-gradient-95"/>
    <linearGradient id="linear-gradient-110" x1="652.2349" y1="257.1785" x2="653.0261" y2="257.1785" xlink:href="#linear-gradient"/>
    <linearGradient id="linear-gradient-111" x1="564.0975" y1="213.8984" x2="564.0975" y2="243.3021" xlink:href="#linear-gradient-98"/>
    <linearGradient id="linear-gradient-112" x1="564.5569" y1="175.2333" x2="564.5569" y2="224.1387" xlink:href="#linear-gradient-98"/>
    <linearGradient id="linear-gradient-113" x1="629.1234" y1="307.278" x2="629.1234" y2="341.9483" gradientUnits="userSpaceOnUse">
      <stop offset="0" stop-color="#eda688"/>
      <stop offset="1" stop-color="#d38371"/>
    </linearGradient>
    <linearGradient id="linear-gradient-114" x1="624.2985" y1="301.6525" x2="624.2985" y2="340.6837" xlink:href="#linear-gradient-98"/>
    <linearGradient id="linear-gradient-115" x1="634.0644" y1="299.6892" x2="634.0644" y2="328.475" xlink:href="#linear-gradient-98"/>
    <linearGradient id="linear-gradient-116" x1="634.0669" y1="299.6833" x2="634.0669" y2="328.4673" xlink:href="#linear-gradient-113"/>
    <linearGradient id="linear-gradient-117" x1="711.4224" y1="614.4213" x2="735.5643" y2="614.4213" gradientTransform="matrix(0.997, -0.0772, 0.0772, 0.997, -38.9556, 50.4754)" xlink:href="#linear-gradient-113"/>
    <linearGradient id="linear-gradient-118" x1="802.5505" y1="608.3457" x2="826.6924" y2="608.3457" xlink:href="#linear-gradient-113"/>
    <linearGradient id="linear-gradient-119" x1="763.8142" y1="334.2852" x2="763.8142" y2="597.4493" gradientUnits="userSpaceOnUse">
      <stop offset="0" stop-color="#764fb1"/>
      <stop offset="1" stop-color="#563793"/>
    </linearGradient>
    <linearGradient id="linear-gradient-120" x1="744.6846" y1="228.7234" x2="744.6846" y2="386.9211" gradientTransform="matrix(1, 0, 0, 1, 0, 0)" xlink:href="#linear-gradient-91"/>
    <linearGradient id="linear-gradient-121" x1="750.1131" y1="232.9838" x2="750.1131" y2="383.6533" xlink:href="#linear-gradient-44"/>
    <linearGradient id="linear-gradient-122" x1="850.4986" y1="431.1511" x2="850.4986" y2="498.3306" gradientTransform="matrix(1, 0, 0, 1, 0, 0)" xlink:href="#linear-gradient-91"/>
    <linearGradient id="linear-gradient-123" x1="845.8113" y1="431.1511" x2="845.8113" y2="468.8097" xlink:href="#linear-gradient-44"/>
    <linearGradient id="linear-gradient-124" x1="847.144" y1="467.2827" x2="855.2832" y2="467.2827" xlink:href="#linear-gradient-44"/>
    <linearGradient id="linear-gradient-125" x1="845.4118" y1="407.6894" x2="845.4118" y2="441.7977" xlink:href="#linear-gradient-44"/>
    <linearGradient id="linear-gradient-126" x1="854.9495" y1="433.6386" x2="854.9495" y2="437.7025" xlink:href="#linear-gradient-44"/>
    <linearGradient id="linear-gradient-127" x1="841.3692" y1="380.752" x2="841.3692" y2="434.8216" xlink:href="#linear-gradient-113"/>
    <linearGradient id="linear-gradient-128" x1="823.3788" y1="378.8509" x2="843.7948" y2="378.8509" xlink:href="#linear-gradient-44"/>
    <linearGradient id="linear-gradient-129" x1="645.5743" y1="328.475" x2="663.5166" y2="328.475" xlink:href="#linear-gradient-44"/>
    <linearGradient id="linear-gradient-130" x1="742.3706" y1="210.5182" x2="742.3706" y2="243.2779" xlink:href="#linear-gradient-113"/>
    <linearGradient id="linear-gradient-131" x1="743.5259" y1="175.8938" x2="743.5259" y2="224.5503" xlink:href="#linear-gradient-113"/>
    <linearGradient id="linear-gradient-132" x1="749.2766" y1="228.7303" x2="749.2766" y2="251.5418" gradientTransform="matrix(1, 0, 0, 1, 0, 0)" xlink:href="#linear-gradient-91"/>
    <linearGradient id="linear-gradient-133" x1="734.7856" y1="230.1353" x2="734.7856" y2="251.5418" gradientTransform="matrix(1, 0, 0, 1, 0, 0)" xlink:href="#linear-gradient-91"/>
  </defs>
  <g id="Background">
    <path id="Background-2" data-name="Background" d="M953.6628,549.2723l-880.3667.0033c-40.78-109.0814,45.1529-291.3583,226.7388-366.1823C429.9154,129.5749,461.6866,55.0427,597.734,51.0367,775.44,45.8041,839.3513,199.2828,859.1093,279.9855c10.259,41.9032,36.96,115.1035,52.2132,131.1557C946.3248,454.5514,962.6191,499.0627,953.6628,549.2723Z" fill="#e6e8ff"/>
    <path id="Ground" d="M953.6628,549.2723C914.77,660.9282,740.4466,719.122,542.7114,719.122c-227.0251,0-437.2069-42.0571-469.4126-169.85Z" fill="url(#linear-gradient)"/>
    <g id="Windows">
      <g>
        <g>
          <path d="M745.7382,94.1247V205.04a3.0435,3.0435,0,0,1-3.054,3.054H640.7108a3.0434,3.0434,0,0,1-3.054-3.054V52.6434C688.0321,57.8355,722.5321,77.7141,745.7382,94.1247Z" fill="#f0f0ff"/>
          <g>
            <polygon points="726.721 81.789 653.049 208.094 651.614 208.094 707.679 71.774 726.721 81.789" fill="#fff"/>
            <polygon points="684.64 62.625 661.184 129.568 695.242 66.451 684.64 62.625" fill="#fff"/>
          </g>
        </g>
        <g>
          <path d="M615.9428,54.0951V205.04a3.0435,3.0435,0,0,1-3.0541,3.054H510.9154a3.0434,3.0434,0,0,1-3.054-3.054V67.3462c25.7969-10.4416,76.9446-17.9988,104.9651-16.3717A3.1747,3.1747,0,0,1,615.9428,54.0951Z" fill="#f0f0ff"/>
          <g>
            <path d="M521.8128,208.1h1.4465L614.567,51.5383a3.0352,3.0352,0,0,0-1.6708-.5016l-26.7.5224Z" fill="#fff"/>
            <polygon points="557.659 54.593 531.389 129.568 572.897 52.643 557.659 54.593" fill="#fff"/>
          </g>
        </g>
        <g>
          <path d="M834.3174,208.0935H770.5062a3.0434,3.0434,0,0,1-3.054-3.054v-92.948C793.0107,135.8712,818.8583,171.3569,834.3174,208.0935Z" fill="#f0f0ff"/>
          <polygon points="809.42 162.528 782.844 208.094 781.409 208.094 803.658 154.008 809.42 162.528" fill="#fff"/>
        </g>
        <g>
          <path d="M356.3519,155.784V205.04a3.0434,3.0434,0,0,1-3.054,3.054H249.3074C265.6163,196.4311,333.0107,169.6046,356.3519,155.784Z" fill="#f0f0ff"/>
          <path d="M323.3734,172.195l-34.3012,35.8985h-1.4354l17.8683-27.76C307.0168,179.5548,321.8311,172.928,323.3734,172.195Z" fill="#fff"/>
        </g>
        <g>
          <path d="M486.1473,76.4661V205.04a3.054,3.054,0,0,1-3.054,3.054H381.12a3.054,3.054,0,0,1-3.054-3.054v-62.028C418.275,119.7712,443.0821,96.6069,486.1473,76.4661Z" fill="#f0f0ff"/>
          <path d="M457.72,91.6709,393.4581,208.0935h-1.4354L432.1067,107.8C438.0467,105.54,452.5743,93.885,457.72,91.6709Z" fill="#fff"/>
        </g>
      </g>
      <g>
        <g>
          <rect x="646.8526" y="234.2773" width="108.093" height="157.0634" rx="2" fill="#f0f0ff"/>
          <g>
            <path d="M660.8083,391.3407h1.4464l91.3077-156.5618a3.0352,3.0352,0,0,0-1.6708-.5016h-26.485Z" fill="#fff"/>
            <polygon points="697.901 234.277 670.384 312.809 712.76 234.277 697.901 234.277" fill="#fff"/>
          </g>
        </g>
        <g>
          <rect x="517.0572" y="234.2773" width="108.093" height="157.0634" rx="2" fill="#f0f0ff"/>
          <g>
            <path d="M531.0128,391.3407h1.4465L623.767,234.7789a3.0352,3.0352,0,0,0-1.6708-.5016h-26.485Z" fill="#fff"/>
            <polygon points="568.105 234.277 540.589 312.809 582.964 234.277 568.105 234.277" fill="#fff"/>
          </g>
        </g>
        <g>
          <path d="M897.0583,388.28a3.0434,3.0434,0,0,1-3.054,3.054H779.7062a3.0434,3.0434,0,0,1-3.054-3.054V237.3357a3.0434,3.0434,0,0,1,3.054-3.054H845.092C858.725,271.9,876.6869,354.9188,897.0583,388.28Z" fill="#f0f0ff"/>
          <g>
            <path d="M856.9879,279.9849V280L792.0444,391.3341H790.609l58.4538-142.1336Q853.0711,265.6234,856.9879,279.9849Z" fill="#fff"/>
            <polygon points="827.696 234.277 800.179 312.809 842.555 234.277 827.696 234.277" fill="#fff"/>
          </g>
        </g>
        <g>
          <rect x="257.4664" y="234.2773" width="108.093" height="157.0634" rx="2" fill="#f0f0ff"/>
          <g>
            <path d="M271.422,391.3407h1.4465l91.3077-156.5618a3.0357,3.0357,0,0,0-1.6708-.5016H336.02Z" fill="#fff"/>
            <polygon points="308.514 234.277 280.998 312.809 323.373 234.277 308.514 234.277" fill="#fff"/>
          </g>
        </g>
        <g>
          <path d="M235.7565,237.3357V388.28a3.0434,3.0434,0,0,1-3.054,3.054H88.9917a3.0433,3.0433,0,0,1-3.054-3.054C104.325,339.5855,165.85,261.3855,209.6869,234.2817h23.0156A3.0238,3.0238,0,0,1,235.7565,237.3357Z" fill="#f0f0ff"/>
          <g>
            <path d="M234.3823,234.7856l-91.315,156.5485h-1.4354l62.4065-152.8494,5.6485-4.203h23.0156a2.86,2.86,0,0,1,.5192.0458,2.0119,2.0119,0,0,1,.4581.1221.6769.6769,0,0,1,.2443.0916A3.3608,3.3608,0,0,1,234.3823,234.7856Z" fill="#fff"/>
            <path d="M180.9508,256.7637l-29.7445,56.0518,14.32-40.8877S176.0186,260.7339,180.9508,256.7637Z" fill="#fff"/>
          </g>
        </g>
        <g>
          <rect x="387.2618" y="234.2773" width="108.093" height="157.0634" rx="2" fill="#f0f0ff"/>
          <g>
            <path d="M401.2174,391.3407h1.4465l91.3077-156.5618a3.0354,3.0354,0,0,0-1.6708-.5016h-26.485Z" fill="#fff"/>
            <polygon points="438.31 234.277 410.793 312.809 453.169 234.277 438.31 234.277" fill="#fff"/>
          </g>
        </g>
      </g>
    </g>
  </g>
  <g id="Coins">
    <g>
      <g>
        <path d="M397.2072,388.0937v13.95c0,6.6962-26.0316,12.123-58.16,12.123s-58.16-5.4268-58.16-12.123v-13.95Z" fill="url(#linear-gradient-2)"/>
        <ellipse cx="339.0473" cy="388.088" rx="58.165" ry="12.1284" fill="url(#linear-gradient-3)"/>
        <path d="M339.0472,399.5474c-25.3581,0-52.3089-4.0162-52.3089-11.4594s26.9508-11.4594,52.3089-11.4594,52.3089,4.0162,52.3089,11.4594S364.4054,399.5474,339.0472,399.5474Zm0-21.5238c-30.0044,0-50.9138,5.3043-50.9138,10.0644s20.9094,10.0644,50.9138,10.0644,50.9139-5.3043,50.9139-10.0644S369.0517,378.0236,339.0472,378.0236Z" fill="#fdd076"/>
      </g>
      <g>
        <path d="M397.2072,368.563v13.9505c0,6.6962-26.0316,12.123-58.16,12.123s-58.16-5.4268-58.16-12.123V368.563Z" fill="url(#linear-gradient-4)"/>
        <ellipse cx="339.0473" cy="368.5573" rx="58.165" ry="12.1284" fill="url(#linear-gradient-5)"/>
        <path d="M339.0472,380.0167c-25.3581,0-52.3089-4.0162-52.3089-11.4594s26.9508-11.4594,52.3089-11.4594,52.3089,4.0162,52.3089,11.4594S364.4054,380.0167,339.0472,380.0167Zm0-21.5238c-30.0044,0-50.9138,5.3043-50.9138,10.0644s20.9094,10.0644,50.9138,10.0644,50.9139-5.3043,50.9139-10.0644S369.0517,358.4929,339.0472,358.4929Z" fill="#fdd076"/>
      </g>
      <g>
        <path d="M397.2072,349.0323v13.95c0,6.6962-26.0316,12.123-58.16,12.123s-58.16-5.4268-58.16-12.123v-13.95Z" fill="url(#linear-gradient-6)"/>
        <ellipse cx="339.0473" cy="349.0266" rx="58.165" ry="12.1284" fill="url(#linear-gradient-7)"/>
        <path d="M339.0472,360.486c-25.3581,0-52.3089-4.0162-52.3089-11.4594s26.9508-11.4594,52.3089-11.4594,52.3089,4.0162,52.3089,11.4594S364.4054,360.486,339.0472,360.486Zm0-21.5238c-30.0044,0-50.9138,5.3044-50.9138,10.0644s20.9094,10.0644,50.9138,10.0644,50.9139-5.3043,50.9139-10.0644S369.0517,338.9622,339.0472,338.9622Z" fill="#fdd076"/>
      </g>
      <g>
        <path d="M390.2319,326.7115v13.95c0,6.6962-26.0315,12.123-58.16,12.123s-58.16-5.4268-58.16-12.123v-13.95Z" fill="url(#linear-gradient-8)"/>
        <ellipse cx="332.0721" cy="326.7059" rx="58.165" ry="12.1284" fill="url(#linear-gradient-9)"/>
        <path d="M332.072,338.1653c-25.3582,0-52.3089-4.0163-52.3089-11.4595s26.9507-11.4594,52.3089-11.4594,52.3089,4.0162,52.3089,11.4594S357.43,338.1653,332.072,338.1653Zm0-21.5239c-30.0045,0-50.9139,5.3044-50.9139,10.0644S302.0675,336.77,332.072,336.77s50.9138-5.3043,50.9138-10.0644S362.0765,316.6414,332.072,316.6414Z" fill="#fdd076"/>
      </g>
      <g>
        <path d="M397.2072,305.7858v13.9505c0,6.6962-26.0316,12.123-58.16,12.123s-58.16-5.4268-58.16-12.123V305.7858Z" fill="url(#linear-gradient-10)"/>
        <ellipse cx="339.0473" cy="305.7801" rx="58.165" ry="12.1284" fill="url(#linear-gradient-11)"/>
        <path d="M339.0472,317.24c-25.3581,0-52.3089-4.0162-52.3089-11.4594s26.9508-11.4594,52.3089-11.4594,52.3089,4.0162,52.3089,11.4594S364.4054,317.24,339.0472,317.24Zm0-21.5238c-30.0044,0-50.9138,5.3043-50.9138,10.0644s20.9094,10.0644,50.9138,10.0644,50.9139-5.3044,50.9139-10.0644S369.0517,295.7157,339.0472,295.7157Z" fill="#fdd076"/>
      </g>
      <g>
        <path d="M405.5775,286.2551v13.95c0,6.6962-26.0316,12.123-58.16,12.123s-58.16-5.4268-58.16-12.123v-13.95Z" fill="url(#linear-gradient-12)"/>
        <ellipse cx="347.4176" cy="286.2494" rx="58.165" ry="12.1284" fill="url(#linear-gradient-13)"/>
        <path d="M347.4175,297.7088c-25.3581,0-52.3089-4.0162-52.3089-11.4594S322.0594,274.79,347.4175,274.79s52.3089,4.0162,52.3089,11.4594S372.7757,297.7088,347.4175,297.7088Zm0-21.5238c-30.0044,0-50.9138,5.3043-50.9138,10.0644s20.9094,10.0644,50.9138,10.0644,50.9139-5.3043,50.9139-10.0644S377.422,276.185,347.4175,276.185Z" fill="#fdd076"/>
      </g>
      <g>
        <path d="M397.2072,266.7244v13.95c0,6.6962-26.0316,12.123-58.16,12.123s-58.16-5.4268-58.16-12.123v-13.95Z" fill="url(#linear-gradient-14)"/>
        <ellipse cx="339.0473" cy="266.7187" rx="58.165" ry="12.1284" fill="url(#linear-gradient-15)"/>
        <path d="M339.0472,278.1781c-25.3581,0-52.3089-4.0162-52.3089-11.4594s26.9508-11.4594,52.3089-11.4594,52.3089,4.0162,52.3089,11.4594S364.4054,278.1781,339.0472,278.1781Zm0-21.5238c-30.0044,0-50.9138,5.3043-50.9138,10.0644s20.9094,10.0644,50.9138,10.0644,50.9139-5.3043,50.9139-10.0644S369.0517,256.6543,339.0472,256.6543Z" fill="#fdd076"/>
      </g>
    </g>
    <g>
      <g>
        <path d="M198.0856,434.2277v15.27c0,7.33-28.4939,13.27-63.6609,13.27s-63.6608-5.94-63.6608-13.27v-15.27Z" fill="url(#linear-gradient-16)"/>
        <ellipse cx="134.4244" cy="434.2215" rx="63.6668" ry="13.2756" fill="url(#linear-gradient-17)"/>
        <path d="M134.4243,446.7648c-27.7567,0-57.2567-4.3961-57.2567-12.5433s29.5-12.5434,57.2567-12.5434,57.2568,4.3961,57.2568,12.5434S162.1811,446.7648,134.4243,446.7648Zm0-23.56c-32.8425,0-55.73,5.806-55.73,11.0164s22.8872,11.0163,55.73,11.0163,55.73-5.806,55.73-11.0163S167.2669,423.2051,134.4243,423.2051Z" fill="#fdd076"/>
      </g>
      <g>
        <path d="M198.0856,412.85v15.27c0,7.33-28.4939,13.27-63.6609,13.27s-63.6608-5.94-63.6608-13.27V412.85Z" fill="url(#linear-gradient-18)"/>
        <ellipse cx="134.4244" cy="412.8434" rx="63.6668" ry="13.2756" fill="url(#linear-gradient-19)"/>
        <path d="M134.4243,425.3867c-27.7567,0-57.2567-4.3961-57.2567-12.5433s29.5-12.5434,57.2567-12.5434,57.2568,4.3961,57.2568,12.5434S162.1811,425.3867,134.4243,425.3867Zm0-23.56c-32.8425,0-55.73,5.8061-55.73,11.0164s22.8872,11.0163,55.73,11.0163,55.73-5.806,55.73-11.0163S167.2669,401.827,134.4243,401.827Z" fill="#fdd076"/>
      </g>
      <g>
        <path d="M186.4228,393.9378v13.9505c0,6.6962-26.0316,12.123-58.16,12.123s-58.16-5.4268-58.16-12.123V393.9378Z" fill="url(#linear-gradient-20)"/>
        <ellipse cx="128.2629" cy="393.9321" rx="58.165" ry="12.1284" fill="url(#linear-gradient-21)"/>
        <path d="M128.2628,405.3915c-25.3581,0-52.3089-4.0162-52.3089-11.4594s26.9508-11.4594,52.3089-11.4594,52.3089,4.0162,52.3089,11.4594S153.621,405.3915,128.2628,405.3915Zm0-21.5238c-30.0044,0-50.9138,5.3043-50.9138,10.0644s20.9094,10.0644,50.9138,10.0644,50.9139-5.3043,50.9139-10.0644S158.2673,383.8677,128.2628,383.8677Z" fill="#fdd076"/>
      </g>
      <g>
        <path d="M180.9745,368.563v13.9505c0,6.6962-26.0315,12.123-58.16,12.123s-58.16-5.4268-58.16-12.123V368.563Z" fill="url(#linear-gradient-22)"/>
        <ellipse cx="122.8147" cy="368.5573" rx="58.165" ry="12.1284" fill="url(#linear-gradient-23)"/>
        <path d="M122.8146,380.0167c-25.3582,0-52.3089-4.0162-52.3089-11.4594s26.9507-11.4594,52.3089-11.4594,52.3089,4.0162,52.3089,11.4594S148.1728,380.0167,122.8146,380.0167Zm0-21.5238c-30.0045,0-50.9139,5.3043-50.9139,10.0644s20.9094,10.0644,50.9139,10.0644,50.9138-5.3043,50.9138-10.0644S152.8191,358.4929,122.8146,358.4929Z" fill="#fdd076"/>
      </g>
      <g>
        <path d="M187.95,347.6373v13.9505c0,6.6962-26.0316,12.1229-58.16,12.1229s-58.16-5.4267-58.16-12.1229V347.6373Z" fill="url(#linear-gradient-24)"/>
        <ellipse cx="129.7899" cy="347.6316" rx="58.165" ry="12.1284" fill="url(#linear-gradient-25)"/>
        <path d="M129.79,359.091c-25.3581,0-52.3089-4.0162-52.3089-11.4594s26.9508-11.4595,52.3089-11.4595,52.3089,4.0163,52.3089,11.4595S155.148,359.091,129.79,359.091Zm0-21.5238c-30.0044,0-50.9138,5.3043-50.9138,10.0644S99.7854,357.696,129.79,357.696s50.9139-5.3044,50.9139-10.0644S159.7943,337.5672,129.79,337.5672Z" fill="#fdd076"/>
      </g>
      <g>
        <path d="M196.32,328.1066v13.95c0,6.6962-26.0316,12.123-58.16,12.123s-58.16-5.4268-58.16-12.123v-13.95Z" fill="url(#linear-gradient-26)"/>
        <ellipse cx="138.1602" cy="328.1009" rx="58.165" ry="12.1284" fill="url(#linear-gradient-27)"/>
        <path d="M138.16,339.56c-25.3581,0-52.3089-4.0162-52.3089-11.4594s26.9508-11.46,52.3089-11.46,52.3089,4.0163,52.3089,11.46S163.5183,339.56,138.16,339.56Zm0-21.5238c-30.0044,0-50.9138,5.3043-50.9138,10.0644s20.9094,10.0644,50.9138,10.0644,50.9139-5.3044,50.9139-10.0644S168.1646,318.0365,138.16,318.0365Z" fill="#fdd076"/>
      </g>
      <g>
        <path d="M187.95,308.5759v13.9505c0,6.6962-26.0316,12.123-58.16,12.123s-58.16-5.4268-58.16-12.123V308.5759Z" fill="url(#linear-gradient-28)"/>
        <ellipse cx="129.7899" cy="308.5702" rx="58.165" ry="12.1284" fill="url(#linear-gradient-29)"/>
        <path d="M129.79,320.03c-25.3581,0-52.3089-4.0162-52.3089-11.4594s26.9508-11.4594,52.3089-11.4594,52.3089,4.0162,52.3089,11.4594S155.148,320.03,129.79,320.03Zm0-21.5238c-30.0044,0-50.9138,5.3043-50.9138,10.0644s20.9094,10.0644,50.9138,10.0644,50.9139-5.3044,50.9139-10.0644S159.7943,298.5058,129.79,298.5058Z" fill="#fdd076"/>
      </g>
    </g>
    <g>
      <g>
        <path d="M271.6528,360.4v13.9505c0,6.6962-26.0316,12.1229-58.16,12.1229s-58.16-5.4267-58.16-12.1229V360.4Z" fill="url(#linear-gradient-30)"/>
        <ellipse cx="213.4929" cy="360.3945" rx="58.165" ry="12.1284" fill="url(#linear-gradient-31)"/>
        <path d="M213.4928,371.8539c-25.3582,0-52.3089-4.0162-52.3089-11.4594s26.9507-11.4595,52.3089-11.4595,52.3089,4.0162,52.3089,11.4595S238.851,371.8539,213.4928,371.8539Zm0-21.5238c-30.0045,0-50.9138,5.3043-50.9138,10.0644s20.9093,10.0643,50.9138,10.0643,50.9139-5.3043,50.9139-10.0643S243.4973,350.33,213.4928,350.33Z" fill="#fdd076"/>
      </g>
      <g>
        <path d="M271.6528,340.87v13.95c0,6.6962-26.0316,12.123-58.16,12.123s-58.16-5.4268-58.16-12.123V340.87Z" fill="url(#linear-gradient-32)"/>
        <ellipse cx="213.4929" cy="340.8638" rx="58.165" ry="12.1284" fill="url(#linear-gradient-33)"/>
        <path d="M213.4928,352.3232c-25.3582,0-52.3089-4.0162-52.3089-11.4594s26.9507-11.46,52.3089-11.46,52.3089,4.0163,52.3089,11.46S238.851,352.3232,213.4928,352.3232Zm0-21.5238c-30.0045,0-50.9138,5.3043-50.9138,10.0644s20.9093,10.0644,50.9138,10.0644,50.9139-5.3044,50.9139-10.0644S243.4973,330.7994,213.4928,330.7994Z" fill="#fdd076"/>
      </g>
      <g>
        <path d="M271.6528,321.3388v13.9505c0,6.6962-26.0316,12.123-58.16,12.123s-58.16-5.4268-58.16-12.123V321.3388Z" fill="url(#linear-gradient-34)"/>
        <ellipse cx="213.4929" cy="321.3331" rx="58.165" ry="12.1284" fill="url(#linear-gradient-35)"/>
        <path d="M213.4928,332.7925c-25.3582,0-52.3089-4.0162-52.3089-11.4594s26.9507-11.4595,52.3089-11.4595,52.3089,4.0163,52.3089,11.4595S238.851,332.7925,213.4928,332.7925Zm0-21.5238c-30.0045,0-50.9138,5.3043-50.9138,10.0644s20.9093,10.0644,50.9138,10.0644,50.9139-5.3044,50.9139-10.0644S243.4973,311.2687,213.4928,311.2687Z" fill="#fdd076"/>
      </g>
      <g>
        <path d="M264.6775,299.018v13.9505c0,6.6962-26.0316,12.123-58.16,12.123s-58.16-5.4268-58.16-12.123V299.018Z" fill="url(#linear-gradient-36)"/>
        <ellipse cx="206.5176" cy="299.0123" rx="58.165" ry="12.1284" fill="url(#linear-gradient-37)"/>
        <path d="M206.5176,310.4717c-25.3582,0-52.3089-4.0162-52.3089-11.4594s26.9507-11.4594,52.3089-11.4594,52.3089,4.0162,52.3089,11.4594S231.8757,310.4717,206.5176,310.4717Zm0-21.5238c-30.0045,0-50.9139,5.3043-50.9139,10.0644s20.9094,10.0644,50.9139,10.0644,50.9138-5.3043,50.9138-10.0644S236.522,288.9479,206.5176,288.9479Z" fill="#fdd076"/>
      </g>
      <g>
        <path d="M271.6528,278.0923v13.95c0,6.6963-26.0316,12.123-58.16,12.123s-58.16-5.4267-58.16-12.123v-13.95Z" fill="url(#linear-gradient-38)"/>
        <ellipse cx="213.4929" cy="278.0866" rx="58.165" ry="12.1284" fill="url(#linear-gradient-39)"/>
        <path d="M213.4928,289.546c-25.3582,0-52.3089-4.0162-52.3089-11.4594s26.9507-11.4595,52.3089-11.4595,52.3089,4.0162,52.3089,11.4595S238.851,289.546,213.4928,289.546Zm0-21.5238c-30.0045,0-50.9138,5.3043-50.9138,10.0644s20.9093,10.0643,50.9138,10.0643,50.9139-5.3043,50.9139-10.0643S243.4973,268.0222,213.4928,268.0222Z" fill="#fdd076"/>
      </g>
      <g>
        <path d="M280.0231,258.5616v13.95c0,6.6962-26.0316,12.1229-58.16,12.1229s-58.16-5.4267-58.16-12.1229v-13.95Z" fill="url(#linear-gradient-40)"/>
        <ellipse cx="221.8632" cy="258.5559" rx="58.165" ry="12.1284" fill="url(#linear-gradient-41)"/>
        <path d="M221.8631,270.0153c-25.3582,0-52.3089-4.0162-52.3089-11.4594s26.9507-11.46,52.3089-11.46,52.3089,4.0162,52.3089,11.46S247.2213,270.0153,221.8631,270.0153Zm0-21.5238c-30.0045,0-50.9139,5.3043-50.9139,10.0644S191.8586,268.62,221.8631,268.62s50.9139-5.3043,50.9139-10.0643S251.8676,248.4915,221.8631,248.4915Z" fill="#fdd076"/>
      </g>
      <g>
        <path d="M267.0717,239.0309v13.9505c0,6.6962-26.0315,12.1229-58.16,12.1229s-58.16-5.4267-58.16-12.1229V239.0309Z" fill="url(#linear-gradient-42)"/>
        <ellipse cx="208.9119" cy="239.0252" rx="58.165" ry="12.1284" fill="url(#linear-gradient-43)"/>
        <path d="M208.9118,250.4846c-25.3582,0-52.3089-4.0162-52.3089-11.4594s26.9507-11.46,52.3089-11.46,52.3089,4.0163,52.3089,11.46S234.27,250.4846,208.9118,250.4846Zm0-21.5238c-30.0045,0-50.9139,5.3043-50.9139,10.0644S178.9073,249.09,208.9118,249.09s50.9138-5.3044,50.9138-10.0644S238.9162,228.9608,208.9118,228.9608Z" fill="#fdd076"/>
      </g>
    </g>
  </g>
  <g id="Car">
    <path d="M308.7523,339.4225a61.7377,61.7377,0,0,0-28.421,0c-14.9584,3.74-15.7063,18.698-13.4626,27.6731l2.2438,8.975Z" fill="url(#linear-gradient-44)"/>
    <g>
      <path d="M199.8416,538.855c0,32.49-20.0162,59.7989-47.1748,67.7154a57.8982,57.8982,0,0,1-16.2327,2.3226c-35.0127,0-63.395-31.3542-63.395-70.038,0-38.6712,28.3823-70.0254,63.395-70.0254a57.8982,57.8982,0,0,1,16.2327,2.3226C179.8254,479.0687,199.8416,506.3771,199.8416,538.855Z" fill="url(#linear-gradient-45)"/>
      <path d="M199.8416,538.855c0,32.49-20.0162,59.7989-47.1748,67.7154-27.146-7.9165-47.1623-35.2249-47.1623-67.7154,0-32.4779,20.0163-59.7863,47.1623-67.7028C179.8254,479.0687,199.8416,506.3771,199.8416,538.855Z" fill="url(#linear-gradient-46)"/>
    </g>
    <path d="M453.4771,581.0034H301.41S287.8105,474.091,346.1483,450.8841,458.3364,442.98,468.0594,479.83,453.4771,581.0034,453.4771,581.0034Z" fill="url(#linear-gradient-47)"/>
    <g>
      <path d="M451.0492,552.937c0,39.7327-24.4779,73.1283-57.69,82.8095a70.8033,70.8033,0,0,1-19.851,2.84c-42.8172,0-77.5261-38.3432-77.5261-85.65,0-47.2913,34.7089-85.6344,77.5261-85.6344a70.8033,70.8033,0,0,1,19.851,2.84C426.5713,479.824,451.0492,513.22,451.0492,552.937Z" fill="url(#linear-gradient-48)"/>
      <path d="M451.0492,552.937c0,39.7327-24.4779,73.1283-57.69,82.8095-33.197-9.6812-57.675-43.0768-57.675-82.8095,0-39.7174,24.478-73.113,57.675-82.7941C426.5713,479.824,451.0492,513.22,451.0492,552.937Z" fill="url(#linear-gradient-49)"/>
      <path d="M432.2365,554.067a73.93,73.93,0,0,1-5.65,28.9215,49.5715,49.5715,0,0,1-12.43,17.9118,32.1032,32.1032,0,0,1-9.7117,6.0164,26.1883,26.1883,0,0,1-9.559,1.8171A27.2323,27.2323,0,0,1,381.4636,605.1c-.0153,0-.0153,0-.0153-.0153-7.6044-4.3062-14.0026-12.1244-18.2477-22.1111a73.8522,73.8522,0,0,1-5.65-28.9062q0-3.8252.3664-7.5128a73.0775,73.0775,0,0,1,3.0693-15.4075c4.2451-13.4377,12.1092-23.9282,21.7751-28.7841a26.8547,26.8547,0,0,1,12.1245-2.9471,26.5084,26.5084,0,0,1,9.559,1.8172c.1527.061.3207.1222.4734.1985,10.0629,4.0771,18.4157,14.1858,23.1189,27.4861a72.5723,72.5723,0,0,1,3.8479,17.6369C432.1143,549.0126,432.2365,551.5169,432.2365,554.067Z" fill="url(#linear-gradient-50)"/>
      <path d="M407.3456,552.7048c0,7.4847-3.4791,13.7757-8.2,15.5994a7.7956,7.7956,0,0,1-2.8214.535c-6.0856,0-11.0188-7.2229-11.0188-16.1344,0-8.9085,4.9332-16.1315,11.0188-16.1315a7.7956,7.7956,0,0,1,2.8214.535C403.8665,538.9321,407.3456,545.223,407.3456,552.7048Z" fill="url(#linear-gradient-51)"/>
      <path d="M425.9772,530.5436a15.7792,15.7792,0,0,1-11.8,5.3847c-9.008,0-16.3116-7.7763-16.3116-17.357a17.7123,17.7123,0,0,1,6.43-13.8054C413.7327,508.59,421.5663,518.07,425.9772,530.5436Z" fill="url(#linear-gradient-52)"/>
      <path d="M388.9575,518.5713c0,9.5807-7.3036,17.357-16.3114,17.357a15.4972,15.4972,0,0,1-9.5522-3.2939c3.9813-12.6024,11.3565-22.4409,20.4217-26.9949A17.7858,17.7858,0,0,1,388.9575,518.5713Z" fill="url(#linear-gradient-53)"/>
      <path d="M429.9154,554.13a69.334,69.334,0,0,1-5.2987,27.1239c-7.1318-1.8474-12.4306-8.6928-12.4306-16.8557,0-9.595,7.3037-17.357,16.3116-17.357.358,0,.73.0143,1.0883.043C429.8009,549.39,429.9154,551.7386,429.9154,554.13Z" fill="url(#linear-gradient-54)"/>
      <path d="M377.5008,564.3983c0,8.12-5.2558,14.951-12.33,16.8413a69.2608,69.2608,0,0,1-5.2988-27.11q0-3.5872.3437-7.0458c.3295-.0287.6445-.043.9739-.043C370.1972,547.0413,377.5008,554.8033,377.5008,564.3983Z" fill="url(#linear-gradient-55)"/>
      <path d="M413.3031,594.4722a18.2862,18.2862,0,0,1-.3437,3.58,30.1071,30.1071,0,0,1-9.1081,5.6424,24.5594,24.5594,0,0,1-8.9649,1.7041,25.5392,25.5392,0,0,1-12.588-3.4083c-.0144,0-.0144,0-.0144-.0143a18.0736,18.0736,0,0,1-1.6039-7.5042c0-9.595,7.3036-17.357,16.3115-17.357S413.3031,584.8772,413.3031,594.4722Z" fill="url(#linear-gradient-56)"/>
    </g>
    <path d="M819.21,537.2547s15.5553-36.5869,4.972-77.1958-53.3918-48.4967-73.4972-31.09S746.28,552.9523,746.28,552.9523Z" fill="url(#linear-gradient-57)"/>
    <g>
      <path d="M814.4764,515.9783c0,26.8356-16.5325,49.3911-38.9642,55.93a47.8192,47.8192,0,0,1-13.4075,1.9184c-28.9189,0-52.3613-25.8971-52.3613-57.8482,0-31.9406,23.4424-57.8377,52.3613-57.8377a47.8228,47.8228,0,0,1,13.4075,1.9183C797.9439,466.5976,814.4764,489.1531,814.4764,515.9783Z" fill="url(#linear-gradient-58)"/>
      <path d="M814.4764,515.9783c0,26.8356-16.5325,49.3911-38.9642,55.93-22.4214-6.5387-38.9539-29.0942-38.9539-55.93,0-26.8252,16.5325-49.3807,38.9539-55.9194C797.9439,466.5976,814.4764,489.1531,814.4764,515.9783Z" fill="url(#linear-gradient-59)"/>
      <path d="M801.77,516.7415a49.9309,49.9309,0,0,1-3.816,19.5337,33.4812,33.4812,0,0,1-8.3951,12.0977A21.6836,21.6836,0,0,1,783,552.4364a17.688,17.688,0,0,1-6.4563,1.2272,18.3935,18.3935,0,0,1-9.0655-2.4545c-.01,0-.01,0-.01-.01-5.1361-2.9084-9.4574-8.1889-12.3246-14.9339a49.8807,49.8807,0,0,1-3.8159-19.5234q0-2.5834.2475-5.0742a49.3557,49.3557,0,0,1,2.073-10.4063c2.8671-9.0758,8.1785-16.1611,14.707-19.4408a18.1376,18.1376,0,0,1,8.1888-1.99A17.9029,17.9029,0,0,1,783,481.0571c.1031.0412.2166.0825.32.134,6.7965,2.7537,12.438,9.5812,15.6145,18.5642a49.0169,49.0169,0,0,1,2.599,11.912C801.6877,513.3278,801.77,515.0192,801.77,516.7415Z" fill="url(#linear-gradient-60)"/>
      <path d="M784.9352,515.826c0,5.041-2.3432,9.278-5.5224,10.5063a5.2508,5.2508,0,0,1-1.9.36c-4.0987,0-7.4213-4.8648-7.4213-10.8667,0-6,3.3226-10.8647,7.4213-10.8647a5.2507,5.2507,0,0,1,1.9.36C782.592,506.55,784.9352,510.7869,784.9352,515.826Z" fill="url(#linear-gradient-61)"/>
      <path d="M797.4838,500.9a10.6276,10.6276,0,0,1-7.9477,3.6267c-6.0669,0-10.986-5.2374-10.986-11.69a11.93,11.93,0,0,1,4.3307-9.2981C789.237,486.114,794.513,492.4992,797.4838,500.9Z" fill="url(#linear-gradient-62)"/>
      <path d="M772.5507,492.8368c0,6.4527-4.9191,11.69-10.9859,11.69a10.4372,10.4372,0,0,1-6.4334-2.2185c2.6814-8.4878,7.6486-15.1141,13.7541-18.1813A11.9787,11.9787,0,0,1,772.5507,492.8368Z" fill="url(#linear-gradient-63)"/>
      <path d="M800.1362,516.786a46.6972,46.6972,0,0,1-3.5687,18.2681,11.5691,11.5691,0,0,1-8.3721-11.3524c0-6.4624,4.919-11.69,10.9859-11.69.2412,0,.4919.01.733.029C800.059,513.5934,800.1362,515.1752,800.1362,516.786Z" fill="url(#linear-gradient-64)"/>
      <path d="M764.8345,523.7017a11.5962,11.5962,0,0,1-8.3046,11.3428,46.6491,46.6491,0,0,1-3.5687-18.2585q0-2.4162.2314-4.7455c.2219-.0193.4341-.029.656-.029C759.9154,512.0115,764.8345,517.2393,764.8345,523.7017Z" fill="url(#linear-gradient-65)"/>
      <path d="M788.9477,543.9567a12.3214,12.3214,0,0,1-.2315,2.4114,20.2784,20.2784,0,0,1-6.1344,3.8,16.5412,16.5412,0,0,1-6.0379,1.1477,17.2014,17.2014,0,0,1-8.4782-2.2955c-.01,0-.01,0-.01-.01a12.1716,12.1716,0,0,1-1.08-5.0541c0-6.4623,4.919-11.69,10.9859-11.69S788.9477,537.4944,788.9477,543.9567Z" fill="url(#linear-gradient-66)"/>
    </g>
    <path d="M875.2969,472.1737c-4.4894,35.9-26.9211,44.8787-30.28,56.1023-3.3747,11.2081-25.8064,8.9787-25.8064,8.9787l-4.4894-46.0086c-4.4894-45.9935-29.1658-52.7275-50.4828-35.9S746.28,552.9523,746.28,552.9523L453.4771,581.0034s14.5982-72.8686-7.8488-98.7209c-25.8063-29.7307-60.0266-26.3713-84.7029-11.2235-45.1383,27.7-43.199,120.0379-43.199,120.0379s-25.8064,1.13-111.0591,0C121.3994,589.9822,49.6,566.4205,49.6,566.4205s-1.97-4.81-4.3519-12.6894a207.3856,207.3856,0,0,1-6.4746-28.1885c-.6413-4.1687-1.16-8.5207-1.5117-12.98-2.2447-29.1657,4.4894-26.9211,4.4894-26.9211v-6.734c0-6.7342,6.7188-8.9788,6.7188-8.9788l.3971-4.7338c.1374-1.6949.3359-4.0159.5954-7.1616q.0689-.7558.1375-1.5575a41.44,41.44,0,0,1,3.8175-14.6135A44.8421,44.8421,0,0,1,57.83,434.472c7.1921-9.91,20.5993-20.9352,45.6116-32.006,46.0087-20.355,171.6506-40.2366,171.6506-40.2366s57.2169-56.0869,105.455-78.5339c48.2534-22.4317,157.0677-23.5464,157.0677-23.5464s57.2169,0,130.1466,12.3383c72.9145,12.3381,122.2826,54.9721,143.6,78.5338,21.3171,23.5464,42.6188,23.5464,48.2382,35.9C865.2034,399.2593,879.7863,436.2739,875.2969,472.1737Z" fill="url(#linear-gradient-67)"/>
    <path d="M483.7657,371.5831S332.7119,394.76,300.0349,420.2666s-57.9411,43.8787-57.9411,43.8787l-42.2522,1.05s32.0225-50.2523,108.9107-71.9614c93.5294-26.4075,147.7206-30.1733,147.7206-30.1733Z" opacity="0.2" fill="url(#linear-gradient-68)"/>
    <path d="M346.8962,358.21s-175.4626,31.2458-208.14,56.7525-40.5413,24.2881-40.5413,24.2881H83.8087c-9.1512.9145-15.1136-25.7052,78.3511-49.0707,94.2844-23.57,154.4457-35.75,154.4457-35.75Z" opacity="0.2" fill="url(#linear-gradient-69)"/>
    <path d="M291.9181,359.2215l191.8476,12.3616,55.3462-103.961s-71.8.748-112.1881,10.4709S361.0013,304.2284,291.9181,359.2215Z" fill="url(#linear-gradient-70)"/>
    <path d="M478.8677,270.6186c-26.5353,17.8477-38.8553,85.4452-38.8553,85.4452l8.2271-21.6717c7.0463-18.561,37.3984-54.8793,45.9726-64.93C489.2488,269.7874,484.0942,270.17,478.8677,270.6186Z" fill="#19171a" opacity="0.1"/>
    <path d="M476.2455,371.0986,530.88,267.7892c-4.9659.13-11.8958.3541-20.0014.7364-9.2615,7.3295-25.2092,22.3823-40.5236,48.4676-18.5086,31.5262-24.09,46.94-25.6284,52.0744Z" fill="#19171a" opacity="0.1"/>
    <polygon points="476.245 371.099 485.691 349.958 390.65 348.547 379.779 364.883 476.245 371.099" fill="url(#linear-gradient-71)"/>
    <g>
      <path d="M410.0474,359.42a5.1035,5.1035,0,0,0,1.8844.5413c.95.0822,1.5164-.2022,1.5637-.695.0425-.4573-.3467-.7573-1.3587-1.11-1.2846-.4485-2.0664-1.0229-1.9885-1.8717.089-.9638,1.2373-1.65,2.99-1.5678a5.6359,5.6359,0,0,1,1.9692.4038l-.4595.8786a4.4572,4.4572,0,0,0-1.6189-.3783c-.9409-.05-1.381.3-1.4129.6452-.0432.46.4022.7024,1.4581,1.0857,1.3982.4929,2.0581,1.0782,1.9741,1.9577-.0938.9781-1.19,1.7337-3.2961,1.5366a6.0315,6.0315,0,0,1-2.0992-.5646Z" fill="url(#linear-gradient-72)"/>
      <path d="M420.8674,359.7841l-.9618,1.7291-1.6819-.1558,3.5255-6.13,2.1944.1052,2.4836,6.7862-1.91-.1776-.68-1.92Zm2.7637-.682-.5839-1.647c-.1419-.4051-.25-.8555-.3531-1.237l-.0284-.0017c-.1761.366-.3605.8067-.5651,1.179l-.8723,1.53Z" fill="url(#linear-gradient-73)"/>
      <path d="M431.6089,355.6992l1.958.0938-.6375,5.8646,4.5592.3918-.1222,1.0836-6.49-.6016Z" fill="url(#linear-gradient-74)"/>
      <path d="M449.9832,360.8768l-4.8617-.3545-.2567,2.1836,5.4383.468-.1383,1.1466-7.6765-.7116.85-7.3484,7.46.3572-.1407,1.1554-5.1807-.2829-.2253,1.9278,4.8695.3226Z" fill="url(#linear-gradient-75)"/>
    </g>
    <path d="M546.5911,267.6221l-50.8586,103.961,297.6724-5.2354s-23.5288-48.8509-77.0358-69.5567C631.0894,263.79,546.5911,267.6221,546.5911,267.6221Z" fill="url(#linear-gradient-76)"/>
    <polygon points="607.647 369.615 628.229 369.253 546.591 267.622 539.811 281.482 607.647 369.615" fill="#19171a" opacity="0.1"/>
    <path d="M668.4621,281.7037l75.6424,85.5111,21.6418-.3807-71.0757-77.6859C685.8156,286.3172,677.0475,283.8491,668.4621,281.7037Z" fill="#19171a" opacity="0.1"/>
    <path d="M53.8267,524.9069l5.8724,30.6647s73.405,17.95,106.4372,19.446,44.7771,0,44.7771,0l7.34-38.8919Z" fill="url(#linear-gradient-77)"/>
    <path d="M495.7325,371.5831s15.9544-22.694,41.8206-23.0332c16.7163-.2193,14.9337,13.5255,11.5809,23.2771a19.0535,19.0535,0,0,1-16.3,12.858C524.0565,385.4214,495.7325,386.9211,495.7325,371.5831Z" fill="url(#linear-gradient-78)"/>
    <path d="M193.3723,463.4951a12.0384,12.0384,0,0,1-1.9316-18.1378,49.0314,49.0314,0,0,1,26.8132-14.6884c23.9334-4.4876,100.9693.7479,106.9526,5.9833s-11.9667,28.421-43.3794,32.1606C254.8413,472.0254,214.6082,477.9979,193.3723,463.4951Z" fill="url(#linear-gradient-79)"/>
    <path d="M209.4169,460.3283a9.0154,9.0154,0,0,1-1.4466-13.5832,36.72,36.72,0,0,1,20.08-11c17.9234-3.3606,75.6144.56,80.0953,4.4809s-8.9617,21.284-32.4862,24.0845C255.45,466.7165,225.32,471.1892,209.4169,460.3283Z" fill="url(#linear-gradient-80)"/>
    <path d="M63.0984,458.9193a46.691,46.691,0,0,1-14.2317,6.276c.1679-1.97.3969-4.7642.7329-8.7191A41.744,41.744,0,0,1,57.83,434.472a51.317,51.317,0,0,1,7.1921,6.3065A12.04,12.04,0,0,1,63.0984,458.9193Z" fill="url(#linear-gradient-81)"/>
    <path d="M55.1274,455.1934a24.899,24.899,0,0,1-5.6653,2.84q.0689-.7558.1375-1.5575a41.44,41.44,0,0,1,3.8175-14.6135,30.4763,30.4763,0,0,1,2.8555,2.6264A7.11,7.11,0,0,1,55.1274,455.1934Z" fill="url(#linear-gradient-82)"/>
    <path d="M79.8885,434.472H98.9923a13.0568,13.0568,0,0,1,13.0568,13.0568V472.8S76.1489,480.9066,79.8885,434.472Z" fill="url(#linear-gradient-83)"/>
    <path d="M83.8087,439.2506H98.2153a9.8465,9.8465,0,0,1,9.8465,9.8465v19.0573S80.9885,474.2682,83.8087,439.2506Z" fill="url(#linear-gradient-84)"/>
    <path d="M112.0491,472.8V447.9028A13.4308,13.4308,0,0,1,125.48,434.472H169.639S174.4986,489.1228,112.0491,472.8Z" fill="url(#linear-gradient-85)"/>
    <path d="M117.1742,469.6643V449.1921a11.0439,11.0439,0,0,1,11.044-11.044H164.53S168.5256,483.0867,117.1742,469.6643Z" fill="url(#linear-gradient-86)"/>
    <circle cx="261.4982" cy="556.278" r="19.4044" fill="url(#linear-gradient-87)"/>
    <circle cx="258.4442" cy="556.278" r="11.6621" fill="url(#linear-gradient-88)"/>
    <path d="M48.79,542.5381a19.36,19.36,0,0,1-3.5426,11.193,207.3856,207.3856,0,0,1-6.4746-28.1885A19.4038,19.4038,0,0,1,48.79,542.5381Z" fill="url(#linear-gradient-89)"/>
    <path d="M629.217,411.9085h14.3878a1.5293,1.5293,0,0,0,1.1769-2.5029c-3.0283-3.7485-9.6131-9.4268-16.7839.0468A1.5339,1.5339,0,0,0,629.217,411.9085Z" fill="url(#linear-gradient-90)"/>
    <path d="M650.1519,368.8672l8.7223-.1535V279.4212q-4.4015-.9977-8.7223-1.8923Z" fill="#ff7479"/>
    <g opacity="0.25">
      <path d="M748.4639,526.9016a1162.9561,1162.9561,0,0,1-145.0043,24.02,611.9034,611.9034,0,0,1-61.9353,3.2984c-33.1208,0-56.2855-3.1609-69.83-5.8179-.5192-.0916-1.0231-.1832-1.5117-.29a117.1609,117.1609,0,0,1-12.98-3.2067.7582.7582,0,1,1,.4887-1.4354,116.4561,116.4561,0,0,0,12.5978,3.1151q.7329.16,1.5117.3207c20.584,4.016,63.9662,9.3605,131.5056,2.5043A1162.8332,1162.8332,0,0,0,748.0974,525.42a.763.763,0,0,1,.3665,1.4812Z"/>
      <path d="M488.2533,549.27h-.01a.7643.7643,0,0,1-.7538-.7724c.0112-.91,1.11-91.325,0-128.2088-1.1169-37.1685,7.2764-48.6949,7.6343-49.1668a.7633.7633,0,0,1,1.2183.92c-.0843.1126-8.4231,11.7009-7.3256,48.2021,1.11,36.915.0112,127.3632,0,128.2714A.7636.7636,0,0,1,488.2533,549.27Z"/>
      <path d="M654.5134,542.5553a.7631.7631,0,0,1-.7635-.7635V378.8511a.7635.7635,0,1,1,1.527,0V541.7918A.7631.7631,0,0,1,654.5134,542.5553Z"/>
      <path d="M797.5568,450.7441a.7631.7631,0,0,1-.7635-.75c-.0075-.4518-.7784-45.3419-.0731-63.1037.6755-16.9768-3.655-19.8556-3.7-19.8824a.7739.7739,0,0,1-.2669-1.0394.7576.7576,0,0,1,1.0185-.29c.5338.2923,5.1849,3.3724,4.4751,21.2729-.7038,17.7171.0656,62.5655.0731,63.0158a.7632.7632,0,0,1-.75.7769Z"/>
      <path d="M462.4493,393.9959a.7627.7627,0,0,1-.6368-1.1818c.2983-.4533,7.6157-11.13,33.8708-12.8244,25.9016-1.6717,310.272-1.9,313.1426-1.9021h0a.7635.7635,0,1,1,0,1.527c-2.8676.0023-287.19.23-313.0442,1.8991-25.4014,1.64-32.6256,12.0371-32.6957,12.1422A.7634.7634,0,0,1,462.4493,393.9959Z"/>
      <path d="M241.8679,508.2842c-16.6777,0-36.0553-.4906-57.4595-1.8834-94.5848-6.1573-142.4-19.8884-142.8719-20.0271a.7628.7628,0,1,1,.428-1.4643c.4705.1372,48.1506,13.8235,142.5438,19.9673,71.6678,4.6676,120.6058-.8112,121.0919-.8693a.764.764,0,0,1,.1745,1.518C305.4325,505.5642,281.15,508.2842,241.8679,508.2842Z"/>
      <path d="M207.0376,493.3646a332.5161,332.5161,0,0,1-33.3973-1.4435C112.6287,485.5953,48.933,470.82,48.2962,470.6727a.7641.7641,0,0,1,.3475-1.4882c.6352.1491,64.2408,14.9017,125.1547,21.2185,50.1936,5.2014,140.131-5.4116,141.0332-5.519a.7483.7483,0,0,1,.8493.6666.763.763,0,0,1-.6674.8485C314.2873,486.4871,256.0367,493.3646,207.0376,493.3646Z"/>
      <path d="M471.8012,546.9054c-.0306.5039-.0764,1.0078-.1069,1.4965-.5192-.0916-1.0231-.1832-1.5117-.29.0458-.5039.0763-1.0078.1069-1.527,1.8934-26.4477-.1986-79.0683-27.2876-96.11-30.647-19.2556-88.7191-6.673-119.4881,25.8979-30.0668,31.8228-22.7982,99.9731-22.7219,100.66a.7673.7673,0,0,1-.6719.84h-.0916a.7459.7459,0,0,1-.7482-.6719c-.0611-.504-4.1382-38.786,6.3829-71.6624.1373-.458.29-.9314.458-1.39a89.2355,89.2355,0,0,1,7.9252-17.6369c.3207-.55.6413-1.0842.9926-1.6186a61.8806,61.8806,0,0,1,7.3754-9.5743c31.2119-33.0444,90.2154-45.749,121.3969-26.1271C471.5874,466.646,473.7252,520.1981,471.8012,546.9054Z"/>
    </g>
  </g>
  <g id="Plant">
    <path d="M895.6282,448.1231s-6.7388-20.3294,26.3879-73.7952S990.3025,336.1179,895.6282,448.1231Z" fill="url(#linear-gradient-91)"/>
    <path d="M881.0648,503.8326h0a.7631.7631,0,0,1-.6731-.8443c.0187-.1659,2.0122-17.0007,14.5113-55.1036,12.5088-38.1362,44.6028-83.5085,44.9256-83.9621a.7636.7636,0,0,1,1.2448.8847c-.3211.4523-32.283,45.6384-44.72,83.5531C883.9152,486.28,881.9277,502.995,881.9091,503.16A.7631.7631,0,0,1,881.0648,503.8326Z" fill="#411844"/>
    <path d="M896.55,393.2435s-14.4994-24.929,5.25-79.9038S973.6656,256.9738,896.55,393.2435Z" fill="url(#linear-gradient-92)"/>
    <path d="M871.4076,509.3838c-.0148-.0017-.03-.0034-.0443-.0065a.7629.7629,0,0,1-.6223-.8821l8.9509-51.88c8.8588-51.3442,45.74-161.45,46.11-162.5567a.7538.7538,0,0,1,.9681-.4806.7644.7644,0,0,1,.4808.9667c-.3723,1.1052-37.2165,111.1009-46.055,162.33l-8.9508,51.88A.7632.7632,0,0,1,871.4076,509.3838Z" fill="#411844"/>
    <path d="M880.3465,350.0584s14.6529-69.85-2.8537-121.5007S835.3251,255.4131,880.3465,350.0584Z" fill="url(#linear-gradient-93)"/>
    <path d="M874.4691,509.7291a.7314.7314,0,0,1-.081-.0137.7635.7635,0,0,1-.58-.91c.12-.5432,12.0312-54.762,11.14-98.7482-.8909-44.0409-17.4769-169.9063-17.6446-171.1731a.7637.7637,0,1,1,1.5142-.2c.1677,1.2667,16.7652,127.2167,17.6587,171.3412.8926,44.1724-11.0565,98.5656-11.1779,99.11A.7633.7633,0,0,1,874.4691,509.7291Z" fill="#411844"/>
    <path d="M845.5047,501.846h66.6892a2.5755,2.5755,0,0,1,2.51,3.1546l-16.3016,70.64h-39.105l-16.3016-70.64A2.5755,2.5755,0,0,1,845.5047,501.846Z" fill="url(#linear-gradient-94)"/>
  </g>
  <g id="Character">
    <g id="Dealer">
      <g id="Leg">
        <path d="M609.5724,613.6268s-.7154,5.029-9.7631,4.1933c-9.0324-.8356-12.7992-5.5911-12.7992-5.5911l-3.0141-15.9984h20.8283Z" fill="url(#linear-gradient-95)"/>
        <path d="M609.1863,612.2124l-.8879-3.2534-22.46-2.9478,1.1715,6.2178a14.2477,14.2477,0,0,0,4.412,3.2645l-.4233-1.958,8.04.7479A18.989,18.989,0,0,0,609.1863,612.2124Z" fill="#19171a" opacity="0.15"/>
        <path d="M630.5634,660.7865c-20.89-1.6713-23.3685-14.51-30.6378-17.852-7.2858-3.3577-7.1468-1.6713-9.8089-13.4A142.5712,142.5712,0,0,1,587.01,612.229s3.7668,4.7555,12.7992,5.5911c9.0477.8357,9.7631-4.1933,9.7631-4.1933s10.9228,10.0579,23.4559,22.6074C645.5627,648.799,651.4545,662.4729,630.5634,660.7865Z" fill="#19171a"/>
        <path d="M499.2923,613.6268s1.5447,5.029,10.4546,4.1933c8.8946-.8356,11.8771-5.5911,11.8771-5.5911L522,596.2306H501.1715Z" fill="url(#linear-gradient-96)"/>
        <path d="M520.5074,603.4386l-20.6935,5.3594L499.36,613a21.1888,21.1888,0,0,0,8.62,2.0318c7.2922,0,9.536-1.6828,9.536-1.6828l-.2564,2.41a11.5263,11.5263,0,0,0,4.3647-3.5293l.1637-6.9665Z" fill="#19171a" opacity="0.15"/>
        <path d="M486.0785,660.7865c20.6142-1.6713,20.9757-14.51,27.6938-17.852,6.7321-3.3577,6.8711-1.6713,7.599-13.4a136.694,136.694,0,0,0,.2527-17.3051s-2.9825,4.7555-11.8771,5.5911c-8.91.8357-10.4546-4.1933-10.4546-4.1933s-9.2642,10.0579-19.7277,22.6074C469.1023,648.799,465.4655,662.4729,486.0785,660.7865Z" fill="#19171a"/>
        <path d="M498.1082,612.229H521.624s13.4365-95.2006,21.54-142.6642c8.1191-47.4636,12.6967-62.5049,12.6967-62.5049l5.8285-6.1684,23.268,211.3375h25.7677s-3.2089-206.5061-8.9611-235.5251-21.8131-42.3131-21.8131-42.3131l-73.3652,42.3131Z" fill="url(#linear-gradient-97)"/>
        <path d="M602.7613,383.882,593.52,352.785l-75.5729,17.3663-11.3613,6.5526-.9685,26.9065,49.1073-5.458,7.1053-13.0469,5.4337,9.531h36.4088C603.385,390.5272,603.0817,386.9109,602.7613,383.882Z" fill="#19171a" opacity="0.25"/>
        <path d="M548.41,414.128c-2.4506,6.2256-2.58,24.5831-2.273,38.6028,6.2542-34.2619,9.7244-45.6709,9.7244-45.6709l5.8285-6.1684A22.5223,22.5223,0,0,0,548.41,414.128Z" fill="#19171a" opacity="0.25"/>
      </g>
      <g id="Body">
        <path d="M656.7215,266.3182c-2.3974-3.39-1.2521,3.7259-6.7952,4.8864-5.5277,1.1606-1.924,14.43-1.924,14.43a43.7789,43.7789,0,0,1-10.2615,1.6492c-3.283.0763-6.5814-.4124-8.6123-2.2448,0,0,3.9244-10.292,7.7267-18.5836a71.6524,71.6524,0,0,1,4.23-8.2612,8.4364,8.4364,0,0,1,1.42-1.8018,21.3057,21.3057,0,0,1,4.7338-2.81,44.51,44.51,0,0,1,5.5583-2.0462l5.1765,4.8559.3817,3.7564h2.0157s-2.2447,2.2447,0,5.879C662.6157,269.6776,659.1188,269.6929,656.7215,266.3182Z" fill="url(#linear-gradient-98)"/>
        <path d="M656.7215,266.3182c-2.3974-3.39-1.2521,3.7259-6.7952,4.8864-5.5277,1.1606-1.924,14.43-1.924,14.43a43.7789,43.7789,0,0,1-10.2615,1.6492c-2.3822-3.9856-2.0309-14.0944-.8856-20.8284a71.6524,71.6524,0,0,1,4.23-8.2612c1.71-1.3589,4.0313-3.0692,6.1539-4.6115a44.51,44.51,0,0,1,5.5583-2.0462l5.1765,4.8559.3817,3.7564h2.0157s-2.2447,2.2447,0,5.879C662.6157,269.6776,659.1188,269.6929,656.7215,266.3182Z" fill="#19171a" opacity="0.15"/>
        <path d="M664.5669,269.881l-3.74.9419a1.5541,1.5541,0,0,1-1.8855-.991l-2.21-7.4477a1.4048,1.4048,0,0,1,1.0759-1.7367l3.74-.9419a1.5541,1.5541,0,0,1,1.8855.991l2.21,7.4477A1.4048,1.4048,0,0,1,664.5669,269.881Z" fill="url(#linear-gradient-99)"/>
        <path d="M654.3523,260.756a3.49,3.49,0,0,0-3.632,3.3539,3.3424,3.3424,0,0,0,2.1375,3.0584v3.684h.4865v.4866h-.4865V272.59h.4865v.4866h-.4865v.5387h.4865v1.199h-.4865v2.6587a2.9887,2.9887,0,0,0,2.9889-2.9888v-7.316a3.3424,3.3424,0,0,0,2.1375-3.0584A3.49,3.49,0,0,0,654.3523,260.756Zm.1911,4.3444a1.1991,1.1991,0,1,1,1.199-1.1991A1.2015,1.2015,0,0,1,654.5434,265.1Z" fill="url(#linear-gradient-100)"/>
        <path d="M644.3826,285.8439l-1.0945-11.9627a27.0526,27.0526,0,0,0,3.9392-6.8334c.992-3.1218,4.9762-4.85,4.9762-4.85s.0685-3.9948-3.7789-2.4339-6.9167,4.9189-7.7235,4.9742,8.0147-9.1366,8.8937-10.5241,1.5234,3.8156,3.109,5.3765a5.9176,5.9176,0,0,0,3.1762,1.7343,34.8557,34.8557,0,0,1-1.4171-8.1514c0-3.4687-4.0671-5.3765-5.9359-4.6827s-12.2747,10.2265-12.2747,10.2265l-7.1289,19.6013S639.3318,294.5808,644.3826,285.8439Z" fill="url(#linear-gradient-101)"/>
        <path d="M598.6651,243.3021s10.3336,15.345,15.17,31.4253,9.6128,27.7972,9.6128,27.7972l3.8978-25.7483a1.1347,1.1347,0,0,1,1.9874-.5729c2.5385,2.9834,7.7006,8.247,12.5242,8.247h6.7313a83.7219,83.7219,0,0,1-7.6379,37.0081c-8.8164,18.712-20.8,19.7324-29.7582,11.2327s-8.9868-9.4932-8.9868-9.4932Z" fill="url(#linear-gradient-102)"/>
        <path d="M609.0891,284.5507c-.6078-14.11-10.287-40.8169-10.287-40.8169a.7361.7361,0,0,0-.1115.1442l3.5153,79.32s.0285.9936,8.9869,9.4932a19.9533,19.9533,0,0,0,5.8959,3.9733,39.9924,39.9924,0,0,0-3.2534-16.4329C609.7466,311.1376,609.6969,298.6608,609.0891,284.5507Z" fill="#19171a" opacity="0.25"/>
        <path d="M603.9481,391.4105l-32.6472-1.6339L565.88,371.59l-12.6435,19.8206H499.7453s11.2236-30.6776,12.3536-42.863c1.1146-12.1856,2.2446-9.88-5.6194-40.2214-7.8488-30.3568,1.2369-57.0794,11.9717-64.1952,1.0994-.733,5.8331-1.5882,9.91-2.657h.0153c3.4969-.9163,7.5281-2.0462,11.2235-3.13,3.4968-1.0231,6.7341-1.97,8.9788-2.657,1.9545-.6107,3.1609-.9772,3.1609-.9772l26.5393,1.4964s1.4965.2443,3.6648.6872c1.6492.3359,3.68.7787,5.7569,1.3285,4.8406,1.2673,9.9255,3.0387,10.9639,5.0848a2.0062,2.0062,0,0,1,.1373.4276v.0153C600.8637,253.3387,603.9481,391.4105,603.9481,391.4105Z" fill="url(#linear-gradient-103)"/>
        <path d="M603.4555,327.83l.3876-.2506q-.0441-1.5734-.0892-3.1537c-9.2945-4.8218-60.7862,8.1629-69.269-9.8479-9.412-19.9835-19.0091-40.224-20.505-30.0267s7.8532,78.0574,11.2189,74.1222-4.4875-31.965,2.6133-19.7107,19.0764,26.6375,27.06,20.8606C561.8882,354.7464,595.4267,333.0223,603.4555,327.83Z" fill="#19171a" opacity="0.25"/>
        <path d="M587.7009,238.2214c-.962,4.7337-2.6723,12.4145-5.7569,24.6611-6.902,27.425-16.0793,71.51-16.0793,71.51l-16.7026-72.1456L539.6,238.3435c3.4968-1.0231,6.7341-1.97,8.9788-2.657,1.9545-.6107,3.1609-.9772,3.1609-.9772l26.5393,1.4964s1.4965.2443,3.6648.6872C583.5932,237.2288,585.6241,237.6716,587.7009,238.2214Z" fill="url(#linear-gradient-104)"/>
        <path d="M581.944,236.8929c-2.1683-.4429-3.6648-.6872-3.6648-.6872l-17.064-.9622c-5.5584,4.5633-17.0906,14.41-17.0906,14.41l4.4544,8.0509,18.6847-10.7436,7.668,7.2923-1.5807,45.43.0134-.0591c1.361-6.1267,2.8088-12.5361,4.2587-18.7774l9.69-42.724C585.3731,237.62,583.49,237.2076,581.944,236.8929Z" fill="#19171a" opacity="0.15"/>
        <path d="M566.5456,252.8363l-8.8623,49.2812,8.4376,26.35,10.7232-24.2511-8.1627-51.36A1.0987,1.0987,0,0,0,566.5456,252.8363Z" fill="url(#linear-gradient-105)"/>
        <path d="M599.5594,307.0859c-.5654.1229-.8944.1931-.8944.1931l5.29,15.919h2.8185Z" fill="#19171a" opacity="0.15"/>
        <path d="M534.5306,273.2356l13.0864-8.9788-19.24-22.7829c6.81-1.7714,15.5755-4.3978,20.2023-5.7874l17.2857,98.7056Z" fill="#19171a"/>
        <path d="M598.8021,243.7491,583.013,264.2568l11.9259,8.9788-28.5245,61.1565,15.53-97.4992c5.4667,1.1147,15.24,3.4815,16.7208,6.4133a2.0062,2.0062,0,0,1,.1373.4276Z" fill="#19171a"/>
        <path d="M603.9552,323.198s-47.1621,27.3475-54.3666,28.7043-37.47-42.0729-40.2689-61.0946,6.8871-38.5179,17.732-33.6565,26.6357,60.5816,26.6357,60.5816l44.9777-10.4537Z" fill="url(#linear-gradient-106)"/>
        <path d="M553.6874,317.7328l-10.5555,6.7265S543.675,311.75,553.6874,317.7328Z" fill="#19171a" opacity="0.25"/>
        <path d="M575.9,243.29l-3.7475,10.3106a3.6694,3.6694,0,0,1-6.7267.3954l-5.3405-10.6173Z" fill="url(#linear-gradient-107)"/>
        <polygon points="569.247 243.302 579.531 252.044 581.944 236.893 576.996 236.411 569.247 243.302" fill="url(#linear-gradient-108)"/>
        <polygon points="569.247 243.302 551.847 252.044 548.579 235.686 551.733 234.714 569.247 243.302" fill="url(#linear-gradient-109)"/>
        <rect x="652.2349" y="256.6526" width="0.7912" height="1.0518" fill="url(#linear-gradient-110)"/>
      </g>
      <g>
        <path d="M588.9134,191.7223s6.975-13.8064,7.8833-29.066-5.9949-5.45-15.8046-7.2665-20.71-13.0725-34.8792-1.45-16.35,28.6959-9.0831,41.5955,9.4464,14.3172,9.4464,14.3172Z" fill="#19171a"/>
        <path d="M576.9955,219.6983v16.7129s-6.1765,7.2188-10.9,6.8793S551.2,234.9579,551.2,234.9579V213.903S575.1789,213.5217,576.9955,219.6983Z" fill="url(#linear-gradient-111)"/>
        <path d="M576.9955,220.8968,551.2,216.0691v.6848c3.8824,3.2054,17.4778,14.0556,22.5037,13.0982a8.0726,8.0726,0,0,0,3.2923-1.4569Z" fill="#19171a" opacity="0.15"/>
        <path d="M587.8952,179.7326s4.7233,39.9657-6.1765,43.5989-28.3393-6.1765-28.3393-6.1765-8.0155,1.7809-12.012-7.3022,3.2922-12.2368,6.5621-7.9172c0,0-2.5432-19.2964,1.4533-24.7463s7.2665,2.18,16.713,2.5433S585.352,171.0128,587.8952,179.7326Z" fill="url(#linear-gradient-112)"/>
        <path d="M575.4819,205.7671a.5111.5111,0,0,1,0-1.0222c1.3716,0,2.0414-1.8977,2.1942-2.3994l-2.6884-10.037a.5115.5115,0,0,1,.9883-.2645L578.7,202.2173a.5161.5161,0,0,1,.002.256C578.6683,202.6081,577.8528,205.7671,575.4819,205.7671Z" fill="#aa6743"/>
        <path d="M559.314,183.6046a.511.511,0,0,1-.3873-.845c3.7185-4.3055,9.5314-.1208,9.5913-.0784a.5111.5111,0,0,1-.604.8246c-.2066-.1512-5.1151-3.6666-8.2127-.0784A.5117.5117,0,0,1,559.314,183.6046Z" fill="#aa6743"/>
        <path d="M584.5341,183.6046a.5119.5119,0,0,1-.3873-.1772c-3.0976-3.5882-8.0051-.0728-8.2127.0784a.511.511,0,0,1-.6039-.8246c.0588-.0424,5.8727-4.2261,9.5913.0784a.511.511,0,0,1-.3874.845Z" fill="#aa6743"/>
        <ellipse cx="563.5828" cy="191.5406" rx="1.3625" ry="2.9974" fill="#19171a"/>
        <ellipse cx="581.3857" cy="191.5406" rx="1.3625" ry="2.9974" fill="#19171a"/>
        <path d="M571.8213,216.3836a9.9421,9.9421,0,0,1-2.5706-.3369c-4.8166-1.2838-7.37-5.754-7.477-5.9436a.5112.5112,0,0,1,.8915-.5007c.0239.0429,2.4607,4.2921,6.8571,5.459,2.6434.7033,5.4754.1642,8.4213-1.5972a.5113.5113,0,0,1,.5251.8775A12.9712,12.9712,0,0,1,571.8213,216.3836Z" fill="#aa6743"/>
      </g>
    </g>
    <g id="Handshake">
      <path d="M654.2935,313.9914,648.98,328.4673l-3.4053,9.2995s-1.13-.794-2.3974-1.8324a18.3634,18.3634,0,0,1-3.1914-3.1456c-1.3132-1.97-7.3907-1.13-10.4752,3.9244-3.0846,5.0391-9.8035,6.4439-10.6586,4.1993-.58-1.5729,1.8477-4.184,3.3595-5.6194-2.1226,1.8018-6.7036,5.2834-8.3833,3.3746-1.2216-1.3895.2749-4.1687,1.8782-6.3676-2.5195,3.054-6.3982,5.8026-7.4976,3.2831-.962-2.1531,3.8328-7.6045,5.2224-9.1315-.4734.4581-1.5881,1.5728-4.1077,4.0923-4.4894,4.4894-6.734,1.4049-4.4894-2.0767,1.8325-2.84,9.1316-10.7348,11.7121-13.4986.58-.6109.9163-.9773.9163-.9773s1.3895-3.36,7.2838-6.1692c5.7415-2.7333,28.28,5.6958,29.5017,6.1539Z" fill="url(#linear-gradient-113)"/>
      <path d="M654.2935,313.9914,648.98,328.4673l-2.1531,5.8638-.0153.061-1.2369,3.3747s-1.13-.794-2.3974-1.8324l1.42-2.7944-12.1092-6.81s-4.5962-6.5967-3.3594-7.7115,10.9639,4.581,10.9639,4.581,3.4358,4.8254,5.4056,8.1543l2.0767-4.1077Z" fill="#19171a" opacity="0.15"/>
      <path d="M620.9306,336.5972c1.9131,1.3805,3.7123,2.6945,5.0535,3.6788a11.7538,11.7538,0,0,0,1.5012-1.1418,24.8176,24.8176,0,0,0-2.145-4.7421c-2.2133-3.7216-16.2512-11.1941-16.2512-11.1941.2507,4.3663-.4761,4.71,1.4361,6.1442,1.68-1.6793,2.5166-2.514,2.9057-2.89-.5367.59-1.5808,1.7665-2.6055,3.1108.5583.3975,1.2951.88,2.2838,1.5394.6809.4539,1.4579.9863,2.2852,1.5614.1048-.1208.211-.2411.3117-.3632-.0924.1267-.1812.2606-.2723.3907,1.658,1.1532,3.5243,2.4842,5.3179,3.7775.5516-.42,1.0514-.8289,1.4595-1.1752C621.8224,335.6622,621.3737,336.11,620.9306,336.5972Z" fill="#19171a" opacity="0.15"/>
      <path d="M629.5168,311.469,649.932,329.98s0,6.4508-9.9443-1.505c-7.5-6.0006-9.349-7.0165-9.349-7.0165s9.91,7.0088,8.6946,10.2785c-1.3663,3.6757-3.04,1.7859-5.2689.2146-2.8422-2.004,2.7446,2.7964,1.6227,4.4792s-2.4707,1.554-4.4875,1.4024c-.8829-.0664-.1255,1.2274-1.2474,2.4428-.269.2914-2.1182,2.241-9.13-5.9908s-11.7331-11.0872-11.7331-11.0872h-5.1339l-5.29-15.9189s18.511-3.9437,21.3157-5.6266C619.9808,301.6525,630.6387,302.7744,629.5168,311.469Z" fill="url(#linear-gradient-114)"/>
      <path d="M613.8716,313.06s1.0607,4.0185,6.1092,3.1771,7.152-2.9487,10.0969-2.2456,6.7313,3.7882,6.7313,3.7882-6.8715-10.9062-8.975-10.5016S613.8716,313.06,613.8716,313.06Z" fill="#19171a" opacity="0.15"/>
      <path d="M654.2935,313.9914l-23.9353-14.3022s-6.7313,2.8047-8.975,3.6462-2.8047,6.17-6.4509,8.1336,2.5243,5.6057,7.8532,2.5224,6.7313-2.5224,6.7313-2.5224l19.4651,17.006Z" fill="url(#linear-gradient-115)"/>
      <path d="M654.2935,313.9914,648.98,328.4673l-1.4049-1.2216L629.51,311.4718s-1.39-.565-6.7189,2.52a8.5512,8.5512,0,0,1-6.2455.9773c-2.4889-.6109-3.7563-2.3517-1.6186-3.4969,3.65-1.97,4.2146-7.2991,6.4593-8.139s8.9788-3.65,8.9788-3.65l23.8823,14.2928Z" fill="url(#linear-gradient-116)"/>
      <path d="M634.0644,331.9516l-3.1453-3.4843S631.6,332.3806,634.0644,331.9516Z" fill="#19171a" opacity="0.15"/>
      <path d="M630.3167,337.7668l-3.8851-4.5614S627.8912,338.2614,630.3167,337.7668Z" fill="#19171a" opacity="0.15"/>
      <path d="M630.6387,321.4585l-2.2645-2.84S628.6754,323.1742,630.6387,321.4585Z" fill="#19171a" opacity="0.15"/>
    </g>
    <g id="Buyer">
      <g id="Leg-2" data-name="Leg">
        <path d="M718.295,614.6966s1.517,4.952,10.4041,3.4213c8.8719-1.5295,11.8674-6.5553,11.8674-6.5553l.4483-16.1622-20.7661,1.6083Z" fill="url(#linear-gradient-117)"/>
        <path d="M740.8266,602.1843l.1882-6.784-20.7661,1.6083-.1715,1.5528C725.6148,599.6308,734.8085,601.185,740.8266,602.1843Z" fill="#19171a" opacity="0.15"/>
        <path d="M826.6924,614.9335s-1.13,5.0544-10.1088,4.2145c-8.9635-.84-12.3382-5.6194-12.3382-5.6194l-1.6949-16.0793h20.8283Z" fill="url(#linear-gradient-118)"/>
        <polygon points="823.379 597.449 802.55 597.449 802.831 600.113 824.405 602.866 823.379 597.449" fill="#19171a" opacity="0.15"/>
        <path d="M843.7948,662.3317c-20.7519-1.68-22.172-14.5829-29.1657-17.9423-7.009-3.3747-7.009-1.68-8.704-13.4682a139.59,139.59,0,0,1-1.68-17.3926s3.3747,4.7795,12.3382,5.6194c8.9788.84,10.1088-4.2145,10.1088-4.2145s10.0935,10.1088,21.5918,22.7217C859.7826,650.2836,864.5468,664.0266,843.7948,662.3317Z" fill="#19171a"/>
        <path d="M823.3788,597.4493H799.8629s-16.9039-79.6028-28.9214-127.3064c-12.0328-47.7037-17.8507-62.821-17.8507-62.821l-6.3371-6.2-4.581,196.3271H718.5194s-17.1941-191.4712-13.8347-220.6369,18.3241-42.5272,18.3241-42.5272l76.8541,42.5272Z" fill="url(#linear-gradient-119)"/>
        <path d="M799.8629,376.8124l-31.3-17.32c-18.33,1.9343-47.7866,5.0069-61.97,6.4848a91.1687,91.1687,0,0,0-1.8316,10.246c5.7678,5.9215,16.3884,12.8577,35.3686,15.1109,35.2317,4.1825,2.241,3.6664,2.241,3.6664s1.6772,2.7264,4.3409,7.9284l.0422-1.8067,6.3371,6.2s2.3088,6.0032,7.0211,22.351c3.3361.87,3.4523-15.3383,3.7022-25.41.2454-9.8871,24.66-10.04,37.877-10.298Z" fill="#19171a" opacity="0.15"/>
        <path d="M704.9036,663.2738c20.56-3.2771,20.98-16.2514,27.6933-20.1408,6.7274-3.9058,6.8583-2.216,7.6379-14.1a139.5907,139.5907,0,0,0,.3317-17.47s-2.9955,5.0258-11.8674,6.5553c-8.8871,1.5307-10.4041-3.4213-10.4041-3.4213s-9.2828,10.8579-19.7728,24.3211C688.0333,652.4962,684.3444,666.5661,704.9036,663.2738Z" fill="#19171a"/>
      </g>
      <g id="Body-2" data-name="Body">
        <path d="M843.7948,380.752l-16.8275,6.1691-3.5885-7.9251-32.3114-71.1738s-3.9244,21.882.565,37.03c4.4894,15.1326,8.2305,31.96,8.2305,31.96s-34.037,7.864-56.4687,6.734a154.0023,154.0023,0,0,1-38.7095-6.734v-68.99s-19.393,35.564-29.4865,40.6031c-6.0622,3.0387-15.53-1.42-22.1262-5.4667a79.9221,79.9221,0,0,1-7.4977-5.1918l8.7192-23.7754,9.2231,5.8636,5.2682,3.3441s22.9967-61.1871,28.6008-71.6623a19.5912,19.5912,0,0,1,2.9777-4.016c4.5657-4.9322,12.0633-9.6354,17.9423-12.8879,4.8711-2.7028,8.6276-4.413,8.6276-4.413l28.9825-1.4965s4.2145,1.71,9.6813,4.26c8.1847,3.8327,19.1944,9.5437,23.2256,14.2621,5.5736,6.49,39.5648,93.6513,51.1242,123.5348C842.3594,377.0108,843.7948,380.752,843.7948,380.752Z" fill="url(#linear-gradient-120)"/>
        <path d="M773.6387,249.6535c.0857-1.3171-2.2594-8.8094-4.2344-14.8422-1.3088-.643-2.5911-1.258-3.8073-1.8275-.4549-.2123-.8971-.4162-1.3329-.6162-2.3354,5.1559-5.83,12.99-8.3487,19.1692-4.1136,10.0919-14.9585,10.4759-21.75,6.1676s-16.1885-21.2933-16.1885-21.2933C722.6693,304.3,773.4915,251.9158,773.6387,249.6535Z" fill="#19171a" opacity="0.15"/>
        <path d="M793.74,296.4078c-6.9793-14.36-5.8384-40.3836-5.1849-49.4491a29.897,29.897,0,0,0-5.2223-4.3152c-4.5817.0047-10.494,2.509-11.3368,15.0609-.8544,12.7243,9.6844,39.2623,18.0467,58.0559.4567-4.7628,1.025-7.9381,1.025-7.9381l9.1039,20.0537C800.0752,319.6624,798.936,307.0994,793.74,296.4078Z" fill="#19171a" opacity="0.15"/>
        <path d="M665.6974,340.276c-2.3721,2.6683-12.9977-7.7565-16.7782-11.63l-2.519,6.869c-.0449.9108-.0633,1.8655-.0453,2.8559,1.1776.8961,3.6168,2.6866,6.7171,4.5878,6.5966,4.0466,16.064,8.5054,22.1262,5.4667,10.0935-5.0391,29.4865-40.6031,29.4865-40.6031v23.17c8.3755-17.6975,16.0315-38.3943,12.3388-53.5191-3.6458-14.9328-6.9313-29.6309-12.1248-34.0861a41.9935,41.9935,0,0,0-4.5354,4.1337,23.65,23.65,0,0,0-1.8043,2.1759c2.3776,8.4232,5.921,25.0358,1.8043,38.7263-5.7774,19.2129-16.2483,23.786-19.9879,34.775s-7.8038,2.4049-11.5906.0011S668.5957,337.0158,665.6974,340.276Z" fill="#19171a" opacity="0.15"/>
        <path d="M799.8629,376.8124s-1.5728.3664-4.2451.9161c-.1832.0458-.3817.0764-.58.1222-.7177.1527-1.527.3053-2.3822.4887a3.3472,3.3472,0,0,0-.3817.0763c-5.0085.9773-12.0175,2.2446-19.6678,3.2983a3.8541,3.8541,0,0,0-.4123.0611c-.7788.0916-1.5881.1984-2.3821.3053-.1833.0153-.3513.0459-.5345.0612a185.3262,185.3262,0,0,1-19.0417,1.4964c-.6566,0-1.3133.0153-1.9546.0153-.3359,0-.6719,0-1.0078-.0153-.6566.0153-1.3133,0-1.9393-.03-.6566,0-1.3132-.0305-1.9394-.0611a167.8219,167.8219,0,0,1-17.1788-1.7713c-.3359-.0611-.6718-.1069-1.0077-.168-.6414-.1069-1.2828-.2137-1.9088-.3206-.29-.0459-.58-.1069-.8551-.1528a129.7207,129.7207,0,0,1-17.7591-4.3213v-68.99s7.07-42.069-4.3214-60.3014c4.5657-4.9322,12.0633-9.6354,17.9423-12.8879,2.1836,7.406,6.7035,19.82,13.6667,25.5162,10.292,8.4139,22.6608,1.4965,28.8145-13.4681a121.4411,121.4411,0,0,0,4.81-13.6972c8.1847,3.8327,19.1944,9.5437,23.2256,14.2621,0,0-11.59,19.4236,2.2448,60.5763,0,0-3.9244,21.882.565,37.03,2.6264,8.8414,4.9933,18.263,6.505,24.57.2749,1.0994.5039,2.1073.7177,3.0082v.0152C799.4965,375.1632,799.8629,376.8124,799.8629,376.8124Z" fill="url(#linear-gradient-121)"/>
        <path d="M779.5767,277.5289c.2722,24.4976-4.5893-3.0305-7.581-6.6557s-6.0743,27.6212,2.1983,49.3941S786.58,349.8934,784.71,363.356a55.1087,55.1087,0,0,0,.4372,16.3826c8.6662-1.5306,14.7154-2.9262,14.7154-2.9262s-3.7411-16.8277-8.2305-31.96c-4.4894-15.1479-.565-37.03-.565-37.03-13.8347-41.1527-2.2448-60.5763-2.2448-60.5763S779.3045,253.0313,779.5767,277.5289Z" fill="#19171a" opacity="0.25"/>
        <g>
          <path d="M883.9033,433.6781l8.5955,48.8621a3.0436,3.0436,0,0,1-2.4787,3.537l-69.39,12.2067a3.0533,3.0533,0,0,1-3.537-2.4787l-8.5955-48.8621a3.0461,3.0461,0,0,1,.5887-2.3828,3.0033,3.0033,0,0,1,1.89-1.1541l69.3906-12.2068a2.9351,2.9351,0,0,1,2.17.44A3.02,3.02,0,0,1,883.9033,433.6781Z" fill="url(#linear-gradient-122)"/>
          <path d="M826.4982,491.936a3.0948,3.0948,0,0,1-3.04-2.5532l-6.7856-38.5758a3.064,3.064,0,0,1,.591-2.4078,3.0311,3.0311,0,0,1,1.9146-1.1675l54.7823-9.6377a2.9728,2.9728,0,0,1,2.2121.4535,3.0476,3.0476,0,0,1,1.3645,2.0521l6.7857,38.5759a3.0927,3.0927,0,0,1-2.5056,3.5766l-54.7824,9.6363A3.0954,3.0954,0,0,1,826.4982,491.936Zm48.01-53.037a1.7894,1.7894,0,0,0-.312.0278l-54.7824,9.6377a1.6954,1.6954,0,0,0-1.0683.6492,1.7322,1.7322,0,0,0-.34,1.3579l6.7856,38.5759a1.7508,1.7508,0,0,0,2.0085,1.4081l54.7823-9.6363a1.7177,1.7177,0,0,0,1.4082-2.0085l-6.7857-38.5758a1.71,1.71,0,0,0-.7708-1.153A1.6375,1.6375,0,0,0,874.5081,438.899Z" fill="#411844"/>
          <path d="M830.6936,484.11a1.1583,1.1583,0,0,1-1.14-.9613l-1.3593-7.7257a1.16,1.16,0,0,1,.2195-.9044,1.1438,1.1438,0,0,1,.7233-.44l10.9718-1.9291a1.1151,1.1151,0,0,1,.8409.1745,1.1377,1.1377,0,0,1,.5025.7656l1.3592,7.7284a1.16,1.16,0,0,1-.94,1.3433l-10.9744,1.93A1.1906,1.1906,0,0,1,830.6936,484.11Zm-1.1318-8.7306,1.2918,7.3449,10.591-1.863-1.2918-7.3449Zm-.19.033h0Zm.156-.2274v0Zm10.82-1.703h0Z" fill="#411844"/>
          <path d="M882.5368,431.6393l-31.3232,37.17L809.0858,444.56a3.0033,3.0033,0,0,1,1.89-1.1541l69.3906-12.2068A2.9351,2.9351,0,0,1,882.5368,431.6393Z" fill="url(#linear-gradient-123)"/>
          <circle cx="851.2136" cy="467.2827" r="4.0689" fill="url(#linear-gradient-124)"/>
          <g>
            <path d="M841.4725,413.4356c11.505-2.0239,22.7077,7.0135,25.0278,20.203l4.7223-.8307c-2.8441-16.167-16.5931-27.2528-30.7-24.7713s-23.2471,17.594-20.4032,33.7611l23.279-4.0952-18.5567,3.2644C822.5218,427.7775,829.9677,415.4594,841.4725,413.4356Z" fill="url(#linear-gradient-125)"/>
            <polygon points="866.5 433.639 843.399 437.703 866.5 433.639 866.5 433.639" fill="url(#linear-gradient-126)"/>
          </g>
        </g>
        <path d="M826.9673,386.9211v19.44l2.6183,5.9211s6.3613-2.9294,9.538,3.054,5.7944,15.3324,9.9079,18.324,1.4959.1335,0-7.7864-2.2437-9.79-2.2437-9.79l2.7574,12.06a.99.99,0,0,0,1.9249-.0407c.3382-1.5444,1.9658-4.06,2.3749-5.5687,1.0143-3.74,1.5439-.4674,1.9178-4.207s-11.968-37.5762-11.968-37.5762Z" fill="url(#linear-gradient-127)"/>
        <path d="M843.7948,380.752l-16.8275,6.1691,18.0727-2.7185C844.2763,382.0726,843.7948,380.752,843.7948,380.752Z" fill="#19171a" opacity="0.15"/>
        <path d="M843.7948,380.752l-16.8275,6.1691-3.5885-7.9251,16.568-8.2153C842.3594,377.0108,843.7948,380.752,843.7948,380.752Z" fill="url(#linear-gradient-128)"/>
        <path d="M663.5166,319.855,653.072,342.9586a79.9221,79.9221,0,0,1-7.4977-5.1918l8.7192-23.7754Z" fill="url(#linear-gradient-129)"/>
        <path d="M849.5452,428.1446l-2.7574-12.06s4.2178,8.0572,3.7108,10.9752S849.5452,428.1446,849.5452,428.1446Z" fill="#19171a" opacity="0.15"/>
        <path d="M852.9089,424.7435a47.2223,47.2223,0,0,0-.9292-4.75,22.4469,22.4469,0,0,0-1.4811-3.9089S854.87,419.5194,852.9089,424.7435Z" fill="#19171a" opacity="0.15"/>
        <g opacity="0.2">
          <path d="M770.9872,374.3233a12.7821,12.7821,0,0,0-23.2105.6413,12.6055,12.6055,0,0,0-1.0383,5.0391,12.4531,12.4531,0,0,0,.5345,3.6343c.3359.0153.6719.0153,1.0078.0153.6413,0,1.298-.0153,1.9546-.0153a9.9758,9.9758,0,1,1,19.0417-1.4964c.1832-.0153.3512-.0459.5345-.0612.794-.1069,1.6033-.2137,2.3821-.3053a13.6135,13.6135,0,0,0,.1221-1.7714A12.6451,12.6451,0,0,0,770.9872,374.3233Z" fill="#f3faff"/>
          <path d="M793.8923,374.3233a12.774,12.774,0,0,0-22.9051,0,12.4575,12.4575,0,0,0-1.3437,5.68,13.2912,13.2912,0,0,0,.168,2.0767c.794-.1069,1.6033-.2137,2.3821-.3053a3.8541,3.8541,0,0,1,.4123-.0611,9.0119,9.0119,0,0,1-.1527-1.71,9.9728,9.9728,0,0,1,19.82-1.588,3.3472,3.3472,0,0,1,.3817-.0763c.8552-.1834,1.6645-.336,2.3822-.4887A12.4138,12.4138,0,0,0,793.8923,374.3233Z" fill="#f3faff"/>
          <path d="M798.1374,369.4216a12.6726,12.6726,0,0,0-4.2451,4.9017,12.3135,12.3135,0,0,0-1.2369,4.0161c.8552-.1834,1.6645-.336,2.3822-.4887.1985-.0458.397-.0764.58-.1222a9.7715,9.7715,0,0,1,3.2373-5.2835V372.43C798.6413,371.5289,798.4123,370.521,798.1374,369.4216Z" fill="#f3faff"/>
          <path d="M747.7767,374.9646a12.778,12.778,0,0,0-23.5,0,12.6038,12.6038,0,0,0-1.0383,5.0391,12,12,0,0,0,.061,1.2828c.626.1069,1.2674.2137,1.9088.3206.3359.0611.6718.1069,1.0077.168a9.5482,9.5482,0,0,1-.1679-1.7714,9.979,9.979,0,1,1,19.2861,3.6038c.626.03,1.2827.0458,1.9393.03.3359.0153.6719.0153,1.0078.0153a12.7375,12.7375,0,0,0-.504-8.6887Z" fill="#f3faff"/>
          <path d="M724.2762,374.9646a12.78,12.78,0,0,0-19.5915-5.07v3.955a9.9652,9.9652,0,0,1,17.82,6.1537,9.1964,9.1964,0,0,1-.061,1.13c.2748.0459.565.1069.8551.1528.626.1069,1.2674.2137,1.9088.3206a11.0261,11.0261,0,0,0,.1069-1.6034A12.6038,12.6038,0,0,0,724.2762,374.9646Z" fill="#f3faff"/>
        </g>
        <path d="M854.53,420.8146l-1.1149-4.73S855.4468,418.3928,854.53,420.8146Z" fill="#19171a" opacity="0.15"/>
      </g>
      <g id="Head">
        <path d="M768.18,203.2534s3.3015-21.3654-1.2387-36.8553-29.6445-17.0923-41.1284-17.6265-29.11,7.4779-20.03,20.03,9.8815,17.8935,10.6827,23.5019,8.2791,8.626,12.018,7.9185S768.18,203.2534,768.18,203.2534Z" fill="#19171a"/>
        <path d="M756.1691,210.5182l-.2534,18.2052s-8.2928,17.0828-14.3463,14.2341S728.5721,230.85,728.5721,230.85V220.88Z" fill="url(#linear-gradient-130)"/>
        <path d="M742.9047,228.7234c5.7544-2.1989,10.8271-9.4839,13.2644-13.4776v-2.4684l-9.5858,1.34L728.5721,220.88v6.0926C732.4342,228.7445,738.131,230.5475,742.9047,228.7234Z" fill="#19171a" opacity="0.15"/>
        <path d="M719.1357,176.3686s-1.78,31.2371,3.917,41.6131,19.585,6.4591,26.3507,1.83,9.6144-8.9023,9.6144-8.9023,3.5609,0,7.1218-3.5609,2.1366-14.2436-1.78-13.1753-6.41,6.2864-6.41,6.2864-4.2731-3.4377-4.2731-11.6277-3.5649-11.3949-10.1506-12.4632S719.1357,176.3686,719.1357,176.3686Z" fill="url(#linear-gradient-131)"/>
        <path d="M760.7552,196.4862A16.9826,16.9826,0,0,0,757.95,200.46a10.877,10.877,0,0,1-2.4919-3.4153l-.0008.0038c-1.78,9.6407-7.1218,12.437-10.3266,9.2321s-8.19-4.2731-14.2436-3.2047-7.4779,11.0387-9.2584,3.2047a8.04,8.04,0,0,0-2.18-4.3239c.5662,6.3977,1.6413,12.45,3.6045,16.0255,5.6974,10.3761,19.585,6.459,26.3507,1.83a43.4782,43.4782,0,0,0,8.3063-7.2494h0C760.6229,205.1688,760.9816,199.7675,760.7552,196.4862Z" fill="#19171a"/>
        <path d="M731.243,202.1624c-2.3309,0-3.1345-3.1041-3.1675-3.2359a.5185.5185,0,0,1,.002-.2566l2.6714-9.9706a.5115.5115,0,0,1,.9882.2645l-2.6354,9.8339c.1518.4952.8066,2.3424,2.1413,2.3424a.5112.5112,0,0,1,0,1.0223Z" fill="#aa6743"/>
        <path d="M747.0884,180.4406a.5119.5119,0,0,1-.3873-.1772c-3.0317-3.5108-7.8324-.07-8.035.0784a.5111.5111,0,0,1-.604-.8246c.0569-.0419,5.764-4.1462,9.4137.0784a.511.511,0,0,1-.3874.845Z" fill="#aa6743"/>
        <path d="M722.37,180.4406a.51.51,0,0,1-.3863-.845c3.6467-4.2261,9.3547-.12,9.4126-.0784a.511.511,0,0,1-.6039.8246c-.2027-.1477-5.0043-3.5882-8.036-.0784A.5085.5085,0,0,1,722.37,180.4406Z" fill="#aa6743"/>
        <ellipse cx="742.9047" cy="188.2086" rx="1.3353" ry="2.9377" fill="#19171a"/>
        <ellipse cx="725.4563" cy="188.2086" rx="1.3353" ry="2.9377" fill="#19171a"/>
        <polygon points="742.638 243.29 748.81 251.542 755.915 228.73 742.638 243.29" fill="url(#linear-gradient-132)"/>
        <polygon points="742.638 243.29 735.161 251.542 726.933 230.226 728.572 230.135 728.572 230.85 742.638 243.29" fill="url(#linear-gradient-133)"/>
        <path d="M731.2428,215.0807l8.8868-4.5625S739.1857,220.9294,731.2428,215.0807Z" fill="#ff7479"/>
        <path d="M734.4787,216.7335a26.94,26.94,0,0,1,2.6089-4.6535l-5.8448,3.0007A9.268,9.268,0,0,0,734.4787,216.7335Z" fill="#19171a" opacity="0.15"/>
      </g>
    </g>
  </g>
</svg>
